<?xml version="1.0" encoding="UTF-8" standalone="no"?>
<svg
   xmlns:dc="http://purl.org/dc/elements/1.1/"
   xmlns:cc="http://creativecommons.org/ns#"
   xmlns:rdf="http://www.w3.org/1999/02/22-rdf-syntax-ns#"
   xmlns:svg="http://www.w3.org/2000/svg"
   xmlns="http://www.w3.org/2000/svg"
   xmlns:xlink="http://www.w3.org/1999/xlink"
   xmlns:sodipodi="http://sodipodi.sourceforge.net/DTD/sodipodi-0.dtd"
   xmlns:inkscape="http://www.inkscape.org/namespaces/inkscape"
   width="600"
   height="480"
   viewBox="0 0 600 480"
   id="svg2"
   version="1.1"
   inkscape:version="0.48.4 r9939"
   sodipodi:docname="diversity-both.svg">
  <metadata
     id="metadata251">
    <rdf:RDF>
      <cc:Work
         rdf:about="">
        <dc:format>image/svg+xml</dc:format>
        <dc:type
           rdf:resource="http://purl.org/dc/dcmitype/StillImage" />
      </cc:Work>
    </rdf:RDF>
  </metadata>
  <defs
     id="defs249">
    <marker
       inkscape:stockid="Arrow1Lend"
       orient="auto"
       refY="0.0"
       refX="0.0"
       id="Arrow1Lend"
       style="overflow:visible;">
      <path
         id="path4030"
         d="M 0.0,0.0 L 5.0,-5.0 L -12.5,0.0 L 5.0,5.0 L 0.0,0.0 z "
         style="fill-rule:evenodd;stroke:#000000;stroke-width:1.0pt;"
         transform="scale(0.8) rotate(180) translate(12.5,0)" />
    </marker>
    <marker
       inkscape:stockid="Arrow1Lend"
       orient="auto"
       refY="0"
       refX="0"
       id="Arrow1Lend-1"
       style="overflow:visible">
      <path
         inkscape:connector-curvature="0"
         id="path4030-5"
         d="M 0,0 5,-5 -12.5,0 5,5 0,0 z"
         style="fill-rule:evenodd;stroke:#000000;stroke-width:1pt"
         transform="matrix(-0.8,0,0,-0.8,-10,0)" />
    </marker>
    <marker
       inkscape:stockid="Arrow1Lend"
       orient="auto"
       refY="0"
       refX="0"
       id="Arrow1Lend-3"
       style="overflow:visible">
      <path
         inkscape:connector-curvature="0"
         id="path4030-8"
         d="M 0,0 5,-5 -12.5,0 5,5 0,0 z"
         style="fill-rule:evenodd;stroke:#000000;stroke-width:1pt"
         transform="matrix(-0.8,0,0,-0.8,-10,0)" />
    </marker>
    <marker
       inkscape:stockid="Arrow1Lend"
       orient="auto"
       refY="0"
       refX="0"
       id="Arrow1Lend-8"
       style="overflow:visible">
      <path
         inkscape:connector-curvature="0"
         id="path4030-58"
         d="M 0,0 5,-5 -12.5,0 5,5 0,0 z"
         style="fill-rule:evenodd;stroke:#000000;stroke-width:1pt"
         transform="matrix(-0.8,0,0,-0.8,-10,0)" />
    </marker>
  </defs>
  <sodipodi:namedview
     pagecolor="#ffffff"
     bordercolor="#666666"
     borderopacity="1"
     objecttolerance="10"
     gridtolerance="10"
     guidetolerance="10"
     inkscape:pageopacity="0"
     inkscape:pageshadow="2"
     inkscape:window-width="1920"
     inkscape:window-height="1124"
     id="namedview247"
     showgrid="true"
     inkscape:snap-global="false"
     inkscape:zoom="0.98333333"
     inkscape:cx="506.54131"
     inkscape:cy="194.19921"
     inkscape:window-x="0"
     inkscape:window-y="24"
     inkscape:window-maximized="1"
     inkscape:current-layer="svg2">
    <inkscape:grid
       type="xygrid"
       id="grid4725" />
  </sodipodi:namedview>
  <title
     id="title4">Gnuplot</title>
  <desc
     id="desc6">Produced by GNUPLOT 4.6 patchlevel 3 </desc>
  <g
     id="gnuplot_canvas">
    <rect
       x="0"
       y="0"
       width="600"
       height="480"
       fill="none"
       id="rect9" />
    <defs
       id="defs11">
      <circle
         id="gpDot"
         r="0.5"
         stroke-width="0.5" />
      <path
         id="gpPt0"
         stroke-width="0.222"
         stroke="currentColor"
         d="M-1,0 h2 M0,-1 v2" />
      <path
         id="gpPt1"
         stroke-width="0.222"
         stroke="currentColor"
         d="M-1,-1 L1,1 M1,-1 L-1,1" />
      <path
         id="gpPt2"
         stroke-width="0.222"
         stroke="currentColor"
         d="M-1,0 L1,0 M0,-1 L0,1 M-1,-1 L1,1 M-1,1 L1,-1" />
      <rect
         id="gpPt3"
         stroke-width="0.222"
         stroke="currentColor"
         x="-1"
         y="-1"
         width="2"
         height="2" />
      <rect
         id="gpPt4"
         stroke-width="0.222"
         stroke="currentColor"
         fill="currentColor"
         x="-1"
         y="-1"
         width="2"
         height="2" />
      <circle
         id="gpPt5"
         stroke-width="0.222"
         stroke="currentColor"
         cx="0"
         cy="0"
         r="1" />
      <use
         xlink:href="#gpPt5"
         id="gpPt6"
         fill="currentColor"
         stroke="none" />
      <path
         id="gpPt7"
         stroke-width="0.222"
         stroke="currentColor"
         d="M0,-1.33 L-1.33,0.67 L1.33,0.67 z" />
      <use
         xlink:href="#gpPt7"
         id="gpPt8"
         fill="currentColor"
         stroke="none" />
      <use
         xlink:href="#gpPt7"
         id="gpPt9"
         stroke="currentColor"
         transform="rotate(180)" />
      <use
         xlink:href="#gpPt9"
         id="gpPt10"
         fill="currentColor"
         stroke="none" />
      <use
         xlink:href="#gpPt3"
         id="gpPt11"
         stroke="currentColor"
         transform="rotate(45)" />
      <use
         xlink:href="#gpPt11"
         id="gpPt12"
         fill="currentColor"
         stroke="none" />
    </defs>
    <g
       style="fill:none; color:white; stroke:black; stroke-width:1.00; stroke-linecap:butt; stroke-linejoin:miter"
       id="g27" />
    <g
       style="fill:none; color:black; stroke:currentColor; stroke-width:1.00; stroke-linecap:butt; stroke-linejoin:miter"
       id="g29">
      <path
         stroke="black"
         d="M63.6,422.4 L72.6,422.4 M575.0,422.4 L566.0,422.4  h0.01"
         id="path31" />
      <g
         transform="translate(55.3,426.9)"
         style="stroke:none; fill:black; font-family:Arial; font-size:12.00pt; text-anchor:end"
         id="g33">
        <text
           id="text35"> 5</text>
      </g>
      <path
         stroke="black"
         d="M63.6,354.8 L72.6,354.8 M575.0,354.8 L566.0,354.8  h0.01"
         id="path37" />
      <g
         transform="translate(55.3,359.3)"
         style="stroke:none; fill:black; font-family:Arial; font-size:12.00pt; text-anchor:end"
         id="g39">
        <text
           id="text41"> 6</text>
      </g>
      <path
         stroke="black"
         d="M63.6,287.2 L72.6,287.2 M575.0,287.2 L566.0,287.2  h0.01"
         id="path43" />
      <g
         transform="translate(55.3,291.7)"
         style="stroke:none; fill:black; font-family:Arial; font-size:12.00pt; text-anchor:end"
         id="g45">
        <text
           id="text47"> 7</text>
      </g>
      <path
         stroke="black"
         d="M63.6,219.5 L72.6,219.5 M575.0,219.5 L566.0,219.5  h0.01"
         id="path49" />
      <g
         transform="translate(55.3,224.0)"
         style="stroke:none; fill:black; font-family:Arial; font-size:12.00pt; text-anchor:end"
         id="g51">
        <text
           id="text53"> 8</text>
      </g>
      <path
         stroke="black"
         d="M63.6,151.9 L72.6,151.9 M575.0,151.9 L566.0,151.9  h0.01"
         id="path55" />
      <g
         transform="translate(55.3,156.4)"
         style="stroke:none; fill:black; font-family:Arial; font-size:12.00pt; text-anchor:end"
         id="g57">
        <text
           id="text59"> 9</text>
      </g>
      <path
         stroke="black"
         d="M63.6,84.3 L72.6,84.3 M575.0,84.3 L566.0,84.3  h0.01"
         id="path61" />
      <g
         transform="translate(55.3,88.8)"
         style="stroke:none; fill:black; font-family:Arial; font-size:12.00pt; text-anchor:end"
         id="g63">
        <text
           id="text65"> 10</text>
      </g>
      <path
         stroke="black"
         d="M63.6,16.7 L72.6,16.7 M575.0,16.7 L566.0,16.7  h0.01"
         id="path67" />
      <g
         transform="translate(55.3,21.2)"
         style="stroke:none; fill:black; font-family:Arial; font-size:12.00pt; text-anchor:end"
         id="g69">
        <text
           id="text71"> 11</text>
      </g>
      <path
         stroke="black"
         d="M575.0,422.4 L575.0,413.4 M575.0,16.7 L575.0,25.7  h0.01"
         id="path73" />
      <g
         transform="translate(575.0,444.9)"
         style="stroke:none; fill:black; font-family:Arial; font-size:12.00pt; text-anchor:middle"
         id="g75">
        <text
           id="text77">1</text>
      </g>
      <path
         stroke="black"
         d="M528.5,422.4 L528.5,413.4 M528.5,16.7 L528.5,25.7  h0.01"
         id="path79" />
      <g
         transform="translate(528.5,444.9)"
         style="stroke:none; fill:black; font-family:Arial; font-size:12.00pt; text-anchor:middle"
         id="g81">
        <text
           id="text83">2</text>
      </g>
      <path
         stroke="black"
         d="M482.0,422.4 L482.0,413.4 M482.0,16.7 L482.0,25.7  h0.01"
         id="path85" />
      <g
         transform="translate(482.0,444.9)"
         style="stroke:none; fill:black; font-family:Arial; font-size:12.00pt; text-anchor:middle"
         id="g87">
        <text
           id="text89">4</text>
      </g>
      <path
         stroke="black"
         d="M435.5,422.4 L435.5,413.4 M435.5,16.7 L435.5,25.7  h0.01"
         id="path91" />
      <g
         transform="translate(435.5,444.9)"
         style="stroke:none; fill:black; font-family:Arial; font-size:12.00pt; text-anchor:middle"
         id="g93">
        <text
           id="text95">8</text>
      </g>
      <path
         stroke="black"
         d="M389.0,422.4 L389.0,413.4 M389.0,16.7 L389.0,25.7  h0.01"
         id="path97" />
      <g
         transform="translate(389.0,444.9)"
         style="stroke:none; fill:black; font-family:Arial; font-size:12.00pt; text-anchor:middle"
         id="g99">
        <text
           id="text101">16</text>
      </g>
      <path
         stroke="black"
         d="M342.5,422.4 L342.5,413.4 M342.5,16.7 L342.5,25.7  h0.01"
         id="path103" />
      <g
         transform="translate(342.5,444.9)"
         style="stroke:none; fill:black; font-family:Arial; font-size:12.00pt; text-anchor:middle"
         id="g105">
        <text
           id="text107">32</text>
      </g>
      <path
         stroke="black"
         d="M296.1,422.4 L296.1,413.4 M296.1,16.7 L296.1,25.7  h0.01"
         id="path109" />
      <g
         transform="translate(296.1,444.9)"
         style="stroke:none; fill:black; font-family:Arial; font-size:12.00pt; text-anchor:middle"
         id="g111">
        <text
           id="text113">64</text>
      </g>
      <path
         stroke="black"
         d="M249.6,422.4 L249.6,413.4 M249.6,16.7 L249.6,25.7  h0.01"
         id="path115" />
      <g
         transform="translate(249.6,444.9)"
         style="stroke:none; fill:black; font-family:Arial; font-size:12.00pt; text-anchor:middle"
         id="g117">
        <text
           id="text119">128</text>
      </g>
      <path
         stroke="black"
         d="M203.1,422.4 L203.1,413.4 M203.1,16.7 L203.1,25.7  h0.01"
         id="path121" />
      <g
         transform="translate(203.1,444.9)"
         style="stroke:none; fill:black; font-family:Arial; font-size:12.00pt; text-anchor:middle"
         id="g123">
        <text
           id="text125">256</text>
      </g>
      <path
         stroke="black"
         d="M156.6,422.4 L156.6,413.4 M156.6,16.7 L156.6,25.7  h0.01"
         id="path127" />
      <g
         transform="translate(156.6,444.9)"
         style="stroke:none; fill:black; font-family:Arial; font-size:12.00pt; text-anchor:middle"
         id="g129">
        <text
           id="text131">512</text>
      </g>
      <path
         stroke="black"
         d="M110.1,422.4 L110.1,413.4 M110.1,16.7 L110.1,25.7  h0.01"
         id="path133" />
      <g
         transform="translate(110.1,444.9)"
         style="stroke:none; fill:black; font-family:Arial; font-size:12.00pt; text-anchor:middle"
         id="g135">
        <text
           id="text137">1024</text>
      </g>
      <path
         stroke="black"
         d="M63.6,422.4 L63.6,413.4 M63.6,16.7 L63.6,25.7  h0.01"
         id="path139" />
      <g
         transform="translate(63.6,444.9)"
         style="stroke:none; fill:black; font-family:Arial; font-size:12.00pt; text-anchor:middle"
         id="g141">
        <text
           id="text143">2048</text>
      </g>
      <path
         stroke="black"
         d="M63.6,16.7 L63.6,422.4 L575.0,422.4 L575.0,16.7 L63.6,16.7 Z  h0.01"
         id="path145" />
      <g
         transform="translate(17.6,219.6) rotate(270)"
         style="stroke:none; fill:black; font-family:Arial; font-size:12.00pt; text-anchor:middle"
         id="g147">
        <text
           id="text149">Throughput (Mbps)</text>
      </g>
      <g
         transform="translate(319.3,471.9)"
         style="stroke:none; fill:black; font-family:Arial; font-size:12.00pt; text-anchor:middle"
         id="g151">
        <text
           id="text153">Queueing delay (ms)</text>
      </g>
    </g>
    <g
       id="gnuplot_plot_1">
      <title
         id="title156">gnuplot_plot_1</title>
      <g
         style="fill:none; color:white; stroke:black; stroke-width:2.00; stroke-linecap:butt; stroke-linejoin:miter"
         id="g158" />
      <g
         style="fill:none; color:red; stroke:currentColor; stroke-width:2.00; stroke-linecap:butt; stroke-linejoin:miter"
         id="g160">
        <path
           stroke="rgb(255,   0,   0)"
           d="M93.3,40.8 L93.4,40.9 L93.5,40.9 L93.6,41.0 L93.7,41.1 L93.8,41.2 L93.8,41.3 L93.9,41.3    L93.9,41.4 L93.9,41.5 L94.0,41.6 L94.0,41.7 L94.1,41.8 L94.1,41.9 L94.2,42.0 L94.2,42.1    L94.2,42.2 L94.3,42.4 L94.3,42.5 L94.4,42.6 L94.4,42.8 L94.4,42.9 L94.5,43.1 L94.5,43.3    L94.6,43.4 L94.6,43.6 L94.6,43.8 L94.7,43.9 L94.7,44.1 L94.7,44.3 L94.8,44.5 L94.8,44.7    L94.9,44.9 L94.9,45.1 L94.9,45.4 L95.0,45.6 L95.0,45.8 L95.0,46.1 L95.1,46.3 L95.1,46.5    L95.1,46.8 L95.2,47.0 L95.2,47.3 L95.2,47.6 L95.3,47.8 L95.3,48.1 L95.3,48.4 L95.4,48.7    L95.4,49.0 L95.4,49.3 L95.5,49.6 L95.5,49.9 L95.5,50.2 L95.6,50.5 L95.6,50.8 L95.6,51.1    L95.6,51.5 L95.7,51.8 L95.7,52.1 L95.7,52.5 L95.8,52.8 L95.8,53.2 L95.8,53.5 L95.8,53.9    L95.9,54.3 L95.9,54.6 L95.9,55.0 L95.9,55.4 L96.0,55.8 L96.0,56.2 L96.0,56.6 L96.0,57.0    L96.1,57.4 L96.1,57.8 L96.1,58.2 L96.1,58.6 L96.2,59.0 L96.2,59.4 L96.2,59.9 L96.2,60.3    L96.2,60.7 L96.3,61.2 L96.3,61.6 L96.3,62.1 L96.3,62.5 L96.3,63.0 L96.3,63.4 L96.4,63.9    L96.4,64.4 L96.4,64.8 L96.4,65.3 L96.4,65.8 L96.4,66.3 L96.5,66.8 L96.5,67.3 L96.5,67.8    L96.5,68.3 L96.5,68.8 L96.5,69.3 L96.5,69.8 L96.5,70.3 L96.6,70.8 L96.6,71.3 L96.6,71.8    L96.6,72.4 L96.6,72.9 L96.6,73.4 L96.6,73.9 L96.6,74.5 L96.6,75.0 L96.6,75.6 L96.7,76.1    L96.7,76.7 L96.7,77.2 L96.7,77.8 L96.7,78.3 L96.7,78.9 L96.7,79.4 L96.7,80.0 L96.7,80.6    L96.7,81.1 L96.7,81.7 L96.7,82.3 L96.7,82.9 L96.7,83.4 L96.7,84.0 L96.7,84.6 L96.7,85.2    L96.7,85.8 L96.7,86.4 L96.7,87.0 L96.7,87.6 L96.7,88.2 L96.7,88.8 L96.7,89.4 L96.7,90.0    L96.7,90.6 L96.7,91.2 L96.7,91.8 L96.7,92.4 L96.7,93.0 L96.7,93.6 L96.7,94.2 L96.7,94.8    L96.7,95.5 L96.6,96.1 L96.6,96.7 L96.6,97.3 L96.6,97.9 L96.6,98.6 L96.6,99.2 L96.6,99.8    L96.6,100.4 L96.6,101.1 L96.6,101.7 L96.5,102.3 L96.5,103.0 L96.5,103.6 L96.5,104.2 L96.5,104.9    L96.5,105.5 L96.5,106.1 L96.5,106.8 L96.4,107.4 L96.4,108.0 L96.4,108.7 L96.4,109.3 L96.4,110.0    L96.4,110.6 L96.3,111.2 L96.3,111.9 L96.3,112.5 L96.3,113.2 L96.3,113.8 L96.2,114.4 L96.2,115.1    L96.2,115.7 L96.2,116.4 L96.2,117.0 L96.1,117.6 L96.1,118.3 L96.1,118.9 L96.1,119.5 L96.1,120.2    L96.0,120.8 L96.0,121.5 L96.0,122.1 L96.0,122.7 L95.9,123.4 L95.9,124.0 L95.9,124.6 L95.9,125.3    L95.8,125.9 L95.8,126.5 L95.8,127.2 L95.8,127.8 L95.7,128.4 L95.7,129.0 L95.7,129.7 L95.6,130.3    L95.6,130.9 L95.6,131.5 L95.6,132.1 L95.5,132.8 L95.5,133.4 L95.5,134.0 L95.4,134.6 L95.4,135.2    L95.4,135.8 L95.3,136.4 L95.3,137.1 L95.3,137.7 L95.2,138.3 L95.2,138.9 L95.2,139.5 L95.1,140.1    L95.1,140.7 L95.1,141.3 L95.0,141.9 L95.0,142.4 L95.0,143.0 L94.9,143.6 L94.9,144.2 L94.9,144.8    L94.8,145.4 L94.8,145.9 L94.7,146.5 L94.7,147.1 L94.7,147.7 L94.6,148.2 L94.6,148.8 L94.5,149.4    L94.5,149.9 L94.5,150.5 L94.4,151.0 L94.4,151.6 L94.4,152.1 L94.3,152.7 L94.3,153.2 L94.2,153.7    L94.2,154.3 L94.1,154.8 L94.1,155.3 L94.1,155.9 L94.0,156.4 L94.0,156.9 L93.9,157.4 L93.9,157.9    L93.9,158.5 L93.8,159.0 L93.8,159.5 L93.7,160.0 L93.7,160.5 L93.6,161.0 L93.6,161.4 L93.5,161.9    L93.5,162.4 L93.5,162.9 L93.4,163.4 L93.4,163.8 L93.3,164.3 L93.3,164.8 L93.2,165.2 L93.2,165.7    L93.1,166.1 L93.1,166.6 L93.1,167.0 L93.0,167.5 L93.0,167.9 L92.9,168.3 L92.9,168.8 L92.8,169.2    L92.8,169.6 L92.7,170.0 L92.7,170.4 L92.6,170.8 L92.6,171.2 L92.5,171.6 L92.5,172.0 L92.4,172.4    L92.4,172.8 L92.3,173.2 L92.3,173.6 L92.2,173.9 L92.2,174.3 L92.1,174.7 L92.1,175.0 L92.1,175.4    L92.0,175.7 L92.0,176.1 L91.9,176.4 L91.9,176.7 L91.8,177.1 L91.8,177.4 L91.7,177.7 L91.7,178.0    L91.6,178.3 L91.6,178.6 L91.5,178.9 L91.5,179.2 L91.4,179.5 L91.4,179.8 L91.3,180.1 L91.3,180.4    L91.2,180.6 L91.2,180.9 L91.1,181.2 L91.1,181.4 L91.0,181.7 L91.0,181.9 L90.9,182.2 L90.9,182.4    L90.8,182.6 L90.8,182.8 L90.7,183.1 L90.7,183.3 L90.6,183.5 L90.6,183.7 L90.5,183.9 L90.5,184.1    L90.4,184.3 L90.4,184.4 L90.3,184.6 L90.3,184.8 L90.2,185.0 L90.2,185.1 L90.1,185.3 L90.1,185.4    L90.0,185.6 L90.0,185.7 L89.9,185.8 L89.9,186.0 L89.8,186.1 L89.8,186.2 L89.7,186.3 L89.7,186.4    L89.7,186.5 L89.6,186.6 L89.6,186.7 L89.5,186.8 L89.5,186.9 L89.4,186.9 L89.4,187.0 L89.3,187.1    L89.2,187.2 L89.1,187.2 L89.1,187.3 L89.0,187.3 L88.9,187.3 L88.9,187.4 L88.8,187.4 L88.7,187.3    L88.6,187.3 L88.5,187.2 L88.4,187.1 L88.3,187.0 L88.3,186.9 L88.2,186.9 L88.2,186.8 L88.2,186.7    L88.1,186.6 L88.1,186.5 L88.0,186.4 L88.0,186.3 L87.9,186.2 L87.9,186.1 L87.9,186.0 L87.8,185.8    L87.8,185.7 L87.7,185.6 L87.7,185.4 L87.7,185.3 L87.6,185.1 L87.6,184.9 L87.5,184.8 L87.5,184.6    L87.5,184.4 L87.4,184.2 L87.4,184.1 L87.4,183.9 L87.3,183.7 L87.3,183.5 L87.2,183.3 L87.2,183.0    L87.2,182.8 L87.1,182.6 L87.1,182.4 L87.1,182.1 L87.0,181.9 L87.0,181.7 L87.0,181.4 L86.9,181.2    L86.9,180.9 L86.9,180.6 L86.8,180.4 L86.8,180.1 L86.8,179.8 L86.7,179.5 L86.7,179.2 L86.7,178.9    L86.6,178.6 L86.6,178.3 L86.6,178.0 L86.5,177.7 L86.5,177.4 L86.5,177.1 L86.5,176.7 L86.4,176.4    L86.4,176.1 L86.4,175.7 L86.3,175.4 L86.3,175.0 L86.3,174.6 L86.3,174.3 L86.2,173.9 L86.2,173.5    L86.2,173.2 L86.2,172.8 L86.1,172.4 L86.1,172.0 L86.1,171.6 L86.1,171.2 L86.0,170.8 L86.0,170.4    L86.0,170.0 L86.0,169.6 L86.0,169.2 L85.9,168.7 L85.9,168.3 L85.9,167.9 L85.9,167.5 L85.9,167.0    L85.8,166.6 L85.8,166.1 L85.8,165.7 L85.8,165.2 L85.8,164.7 L85.7,164.3 L85.7,163.8 L85.7,163.3    L85.7,162.9 L85.7,162.4 L85.7,161.9 L85.6,161.4 L85.6,160.9 L85.6,160.4 L85.6,159.9 L85.6,159.4    L85.6,158.9 L85.6,158.4 L85.6,157.9 L85.5,157.4 L85.5,156.9 L85.5,156.4 L85.5,155.8 L85.5,155.3    L85.5,154.8 L85.5,154.3 L85.5,153.7 L85.5,153.2 L85.5,152.6 L85.5,152.1 L85.4,151.5 L85.4,151.0    L85.4,150.4 L85.4,149.9 L85.4,149.3 L85.4,148.8 L85.4,148.2 L85.4,147.6 L85.4,147.1 L85.4,146.5    L85.4,145.9 L85.4,145.3 L85.4,144.8 L85.4,144.2 L85.4,143.6 L85.4,143.0 L85.4,142.4 L85.4,141.8    L85.4,141.2 L85.4,140.6 L85.4,140.0 L85.4,139.4 L85.4,138.8 L85.4,138.2 L85.4,137.6 L85.4,137.0    L85.4,136.4 L85.4,135.8 L85.4,135.2 L85.4,134.6 L85.4,134.0 L85.4,133.4 L85.5,132.7 L85.5,132.1    L85.5,131.5 L85.5,130.9 L85.5,130.3 L85.5,129.6 L85.5,129.0 L85.5,128.4 L85.5,127.7 L85.5,127.1    L85.5,126.5 L85.6,125.9 L85.6,125.2 L85.6,124.6 L85.6,124.0 L85.6,123.3 L85.6,122.7 L85.6,122.1    L85.6,121.4 L85.7,120.8 L85.7,120.1 L85.7,119.5 L85.7,118.9 L85.7,118.2 L85.7,117.6 L85.8,117.0    L85.8,116.3 L85.8,115.7 L85.8,115.0 L85.8,114.4 L85.9,113.8 L85.9,113.1 L85.9,112.5 L85.9,111.8    L85.9,111.2 L86.0,110.6 L86.0,109.9 L86.0,109.3 L86.0,108.7 L86.0,108.0 L86.1,107.4 L86.1,106.7    L86.1,106.1 L86.1,105.5 L86.2,104.8 L86.2,104.2 L86.2,103.6 L86.2,102.9 L86.3,102.3 L86.3,101.7    L86.3,101.0 L86.4,100.4 L86.4,99.8 L86.4,99.2 L86.4,98.5 L86.5,97.9 L86.5,97.3 L86.5,96.7    L86.6,96.0 L86.6,95.4 L86.6,94.8 L86.6,94.2 L86.7,93.6 L86.7,93.0 L86.7,92.4 L86.8,91.7    L86.8,91.1 L86.8,90.5 L86.9,89.9 L86.9,89.3 L86.9,88.7 L87.0,88.1 L87.0,87.5 L87.0,86.9    L87.1,86.3 L87.1,85.8 L87.1,85.2 L87.2,84.6 L87.2,84.0 L87.3,83.4 L87.3,82.8 L87.3,82.3    L87.4,81.7 L87.4,81.1 L87.4,80.5 L87.5,80.0 L87.5,79.4 L87.6,78.8 L87.6,78.3 L87.6,77.7    L87.7,77.2 L87.7,76.6 L87.8,76.1 L87.8,75.5 L87.8,75.0 L87.9,74.5 L87.9,73.9 L88.0,73.4    L88.0,72.9 L88.0,72.3 L88.1,71.8 L88.1,71.3 L88.2,70.8 L88.2,70.2 L88.2,69.7 L88.3,69.2    L88.3,68.7 L88.4,68.2 L88.4,67.7 L88.5,67.2 L88.5,66.7 L88.6,66.3 L88.6,65.8 L88.6,65.3    L88.7,64.8 L88.7,64.4 L88.8,63.9 L88.8,63.4 L88.9,63.0 L88.9,62.5 L89.0,62.1 L89.0,61.6    L89.1,61.2 L89.1,60.7 L89.1,60.3 L89.2,59.9 L89.2,59.4 L89.3,59.0 L89.3,58.6 L89.4,58.2    L89.4,57.8 L89.5,57.4 L89.5,57.0 L89.6,56.6 L89.6,56.2 L89.7,55.8 L89.7,55.4 L89.8,55.0    L89.8,54.6 L89.9,54.3 L89.9,53.9 L90.0,53.5 L90.0,53.2 L90.1,52.8 L90.1,52.5 L90.1,52.1    L90.2,51.8 L90.2,51.5 L90.3,51.1 L90.3,50.8 L90.4,50.5 L90.4,50.2 L90.5,49.9 L90.5,49.6    L90.6,49.3 L90.6,49.0 L90.7,48.7 L90.7,48.4 L90.8,48.1 L90.8,47.8 L90.9,47.6 L90.9,47.3    L91.0,47.0 L91.0,46.8 L91.1,46.5 L91.1,46.3 L91.2,46.0 L91.2,45.8 L91.3,45.6 L91.3,45.4    L91.4,45.1 L91.4,44.9 L91.5,44.7 L91.5,44.5 L91.6,44.3 L91.6,44.1 L91.7,43.9 L91.7,43.8    L91.8,43.6 L91.8,43.4 L91.9,43.2 L91.9,43.1 L92.0,42.9 L92.0,42.8 L92.1,42.6 L92.1,42.5    L92.2,42.4 L92.2,42.2 L92.3,42.1 L92.3,42.0 L92.4,41.9 L92.4,41.8 L92.4,41.7 L92.5,41.6    L92.5,41.5 L92.6,41.4 L92.6,41.3 L92.7,41.3 L92.7,41.2 L92.8,41.1 L92.9,41.0 L93.0,41.0    L93.0,40.9 L93.1,40.9 L93.2,40.9 L93.2,40.8 L93.3,40.8  h0.01"
           id="path162" />
      </g>
    </g>
    <g
       id="gnuplot_plot_2">
      <title
         id="title165">gnuplot_plot_2</title>
      <g
         style="fill:none; color:green; stroke:currentColor; stroke-width:2.00; stroke-linecap:butt; stroke-linejoin:miter"
         id="g167">
        <path
           stroke="rgb(  0,   0, 255)"
           d="M527.2,299.6 L527.3,299.7 L527.4,299.7 L527.4,299.8 L527.5,299.8 L527.6,299.9 L527.7,300.0 L527.7,300.1    L527.8,300.1 L527.8,300.2 L527.9,300.2 L527.9,300.3 L528.0,300.3 L528.0,300.4 L528.0,300.5 L528.1,300.5    L528.1,300.6 L528.2,300.7 L528.2,300.8 L528.3,300.9 L528.4,301.0 L528.4,301.1 L528.4,301.2 L528.5,301.3    L528.5,301.4 L528.6,301.5 L528.6,301.6 L528.6,301.7 L528.7,301.8 L528.7,301.9 L528.7,302.0 L528.7,302.1    L528.8,302.2 L528.8,302.3 L528.8,302.4 L528.9,302.5 L528.9,302.6 L528.9,302.7 L528.9,302.8 L529.0,302.9    L529.0,303.1 L529.0,303.2 L529.0,303.3 L529.1,303.4 L529.1,303.5 L529.1,303.6 L529.1,303.8 L529.1,303.9    L529.1,304.0 L529.2,304.2 L529.2,304.3 L529.2,304.4 L529.2,304.5 L529.2,304.7 L529.2,304.8 L529.3,305.0    L529.3,305.1 L529.3,305.2 L529.3,305.4 L529.3,305.5 L529.3,305.7 L529.3,305.8 L529.3,306.0 L529.3,306.1    L529.3,306.3 L529.4,306.4 L529.4,306.6 L529.4,306.7 L529.4,306.9 L529.4,307.0 L529.4,307.2 L529.4,307.4    L529.4,307.5 L529.4,307.7 L529.4,307.9 L529.4,308.0 L529.4,308.2 L529.4,308.4 L529.4,308.5 L529.4,308.7    L529.4,308.9 L529.4,309.1 L529.4,309.2 L529.4,309.4 L529.4,309.6 L529.4,309.8 L529.3,309.9 L529.3,310.1    L529.3,310.3 L529.3,310.5 L529.3,310.7 L529.3,310.9 L529.3,311.0 L529.3,311.2 L529.3,311.4 L529.2,311.6    L529.2,311.8 L529.2,312.0 L529.2,312.2 L529.2,312.4 L529.2,312.6 L529.1,312.8 L529.1,313.0 L529.1,313.2    L529.1,313.4 L529.1,313.6 L529.1,313.8 L529.0,314.0 L529.0,314.2 L529.0,314.4 L529.0,314.6 L528.9,314.8    L528.9,315.0 L528.9,315.2 L528.9,315.4 L528.8,315.6 L528.8,315.8 L528.8,316.0 L528.8,316.2 L528.7,316.4    L528.7,316.7 L528.7,316.9 L528.6,317.1 L528.6,317.3 L528.6,317.5 L528.5,317.7 L528.5,317.9 L528.5,318.2    L528.4,318.4 L528.4,318.6 L528.4,318.8 L528.3,319.0 L528.3,319.2 L528.2,319.5 L528.2,319.7 L528.2,319.9    L528.1,320.1 L528.1,320.3 L528.0,320.5 L528.0,320.8 L528.0,321.0 L527.9,321.2 L527.9,321.4 L527.8,321.7    L527.8,321.9 L527.7,322.1 L527.7,322.3 L527.7,322.5 L527.6,322.8 L527.6,323.0 L527.5,323.2 L527.5,323.4    L527.4,323.7 L527.4,323.9 L527.3,324.1 L527.3,324.3 L527.2,324.6 L527.2,324.8 L527.1,325.0 L527.1,325.2    L527.0,325.4 L527.0,325.7 L526.9,325.9 L526.8,326.1 L526.8,326.3 L526.7,326.6 L526.7,326.8 L526.6,327.0    L526.6,327.2 L526.5,327.5 L526.5,327.7 L526.4,327.9 L526.3,328.1 L526.3,328.3 L526.2,328.6 L526.2,328.8    L526.1,329.0 L526.0,329.2 L526.0,329.4 L525.9,329.7 L525.9,329.9 L525.8,330.1 L525.7,330.3 L525.7,330.5    L525.6,330.8 L525.5,331.0 L525.5,331.2 L525.4,331.4 L525.3,331.6 L525.3,331.8 L525.2,332.1 L525.1,332.3    L525.1,332.5 L525.0,332.7 L524.9,332.9 L524.9,333.1 L524.8,333.3 L524.7,333.6 L524.7,333.8 L524.6,334.0    L524.5,334.2 L524.5,334.4 L524.4,334.6 L524.3,334.8 L524.2,335.0 L524.2,335.2 L524.1,335.4 L524.0,335.6    L524.0,335.8 L523.9,336.0 L523.8,336.2 L523.7,336.4 L523.7,336.6 L523.6,336.8 L523.5,337.0 L523.5,337.2    L523.4,337.4 L523.3,337.6 L523.2,337.8 L523.2,338.0 L523.1,338.2 L523.0,338.4 L522.9,338.6 L522.9,338.8    L522.8,339.0 L522.7,339.1 L522.6,339.3 L522.6,339.5 L522.5,339.7 L522.4,339.9 L522.3,340.1 L522.3,340.2    L522.2,340.4 L522.1,340.6 L522.0,340.8 L521.9,341.0 L521.9,341.1 L521.8,341.3 L521.7,341.5 L521.6,341.6    L521.6,341.8 L521.5,342.0 L521.4,342.2 L521.3,342.3 L521.2,342.5 L521.2,342.6 L521.1,342.8 L521.0,343.0    L520.9,343.1 L520.9,343.3 L520.8,343.4 L520.7,343.6 L520.6,343.8 L520.5,343.9 L520.5,344.1 L520.4,344.2    L520.3,344.4 L520.2,344.5 L520.2,344.6 L520.1,344.8 L520.0,344.9 L519.9,345.1 L519.8,345.2 L519.8,345.3    L519.7,345.5 L519.6,345.6 L519.5,345.7 L519.5,345.9 L519.4,346.0 L519.3,346.1 L519.2,346.3 L519.1,346.4    L519.1,346.5 L519.0,346.6 L518.9,346.7 L518.8,346.9 L518.8,347.0 L518.7,347.1 L518.6,347.2 L518.5,347.3    L518.4,347.4 L518.4,347.5 L518.3,347.6 L518.2,347.7 L518.1,347.9 L518.1,348.0 L518.0,348.1 L517.9,348.1    L517.8,348.2 L517.8,348.3 L517.7,348.4 L517.6,348.5 L517.5,348.6 L517.5,348.7 L517.4,348.8 L517.3,348.9    L517.2,349.0 L517.1,349.1 L517.0,349.2 L517.0,349.3 L516.9,349.3 L516.8,349.4 L516.7,349.5 L516.6,349.6    L516.5,349.7 L516.4,349.8 L516.3,349.8 L516.3,349.9 L516.2,349.9 L516.1,350.0 L516.0,350.0 L516.0,350.1    L515.9,350.1 L515.8,350.2 L515.7,350.3 L515.6,350.3 L515.5,350.4 L515.4,350.4 L515.3,350.5 L515.2,350.5    L515.1,350.5 L515.1,350.6 L515.0,350.6 L514.9,350.6 L514.8,350.6 L514.7,350.6 L514.6,350.7 L514.5,350.7    L514.4,350.7 L514.3,350.7 L514.2,350.6 L514.1,350.6 L514.0,350.6 L513.9,350.6 L513.8,350.5 L513.7,350.5    L513.6,350.4 L513.5,350.4 L513.4,350.3 L513.3,350.2 L513.2,350.2 L513.2,350.1 L513.1,350.0 L513.0,349.9    L512.9,349.8 L512.9,349.7 L512.8,349.7 L512.8,349.6 L512.7,349.5 L512.7,349.4 L512.6,349.3 L512.6,349.2    L512.5,349.1 L512.5,349.0 L512.4,348.9 L512.4,348.8 L512.4,348.7 L512.3,348.6 L512.3,348.5 L512.2,348.4    L512.2,348.3 L512.2,348.2 L512.1,348.1 L512.1,348.0 L512.1,347.9 L512.0,347.8 L512.0,347.7 L512.0,347.6    L512.0,347.5 L511.9,347.4 L511.9,347.2 L511.9,347.1 L511.9,347.0 L511.8,346.9 L511.8,346.8 L511.8,346.7    L511.8,346.5 L511.8,346.4 L511.7,346.3 L511.7,346.2 L511.7,346.0 L511.7,345.9 L511.7,345.8 L511.6,345.7    L511.6,345.5 L511.6,345.4 L511.6,345.3 L511.6,345.1 L511.6,345.0 L511.6,344.8 L511.6,344.7 L511.5,344.5    L511.5,344.4 L511.5,344.3 L511.5,344.1 L511.5,344.0 L511.5,343.8 L511.5,343.6 L511.5,343.5 L511.5,343.3    L511.5,343.2 L511.5,343.0 L511.5,342.9 L511.5,342.7 L511.5,342.5 L511.5,342.4 L511.5,342.2 L511.5,342.0    L511.5,341.9 L511.5,341.7 L511.5,341.5 L511.5,341.4 L511.5,341.2 L511.5,341.0 L511.5,340.8 L511.5,340.7    L511.5,340.5 L511.5,340.3 L511.5,340.1 L511.5,339.9 L511.5,339.8 L511.5,339.6 L511.5,339.4 L511.6,339.2    L511.6,339.0 L511.6,338.8 L511.6,338.6 L511.6,338.5 L511.6,338.3 L511.6,338.1 L511.6,337.9 L511.7,337.7    L511.7,337.5 L511.7,337.3 L511.7,337.1 L511.7,336.9 L511.8,336.7 L511.8,336.5 L511.8,336.3 L511.8,336.1    L511.8,335.9 L511.9,335.7 L511.9,335.5 L511.9,335.3 L511.9,335.1 L512.0,334.9 L512.0,334.7 L512.0,334.5    L512.0,334.3 L512.1,334.0 L512.1,333.8 L512.1,333.6 L512.2,333.4 L512.2,333.2 L512.2,333.0 L512.3,332.8    L512.3,332.6 L512.3,332.3 L512.3,332.1 L512.4,331.9 L512.4,331.7 L512.5,331.5 L512.5,331.3 L512.5,331.1    L512.6,330.8 L512.6,330.6 L512.6,330.4 L512.7,330.2 L512.7,330.0 L512.8,329.7 L512.8,329.5 L512.8,329.3    L512.9,329.1 L512.9,328.9 L513.0,328.6 L513.0,328.4 L513.1,328.2 L513.1,328.0 L513.1,327.8 L513.2,327.5    L513.2,327.3 L513.3,327.1 L513.3,326.9 L513.4,326.6 L513.4,326.4 L513.5,326.2 L513.5,326.0 L513.6,325.7    L513.6,325.5 L513.7,325.3 L513.7,325.1 L513.8,324.9 L513.8,324.6 L513.9,324.4 L513.9,324.2 L514.0,324.0    L514.1,323.7 L514.1,323.5 L514.2,323.3 L514.2,323.1 L514.3,322.8 L514.3,322.6 L514.4,322.4 L514.5,322.2    L514.5,322.0 L514.6,321.7 L514.6,321.5 L514.7,321.3 L514.8,321.1 L514.8,320.8 L514.9,320.6 L514.9,320.4    L515.0,320.2 L515.1,320.0 L515.1,319.7 L515.2,319.5 L515.2,319.3 L515.3,319.1 L515.4,318.9 L515.4,318.7    L515.5,318.4 L515.6,318.2 L515.6,318.0 L515.7,317.8 L515.8,317.6 L515.8,317.4 L515.9,317.2 L516.0,316.9    L516.0,316.7 L516.1,316.5 L516.2,316.3 L516.2,316.1 L516.3,315.9 L516.4,315.7 L516.5,315.5 L516.5,315.3    L516.6,315.1 L516.7,314.9 L516.7,314.6 L516.8,314.4 L516.9,314.2 L517.0,314.0 L517.0,313.8 L517.1,313.6    L517.2,313.4 L517.2,313.2 L517.3,313.0 L517.4,312.8 L517.5,312.6 L517.5,312.5 L517.6,312.3 L517.7,312.1    L517.8,311.9 L517.8,311.7 L517.9,311.5 L518.0,311.3 L518.1,311.1 L518.1,310.9 L518.2,310.7 L518.3,310.6    L518.4,310.4 L518.4,310.2 L518.5,310.0 L518.6,309.8 L518.7,309.6 L518.7,309.5 L518.8,309.3 L518.9,309.1    L519.0,308.9 L519.1,308.8 L519.1,308.6 L519.2,308.4 L519.3,308.3 L519.4,308.1 L519.4,307.9 L519.5,307.8    L519.6,307.6 L519.7,307.4 L519.8,307.3 L519.8,307.1 L519.9,306.9 L520.0,306.8 L520.1,306.6 L520.1,306.5    L520.2,306.3 L520.3,306.2 L520.4,306.0 L520.5,305.9 L520.5,305.7 L520.6,305.6 L520.7,305.4 L520.8,305.3    L520.9,305.1 L520.9,305.0 L521.0,304.9 L521.1,304.7 L521.2,304.6 L521.2,304.5 L521.3,304.3 L521.4,304.2    L521.5,304.1 L521.6,303.9 L521.6,303.8 L521.7,303.7 L521.8,303.6 L521.9,303.4 L521.9,303.3 L522.0,303.2    L522.1,303.1 L522.2,303.0 L522.2,302.9 L522.3,302.8 L522.4,302.6 L522.5,302.5 L522.6,302.4 L522.6,302.3    L522.7,302.2 L522.8,302.1 L522.9,302.0 L522.9,301.9 L523.0,301.8 L523.1,301.7 L523.2,301.6 L523.3,301.5    L523.4,301.4 L523.5,301.3 L523.5,301.2 L523.6,301.1 L523.7,301.0 L523.8,300.9 L523.9,300.8 L524.0,300.7    L524.1,300.6 L524.2,300.5 L524.3,300.4 L524.4,300.4 L524.5,300.3 L524.5,300.2 L524.6,300.2 L524.7,300.1    L524.8,300.0 L524.9,300.0 L524.9,299.9 L525.0,299.9 L525.1,299.8 L525.2,299.8 L525.3,299.7 L525.4,299.7    L525.5,299.6 L525.6,299.6 L525.7,299.6 L525.7,299.5 L525.8,299.5 L525.9,299.5 L526.0,299.5 L526.0,299.4    L526.1,299.4 L526.2,299.4 L526.3,299.4 L526.4,299.4 L526.5,299.4 L526.6,299.4 L526.7,299.4 L526.8,299.5    L526.9,299.5 L527.0,299.5 L527.1,299.5 L527.1,299.6 L527.2,299.6  h0.01"
           id="path169" />
      </g>
    </g>
    <g
       id="gnuplot_plot_3">
      <title
         id="title172">gnuplot_plot_3</title>
      <g
         style="fill:none; color:blue; stroke:currentColor; stroke-width:2.00; stroke-linecap:butt; stroke-linejoin:miter"
         id="g174">
        <path
           stroke="rgb(255,   0,   0)"
           d="M387.2,269.4 L387.2,269.5 L387.3,269.5 L387.4,269.6 L387.4,269.7 L387.5,269.7 L387.5,269.8 L387.5,269.9    L387.6,269.9 L387.6,270.0 L387.6,270.1 L387.6,270.2 L387.7,270.3 L387.7,270.4 L387.7,270.5 L387.7,270.6    L387.7,270.7 L387.7,270.8 L387.7,270.9 L387.8,270.9 L387.8,271.0 L387.8,271.1 L387.8,271.2 L387.8,271.3    L387.8,271.4 L387.8,271.5 L387.8,271.6 L387.8,271.7 L387.8,271.8 L387.8,271.9 L387.8,272.0 L387.8,272.1    L387.8,272.2 L387.8,272.3 L387.8,272.4 L387.8,272.5 L387.8,272.6 L387.8,272.7 L387.8,272.8 L387.8,272.9    L387.8,273.0 L387.7,273.1 L387.7,273.3 L387.7,273.4 L387.7,273.5 L387.7,273.6 L387.7,273.7 L387.7,273.9    L387.7,274.0 L387.7,274.1 L387.7,274.2 L387.6,274.4 L387.6,274.5 L387.6,274.6 L387.6,274.8 L387.6,274.9    L387.6,275.1 L387.6,275.2 L387.5,275.3 L387.5,275.5 L387.5,275.6 L387.5,275.8 L387.5,275.9 L387.4,276.1    L387.4,276.2 L387.4,276.4 L387.4,276.5 L387.4,276.7 L387.3,276.8 L387.3,277.0 L387.3,277.1 L387.3,277.3    L387.2,277.5 L387.2,277.6 L387.2,277.8 L387.2,277.9 L387.1,278.1 L387.1,278.3 L387.1,278.4 L387.0,278.6    L387.0,278.8 L387.0,279.0 L387.0,279.1 L386.9,279.3 L386.9,279.5 L386.9,279.7 L386.8,279.8 L386.8,280.0    L386.8,280.2 L386.7,280.4 L386.7,280.6 L386.7,280.7 L386.6,280.9 L386.6,281.1 L386.5,281.3 L386.5,281.5    L386.5,281.7 L386.4,281.9 L386.4,282.1 L386.3,282.2 L386.3,282.4 L386.3,282.6 L386.2,282.8 L386.2,283.0    L386.1,283.2 L386.1,283.4 L386.1,283.6 L386.0,283.8 L386.0,284.0 L385.9,284.2 L385.9,284.4 L385.8,284.6    L385.8,284.8 L385.7,285.0 L385.7,285.2 L385.6,285.4 L385.6,285.6 L385.5,285.8 L385.5,286.0 L385.4,286.2    L385.4,286.4 L385.3,286.7 L385.3,286.9 L385.2,287.1 L385.2,287.3 L385.1,287.5 L385.1,287.7 L385.0,287.9    L385.0,288.1 L384.9,288.3 L384.9,288.5 L384.8,288.8 L384.8,289.0 L384.7,289.2 L384.7,289.4 L384.6,289.6    L384.5,289.8 L384.5,290.0 L384.4,290.3 L384.4,290.5 L384.3,290.7 L384.3,290.9 L384.2,291.1 L384.1,291.3    L384.1,291.6 L384.0,291.8 L384.0,292.0 L383.9,292.2 L383.8,292.4 L383.8,292.7 L383.7,292.9 L383.7,293.1    L383.6,293.3 L383.5,293.5 L383.5,293.8 L383.4,294.0 L383.3,294.2 L383.3,294.4 L383.2,294.6 L383.2,294.8    L383.1,295.1 L383.0,295.3 L383.0,295.5 L382.9,295.7 L382.8,295.9 L382.8,296.2 L382.7,296.4 L382.6,296.6    L382.6,296.8 L382.5,297.0 L382.4,297.3 L382.4,297.5 L382.3,297.7 L382.2,297.9 L382.2,298.1 L382.1,298.3    L382.0,298.6 L382.0,298.8 L381.9,299.0 L381.8,299.2 L381.8,299.4 L381.7,299.6 L381.6,299.8 L381.6,300.1    L381.5,300.3 L381.4,300.5 L381.3,300.7 L381.3,300.9 L381.2,301.1 L381.1,301.3 L381.1,301.5 L381.0,301.8    L380.9,302.0 L380.9,302.2 L380.8,302.4 L380.7,302.6 L380.7,302.8 L380.6,303.0 L380.5,303.2 L380.4,303.4    L380.4,303.6 L380.3,303.8 L380.2,304.0 L380.2,304.2 L380.1,304.4 L380.0,304.6 L379.9,304.8 L379.9,305.0    L379.8,305.2 L379.7,305.4 L379.7,305.6 L379.6,305.8 L379.5,306.0 L379.5,306.2 L379.4,306.4 L379.3,306.6    L379.2,306.8 L379.2,307.0 L379.1,307.2 L379.0,307.4 L379.0,307.5 L378.9,307.7 L378.8,307.9 L378.8,308.1    L378.7,308.3 L378.6,308.5 L378.5,308.7 L378.5,308.8 L378.4,309.0 L378.3,309.2 L378.3,309.4 L378.2,309.5    L378.1,309.7 L378.1,309.9 L378.0,310.1 L377.9,310.2 L377.9,310.4 L377.8,310.6 L377.7,310.7 L377.6,310.9    L377.6,311.1 L377.5,311.2 L377.4,311.4 L377.4,311.6 L377.3,311.7 L377.2,311.9 L377.2,312.0 L377.1,312.2    L377.0,312.4 L377.0,312.5 L376.9,312.7 L376.8,312.8 L376.8,313.0 L376.7,313.1 L376.6,313.3 L376.6,313.4    L376.5,313.5 L376.4,313.7 L376.4,313.8 L376.3,314.0 L376.3,314.1 L376.2,314.2 L376.1,314.4 L376.1,314.5    L376.0,314.6 L375.9,314.8 L375.9,314.9 L375.8,315.0 L375.8,315.1 L375.7,315.3 L375.6,315.4 L375.6,315.5    L375.5,315.6 L375.5,315.7 L375.4,315.9 L375.3,316.0 L375.3,316.1 L375.2,316.2 L375.2,316.3 L375.1,316.4    L375.0,316.5 L375.0,316.6 L374.9,316.7 L374.9,316.8 L374.8,316.9 L374.8,317.0 L374.7,317.1 L374.6,317.2    L374.6,317.3 L374.5,317.4 L374.5,317.5 L374.4,317.6 L374.4,317.7 L374.3,317.7 L374.3,317.8 L374.2,317.9    L374.2,318.0 L374.1,318.1 L374.0,318.2 L374.0,318.3 L373.9,318.4 L373.8,318.5 L373.8,318.6 L373.7,318.6    L373.7,318.7 L373.6,318.7 L373.6,318.8 L373.5,318.8 L373.5,318.9 L373.4,318.9 L373.4,319.0 L373.3,319.1    L373.2,319.2 L373.1,319.2 L373.1,319.3 L373.0,319.4 L372.9,319.4 L372.9,319.5 L372.8,319.5 L372.7,319.5    L372.7,319.6 L372.6,319.6 L372.5,319.6 L372.4,319.6 L372.3,319.6 L372.2,319.6 L372.2,319.5 L372.1,319.5    L372.1,319.4 L372.0,319.4 L372.0,319.3 L371.9,319.2 L371.9,319.1 L371.9,319.0 L371.8,319.0 L371.8,318.9    L371.8,318.8 L371.8,318.7 L371.7,318.6 L371.7,318.5 L371.7,318.4 L371.7,318.3 L371.7,318.2 L371.7,318.1    L371.7,318.0 L371.7,317.9 L371.6,317.8 L371.6,317.7 L371.6,317.6 L371.6,317.5 L371.6,317.4 L371.6,317.3    L371.6,317.2 L371.6,317.1 L371.6,317.0 L371.6,316.9 L371.6,316.8 L371.6,316.7 L371.6,316.6 L371.6,316.5    L371.6,316.4 L371.6,316.3 L371.7,316.2 L371.7,316.1 L371.7,315.9 L371.7,315.8 L371.7,315.7 L371.7,315.6    L371.7,315.5 L371.7,315.4 L371.7,315.2 L371.7,315.1 L371.7,315.0 L371.7,314.9 L371.8,314.7 L371.8,314.6    L371.8,314.5 L371.8,314.3 L371.8,314.2 L371.8,314.1 L371.8,313.9 L371.9,313.8 L371.9,313.6 L371.9,313.5    L371.9,313.4 L371.9,313.2 L372.0,313.1 L372.0,312.9 L372.0,312.8 L372.0,312.6 L372.0,312.5 L372.1,312.3    L372.1,312.1 L372.1,312.0 L372.1,311.8 L372.2,311.7 L372.2,311.5 L372.2,311.4 L372.2,311.2 L372.3,311.0    L372.3,310.9 L372.3,310.7 L372.3,310.5 L372.4,310.4 L372.4,310.2 L372.4,310.0 L372.5,309.8 L372.5,309.7    L372.5,309.5 L372.6,309.3 L372.6,309.1 L372.6,309.0 L372.7,308.8 L372.7,308.6 L372.7,308.4 L372.8,308.2    L372.8,308.0 L372.8,307.9 L372.9,307.7 L372.9,307.5 L373.0,307.3 L373.0,307.1 L373.0,306.9 L373.1,306.7    L373.1,306.5 L373.2,306.3 L373.2,306.2 L373.2,306.0 L373.3,305.8 L373.3,305.6 L373.4,305.4 L373.4,305.2    L373.5,305.0 L373.5,304.8 L373.5,304.6 L373.6,304.4 L373.6,304.2 L373.7,304.0 L373.7,303.8 L373.8,303.6    L373.8,303.4 L373.9,303.1 L373.9,302.9 L374.0,302.7 L374.0,302.5 L374.1,302.3 L374.1,302.1 L374.2,301.9    L374.2,301.7 L374.3,301.5 L374.3,301.3 L374.4,301.1 L374.4,300.8 L374.5,300.6 L374.5,300.4 L374.6,300.2    L374.7,300.0 L374.7,299.8 L374.8,299.6 L374.8,299.4 L374.9,299.1 L374.9,298.9 L375.0,298.7 L375.1,298.5    L375.1,298.3 L375.2,298.1 L375.2,297.8 L375.3,297.6 L375.3,297.4 L375.4,297.2 L375.5,297.0 L375.5,296.8    L375.6,296.5 L375.6,296.3 L375.7,296.1 L375.8,295.9 L375.8,295.7 L375.9,295.4 L376.0,295.2 L376.0,295.0    L376.1,294.8 L376.1,294.6 L376.2,294.3 L376.3,294.1 L376.3,293.9 L376.4,293.7 L376.5,293.5 L376.5,293.2    L376.6,293.0 L376.7,292.8 L376.7,292.6 L376.8,292.4 L376.9,292.2 L376.9,291.9 L377.0,291.7 L377.1,291.5    L377.1,291.3 L377.2,291.1 L377.3,290.8 L377.3,290.6 L377.4,290.4 L377.5,290.2 L377.5,290.0 L377.6,289.8    L377.7,289.6 L377.7,289.3 L377.8,289.1 L377.9,288.9 L377.9,288.7 L378.0,288.5 L378.1,288.3 L378.1,288.1    L378.2,287.8 L378.3,287.6 L378.3,287.4 L378.4,287.2 L378.5,287.0 L378.6,286.8 L378.6,286.6 L378.7,286.4    L378.8,286.2 L378.8,286.0 L378.9,285.8 L379.0,285.6 L379.0,285.4 L379.1,285.1 L379.2,284.9 L379.3,284.7    L379.3,284.5 L379.4,284.3 L379.5,284.1 L379.5,283.9 L379.6,283.7 L379.7,283.5 L379.8,283.3 L379.8,283.1    L379.9,283.0 L380.0,282.8 L380.0,282.6 L380.1,282.4 L380.2,282.2 L380.2,282.0 L380.3,281.8 L380.4,281.6    L380.5,281.4 L380.5,281.2 L380.6,281.1 L380.7,280.9 L380.7,280.7 L380.8,280.5 L380.9,280.3 L380.9,280.1    L381.0,280.0 L381.1,279.8 L381.2,279.6 L381.2,279.4 L381.3,279.3 L381.4,279.1 L381.4,278.9 L381.5,278.7    L381.6,278.6 L381.6,278.4 L381.7,278.2 L381.8,278.1 L381.8,277.9 L381.9,277.7 L382.0,277.6 L382.0,277.4    L382.1,277.2 L382.2,277.1 L382.2,276.9 L382.3,276.8 L382.4,276.6 L382.4,276.5 L382.5,276.3 L382.6,276.2    L382.6,276.0 L382.7,275.9 L382.8,275.7 L382.8,275.6 L382.9,275.4 L383.0,275.3 L383.0,275.2 L383.1,275.0    L383.2,274.9 L383.2,274.7 L383.3,274.6 L383.4,274.5 L383.4,274.3 L383.5,274.2 L383.5,274.1 L383.6,274.0    L383.7,273.8 L383.7,273.7 L383.8,273.6 L383.8,273.5 L383.9,273.3 L384.0,273.2 L384.0,273.1 L384.1,273.0    L384.1,272.9 L384.2,272.8 L384.3,272.7 L384.3,272.6 L384.4,272.4 L384.4,272.3 L384.5,272.2 L384.5,272.1    L384.6,272.0 L384.7,271.9 L384.7,271.8 L384.8,271.8 L384.8,271.7 L384.9,271.6 L384.9,271.5 L385.0,271.4    L385.0,271.3 L385.1,271.2 L385.1,271.1 L385.2,271.1 L385.3,271.0 L385.3,270.9 L385.4,270.8 L385.5,270.7    L385.5,270.6 L385.6,270.6 L385.6,270.5 L385.6,270.4 L385.7,270.4 L385.7,270.3 L385.8,270.2 L385.9,270.1    L386.0,270.0 L386.1,269.9 L386.1,269.8 L386.2,269.8 L386.3,269.7 L386.4,269.7 L386.4,269.6 L386.5,269.6    L386.5,269.5 L386.6,269.5 L386.7,269.4 L386.8,269.4 L386.9,269.4 L387.0,269.4 L387.1,269.4 L387.2,269.4     h0.01"
           id="path176" />
      </g>
    </g>
    <g
       id="gnuplot_plot_4">
      <title
         id="title179">gnuplot_plot_4</title>
      <g
         style="fill:none; color:cyan; stroke:currentColor; stroke-width:2.00; stroke-linecap:butt; stroke-linejoin:miter"
         id="g181">
        <path
           stroke="rgb(  0,   0, 255)"
           d="M521.4,322.0 L521.5,322.1 L521.6,322.1 L521.7,322.2 L521.8,322.3 L521.9,322.3 L521.9,322.4 L522.0,322.5    L522.1,322.6 L522.1,322.7 L522.2,322.7 L522.2,322.8 L522.3,322.9 L522.3,323.0 L522.4,323.1 L522.4,323.2    L522.5,323.3 L522.5,323.4 L522.5,323.5 L522.6,323.5 L522.6,323.6 L522.6,323.7 L522.7,323.8 L522.7,323.9    L522.7,324.0 L522.7,324.1 L522.8,324.1 L522.8,324.2 L522.8,324.3 L522.8,324.4 L522.9,324.5 L522.9,324.6    L522.9,324.7 L522.9,324.8 L523.0,325.0 L523.0,325.1 L523.0,325.2 L523.0,325.3 L523.0,325.4 L523.1,325.5    L523.1,325.6 L523.1,325.8 L523.1,325.9 L523.1,326.0 L523.2,326.1 L523.2,326.3 L523.2,326.4 L523.2,326.5    L523.2,326.6 L523.2,326.8 L523.2,326.9 L523.3,327.1 L523.3,327.2 L523.3,327.3 L523.3,327.5 L523.3,327.6    L523.3,327.8 L523.3,327.9 L523.3,328.1 L523.3,328.2 L523.4,328.4 L523.4,328.5 L523.4,328.7 L523.4,328.8    L523.4,329.0 L523.4,329.2 L523.4,329.3 L523.4,329.5 L523.4,329.6 L523.4,329.8 L523.4,330.0 L523.4,330.2    L523.4,330.3 L523.4,330.5 L523.4,330.7 L523.4,330.8 L523.4,331.0 L523.4,331.2 L523.4,331.4 L523.4,331.6    L523.4,331.7 L523.4,331.9 L523.4,332.1 L523.4,332.3 L523.4,332.5 L523.4,332.7 L523.4,332.9 L523.4,333.1    L523.3,333.2 L523.3,333.4 L523.3,333.6 L523.3,333.8 L523.3,334.0 L523.3,334.2 L523.3,334.4 L523.3,334.6    L523.3,334.8 L523.2,335.0 L523.2,335.2 L523.2,335.4 L523.2,335.6 L523.2,335.8 L523.2,336.1 L523.2,336.3    L523.1,336.5 L523.1,336.7 L523.1,336.9 L523.1,337.1 L523.1,337.3 L523.0,337.5 L523.0,337.8 L523.0,338.0    L523.0,338.2 L523.0,338.4 L522.9,338.6 L522.9,338.8 L522.9,339.1 L522.9,339.3 L522.8,339.5 L522.8,339.7    L522.8,340.0 L522.8,340.2 L522.7,340.4 L522.7,340.6 L522.7,340.9 L522.7,341.1 L522.6,341.3 L522.6,341.5    L522.6,341.8 L522.5,342.0 L522.5,342.2 L522.5,342.5 L522.4,342.7 L522.4,342.9 L522.4,343.1 L522.3,343.4    L522.3,343.6 L522.3,343.8 L522.2,344.1 L522.2,344.3 L522.2,344.5 L522.1,344.8 L522.1,345.0 L522.1,345.3    L522.0,345.5 L522.0,345.7 L521.9,346.0 L521.9,346.2 L521.9,346.4 L521.8,346.7 L521.8,346.9 L521.7,347.1    L521.7,347.4 L521.7,347.6 L521.6,347.9 L521.6,348.1 L521.5,348.3 L521.5,348.6 L521.4,348.8 L521.4,349.0    L521.4,349.3 L521.3,349.5 L521.3,349.8 L521.2,350.0 L521.2,350.2 L521.1,350.5 L521.1,350.7 L521.0,350.9    L521.0,351.2 L520.9,351.4 L520.9,351.7 L520.8,351.9 L520.8,352.1 L520.7,352.4 L520.7,352.6 L520.6,352.8    L520.6,353.1 L520.5,353.3 L520.5,353.5 L520.4,353.8 L520.4,354.0 L520.3,354.2 L520.3,354.5 L520.2,354.7    L520.2,354.9 L520.1,355.2 L520.0,355.4 L520.0,355.6 L519.9,355.9 L519.9,356.1 L519.8,356.3 L519.8,356.6    L519.7,356.8 L519.7,357.0 L519.6,357.2 L519.5,357.5 L519.5,357.7 L519.4,357.9 L519.4,358.2 L519.3,358.4    L519.3,358.6 L519.2,358.8 L519.1,359.0 L519.1,359.3 L519.0,359.5 L519.0,359.7 L518.9,359.9 L518.8,360.1    L518.8,360.4 L518.7,360.6 L518.6,360.8 L518.6,361.0 L518.5,361.2 L518.5,361.4 L518.4,361.7 L518.3,361.9    L518.3,362.1 L518.2,362.3 L518.2,362.5 L518.1,362.7 L518.0,362.9 L518.0,363.1 L517.9,363.3 L517.8,363.5    L517.8,363.7 L517.7,363.9 L517.6,364.1 L517.6,364.3 L517.5,364.5 L517.5,364.7 L517.4,364.9 L517.3,365.1    L517.3,365.3 L517.2,365.5 L517.1,365.7 L517.1,365.9 L517.0,366.1 L516.9,366.2 L516.9,366.4 L516.8,366.6    L516.7,366.8 L516.7,367.0 L516.6,367.2 L516.5,367.3 L516.5,367.5 L516.4,367.7 L516.3,367.9 L516.3,368.0    L516.2,368.2 L516.1,368.4 L516.1,368.5 L516.0,368.7 L516.0,368.9 L515.9,369.0 L515.8,369.2 L515.8,369.4    L515.7,369.5 L515.6,369.7 L515.6,369.8 L515.5,370.0 L515.4,370.1 L515.4,370.3 L515.3,370.4 L515.2,370.6    L515.2,370.7 L515.1,370.9 L515.0,371.0 L515.0,371.2 L514.9,371.3 L514.8,371.4 L514.8,371.6 L514.7,371.7    L514.6,371.9 L514.6,372.0 L514.5,372.1 L514.4,372.2 L514.4,372.4 L514.3,372.5 L514.3,372.6 L514.2,372.7    L514.1,372.9 L514.1,373.0 L514.0,373.1 L513.9,373.2 L513.9,373.3 L513.8,373.4 L513.7,373.5 L513.7,373.6    L513.6,373.7 L513.6,373.8 L513.5,374.0 L513.4,374.0 L513.4,374.1 L513.3,374.2 L513.2,374.3 L513.2,374.4    L513.1,374.5 L513.1,374.6 L513.0,374.7 L512.9,374.8 L512.9,374.9 L512.8,374.9 L512.8,375.0 L512.7,375.1    L512.6,375.2 L512.5,375.3 L512.5,375.4 L512.4,375.4 L512.3,375.5 L512.3,375.6 L512.2,375.6 L512.2,375.7    L512.1,375.7 L512.0,375.8 L511.9,375.9 L511.8,376.0 L511.7,376.1 L511.6,376.2 L511.5,376.2 L511.4,376.3    L511.3,376.3 L511.2,376.4 L511.1,376.4 L511.0,376.4 L510.9,376.5 L510.8,376.5 L510.7,376.5 L510.6,376.5    L510.5,376.5 L510.4,376.4 L510.3,376.4 L510.2,376.4 L510.2,376.3 L510.1,376.3 L510.0,376.3 L510.0,376.2    L509.9,376.2 L509.9,376.1 L509.8,376.1 L509.8,376.0 L509.7,376.0 L509.7,375.9 L509.6,375.8 L509.5,375.7    L509.5,375.6 L509.4,375.5 L509.4,375.4 L509.3,375.3 L509.3,375.2 L509.2,375.1 L509.2,375.0 L509.1,374.9    L509.1,374.8 L509.1,374.7 L509.1,374.6 L509.0,374.6 L509.0,374.5 L509.0,374.4 L508.9,374.3 L508.9,374.2    L508.9,374.1 L508.9,374.0 L508.8,373.9 L508.8,373.8 L508.8,373.7 L508.8,373.6 L508.8,373.5 L508.7,373.4    L508.7,373.3 L508.7,373.1 L508.7,373.0 L508.6,372.9 L508.6,372.8 L508.6,372.7 L508.6,372.5 L508.6,372.4    L508.6,372.3 L508.5,372.2 L508.5,372.0 L508.5,371.9 L508.5,371.8 L508.5,371.6 L508.5,371.5 L508.5,371.4    L508.4,371.2 L508.4,371.1 L508.4,370.9 L508.4,370.8 L508.4,370.7 L508.4,370.5 L508.4,370.4 L508.4,370.2    L508.4,370.1 L508.4,369.9 L508.3,369.7 L508.3,369.6 L508.3,369.4 L508.3,369.3 L508.3,369.1 L508.3,368.9    L508.3,368.8 L508.3,368.6 L508.3,368.4 L508.3,368.3 L508.3,368.1 L508.3,367.9 L508.3,367.8 L508.3,367.6    L508.3,367.4 L508.3,367.2 L508.3,367.0 L508.3,366.9 L508.3,366.7 L508.3,366.5 L508.3,366.3 L508.3,366.1    L508.3,365.9 L508.3,365.8 L508.4,365.6 L508.4,365.4 L508.4,365.2 L508.4,365.0 L508.4,364.8 L508.4,364.6    L508.4,364.4 L508.4,364.2 L508.4,364.0 L508.4,363.8 L508.5,363.6 L508.5,363.4 L508.5,363.2 L508.5,363.0    L508.5,362.8 L508.5,362.6 L508.5,362.4 L508.6,362.2 L508.6,362.0 L508.6,361.7 L508.6,361.5 L508.6,361.3    L508.6,361.1 L508.7,360.9 L508.7,360.7 L508.7,360.5 L508.7,360.2 L508.8,360.0 L508.8,359.8 L508.8,359.6    L508.8,359.4 L508.8,359.1 L508.9,358.9 L508.9,358.7 L508.9,358.5 L508.9,358.2 L509.0,358.0 L509.0,357.8    L509.0,357.6 L509.1,357.3 L509.1,357.1 L509.1,356.9 L509.1,356.7 L509.2,356.4 L509.2,356.2 L509.2,356.0    L509.3,355.7 L509.3,355.5 L509.3,355.3 L509.4,355.0 L509.4,354.8 L509.4,354.6 L509.5,354.3 L509.5,354.1    L509.5,353.9 L509.6,353.6 L509.6,353.4 L509.7,353.2 L509.7,352.9 L509.7,352.7 L509.8,352.5 L509.8,352.2    L509.8,352.0 L509.9,351.8 L509.9,351.5 L510.0,351.3 L510.0,351.0 L510.1,350.8 L510.1,350.6 L510.1,350.3    L510.2,350.1 L510.2,349.9 L510.3,349.6 L510.3,349.4 L510.4,349.1 L510.4,348.9 L510.5,348.7 L510.5,348.4    L510.5,348.2 L510.6,348.0 L510.6,347.7 L510.7,347.5 L510.7,347.2 L510.8,347.0 L510.8,346.8 L510.9,346.5    L510.9,346.3 L511.0,346.1 L511.0,345.8 L511.1,345.6 L511.1,345.4 L511.2,345.1 L511.2,344.9 L511.3,344.6    L511.3,344.4 L511.4,344.2 L511.4,343.9 L511.5,343.7 L511.6,343.5 L511.6,343.2 L511.7,343.0 L511.7,342.8    L511.8,342.6 L511.8,342.3 L511.9,342.1 L511.9,341.9 L512.0,341.6 L512.1,341.4 L512.1,341.2 L512.2,340.9    L512.2,340.7 L512.3,340.5 L512.3,340.3 L512.4,340.0 L512.5,339.8 L512.5,339.6 L512.6,339.4 L512.6,339.2    L512.7,338.9 L512.8,338.7 L512.8,338.5 L512.9,338.3 L512.9,338.1 L513.0,337.8 L513.1,337.6 L513.1,337.4    L513.2,337.2 L513.2,337.0 L513.3,336.8 L513.4,336.6 L513.4,336.4 L513.5,336.1 L513.6,335.9 L513.6,335.7    L513.7,335.5 L513.7,335.3 L513.8,335.1 L513.9,334.9 L513.9,334.7 L514.0,334.5 L514.1,334.3 L514.1,334.1    L514.2,333.9 L514.3,333.7 L514.3,333.5 L514.4,333.3 L514.5,333.1 L514.5,332.9 L514.6,332.7 L514.6,332.6    L514.7,332.4 L514.8,332.2 L514.8,332.0 L514.9,331.8 L515.0,331.6 L515.0,331.5 L515.1,331.3 L515.2,331.1    L515.2,330.9 L515.3,330.7 L515.4,330.6 L515.4,330.4 L515.5,330.2 L515.6,330.1 L515.6,329.9 L515.7,329.7    L515.8,329.6 L515.8,329.4 L515.9,329.2 L516.0,329.1 L516.0,328.9 L516.1,328.7 L516.2,328.6 L516.2,328.4    L516.3,328.3 L516.4,328.1 L516.4,328.0 L516.5,327.8 L516.6,327.7 L516.6,327.5 L516.7,327.4 L516.7,327.3    L516.8,327.1 L516.9,327.0 L516.9,326.8 L517.0,326.7 L517.1,326.6 L517.1,326.4 L517.2,326.3 L517.3,326.2    L517.3,326.1 L517.4,325.9 L517.5,325.8 L517.5,325.7 L517.6,325.6 L517.7,325.4 L517.7,325.3 L517.8,325.2    L517.8,325.1 L517.9,325.0 L518.0,324.9 L518.0,324.8 L518.1,324.7 L518.2,324.6 L518.2,324.5 L518.3,324.4    L518.3,324.3 L518.4,324.2 L518.5,324.1 L518.5,324.0 L518.6,323.9 L518.7,323.8 L518.7,323.7 L518.8,323.7    L518.8,323.6 L518.9,323.5 L519.0,323.4 L519.0,323.3 L519.1,323.3 L519.1,323.2 L519.2,323.1 L519.3,323.1    L519.3,323.0 L519.4,322.9 L519.5,322.8 L519.5,322.7 L519.6,322.7 L519.7,322.6 L519.8,322.5 L519.9,322.4    L520.0,322.4 L520.1,322.3 L520.2,322.2 L520.3,322.2 L520.3,322.1 L520.4,322.1 L520.5,322.1 L520.5,322.0    L520.6,322.0 L520.7,322.0 L520.8,322.0 L520.9,322.0 L521.0,321.9 L521.1,322.0 L521.2,322.0 L521.3,322.0    L521.4,322.0  h0.01"
           id="path183" />
      </g>
    </g>
    <g
       id="gnuplot_plot_5">
      <title
         id="title186">gnuplot_plot_5</title>
      <g
         style="fill:none; color:#157545; stroke:currentColor; stroke-width:2.00; stroke-linecap:butt; stroke-linejoin:miter"
         id="g188">
        <path
           stroke="rgb(255,   0,   0)"
           d="M444.3,267.0 L444.4,267.1 L444.5,267.1 L444.5,267.2 L444.6,267.2 L444.6,267.3 L444.7,267.3 L444.7,267.4    L444.8,267.5 L444.8,267.6 L444.9,267.6 L444.9,267.7 L444.9,267.8 L445.0,267.9 L445.0,268.0 L445.1,268.1    L445.1,268.2 L445.1,268.3 L445.2,268.4 L445.2,268.5 L445.2,268.6 L445.3,268.7 L445.3,268.8 L445.3,268.9    L445.4,269.0 L445.4,269.1 L445.4,269.2 L445.4,269.4 L445.5,269.5 L445.5,269.6 L445.5,269.7 L445.5,269.8    L445.6,269.9 L445.6,270.1 L445.6,270.2 L445.7,270.3 L445.7,270.4 L445.7,270.6 L445.7,270.7 L445.8,270.8    L445.8,271.0 L445.8,271.1 L445.8,271.3 L445.9,271.4 L445.9,271.6 L445.9,271.7 L445.9,271.9 L445.9,272.0    L446.0,272.2 L446.0,272.3 L446.0,272.5 L446.0,272.6 L446.1,272.8 L446.1,273.0 L446.1,273.2 L446.1,273.3    L446.2,273.5 L446.2,273.7 L446.2,273.9 L446.2,274.0 L446.2,274.2 L446.3,274.4 L446.3,274.6 L446.3,274.8    L446.3,275.0 L446.3,275.2 L446.4,275.4 L446.4,275.6 L446.4,275.8 L446.4,276.0 L446.4,276.2 L446.5,276.4    L446.5,276.6 L446.5,276.8 L446.5,277.0 L446.5,277.2 L446.6,277.4 L446.6,277.6 L446.6,277.9 L446.6,278.1    L446.6,278.3 L446.7,278.5 L446.7,278.7 L446.7,279.0 L446.7,279.2 L446.7,279.4 L446.7,279.7 L446.8,279.9    L446.8,280.1 L446.8,280.4 L446.8,280.6 L446.8,280.9 L446.8,281.1 L446.8,281.3 L446.9,281.6 L446.9,281.8    L446.9,282.1 L446.9,282.3 L446.9,282.6 L446.9,282.8 L446.9,283.1 L447.0,283.3 L447.0,283.6 L447.0,283.9    L447.0,284.1 L447.0,284.4 L447.0,284.6 L447.0,284.9 L447.0,285.2 L447.1,285.4 L447.1,285.7 L447.1,286.0    L447.1,286.2 L447.1,286.5 L447.1,286.8 L447.1,287.1 L447.1,287.3 L447.1,287.6 L447.1,287.9 L447.2,288.2    L447.2,288.4 L447.2,288.7 L447.2,289.0 L447.2,289.3 L447.2,289.6 L447.2,289.8 L447.2,290.1 L447.2,290.4    L447.2,290.7 L447.2,291.0 L447.2,291.3 L447.2,291.6 L447.2,291.8 L447.2,292.1 L447.3,292.4 L447.3,292.7    L447.3,293.0 L447.3,293.3 L447.3,293.6 L447.3,293.9 L447.3,294.2 L447.3,294.5 L447.3,294.8 L447.3,295.1    L447.3,295.4 L447.3,295.7 L447.3,296.0 L447.3,296.3 L447.3,296.6 L447.3,296.9 L447.3,297.2 L447.3,297.5    L447.3,297.8 L447.3,298.1 L447.3,298.4 L447.3,298.7 L447.3,299.0 L447.3,299.3 L447.3,299.6 L447.3,299.9    L447.3,300.2 L447.3,300.5 L447.3,300.8 L447.3,301.1 L447.3,301.4 L447.3,301.7 L447.3,302.0 L447.3,302.3    L447.3,302.6 L447.3,302.9 L447.3,303.2 L447.3,303.5 L447.3,303.8 L447.2,304.1 L447.2,304.4 L447.2,304.7    L447.2,305.0 L447.2,305.3 L447.2,305.6 L447.2,305.9 L447.2,306.2 L447.2,306.5 L447.2,306.8 L447.2,307.1    L447.2,307.4 L447.2,307.7 L447.2,308.0 L447.1,308.3 L447.1,308.6 L447.1,308.8 L447.1,309.1 L447.1,309.4    L447.1,309.7 L447.1,310.0 L447.1,310.3 L447.1,310.6 L447.1,310.9 L447.0,311.2 L447.0,311.5 L447.0,311.8    L447.0,312.1 L447.0,312.3 L447.0,312.6 L447.0,312.9 L447.0,313.2 L447.0,313.5 L446.9,313.8 L446.9,314.0    L446.9,314.3 L446.9,314.6 L446.9,314.9 L446.9,315.2 L446.9,315.4 L446.8,315.7 L446.8,316.0 L446.8,316.3    L446.8,316.5 L446.8,316.8 L446.8,317.1 L446.7,317.3 L446.7,317.6 L446.7,317.9 L446.7,318.1 L446.7,318.4    L446.7,318.7 L446.6,318.9 L446.6,319.2 L446.6,319.5 L446.6,319.7 L446.6,320.0 L446.6,320.2 L446.5,320.5    L446.5,320.7 L446.5,321.0 L446.5,321.2 L446.5,321.5 L446.4,321.7 L446.4,322.0 L446.4,322.2 L446.4,322.4    L446.4,322.7 L446.3,322.9 L446.3,323.2 L446.3,323.4 L446.3,323.6 L446.3,323.9 L446.2,324.1 L446.2,324.3    L446.2,324.5 L446.2,324.8 L446.1,325.0 L446.1,325.2 L446.1,325.4 L446.1,325.6 L446.1,325.9 L446.0,326.1    L446.0,326.3 L446.0,326.5 L446.0,326.7 L445.9,326.9 L445.9,327.1 L445.9,327.3 L445.9,327.5 L445.8,327.7    L445.8,327.9 L445.8,328.1 L445.8,328.3 L445.7,328.5 L445.7,328.7 L445.7,328.9 L445.7,329.1 L445.6,329.2    L445.6,329.4 L445.6,329.6 L445.6,329.8 L445.5,329.9 L445.5,330.1 L445.5,330.3 L445.5,330.4 L445.4,330.6    L445.4,330.8 L445.4,330.9 L445.3,331.1 L445.3,331.3 L445.3,331.4 L445.3,331.6 L445.2,331.7 L445.2,331.9    L445.2,332.0 L445.2,332.1 L445.1,332.3 L445.1,332.4 L445.1,332.6 L445.0,332.7 L445.0,332.8 L445.0,332.9    L445.0,333.1 L444.9,333.2 L444.9,333.3 L444.9,333.4 L444.8,333.5 L444.8,333.7 L444.8,333.8 L444.8,333.9    L444.7,334.0 L444.7,334.1 L444.7,334.2 L444.6,334.3 L444.6,334.4 L444.6,334.5 L444.6,334.6 L444.5,334.7    L444.5,334.8 L444.4,334.9 L444.4,335.0 L444.4,335.1 L444.3,335.2 L444.3,335.3 L444.2,335.4 L444.2,335.5    L444.1,335.6 L444.1,335.7 L444.0,335.8 L444.0,335.9 L443.9,335.9 L443.9,336.0 L443.8,336.0 L443.8,336.1    L443.7,336.1 L443.6,336.1 L443.5,336.1 L443.4,336.1 L443.3,336.1 L443.3,336.0 L443.2,336.0 L443.2,335.9    L443.1,335.9 L443.1,335.8 L443.0,335.8 L443.0,335.7 L442.9,335.6 L442.9,335.5 L442.9,335.4 L442.8,335.4    L442.8,335.3 L442.8,335.2 L442.7,335.2 L442.7,335.1 L442.7,335.0 L442.7,334.9 L442.6,334.9 L442.6,334.8    L442.6,334.7 L442.5,334.6 L442.5,334.5 L442.5,334.4 L442.5,334.3 L442.4,334.2 L442.4,334.1 L442.4,334.0    L442.4,333.9 L442.3,333.8 L442.3,333.7 L442.3,333.6 L442.3,333.5 L442.2,333.4 L442.2,333.3 L442.2,333.1    L442.1,333.0 L442.1,332.9 L442.1,332.7 L442.1,332.6 L442.0,332.5 L442.0,332.3 L442.0,332.2 L442.0,332.1    L441.9,331.9 L441.9,331.8 L441.9,331.6 L441.9,331.5 L441.8,331.3 L441.8,331.2 L441.8,331.0 L441.8,330.9    L441.8,330.7 L441.7,330.5 L441.7,330.4 L441.7,330.2 L441.7,330.0 L441.6,329.9 L441.6,329.7 L441.6,329.5    L441.6,329.3 L441.6,329.1 L441.5,329.0 L441.5,328.8 L441.5,328.6 L441.5,328.4 L441.4,328.2 L441.4,328.0    L441.4,327.8 L441.4,327.6 L441.4,327.4 L441.3,327.2 L441.3,327.0 L441.3,326.8 L441.3,326.6 L441.3,326.4    L441.2,326.2 L441.2,326.0 L441.2,325.8 L441.2,325.5 L441.2,325.3 L441.2,325.1 L441.1,324.9 L441.1,324.7    L441.1,324.4 L441.1,324.2 L441.1,324.0 L441.1,323.7 L441.0,323.5 L441.0,323.3 L441.0,323.0 L441.0,322.8    L441.0,322.6 L441.0,322.3 L440.9,322.1 L440.9,321.8 L440.9,321.6 L440.9,321.3 L440.9,321.1 L440.9,320.9    L440.9,320.6 L440.8,320.3 L440.8,320.1 L440.8,319.8 L440.8,319.6 L440.8,319.3 L440.8,319.1 L440.8,318.8    L440.8,318.5 L440.7,318.3 L440.7,318.0 L440.7,317.7 L440.7,317.5 L440.7,317.2 L440.7,316.9 L440.7,316.7    L440.7,316.4 L440.7,316.1 L440.6,315.9 L440.6,315.6 L440.6,315.3 L440.6,315.0 L440.6,314.7 L440.6,314.5    L440.6,314.2 L440.6,313.9 L440.6,313.6 L440.6,313.3 L440.6,313.1 L440.6,312.8 L440.6,312.5 L440.5,312.2    L440.5,311.9 L440.5,311.6 L440.5,311.3 L440.5,311.0 L440.5,310.8 L440.5,310.5 L440.5,310.2 L440.5,309.9    L440.5,309.6 L440.5,309.3 L440.5,309.0 L440.5,308.7 L440.5,308.4 L440.5,308.1 L440.5,307.8 L440.5,307.5    L440.5,307.2 L440.5,306.9 L440.5,306.6 L440.5,306.3 L440.5,306.0 L440.5,305.7 L440.5,305.4 L440.5,305.1    L440.5,304.8 L440.5,304.5 L440.5,304.2 L440.5,303.9 L440.5,303.6 L440.5,303.3 L440.5,303.0 L440.5,302.7    L440.5,302.4 L440.5,302.1 L440.5,301.8 L440.5,301.5 L440.5,301.2 L440.5,300.9 L440.5,300.6 L440.5,300.3    L440.5,300.0 L440.5,299.7 L440.5,299.4 L440.5,299.1 L440.5,298.8 L440.5,298.5 L440.5,298.2 L440.5,297.9    L440.6,297.6 L440.6,297.3 L440.6,297.0 L440.6,296.7 L440.6,296.4 L440.6,296.1 L440.6,295.8 L440.6,295.5    L440.6,295.2 L440.6,294.9 L440.6,294.6 L440.6,294.3 L440.7,294.0 L440.7,293.7 L440.7,293.4 L440.7,293.2    L440.7,292.9 L440.7,292.6 L440.7,292.3 L440.7,292.0 L440.7,291.7 L440.7,291.4 L440.8,291.1 L440.8,290.8    L440.8,290.6 L440.8,290.3 L440.8,290.0 L440.8,289.7 L440.8,289.4 L440.8,289.1 L440.9,288.9 L440.9,288.6    L440.9,288.3 L440.9,288.0 L440.9,287.7 L440.9,287.5 L441.0,287.2 L441.0,286.9 L441.0,286.6 L441.0,286.4    L441.0,286.1 L441.0,285.8 L441.0,285.6 L441.1,285.3 L441.1,285.0 L441.1,284.8 L441.1,284.5 L441.1,284.2    L441.1,284.0 L441.2,283.7 L441.2,283.5 L441.2,283.2 L441.2,283.0 L441.2,282.7 L441.3,282.5 L441.3,282.2    L441.3,282.0 L441.3,281.7 L441.3,281.5 L441.4,281.2 L441.4,281.0 L441.4,280.7 L441.4,280.5 L441.4,280.3    L441.5,280.0 L441.5,279.8 L441.5,279.6 L441.5,279.3 L441.5,279.1 L441.6,278.9 L441.6,278.6 L441.6,278.4    L441.6,278.2 L441.7,278.0 L441.7,277.7 L441.7,277.5 L441.7,277.3 L441.7,277.1 L441.8,276.9 L441.8,276.7    L441.8,276.5 L441.8,276.3 L441.9,276.1 L441.9,275.9 L441.9,275.7 L441.9,275.5 L442.0,275.3 L442.0,275.1    L442.0,274.9 L442.0,274.7 L442.1,274.5 L442.1,274.3 L442.1,274.1 L442.1,273.9 L442.2,273.8 L442.2,273.6    L442.2,273.4 L442.2,273.2 L442.3,273.1 L442.3,272.9 L442.3,272.7 L442.3,272.6 L442.4,272.4 L442.4,272.2    L442.4,272.1 L442.5,271.9 L442.5,271.8 L442.5,271.6 L442.5,271.5 L442.6,271.3 L442.6,271.2 L442.6,271.0    L442.6,270.9 L442.7,270.8 L442.7,270.6 L442.7,270.5 L442.8,270.4 L442.8,270.2 L442.8,270.1 L442.8,270.0    L442.9,269.9 L442.9,269.8 L442.9,269.6 L443.0,269.5 L443.0,269.4 L443.0,269.3 L443.0,269.2 L443.1,269.1    L443.1,269.0 L443.1,268.9 L443.2,268.8 L443.2,268.7 L443.2,268.6 L443.2,268.5 L443.3,268.4 L443.3,268.3    L443.4,268.2 L443.4,268.1 L443.4,268.0 L443.5,267.9 L443.5,267.8 L443.6,267.7 L443.6,267.6 L443.7,267.5    L443.7,267.4 L443.8,267.4 L443.8,267.3 L443.9,267.2 L444.0,267.2 L444.0,267.1 L444.1,267.1 L444.2,267.0    L444.3,267.0  h0.01"
           id="path190" />
      </g>
    </g>
    <g
       id="gnuplot_plot_6">
      <title
         id="title193">gnuplot_plot_6</title>
      <g
         style="fill:none; color:#000094; stroke:currentColor; stroke-width:2.00; stroke-linecap:butt; stroke-linejoin:miter"
         id="g195">
        <path
           stroke="rgb(  0,   0, 255)"
           d="M483.4,348.5 L483.4,348.6 L483.5,348.6 L483.6,348.7 L483.7,348.8 L483.7,348.9 L483.8,348.9 L483.8,349.0    L483.9,349.0 L483.9,349.1 L483.9,349.2 L484.0,349.2 L484.0,349.3 L484.0,349.4 L484.1,349.4 L484.1,349.5    L484.1,349.6 L484.2,349.7 L484.2,349.8 L484.2,349.9 L484.3,350.0 L484.3,350.1 L484.3,350.2 L484.4,350.3    L484.4,350.4 L484.4,350.5 L484.4,350.6 L484.4,350.7 L484.5,350.8 L484.5,350.9 L484.5,351.0 L484.5,351.1    L484.5,351.2 L484.5,351.3 L484.6,351.4 L484.6,351.5 L484.6,351.6 L484.6,351.7 L484.6,351.8 L484.6,351.9    L484.6,352.0 L484.6,352.1 L484.6,352.2 L484.6,352.3 L484.6,352.4 L484.6,352.5 L484.7,352.6 L484.7,352.7    L484.7,352.8 L484.7,352.9 L484.7,353.0 L484.7,353.2 L484.7,353.3 L484.7,353.4 L484.7,353.5 L484.7,353.6    L484.7,353.7 L484.7,353.9 L484.7,354.0 L484.7,354.1 L484.7,354.2 L484.7,354.3 L484.6,354.5 L484.6,354.6    L484.6,354.7 L484.6,354.9 L484.6,355.0 L484.6,355.1 L484.6,355.2 L484.6,355.4 L484.6,355.5 L484.6,355.6    L484.6,355.8 L484.6,355.9 L484.5,356.1 L484.5,356.2 L484.5,356.3 L484.5,356.5 L484.5,356.6 L484.5,356.8    L484.5,356.9 L484.4,357.0 L484.4,357.2 L484.4,357.3 L484.4,357.5 L484.4,357.6 L484.4,357.8 L484.3,357.9    L484.3,358.1 L484.3,358.2 L484.3,358.4 L484.2,358.5 L484.2,358.7 L484.2,358.8 L484.2,359.0 L484.2,359.1    L484.1,359.3 L484.1,359.4 L484.1,359.6 L484.1,359.7 L484.0,359.9 L484.0,360.1 L484.0,360.2 L483.9,360.4    L483.9,360.5 L483.9,360.7 L483.8,360.9 L483.8,361.0 L483.8,361.2 L483.8,361.4 L483.7,361.5 L483.7,361.7    L483.7,361.8 L483.6,362.0 L483.6,362.2 L483.6,362.3 L483.5,362.5 L483.5,362.7 L483.4,362.8 L483.4,363.0    L483.4,363.2 L483.3,363.3 L483.3,363.5 L483.2,363.7 L483.2,363.8 L483.2,364.0 L483.1,364.2 L483.1,364.4    L483.0,364.5 L483.0,364.7 L483.0,364.9 L482.9,365.0 L482.9,365.2 L482.8,365.4 L482.8,365.6 L482.7,365.7    L482.7,365.9 L482.6,366.1 L482.6,366.2 L482.6,366.4 L482.5,366.6 L482.5,366.8 L482.4,366.9 L482.4,367.1    L482.3,367.3 L482.3,367.4 L482.2,367.6 L482.2,367.8 L482.1,368.0 L482.1,368.1 L482.0,368.3 L482.0,368.5    L481.9,368.7 L481.9,368.8 L481.8,369.0 L481.7,369.2 L481.7,369.4 L481.6,369.5 L481.6,369.7 L481.5,369.9    L481.5,370.0 L481.4,370.2 L481.4,370.4 L481.3,370.6 L481.2,370.7 L481.2,370.9 L481.1,371.1 L481.1,371.2    L481.0,371.4 L481.0,371.6 L480.9,371.8 L480.8,371.9 L480.8,372.1 L480.7,372.3 L480.7,372.4 L480.6,372.6    L480.5,372.8 L480.5,372.9 L480.4,373.1 L480.4,373.3 L480.3,373.4 L480.2,373.6 L480.2,373.8 L480.1,373.9    L480.0,374.1 L480.0,374.3 L479.9,374.4 L479.9,374.6 L479.8,374.8 L479.7,374.9 L479.7,375.1 L479.6,375.3    L479.5,375.4 L479.5,375.6 L479.4,375.7 L479.3,375.9 L479.3,376.1 L479.2,376.2 L479.1,376.4 L479.1,376.5    L479.0,376.7 L478.9,376.8 L478.9,377.0 L478.8,377.2 L478.7,377.3 L478.7,377.5 L478.6,377.6 L478.5,377.8    L478.5,377.9 L478.4,378.1 L478.3,378.2 L478.3,378.4 L478.2,378.5 L478.1,378.7 L478.1,378.8 L478.0,378.9    L477.9,379.1 L477.9,379.2 L477.8,379.4 L477.7,379.5 L477.6,379.7 L477.6,379.8 L477.5,379.9 L477.4,380.1    L477.4,380.2 L477.3,380.4 L477.2,380.5 L477.2,380.6 L477.1,380.8 L477.0,380.9 L477.0,381.0 L476.9,381.2    L476.8,381.3 L476.7,381.4 L476.7,381.5 L476.6,381.7 L476.5,381.8 L476.5,381.9 L476.4,382.0 L476.3,382.2    L476.3,382.3 L476.2,382.4 L476.1,382.5 L476.1,382.7 L476.0,382.8 L475.9,382.9 L475.8,383.0 L475.8,383.1    L475.7,383.2 L475.6,383.3 L475.6,383.4 L475.5,383.6 L475.4,383.7 L475.4,383.8 L475.3,383.9 L475.2,384.0    L475.2,384.1 L475.1,384.2 L475.0,384.3 L475.0,384.4 L474.9,384.5 L474.8,384.6 L474.8,384.7 L474.7,384.8    L474.6,384.9 L474.5,385.0 L474.5,385.1 L474.4,385.1 L474.4,385.2 L474.3,385.3 L474.2,385.4 L474.2,385.5    L474.1,385.6 L474.0,385.7 L473.9,385.8 L473.8,385.9 L473.8,386.0 L473.7,386.0 L473.6,386.1 L473.6,386.2    L473.5,386.3 L473.4,386.3 L473.4,386.4 L473.3,386.5 L473.2,386.6 L473.1,386.7 L473.0,386.8 L472.9,386.8    L472.9,386.9 L472.8,386.9 L472.8,387.0 L472.7,387.1 L472.6,387.1 L472.6,387.2 L472.5,387.2 L472.4,387.3    L472.3,387.3 L472.3,387.4 L472.2,387.4 L472.2,387.5 L472.1,387.5 L472.0,387.6 L471.9,387.6 L471.8,387.7    L471.7,387.7 L471.7,387.8 L471.6,387.8 L471.5,387.8 L471.4,387.9 L471.3,387.9 L471.2,387.9 L471.1,387.9    L471.0,388.0 L470.9,388.0 L470.8,388.0 L470.7,388.0 L470.6,388.0 L470.6,387.9 L470.5,387.9 L470.4,387.9    L470.3,387.9 L470.3,387.8 L470.2,387.8 L470.1,387.8 L470.1,387.7 L470.0,387.7 L469.9,387.6 L469.8,387.5    L469.8,387.4 L469.7,387.4 L469.7,387.3 L469.6,387.3 L469.6,387.2 L469.5,387.1 L469.5,387.0 L469.4,386.9    L469.4,386.8 L469.3,386.8 L469.3,386.7 L469.3,386.6 L469.2,386.5 L469.2,386.4 L469.2,386.3 L469.2,386.2    L469.1,386.2 L469.1,386.1 L469.1,386.0 L469.1,385.9 L469.0,385.8 L469.0,385.7 L469.0,385.6 L469.0,385.5    L469.0,385.4 L468.9,385.3 L468.9,385.2 L468.9,385.1 L468.9,385.0 L468.9,384.9 L468.9,384.8 L468.9,384.7    L468.8,384.7 L468.8,384.6 L468.8,384.5 L468.8,384.4 L468.8,384.3 L468.8,384.2 L468.8,384.1 L468.8,384.0    L468.8,383.8 L468.8,383.7 L468.8,383.6 L468.8,383.5 L468.8,383.4 L468.8,383.3 L468.8,383.2 L468.8,383.1    L468.8,383.0 L468.8,382.8 L468.8,382.7 L468.8,382.6 L468.8,382.5 L468.8,382.4 L468.8,382.3 L468.8,382.1    L468.8,382.0 L468.8,381.9 L468.8,381.8 L468.8,381.6 L468.8,381.5 L468.8,381.4 L468.8,381.2 L468.8,381.1    L468.8,381.0 L468.8,380.9 L468.8,380.7 L468.8,380.6 L468.9,380.4 L468.9,380.3 L468.9,380.2 L468.9,380.0    L468.9,379.9 L468.9,379.8 L468.9,379.6 L469.0,379.5 L469.0,379.3 L469.0,379.2 L469.0,379.0 L469.0,378.9    L469.0,378.8 L469.1,378.6 L469.1,378.5 L469.1,378.3 L469.1,378.2 L469.1,378.0 L469.2,377.9 L469.2,377.7    L469.2,377.6 L469.2,377.4 L469.2,377.3 L469.3,377.1 L469.3,376.9 L469.3,376.8 L469.3,376.6 L469.4,376.5    L469.4,376.3 L469.4,376.2 L469.5,376.0 L469.5,375.8 L469.5,375.7 L469.5,375.5 L469.6,375.4 L469.6,375.2    L469.6,375.0 L469.7,374.9 L469.7,374.7 L469.7,374.6 L469.8,374.4 L469.8,374.2 L469.8,374.1 L469.9,373.9    L469.9,373.7 L469.9,373.6 L470.0,373.4 L470.0,373.2 L470.1,373.1 L470.1,372.9 L470.1,372.7 L470.2,372.6    L470.2,372.4 L470.3,372.2 L470.3,372.0 L470.3,371.9 L470.4,371.7 L470.4,371.5 L470.5,371.4 L470.5,371.2    L470.6,371.0 L470.6,370.8 L470.6,370.7 L470.7,370.5 L470.7,370.3 L470.8,370.2 L470.8,370.0 L470.9,369.8    L470.9,369.6 L471.0,369.5 L471.0,369.3 L471.1,369.1 L471.1,369.0 L471.2,368.8 L471.2,368.6 L471.3,368.4    L471.3,368.3 L471.4,368.1 L471.4,367.9 L471.5,367.7 L471.5,367.6 L471.6,367.4 L471.6,367.2 L471.7,367.0    L471.7,366.9 L471.8,366.7 L471.8,366.5 L471.9,366.4 L472.0,366.2 L472.0,366.0 L472.1,365.8 L472.1,365.7    L472.2,365.5 L472.2,365.3 L472.3,365.2 L472.4,365.0 L472.4,364.8 L472.5,364.6 L472.5,364.5 L472.6,364.3    L472.6,364.1 L472.7,364.0 L472.8,363.8 L472.8,363.6 L472.9,363.5 L472.9,363.3 L473.0,363.1 L473.1,362.9    L473.1,362.8 L473.2,362.6 L473.3,362.4 L473.3,362.3 L473.4,362.1 L473.4,362.0 L473.5,361.8 L473.6,361.6    L473.6,361.5 L473.7,361.3 L473.8,361.1 L473.8,361.0 L473.9,360.8 L474.0,360.7 L474.0,360.5 L474.1,360.3    L474.2,360.2 L474.2,360.0 L474.3,359.9 L474.4,359.7 L474.4,359.5 L474.5,359.4 L474.6,359.2 L474.6,359.1    L474.7,358.9 L474.8,358.8 L474.8,358.6 L474.9,358.5 L475.0,358.3 L475.0,358.2 L475.1,358.0 L475.2,357.9    L475.2,357.7 L475.3,357.6 L475.4,357.4 L475.4,357.3 L475.5,357.1 L475.6,357.0 L475.6,356.8 L475.7,356.7    L475.8,356.6 L475.8,356.4 L475.9,356.3 L476.0,356.1 L476.1,356.0 L476.1,355.9 L476.2,355.7 L476.3,355.6    L476.3,355.5 L476.4,355.3 L476.5,355.2 L476.5,355.1 L476.6,354.9 L476.7,354.8 L476.8,354.7 L476.8,354.6    L476.9,354.4 L477.0,354.3 L477.0,354.2 L477.1,354.1 L477.2,353.9 L477.2,353.8 L477.3,353.7 L477.4,353.6    L477.4,353.5 L477.5,353.3 L477.6,353.2 L477.7,353.1 L477.7,353.0 L477.8,352.9 L477.9,352.8 L477.9,352.7    L478.0,352.6 L478.1,352.5 L478.1,352.3 L478.2,352.2 L478.3,352.1 L478.3,352.0 L478.4,351.9 L478.5,351.8    L478.5,351.7 L478.6,351.6 L478.7,351.5 L478.8,351.4 L478.9,351.3 L478.9,351.2 L479.0,351.1 L479.1,351.0    L479.1,350.9 L479.2,350.8 L479.3,350.7 L479.4,350.6 L479.5,350.5 L479.5,350.4 L479.6,350.3 L479.7,350.3    L479.7,350.2 L479.8,350.1 L479.9,350.0 L480.0,349.9 L480.0,349.8 L480.1,349.8 L480.2,349.7 L480.2,349.6    L480.3,349.6 L480.4,349.5 L480.5,349.4 L480.5,349.3 L480.6,349.3 L480.7,349.2 L480.8,349.1 L480.9,349.0    L481.0,349.0 L481.0,348.9 L481.1,348.9 L481.1,348.8 L481.2,348.8 L481.3,348.8 L481.3,348.7 L481.4,348.7    L481.5,348.6 L481.6,348.6 L481.6,348.5 L481.7,348.5 L481.8,348.5 L481.9,348.4 L482.0,348.4 L482.1,348.4    L482.1,348.3 L482.2,348.3 L482.3,348.3 L482.4,348.3 L482.5,348.3 L482.6,348.3 L482.7,348.3 L482.8,348.3    L482.9,348.3 L483.0,348.3 L483.1,348.4 L483.2,348.4 L483.3,348.4 L483.3,348.5 L483.4,348.5  h0.01"
           id="path197" />
      </g>
    </g>
    <g
       id="gnuplot_plot_7">
      <title
         id="title200">gnuplot_plot_7</title>
      <g
         style="fill:none; color:green; stroke:currentColor; stroke-width:2.00; stroke-linecap:butt; stroke-linejoin:miter"
         id="g202">
        <use
           xlink:href="#gpPt1"
           transform="translate(91.1,125.1) scale(4.50)"
           color="rgb(255,   0,   0)"
           id="use204" />
      </g>
    </g>
    <g
       id="gnuplot_plot_8">
      <title
         id="title207">gnuplot_plot_8</title>
      <g
         style="fill:none; color:green; stroke:currentColor; stroke-width:2.00; stroke-linecap:butt; stroke-linejoin:miter"
         id="g209">
        <use
           xlink:href="#gpPt1"
           transform="translate(522.2,324.3) scale(4.50)"
           color="rgb(  0,   0, 255)"
           id="use211" />
      </g>
    </g>
    <g
       id="gnuplot_plot_9">
      <title
         id="title214">gnuplot_plot_9</title>
      <g
         style="fill:none; color:green; stroke:currentColor; stroke-width:2.00; stroke-linecap:butt; stroke-linejoin:miter"
         id="g216">
        <use
           xlink:href="#gpPt1"
           transform="translate(377.3,292.2) scale(4.50)"
           color="rgb(255,   0,   0)"
           id="use218" />
      </g>
    </g>
    <g
       id="gnuplot_plot_10">
      <title
         id="title221">gnuplot_plot_10</title>
      <g
         style="fill:none; color:green; stroke:currentColor; stroke-width:2.00; stroke-linecap:butt; stroke-linejoin:miter"
         id="g223">
        <use
           xlink:href="#gpPt1"
           transform="translate(514.1,344.2) scale(4.50)"
           color="rgb(  0,   0, 255)"
           id="use225" />
      </g>
    </g>
    <g
       id="gnuplot_plot_11">
      <title
         id="title228">gnuplot_plot_11</title>
      <g
         style="fill:none; color:green; stroke:currentColor; stroke-width:2.00; stroke-linecap:butt; stroke-linejoin:miter"
         id="g230">
        <use
           xlink:href="#gpPt1"
           transform="translate(444.7,300.9) scale(4.50)"
           color="rgb(255,   0,   0)"
           id="use232" />
      </g>
    </g>
    <g
       id="gnuplot_plot_12">
      <title
         id="title235">gnuplot_plot_12</title>
      <g
         style="fill:none; color:green; stroke:currentColor; stroke-width:2.00; stroke-linecap:butt; stroke-linejoin:miter"
         id="g237">
        <use
           xlink:href="#gpPt1"
           transform="translate(475.7,355.8) scale(4.50)"
           color="rgb(  0,   0, 255)"
           id="use239" />
      </g>
    </g>
    <g
       style="fill:none; color:white; stroke:rgb(  0,   0, 255); stroke-width:1.00; stroke-linecap:butt; stroke-linejoin:miter"
       id="g241" />
    <g
       style="fill:none; color:black; stroke:currentColor; stroke-width:1.00; stroke-linecap:butt; stroke-linejoin:miter"
       id="g243">
      <path
         stroke="black"
         d="M63.6,16.7 L63.6,422.4 L575.0,422.4 L575.0,16.7 L63.6,16.7 Z  h0.01"
         id="path245" />
    </g>
  </g>
  <text
     xml:space="preserve"
     style="font-size:40px;font-style:normal;font-weight:normal;line-height:125%;letter-spacing:0px;word-spacing:0px;fill:#000000;fill-opacity:1;stroke:none;font-family:Sans"
     x="110.33898"
     y="89.491524"
     id="text3228"
     sodipodi:linespacing="125%"><tspan
       sodipodi:role="line"
       id="tspan3230"
       x="110.33898"
       y="89.491524"
       style="font-size:20px">delta 0.1</tspan></text>
  <text
     xml:space="preserve"
     style="font-size:40px;font-style:normal;font-weight:normal;line-height:125%;letter-spacing:0px;word-spacing:0px;fill:#000000;fill-opacity:1;stroke:none;font-family:Sans"
     x="468.48474"
     y="408.13403"
     id="text3228-5"
     sodipodi:linespacing="125%"><tspan
       sodipodi:role="line"
       id="tspan3230-6"
       x="468.48474"
       y="408.13403"
       style="font-size:20px">delta 10.0</tspan></text>
  <path
     style="fill:none;stroke:#000000;stroke-width:1px;stroke-linecap:butt;stroke-linejoin:miter;stroke-opacity:1;marker-end:url(#Arrow1Lend)"
     d="M 104.74576,129.15254 C 361.01695,294.91525 361.01695,294.91525 361.01695,294.91525"
     id="path3253"
     inkscape:connector-curvature="0" />
  <path
     style="fill:none;stroke:#000000;stroke-width:1.18993473;stroke-linecap:butt;stroke-linejoin:miter;stroke-opacity:1;marker-end:url(#Arrow1Lend);stroke-miterlimit:4;stroke-dasharray:1.18993473,1.18993473;stroke-dashoffset:0"
     d="M 101.78988,93.145816 C 438.21012,271.93893 438.21012,271.93893 438.21012,271.93893"
     id="path3253-4"
     inkscape:connector-curvature="0" />
  <path
     style="fill:none;stroke:#000000;stroke-width:1.20190859px;stroke-linecap:butt;stroke-linejoin:miter;stroke-opacity:1;marker-end:url(#Arrow1Lend-1)"
     d="m 529.73281,311.12501 c 31.87185,21.99129 47.71824,42.34608 -7.02671,55.49203"
     id="path4491"
     inkscape:connector-curvature="0"
     sodipodi:nodetypes="cc" />
  <path
     style="fill:none;stroke:#000000;stroke-width:1.2;stroke-linecap:butt;stroke-linejoin:miter;stroke-miterlimit:4;stroke-opacity:1;stroke-dasharray:1.2,1.2;stroke-dashoffset:0;marker-end:url(#Arrow1Lend)"
     d="m 517.00503,302.25291 c -33.75361,43.04885 -33.75361,43.04885 -33.75361,43.04885"
     id="path3253-4-0"
     inkscape:connector-curvature="0" />
  <path
     style="fill:none;stroke:#000000;stroke-width:1;stroke-linecap:butt;stroke-linejoin:miter;stroke-opacity:1;stroke-miterlimit:4;stroke-dasharray:none"
     d="m 310.78933,84.246953 57.2349,0.06542"
     id="path4727"
     inkscape:connector-curvature="0" />
  <path
     style="fill:none;stroke:#000000;stroke-width:1;stroke-linecap:butt;stroke-linejoin:miter;stroke-miterlimit:4;stroke-opacity:1;stroke-dasharray:1,1;stroke-dashoffset:0"
     d="M 310.41148,99.469756 367.1562,99.165724"
     id="path4727-4"
     inkscape:connector-curvature="0" />
  <text
     xml:space="preserve"
     style="font-size:35.97567749px;font-style:normal;font-weight:normal;line-height:125%;letter-spacing:0px;word-spacing:0px;fill:#000000;fill-opacity:1;stroke:none;font-family:Sans"
     x="413.79071"
     y="77.515388"
     id="text4747"
     sodipodi:linespacing="125%"
     transform="scale(0.89939192,1.1118623)"><tspan
       sodipodi:role="line"
       id="tspan4749"
       x="413.79071"
       y="77.515388"
       style="font-size:17.98783875px">coevolved-homogenous</tspan></text>
  <text
     xml:space="preserve"
     style="font-size:35.56835938px;font-style:normal;font-weight:normal;line-height:125%;letter-spacing:0px;word-spacing:0px;fill:#000000;fill-opacity:1;stroke:none;font-family:Sans"
     x="419.38696"
     y="91.94326"
     id="text4747-1"
     sodipodi:linespacing="125%"
     transform="scale(0.889209,1.124595)"><tspan
       sodipodi:role="line"
       id="tspan4749-5"
       x="419.38696"
       y="91.94326"
       style="font-size:17.78417969px">coevolved-heterogenous</tspan></text>
</svg>
