<?xml version="1.0" encoding="UTF-8" standalone="no"?>
<svg
   xmlns:dc="http://purl.org/dc/elements/1.1/"
   xmlns:cc="http://creativecommons.org/ns#"
   xmlns:rdf="http://www.w3.org/1999/02/22-rdf-syntax-ns#"
   xmlns:svg="http://www.w3.org/2000/svg"
   xmlns="http://www.w3.org/2000/svg"
   xmlns:xlink="http://www.w3.org/1999/xlink"
   xmlns:sodipodi="http://sodipodi.sourceforge.net/DTD/sodipodi-0.dtd"
   xmlns:inkscape="http://www.inkscape.org/namespaces/inkscape"
   width="544.68964"
   height="447.18286"
   viewBox="0 0 544.68964 447.18286"
   id="svg2"
   version="1.1"
   inkscape:version="0.48.3.1 r9886"
   sodipodi:docname="eth-graph-4b.svg">
  <metadata
     id="metadata378">
    <rdf:RDF>
      <cc:Work
         rdf:about="">
        <dc:format>image/svg+xml</dc:format>
        <dc:type
           rdf:resource="http://purl.org/dc/dcmitype/StillImage" />
        <dc:title />
      </cc:Work>
    </rdf:RDF>
  </metadata>
  <sodipodi:namedview
     pagecolor="#ffffff"
     bordercolor="#666666"
     borderopacity="1"
     objecttolerance="10"
     gridtolerance="10"
     guidetolerance="10"
     inkscape:pageopacity="0"
     inkscape:pageshadow="2"
     inkscape:window-width="1920"
     inkscape:window-height="1124"
     id="namedview376"
     showgrid="false"
     inkscape:zoom="2.1333555"
     inkscape:cx="279.54652"
     inkscape:cy="223.59143"
     inkscape:window-x="1200"
     inkscape:window-y="24"
     inkscape:window-maximized="1"
     inkscape:current-layer="layer1"
     showguides="true"
     inkscape:guide-bbox="true"
     fit-margin-top="0"
     fit-margin-left="0"
     fit-margin-right="0"
     fit-margin-bottom="0" />
  <desc
     id="desc4">Produced by GNUPLOT 4.4 patchlevel 3 </desc>
  <defs
     id="defs6">
    <circle
       id="gpDot"
       r="0.5"
       cx="0"
       cy="0"
       sodipodi:cx="0"
       sodipodi:cy="0"
       sodipodi:rx="0.5"
       sodipodi:ry="0.5"
       style="stroke-width:0.5" />
    <path
       id="gpPt0"
       d="M -1,0 H 1 M 0,-1 v 2"
       inkscape:connector-curvature="0"
       style="stroke:currentColor;stroke-width:0.19" />
    <path
       id="gpPt1"
       d="M -1,-1 1,1 M 1,-1 -1,1"
       inkscape:connector-curvature="0"
       style="stroke:currentColor;stroke-width:0.19" />
    <path
       id="gpPt2"
       d="M -1,0 1,0 M 0,-1 0,1 m -1,-2 2,2 m -2,0 2,-2"
       inkscape:connector-curvature="0"
       style="stroke:currentColor;stroke-width:0.19" />
    <rect
       id="gpPt3"
       x="-1"
       y="-1"
       width="2"
       height="2"
       style="stroke:currentColor;stroke-width:0.19" />
    <rect
       id="gpPt4"
       x="-1"
       y="-1"
       width="2"
       height="2"
       style="fill:currentColor;stroke:currentColor;stroke-width:0.19" />
    <circle
       id="gpPt5"
       cx="0"
       cy="0"
       r="1"
       sodipodi:cx="0"
       sodipodi:cy="0"
       sodipodi:rx="1"
       sodipodi:ry="1"
       style="stroke:currentColor;stroke-width:0.19" />
    <use
       xlink:href="#gpPt5"
       id="gpPt6"
       style="fill:currentColor;stroke:none"
       x="0"
       y="0"
       width="600"
       height="480" />
    <path
       id="gpPt7"
       d="m 0,-1.33 -1.33,2 2.66,0 z"
       inkscape:connector-curvature="0"
       style="stroke:currentColor;stroke-width:0.19" />
    <use
       xlink:href="#gpPt7"
       id="gpPt8"
       style="fill:currentColor;stroke:none"
       x="0"
       y="0"
       width="600"
       height="480" />
    <use
       xlink:href="#gpPt7"
       id="gpPt9"
       transform="scale(-1,-1)"
       style="stroke:currentColor"
       x="0"
       y="0"
       width="600"
       height="480" />
    <use
       xlink:href="#gpPt9"
       id="gpPt10"
       style="fill:currentColor;stroke:none"
       x="0"
       y="0"
       width="600"
       height="480" />
    <use
       xlink:href="#gpPt3"
       id="gpPt11"
       transform="matrix(0.70710678,0.70710678,-0.70710678,0.70710678,0,0)"
       style="stroke:currentColor"
       x="0"
       y="0"
       width="600"
       height="480" />
    <use
       xlink:href="#gpPt11"
       id="gpPt12"
       style="fill:currentColor;stroke:none"
       x="0"
       y="0"
       width="600"
       height="480" />
    <marker
       inkscape:stockid="Arrow1Lend"
       orient="auto"
       refY="0"
       refX="0"
       id="Arrow1Lend"
       style="overflow:visible">
      <path
         id="path36174"
         d="M 0,0 5,-5 -12.5,0 5,5 0,0 z"
         style="fill-rule:evenodd;stroke:#000000;stroke-width:1pt"
         transform="matrix(-0.8,0,0,-0.8,-10,0)"
         inkscape:connector-curvature="0" />
    </marker>
  </defs>
  <path
     style="color:#000000;fill:none;stroke:currentColor;stroke-width:1;stroke-linecap:butt;stroke-linejoin:miter"
     inkscape:connector-curvature="0"
     id="path188"
     d="m 337.14048,393.8 0,-10.5"
     sodipodi:nodetypes="cc" />
  <path
     style="color:#808080;fill:none;stroke:currentColor;stroke-width:1;stroke-linecap:butt;stroke-linejoin:miter"
     inkscape:connector-curvature="0"
     id="path28"
     d="m 56.240479,393.8 486.800001,0" />
  <path
     style="color:#000000;fill:none;stroke:currentColor;stroke-width:1;stroke-linecap:butt;stroke-linejoin:miter"
     inkscape:connector-curvature="0"
     id="path32"
     d="m 56.240479,393.8 10.5,0 m 476.300001,0 -10.5,0" />
  <text
     style="font-size:17.5px;text-anchor:end;color:#000000;fill:#000000;stroke:none;font-family:Arial"
     id="text36"
     x="46.540482"
     y="399">0</text>
  <path
     style="color:#808080;fill:none;stroke:currentColor;stroke-width:1;stroke-linecap:butt;stroke-linejoin:miter"
     inkscape:connector-curvature="0"
     id="path40"
     d="m 56.240479,347.1 486.800001,0" />
  <path
     style="color:#000000;fill:none;stroke:currentColor;stroke-width:1;stroke-linecap:butt;stroke-linejoin:miter"
     inkscape:connector-curvature="0"
     id="path44"
     d="m 56.240479,347.1 10.5,0"
     sodipodi:nodetypes="cc" />
  <text
     style="font-size:17.5px;text-anchor:end;color:#000000;fill:#000000;stroke:none;font-family:Arial"
     id="text48"
     x="46.540482"
     y="352.29999">0.5</text>
  <path
     style="color:#808080;fill:none;stroke:currentColor;stroke-width:1;stroke-linecap:butt;stroke-linejoin:miter"
     inkscape:connector-curvature="0"
     id="path52"
     d="m 56.240479,300.4 486.800001,0" />
  <path
     style="color:#000000;fill:none;stroke:currentColor;stroke-width:1;stroke-linecap:butt;stroke-linejoin:miter"
     inkscape:connector-curvature="0"
     id="path56"
     d="m 56.240479,300.4 10.5,0"
     sodipodi:nodetypes="cc" />
  <text
     style="font-size:17.5px;text-anchor:end;color:#000000;fill:#000000;stroke:none;font-family:Arial"
     id="text60"
     x="46.540482"
     y="305.60001">1</text>
  <path
     style="color:#808080;fill:none;stroke:currentColor;stroke-width:1;stroke-linecap:butt;stroke-linejoin:miter"
     inkscape:connector-curvature="0"
     id="path64"
     d="m 56.240479,253.6 486.800001,0" />
  <path
     style="color:#000000;fill:none;stroke:currentColor;stroke-width:1;stroke-linecap:butt;stroke-linejoin:miter"
     inkscape:connector-curvature="0"
     id="path68"
     d="m 56.240479,253.6 10.5,0"
     sodipodi:nodetypes="cc" />
  <text
     style="font-size:17.5px;text-anchor:end;color:#000000;fill:#000000;stroke:none;font-family:Arial"
     id="text72"
     x="46.540482"
     y="258.79999">1.5</text>
  <path
     style="color:#808080;fill:none;stroke:currentColor;stroke-width:1;stroke-linecap:butt;stroke-linejoin:miter"
     inkscape:connector-curvature="0"
     id="path76"
     d="m 56.240479,206.9 486.800001,0" />
  <path
     style="color:#000000;fill:none;stroke:currentColor;stroke-width:1;stroke-linecap:butt;stroke-linejoin:miter"
     inkscape:connector-curvature="0"
     id="path80"
     d="m 56.240479,206.9 10.5,0"
     sodipodi:nodetypes="cc" />
  <text
     style="font-size:17.5px;text-anchor:end;color:#000000;fill:#000000;stroke:none;font-family:Arial"
     id="text84"
     x="46.540482"
     y="212.10001">2</text>
  <path
     style="color:#808080;fill:none;stroke:currentColor;stroke-width:1;stroke-linecap:butt;stroke-linejoin:miter"
     inkscape:connector-curvature="0"
     id="path88"
     d="m 56.240479,160.2 486.800001,0" />
  <path
     style="color:#000000;fill:none;stroke:currentColor;stroke-width:1;stroke-linecap:butt;stroke-linejoin:miter"
     inkscape:connector-curvature="0"
     id="path92"
     d="m 56.240479,160.2 10.5,0"
     sodipodi:nodetypes="cc" />
  <text
     style="font-size:17.5px;text-anchor:end;color:#000000;fill:#000000;stroke:none;font-family:Arial"
     id="text96"
     x="46.540482"
     y="165.39999">2.5</text>
  <path
     style="color:#808080;fill:none;stroke:currentColor;stroke-width:1;stroke-linecap:butt;stroke-linejoin:miter"
     inkscape:connector-curvature="0"
     id="path100"
     d="m 56.240479,113.5 486.800001,0" />
  <path
     style="color:#000000;fill:none;stroke:currentColor;stroke-width:1;stroke-linecap:butt;stroke-linejoin:miter"
     inkscape:connector-curvature="0"
     id="path104"
     d="m 56.240479,113.5 10.5,0"
     sodipodi:nodetypes="cc" />
  <text
     style="font-size:17.5px;text-anchor:end;color:#000000;fill:#000000;stroke:none;font-family:Arial"
     id="text108"
     x="46.540482"
     y="118.7">3</text>
  <path
     style="color:#808080;fill:none;stroke:currentColor;stroke-width:1;stroke-linecap:butt;stroke-linejoin:miter"
     inkscape:connector-curvature="0"
     id="path112"
     d="m 56.240479,66.8 486.800001,0" />
  <path
     style="color:#000000;fill:none;stroke:currentColor;stroke-width:1;stroke-linecap:butt;stroke-linejoin:miter"
     inkscape:connector-curvature="0"
     id="path116"
     d="m 56.240479,66.8 10.5,0"
     sodipodi:nodetypes="cc" />
  <text
     style="font-size:17.5px;text-anchor:end;color:#000000;fill:#000000;stroke:none;font-family:Arial"
     id="text120"
     x="46.540482"
     y="72">3.5</text>
  <path
     style="color:#808080;fill:none;stroke:currentColor;stroke-width:1;stroke-linecap:butt;stroke-linejoin:miter"
     inkscape:connector-curvature="0"
     id="path124"
     d="m 56.240479,20.1 486.800001,0" />
  <path
     style="color:#000000;fill:none;stroke:currentColor;stroke-width:1;stroke-linecap:butt;stroke-linejoin:miter"
     inkscape:connector-curvature="0"
     id="path128"
     d="m 56.240479,20.1 10.5,0"
     sodipodi:nodetypes="cc" />
  <text
     style="font-size:17.5px;text-anchor:end;color:#000000;fill:#000000;stroke:none;font-family:Arial"
     id="text132"
     x="46.540482"
     y="25.299999">4</text>
  <path
     style="color:#808080;fill:none;stroke:currentColor;stroke-width:1;stroke-linecap:butt;stroke-linejoin:miter"
     inkscape:connector-curvature="0"
     id="path136"
     d="m 543.04048,393.8 0,-393.3" />
  <path
     style="color:#000000;fill:none;stroke:currentColor;stroke-width:1;stroke-linecap:butt;stroke-linejoin:miter"
     inkscape:connector-curvature="0"
     id="path140"
     d="m 543.04048,393.8 0,-10.5"
     sodipodi:nodetypes="cc" />
  <text
     style="font-size:17.5px;text-anchor:middle;color:#000000;fill:#000000;stroke:none;font-family:Arial"
     id="text144"
     x="543.04047"
     y="420">1</text>
  <path
     style="color:#808080;fill:none;stroke:currentColor;stroke-width:1;stroke-linecap:butt;stroke-linejoin:miter"
     inkscape:connector-curvature="0"
     id="path148"
     d="m 491.54048,393.8 0,-393.3" />
  <path
     style="color:#000000;fill:none;stroke:currentColor;stroke-width:1;stroke-linecap:butt;stroke-linejoin:miter"
     inkscape:connector-curvature="0"
     id="path152"
     d="m 491.54048,393.8 0,-10.5"
     sodipodi:nodetypes="cc" />
  <text
     style="font-size:17.5px;text-anchor:middle;color:#000000;fill:#000000;stroke:none;font-family:Arial"
     id="text156"
     x="491.54047"
     y="420">2</text>
  <path
     style="color:#808080;fill:none;stroke:currentColor;stroke-width:1;stroke-linecap:butt;stroke-linejoin:miter"
     inkscape:connector-curvature="0"
     id="path160"
     d="m 440.14048,393.8 0,-393.3" />
  <path
     style="color:#000000;fill:none;stroke:currentColor;stroke-width:1;stroke-linecap:butt;stroke-linejoin:miter"
     inkscape:connector-curvature="0"
     id="path164"
     d="m 440.14048,393.8 0,-10.5"
     sodipodi:nodetypes="cc" />
  <text
     style="font-size:17.5px;text-anchor:middle;color:#000000;fill:#000000;stroke:none;font-family:Arial"
     id="text168"
     x="440.14047"
     y="420">4</text>
  <path
     style="color:#808080;fill:none;stroke:currentColor;stroke-width:1;stroke-linecap:butt;stroke-linejoin:miter"
     inkscape:connector-curvature="0"
     id="path172"
     d="m 388.64048,393.8 0,-393.3" />
  <path
     style="color:#000000;fill:none;stroke:currentColor;stroke-width:1;stroke-linecap:butt;stroke-linejoin:miter"
     inkscape:connector-curvature="0"
     id="path176"
     d="m 388.64048,393.8 0,-10.5"
     sodipodi:nodetypes="cc" />
  <text
     style="font-size:17.5px;text-anchor:middle;color:#000000;fill:#000000;stroke:none;font-family:Arial"
     id="text180"
     x="388.64047"
     y="420">8</text>
  <path
     style="color:#808080;fill:none;stroke:currentColor;stroke-width:1;stroke-linecap:butt;stroke-linejoin:miter"
     inkscape:connector-curvature="0"
     id="path184"
     d="m 337.14048,393.8 0,-393.3" />
  <text
     style="font-size:17.5px;text-anchor:middle;color:#000000;fill:#000000;stroke:none;font-family:Arial"
     id="text192"
     x="337.14047"
     y="420">16</text>
  <path
     style="color:#808080;fill:none;stroke:currentColor;stroke-width:1;stroke-linecap:butt;stroke-linejoin:miter"
     inkscape:connector-curvature="0"
     id="path196"
     d="m 285.74048,393.8 0,-393.3" />
  <path
     style="color:#000000;fill:none;stroke:currentColor;stroke-width:1;stroke-linecap:butt;stroke-linejoin:miter"
     inkscape:connector-curvature="0"
     id="path200"
     d="m 285.74048,393.8 0,-10.5"
     sodipodi:nodetypes="cc" />
  <text
     style="font-size:17.5px;text-anchor:middle;color:#000000;fill:#000000;stroke:none;font-family:Arial"
     id="text204"
     x="285.74048"
     y="420">32</text>
  <path
     style="color:#808080;fill:none;stroke:currentColor;stroke-width:1;stroke-linecap:butt;stroke-linejoin:miter"
     inkscape:connector-curvature="0"
     id="path208"
     d="m 234.24048,393.8 0,-393.3" />
  <path
     style="color:#000000;fill:none;stroke:currentColor;stroke-width:1;stroke-linecap:butt;stroke-linejoin:miter"
     inkscape:connector-curvature="0"
     id="path212"
     d="m 234.24048,393.8 0,-10.5"
     sodipodi:nodetypes="cc" />
  <text
     style="font-size:17.5px;text-anchor:middle;color:#000000;fill:#000000;stroke:none;font-family:Arial"
     id="text216"
     x="234.24048"
     y="420">64</text>
  <path
     style="color:#808080;fill:none;stroke:currentColor;stroke-width:1;stroke-linecap:butt;stroke-linejoin:miter"
     inkscape:connector-curvature="0"
     id="path220"
     d="m 182.74048,393.8 0,-393.3" />
  <path
     style="color:#000000;fill:none;stroke:currentColor;stroke-width:1;stroke-linecap:butt;stroke-linejoin:miter"
     inkscape:connector-curvature="0"
     id="path224"
     d="m 182.74048,393.8 0,-10.5"
     sodipodi:nodetypes="cc" />
  <text
     style="font-size:17.5px;text-anchor:middle;color:#000000;fill:#000000;stroke:none;font-family:Arial"
     id="text228"
     x="182.74048"
     y="420">128</text>
  <path
     style="color:#808080;fill:none;stroke:currentColor;stroke-width:1;stroke-linecap:butt;stroke-linejoin:miter"
     inkscape:connector-curvature="0"
     id="path232"
     d="m 131.34048,393.8 0,-393.3" />
  <path
     style="color:#000000;fill:none;stroke:currentColor;stroke-width:1;stroke-linecap:butt;stroke-linejoin:miter"
     inkscape:connector-curvature="0"
     id="path236"
     d="m 131.34048,393.8 0,-10.5"
     sodipodi:nodetypes="cc" />
  <text
     style="font-size:17.5px;text-anchor:middle;color:#000000;fill:#000000;stroke:none;font-family:Arial"
     id="text240"
     x="131.34048"
     y="420">256</text>
  <path
     style="color:#808080;fill:none;stroke:currentColor;stroke-width:1;stroke-linecap:butt;stroke-linejoin:miter"
     inkscape:connector-curvature="0"
     id="path244"
     d="m 79.840479,393.8 0,-393.3" />
  <path
     style="color:#000000;fill:none;stroke:currentColor;stroke-width:1;stroke-linecap:butt;stroke-linejoin:miter"
     inkscape:connector-curvature="0"
     id="path248"
     d="m 79.840479,393.8 0,-10.5"
     sodipodi:nodetypes="cc" />
  <text
     style="font-size:17.5px;text-anchor:middle;color:#000000;fill:#000000;stroke:none;font-family:Arial"
     id="text252"
     x="79.840477"
     y="420">512</text>
  <path
     style="color:#000000;fill:none;stroke:currentColor;stroke-width:1;stroke-linecap:butt;stroke-linejoin:miter"
     inkscape:connector-curvature="0"
     id="path254"
     d="m 56.240479,0.5 0,393.3 486.800001,0"
     sodipodi:nodetypes="ccc" />
  <text
     style="font-size:17.5px;text-anchor:middle;color:#000000;fill:#000000;stroke:none;font-family:Arial"
     id="text258"
     transform="matrix(0,-1,1,0,0,0)"
     x="-197.2"
     y="12.740479">Throughput (Mbps)</text>
  <text
     style="font-size:17.5px;text-anchor:middle;color:#000000;fill:#000000;stroke:none;font-family:Arial"
     id="text262"
     x="299.64047"
     y="443.5">Queueing delay (ms)</text>
  <use
     height="480"
     width="600"
     y="0"
     x="0"
     style="color:#000000;fill:none;stroke:currentColor;stroke-width:1;stroke-linecap:butt;stroke-linejoin:miter"
     id="use268"
     transform="matrix(5.25,0,0,5.25,529.54048,381.7)"
     xlink:href="#gpPt0" />
  <use
     height="480"
     width="600"
     y="0"
     x="0"
     style="color:#000000;fill:none;stroke:currentColor;stroke-width:1;stroke-linecap:butt;stroke-linejoin:miter"
     id="use274"
     transform="matrix(5.25,0,0,5.25,518.04048,242.9)"
     xlink:href="#gpPt0" />
  <use
     height="480"
     width="600"
     y="0"
     x="0"
     style="color:#000000;fill:none;stroke:currentColor;stroke-width:1;stroke-linecap:butt;stroke-linejoin:miter"
     id="use280"
     transform="matrix(5.25,0,0,5.25,114.94048,343.7)"
     xlink:href="#gpPt0" />
  <use
     height="480"
     width="600"
     y="0"
     x="0"
     style="color:#000000;fill:none;stroke:currentColor;stroke-width:1;stroke-linecap:butt;stroke-linejoin:miter"
     id="use286"
     transform="matrix(5.25,0,0,5.25,402.94048,263.5)"
     xlink:href="#gpPt0" />
  <use
     height="480"
     width="600"
     y="0"
     x="0"
     style="color:#000000;fill:none;stroke:currentColor;stroke-width:1;stroke-linecap:butt;stroke-linejoin:miter"
     id="use292"
     transform="matrix(5.25,0,0,5.25,305.74048,274.5)"
     xlink:href="#gpPt0" />
  <use
     height="480"
     width="600"
     y="0"
     x="0"
     style="color:#000000;fill:none;stroke:currentColor;stroke-width:1;stroke-linecap:butt;stroke-linejoin:miter"
     id="use304"
     transform="matrix(5.25,0,0,5.25,188.94048,347.5)"
     xlink:href="#gpPt0" />
  <use
     height="480"
     width="600"
     y="0"
     x="0"
     style="color:#000000;fill:none;stroke:currentColor;stroke-width:1;stroke-linecap:butt;stroke-linejoin:miter"
     id="use310"
     transform="matrix(5.25,0,0,5.25,141.64048,328.4)"
     xlink:href="#gpPt0" />
  <use
     height="480"
     width="600"
     y="0"
     x="0"
     style="color:#000000;fill:none;stroke:currentColor;stroke-width:1;stroke-linecap:butt;stroke-linejoin:miter"
     id="use316"
     transform="matrix(5.25,0,0,5.25,529.54048,296.1)"
     xlink:href="#gpPt0" />
  <a
     xlink:title="Plot #1"
     id="a318"
     transform="translate(-27.759521,-19)">
    <g
       style="color:#ff0000;fill:none;stroke:currentColor;stroke-width:1;stroke-linecap:butt;stroke-linejoin:miter"
       id="g320" />
  </a>
  <a
     xlink:title="Plot #2"
     id="a324"
     transform="translate(-27.759521,-19)">
    <g
       style="color:#ff0000;fill:none;stroke:currentColor;stroke-width:1;stroke-linecap:butt;stroke-linejoin:miter"
       id="g326" />
  </a>
  <a
     xlink:title="Plot #3"
     id="a330"
     transform="translate(-27.759521,-19)">
    <g
       style="color:#ff0000;fill:none;stroke:currentColor;stroke-width:1;stroke-linecap:butt;stroke-linejoin:miter"
       id="g332" />
  </a>
  <a
     xlink:title="Plot #4"
     id="a336"
     transform="translate(-27.759521,-19)">
    <g
       style="color:#ff0000;fill:none;stroke:currentColor;stroke-width:1;stroke-linecap:butt;stroke-linejoin:miter"
       id="g338" />
  </a>
  <a
     xlink:title="Plot #5"
     id="a342"
     transform="translate(-27.759521,-19)">
    <g
       style="color:#ff0000;fill:none;stroke:currentColor;stroke-width:1;stroke-linecap:butt;stroke-linejoin:miter"
       id="g344" />
  </a>
  <a
     xlink:title="Plot #6"
     id="a348"
     transform="translate(-27.759521,-19)">
    <g
       style="color:#ff0000;fill:none;stroke:currentColor;stroke-width:1;stroke-linecap:butt;stroke-linejoin:miter"
       id="g350" />
  </a>
  <a
     xlink:title="Plot #7"
     id="a354"
     transform="translate(-27.759521,-19)">
    <g
       style="color:#ff0000;fill:none;stroke:currentColor;stroke-width:1;stroke-linecap:butt;stroke-linejoin:miter"
       id="g356" />
  </a>
  <a
     xlink:title="Plot #8"
     id="a360"
     transform="translate(-27.759521,-19)">
    <g
       style="color:#ff0000;fill:none;stroke:currentColor;stroke-width:1;stroke-linecap:butt;stroke-linejoin:miter"
       id="g362" />
  </a>
  <a
     xlink:title="Plot #9"
     id="a366"
     transform="translate(-27.759521,-19)">
    <g
       style="color:#ff0000;fill:none;stroke:currentColor;stroke-width:1;stroke-linecap:butt;stroke-linejoin:miter"
       id="g368" />
  </a>
  <path
     style="color:#000000;fill:none;stroke:currentColor;stroke-width:1;stroke-linecap:butt;stroke-linejoin:miter"
     inkscape:connector-curvature="0"
     id="path374"
     d="m 56.240479,393.8 486.800001,0"
     sodipodi:nodetypes="cc" />
  <g
     inkscape:groupmode="layer"
     id="layer1"
     inkscape:label="ovals"
     style="display:inline"
     transform="translate(-27.759521,-19)">
    <path
       style="color:#ff0000;fill:#ff00ff;fill-opacity:0.25098039;stroke:none"
       d="m 554,412.8 0,-0.2 0,-0.2 0,-0.2 -0.1,-0.1 0,-0.2 0,-0.2 -0.1,-0.2 0,-0.2 0,-0.2 -0.1,-0.2 0,-0.2 0,-0.2 0,-0.2 -0.1,-0.2 0,-0.2 0,-0.2 -0.1,-0.2 0,-0.2 0,-0.2 0,-0.2 -0.1,-0.3 0,-0.2 0,-0.2 0,-0.2 -0.1,-0.2 0,-0.2 0,-0.2 0,-0.2 -0.1,-0.2 0,-0.3 0,-0.2 0,-0.2 -0.1,-0.2 0,-0.2 0,-0.2 0,-0.3 0,-0.2 -0.1,-0.2 0,-0.2 0,-0.2 0,-0.3 0,-0.2 -0.1,-0.2 0,-0.2 0,-0.2 0,-0.3 0,-0.2 0,-0.2 -0.1,-0.2 0,-0.3 0,-0.2 0,-0.2 0,-0.2 0,-0.3 0,-0.2 -0.1,-0.2 0,-0.2 0,-0.3 0,-0.2 0,-0.2 0,-0.2 0,-0.3 0,-0.2 -0.1,-0.2 0,-0.3 0,-0.2 0,-0.2 0,-0.2 0,-0.3 0,-0.2 0,-0.2 0,-0.2 0,-0.3 0,-0.2 0,-0.2 -0.1,-0.3 0,-0.2 0,-0.2 0,-0.2 0,-0.3 0,-0.2 0,-0.2 0,-0.2 0,-0.3 0,-0.2 0,-0.2 0,-0.3 0,-0.2 0,-0.2 0,-0.2 0,-0.2 0,-0.3 0,-0.2 0,-0.2 0,-0.2 0,-0.3 0,-0.2 0,-0.2 0,-0.2 0,-0.2 0,-0.3 0,-0.2 0,-0.2 0,-0.2 0,-0.2 0.1,-0.3 0,-0.2 0,-0.2 0,-0.2 0,-0.2 0,-0.2 0,-0.2 0,-0.2 0,-0.3 0,-0.2 0,-0.2 0,-0.2 0.1,-0.2 0,-0.2 0,-0.2 0,-0.2 0,-0.2 0,-0.2 0,-0.2 0,-0.2 0.1,-0.2 0,-0.2 0,-0.2 0,-0.2 0,-0.2 0,-0.2 0,-0.2 0.1,-0.2 0,-0.2 0,-0.2 0,-0.2 0,-0.2 0.1,-0.2 0,-0.1 0,-0.2 0,-0.2 0,-0.2 0,-0.2 0.1,-0.2 0,-0.1 0,-0.2 0,-0.2 0.1,-0.2 0,-0.2 0,-0.1 0,-0.2 0,-0.2 0.1,-0.1 0,-0.2 0,-0.2 0,-0.1 0.1,-0.2 0,-0.2 0,-0.1 0,-0.2 0.1,-0.2 0,-0.1 0,-0.2 0,-0.1 0.1,-0.2 0,-0.1 0,-0.2 0.1,-0.1 0,-0.2 0,-0.1 0,-0.2 0.1,-0.1 0,-0.1 0,-0.2 0.1,-0.1 0,-0.2 0,-0.1 0.1,-0.1 0,-0.2 0,-0.1 0.1,-0.1 0,-0.1 0,-0.2 0.1,-0.1 0,-0.1 0,-0.1 0.1,-0.2 0,-0.1 0,-0.1 0.1,-0.1 0,-0.1 0,-0.1 0.1,-0.1 0,-0.1 0,-0.1 0.1,-0.1 0,-0.1 0.1,-0.1 0,-0.1 0,-0.1 0.1,-0.1 0,-0.1 0,-0.1 0.1,-0.1 0,-0.1 0.1,-0.1 0,-0.1 0.1,-0.1 0,-0.1 0,-0.1 0.1,0 0,-0.1 0.1,-0.1 0,-0.1 0.1,-0.1 0.1,-0.1 0,-0.1 0.1,0 0,-0.1 0.1,-0.1 0.1,-0.1 0,-0.1 0.1,0 0.1,-0.1 0.1,0 0,-0.1 0.1,0 0,-0.1 0.1,0 0.1,0 0.1,0 0,-0.1 0.10586,-0.002 0.0941,0.002 0.1,0 0.1,0 0.1,0 0.1,0 0,0.1 0.1,0 0.1,0 0.1,0.1 0.1,0 0,0.1 0.1,0 0,0.1 0.1,0 0.1,0.1 0.1,0.1 0.1,0.1 0,0.1 0.1,0 0,0.1 0.1,0 0,0.1 0.1,0.1 0.1,0.1 0,0.1 0.1,0 0,0.1 0,0.1 0.1,0.1 0.1,0.1 0,0.1 0.1,0.1 0,0.1 0.1,0.1 0,0.1 0.1,0.1 0,0.1 0.1,0.1 0,0.1 0.1,0.1 0,0.1 0.1,0.1 0,0.1 0,0.1 0.1,0.2 0,0.1 0.1,0.1 0,0.1 0.1,0.1 0,0.1 0,0.1 0.1,0.2 0,0.1 0.1,0.1 0,0.1 0.1,0.2 0,0.1 0,0.1 0.1,0.2 0,0.1 0.1,0.1 0,0.2 0,0.1 0.1,0.2 0,0.1 0.1,0.1 0,0.2 0,0.1 0.1,0.2 0,0.1 0.1,0.2 0,0.1 0,0.2 0.1,0.1 0,0.2 0.1,0.2 0,0.1 0,0.2 0.1,0.1 0,0.2 0,0.2 0.1,0.1 0,0.2 0.1,0.2 0,0.2 0,0.1 0.1,0.2 0,0.2 0,0.2 0.1,0.1 0,0.2 0,0.2 0.1,0.2 0,0.1 0,0.2 0.1,0.2 0,0.2 0,0.2 0.1,0.2 0,0.2 0,0.2 0.1,0.2 0,0.1 0,0.2 0.1,0.2 0,0.2 0,0.2 0,0.2 0.1,0.2 0,0.2 0,0.2 0.1,0.2 0,0.2 0,0.2 0,0.2 0.1,0.2 0,0.2 0,0.2 0.1,0.3 0,0.2 0,0.2 0,0.2 0.1,0.2 0,0.2 0,0.2 0,0.2 0,0.2 0.1,0.3 0,0.2 0,0.2 0,0.2 0.1,0.2 0,0.2 0,0.3 0,0.2 0,0.2 0.1,0.2 0,0.2 0,0.3 0,0.2 0,0.2 0.1,0.2 0,0.2 0,0.3 0,0.2 0,0.2 0,0.2 0.1,0.3 0,0.2 0,0.2 0,0.2 0,0.3 0,0.2 0,0.2 0.1,0.2 0,0.3 0,0.2 0,0.2 0,0.2 0,0.3 0,0.2 0,0.2 0.1,0.3 0,0.2 0,0.2 0,0.2 0,0.3 0,0.2 0,0.2 0,0.3 0,0.2 0,0.2 0,0.2 0,0.3 0,0.2 0.1,0.2 0,0.2 0,0.3 0,0.2 0,0.2 0,0.3 0,0.2 0,0.2 0,0.2 0,0.3 0,0.2 0,0.2 0,0.2 0,0.3 0,0.2 0,0.2 0,0.2 0,0.2 0,0.3 0,0.2 0,0.2 0,0.2 0,0.2 0,0.3 0,0.2 -0.1,0.2 0,0.2 0,0.2 0,0.3 0,0.2 0,0.2 0,0.2 0,0.2 0,0.2 0,0.2 0,0.3 0,0.2 0,0.2 0,0.2 -0.1,0.2 0,0.2 0,0.2 0,0.2 0,0.2 0,0.2 0,0.2 0,0.2 -0.1,0.2 0,0.2 0,0.2 0,0.2 0,0.2 0,0.2 0,0.2 -0.1,0.2 0,0.2 0,0.2 0,0.2 0,0.2 0,0.2 -0.1,0.2"
       id="path322"
       inkscape:connector-curvature="0"
       sodipodi:nodetypes="cccccccccccccccccccccccccccccccccccccccccccccccccccccccccccccccccccccccccccccccccccccccccccccccccccccccccccccccccccccccccccccccccccccccccccccccccccccccccccccccccccccccccccccccccccccccccccccccccccccccccccccccccccccccccccccccccccccccccccccccccccccccccccccccccccccccccccccccccccccccccccccccccccccccccccccccccccccccccccccccccccccccccccccccccccccccccccccccccccccccccccccccccccccccccccccccccccccccccccccccccccccccccccccccccccccccccccccccccccccccccccccccccccccccccccccccccccccc" />
    <path
       style="color:#ff0000;fill:#0000ff;fill-opacity:0.25098039;stroke:none"
       d="m 541.9,161.7 0.2,0 0.1,0 0.2,0 0.2,0 0.1,0 0.2,0 0.1,0 0.2,0 0.2,0 0.1,0 0.2,0.1 0.1,0 0.2,0.1 0.2,0 0.1,0.1 0.2,0 0.1,0.1 0.2,0.1 0.2,0.1 0.1,0 0.2,0.1 0.2,0.1 0.1,0.1 0.2,0.2 0.1,0.1 0.2,0.1 0.2,0.1 0.1,0.2 0.2,0.1 0.2,0.1 0.1,0.2 0.2,0.2 0.1,0.1 0.2,0.2 0.2,0.2 0.1,0.2 0.2,0.1 0.1,0.2 0.2,0.2 0.2,0.2 0.1,0.3 0.2,0.2 0.2,0.2 0.1,0.2 0.2,0.3 0.1,0.2 0.2,0.2 0.2,0.3 0.1,0.2 0.2,0.3 0.1,0.3 0.2,0.3 0.2,0.2 0.1,0.3 0.2,0.3 0.1,0.3 0.2,0.3 0.2,0.3 0.1,0.3 0.2,0.3 0.1,0.4 0.2,0.3 0.1,0.3 0.2,0.4 0.1,0.3 0.2,0.4 0.2,0.3 0.1,0.4 0.2,0.3 0.1,0.4 0.2,0.4 0.1,0.4 0.2,0.3 0.1,0.4 0.2,0.4 0.1,0.4 0.2,0.4 0.1,0.4 0.2,0.5 0.1,0.4 0.2,0.4 0.1,0.4 0.1,0.5 0.2,0.4 0.1,0.4 0.2,0.5 0.1,0.4 0.2,0.5 0.1,0.5 0.1,0.4 0.2,0.5 0.1,0.5 0.2,0.4 0.1,0.5 0.1,0.5 0.2,0.5 0.1,0.5 0.1,0.5 0.2,0.5 0.1,0.5 0.1,0.5 0.2,0.6 0.1,0.5 0.1,0.5 0.2,0.5 0.1,0.6 0.1,0.5 0.1,0.5 0.2,0.6 0.1,0.5 0.1,0.6 0.1,0.5 0.1,0.6 0.2,0.6 0.1,0.5 0.1,0.6 0.1,0.6 0.1,0.5 0.2,0.6 0.1,0.6 0.1,0.6 0.1,0.6 0.1,0.6 0.1,0.6 0.1,0.6 0.1,0.6 0.1,0.6 0.1,0.6 0.1,0.6 0.2,0.6 0.1,0.6 0.1,0.6 0.1,0.7 0.1,0.6 0.1,0.6 0.1,0.6 0,0.7 0.1,0.6 0.1,0.6 0.1,0.7 0.1,0.6 0.1,0.7 0.1,0.6 0.1,0.7 0.1,0.6 0.1,0.7 0,0.6 0.1,0.7 0.1,0.6 0.1,0.7 0.1,0.7 0,0.6 0.1,0.7 0.1,0.6 0.1,0.7 0,0.7 0.1,0.7 0.1,0.6 0.1,0.7 0,0.7 0.1,0.7 0.1,0.6 0,0.7 0.1,0.7 0,0.7 0.1,0.7 0.1,0.6 0,0.7 0.1,0.7 0,0.7 0.1,0.7 0,0.7 0.1,0.7 0,0.7 0.1,0.6 0,0.7 0.1,0.7 0,0.7 0.1,0.7 0,0.7 0,0.7 0.1,0.7 0,0.7 0,0.7 0.1,0.7 0,0.7 0,0.7 0.1,0.6 0,0.7 0,0.7 0.1,0.7 0,0.7 0,0.7 0,0.7 0,0.7 0.1,0.7 0,0.7 0,0.7 0,0.6 0,0.7 0,0.7 0.1,0.7 0,0.7 0,0.7 0,0.7 0,0.6 0,0.7 0,0.7 0,0.7 0,0.7 0,0.6 0,0.7 0,0.7 0,0.6 0,0.7 -0.1,0.7 0,0.7 0,0.6 0,0.7 0,0.6 0,0.7 0,0.7 -0.1,0.6 0,0.7 0,0.6 0,0.7 -0.1,0.6 0,0.7 0,0.6 0,0.7 -0.1,0.6 0,0.6 0,0.7 -0.1,0.6 0,0.6 0,0.7 -0.1,0.6 0,0.6 -0.1,0.6 0,0.6 0,0.6 -0.1,0.7 0,0.6 -0.1,0.6 0,0.6 -0.1,0.6 0,0.6 -0.1,0.6 -0.1,0.5 0,0.6 -0.1,0.6 0,0.6 -0.1,0.6 -0.1,0.5 0,0.6 -0.1,0.6 0,0.5 -0.1,0.6 -0.1,0.6 0,0.5 -0.1,0.6 -0.1,0.5 -0.1,0.5 0,0.6 -0.1,0.5 -0.1,0.5 -0.1,0.6 -0.1,0.5 0,0.5 -0.1,0.5 -0.1,0.5 -0.1,0.5 -0.1,0.5 -0.1,0.5 0,0.5 -0.1,0.5 -0.1,0.5 -0.1,0.5 -0.1,0.4 -0.1,0.5 -0.1,0.5 -0.1,0.4 -0.1,0.5 -0.1,0.4 -0.1,0.5 -0.1,0.4 -0.1,0.5 -0.1,0.4 -0.1,0.4 -0.1,0.5 -0.1,0.4 -0.1,0.4 -0.1,0.4 -0.1,0.4 -0.1,0.4 -0.2,0.4 -0.1,0.4 -0.1,0.4 -0.1,0.4 -0.1,0.3 -0.1,0.4 -0.2,0.4 -0.1,0.3 -0.1,0.4 -0.1,0.3 -0.1,0.4 -0.2,0.3 -0.1,0.4 -0.1,0.3 -0.1,0.3 -0.2,0.3 -0.1,0.3 -0.1,0.3 -0.1,0.3 -0.2,0.3 -0.1,0.3 -0.1,0.3 -0.2,0.3 -0.1,0.3 -0.1,0.2 -0.2,0.3 -0.1,0.2 -0.1,0.3 -0.2,0.2 -0.1,0.3 -0.1,0.2 -0.2,0.2 -0.1,0.3 -0.2,0.2 -0.1,0.2 -0.2,0.2 -0.1,0.2 -0.1,0.2 -0.2,0.2 -0.1,0.2 -0.2,0.1 -0.1,0.2 -0.2,0.2 -0.1,0.1 -0.2,0.2 -0.1,0.1 -0.2,0.2 -0.1,0.1 -0.2,0.1 -0.1,0.2 -0.2,0.1 -0.1,0.1 -0.2,0.1 -0.1,0.1 -0.2,0.1 -0.1,0.1 -0.2,0.1 -0.1,0 -0.2,0.1 -0.1,0.1 -0.2,0 -0.2,0.1 -0.1,0 -0.2,0.1 -0.1,0 -0.2,0 -0.1,0 -0.2,0.1 -0.2,0 -0.1,0 -0.2,0 -0.1,0 -0.2,-0.1 -0.2,0 -0.1,0 -0.2,0 -0.1,-0.1 -0.2,0 -0.2,-0.1 -0.1,0 -0.2,-0.1 -0.1,-0.1 -0.2,0 -0.2,-0.1 -0.1,-0.1 -0.2,-0.1 -0.2,-0.1 -0.1,-0.1 -0.2,-0.1 -0.1,-0.1 -0.2,-0.2 -0.2,-0.1 -0.1,-0.1 -0.2,-0.2 -0.2,-0.1 -0.1,-0.2 -0.2,-0.1 -0.1,-0.2 -0.2,-0.2 -0.2,-0.1 -0.1,-0.2 -0.2,-0.2 -0.2,-0.2 -0.1,-0.2 -0.2,-0.2 -0.1,-0.2 -0.2,-0.2 -0.2,-0.2 -0.1,-0.3 -0.2,-0.2 -0.1,-0.2 -0.2,-0.3 -0.2,-0.2 -0.1,-0.3 -0.2,-0.3 -0.1,-0.2 -0.2,-0.3 -0.2,-0.3 -0.1,-0.3 -0.2,-0.3 -0.1,-0.3 -0.2,-0.3 -0.2,-0.3 -0.1,-0.3 -0.2,-0.3 -0.1,-0.3 -0.2,-0.3 -0.1,-0.4 -0.2,-0.3 -0.1,-0.4 -0.2,-0.3 -0.2,-0.4 -0.1,-0.3 -0.2,-0.4 -0.1,-0.4 -0.2,-0.3 -0.1,-0.4 -0.2,-0.4 -0.1,-0.4 -0.2,-0.4 -0.1,-0.4 -0.2,-0.4 -0.1,-0.4 -0.2,-0.4 -0.1,-0.4 -0.2,-0.5 -0.1,-0.4 -0.1,-0.4 -0.2,-0.5 -0.1,-0.4 -0.2,-0.4 -0.1,-0.5 -0.2,-0.5 -0.1,-0.4 -0.1,-0.5 -0.2,-0.5 -0.1,-0.4 -0.2,-0.5 -0.1,-0.5 -0.1,-0.5 -0.2,-0.5 -0.1,-0.5 -0.1,-0.5 -0.2,-0.5 -0.1,-0.5 -0.1,-0.5 -0.2,-0.5 -0.1,-0.5 -0.1,-0.6 -0.2,-0.5 -0.1,-0.5 -0.1,-0.6 -0.1,-0.5 -0.2,-0.5 -0.1,-0.6 -0.1,-0.5 -0.1,-0.6 -0.1,-0.5 -0.2,-0.6 -0.1,-0.6 -0.1,-0.5 -0.1,-0.6 -0.1,-0.6 -0.2,-0.6 -0.1,-0.6 -0.1,-0.5 -0.1,-0.6 -0.1,-0.6 -0.1,-0.6 -0.1,-0.6 -0.1,-0.6 -0.1,-0.6 -0.1,-0.6 -0.2,-0.6 -0.1,-0.7 -0.1,-0.6 -0.1,-0.6 -0.1,-0.6 -0.1,-0.6 -0.1,-0.7 -0.1,-0.6 0,-0.6 -0.1,-0.7 -0.1,-0.6 -0.1,-0.6 -0.1,-0.7 -0.1,-0.6 -0.1,-0.7 -0.1,-0.6 -0.1,-0.7 -0.1,-0.6 0,-0.7 -0.1,-0.6 -0.1,-0.7 -0.1,-0.6 -0.1,-0.7 0,-0.7 -0.1,-0.6 -0.1,-0.7 -0.1,-0.7 0,-0.6 -0.1,-0.7 -0.1,-0.7 -0.1,-0.7 0,-0.6 -0.1,-0.7 -0.1,-0.7 0,-0.7 -0.1,-0.6 0,-0.7 -0.1,-0.7 -0.1,-0.7 0,-0.7 -0.1,-0.7 0,-0.7 -0.1,-0.6 0,-0.7 -0.1,-0.7 0,-0.7 -0.1,-0.7 0,-0.7 -0.1,-0.7 0,-0.7 -0.1,-0.7 0,-0.7 0,-0.6 -0.1,-0.7 0,-0.7 -0.1,-0.7 0,-0.7 0,-0.7 0,-0.7 -0.1,-0.7 0,-0.7 0,-0.7 -0.1,-0.7 0,-0.7 0,-0.7 0,-0.6 -0.1,-0.7 0,-0.7 0,-0.7 0,-0.7 0,-0.7 0,-0.7 0,-0.7 -0.1,-0.7 0,-0.6 0,-0.7 0,-0.7 0,-0.7 0,-0.7 0,-0.7 0,-0.6 0,-0.7 0,-0.7 0,-0.7 0,-0.6 0,-0.7 0,-0.7 0.1,-0.6 0,-0.7 0,-0.7 0,-0.6 0,-0.7 0,-0.7 0,-0.6 0.1,-0.7 0,-0.6 0,-0.7 0,-0.6 0.1,-0.7 0,-0.6 0,-0.7 0,-0.6 0.1,-0.6 0,-0.7 0,-0.6 0.1,-0.6 0,-0.7 0,-0.6 0.1,-0.6 0,-0.7 0.1,-0.6 0,-0.6 0,-0.6 0.1,-0.6 0,-0.6 0.1,-0.6 0,-0.6 0.1,-0.6 0,-0.6 0.1,-0.6 0.1,-0.6 0,-0.6 0.1,-0.6 0,-0.5 0.1,-0.6 0,-0.6 0.1,-0.6 0.1,-0.5 0,-0.6 0.1,-0.6 0.1,-0.5 0,-0.6 0.1,-0.5 0.1,-0.6 0.1,-0.5 0,-0.5 0.1,-0.6 0.1,-0.5 0.1,-0.5 0.1,-0.5 0,-0.6 0.1,-0.5 0.1,-0.5 0.1,-0.5 0.1,-0.5 0.1,-0.5 0,-0.5 0.1,-0.5 0.1,-0.4 0.1,-0.5 0.1,-0.5 0.1,-0.5 0.1,-0.4 0.1,-0.5 0.1,-0.4 0.1,-0.5 0.1,-0.4 0.1,-0.5 0.1,-0.4 0.1,-0.5 0.1,-0.4 0.1,-0.4 0.1,-0.4 0.1,-0.5 0.1,-0.4 0.1,-0.4 0.1,-0.4 0.2,-0.4 0.1,-0.4 0.1,-0.3 0.1,-0.4 0.1,-0.4 0.1,-0.4 0.2,-0.3 0.1,-0.4 0.1,-0.3 0.1,-0.4 0.1,-0.3 0.2,-0.4 0.1,-0.3 0.1,-0.3 0.1,-0.4 0.2,-0.3 0.1,-0.3 0.1,-0.3 0.1,-0.3 0.2,-0.3 0.1,-0.3 0.1,-0.3 0.2,-0.2 0.1,-0.3 0.1,-0.3 0.2,-0.2 0.1,-0.3 0.1,-0.3 0.2,-0.2 0.1,-0.2 0.1,-0.3 0.2,-0.2 0.1,-0.2 0.2,-0.2 0.1,-0.3 0.1,-0.2 0.2,-0.2 0.1,-0.2 0.2,-0.1 0.1,-0.2 0.2,-0.2 0.1,-0.2 0.2,-0.1 0.1,-0.2 0.2,-0.1 0.1,-0.2 0.2,-0.1 0.1,-0.2 0.2,-0.1 0.1,-0.1 0.2,-0.1 0.1,-0.2 0.2,-0.1 0.1,-0.1 0.2,-0.1 0.1,0 0.2,-0.1 0.1,-0.1 0.2,-0.1 0.1,0 0.2,-0.1 0.2,0 0.1,-0.1 0.2,0 0.1,-0.1"
       id="path328"
       inkscape:connector-curvature="0" />
    <path
       style="color:#ff0000;fill:#ff0000;fill-opacity:0.25098039000000000;stroke:none;stroke-width:1;stroke-linecap:butt;stroke-linejoin:miter"
       d="m 128.8,412.8 -0.5,-0.9 -0.7,-1.5 -0.7,-1.4 -0.8,-1.5 -0.7,-1.5 -0.7,-1.5 -0.7,-1.5 -0.7,-1.5 -0.6,-1.5 -0.7,-1.5 -0.7,-1.6 -0.7,-1.5 -0.7,-1.6 -0.6,-1.5 -0.7,-1.6 -0.6,-1.6 -0.7,-1.6 -0.6,-1.6 -0.7,-1.6 -0.6,-1.7 -0.6,-1.6 -0.7,-1.7 -0.6,-1.6 -0.6,-1.7 -0.6,-1.7 -0.6,-1.7 -0.6,-1.6 -0.6,-1.7 -0.6,-1.8 -0.6,-1.7 -0.5,-1.7 -0.6,-1.7 -0.6,-1.8 -0.5,-1.7 -0.6,-1.8 -0.5,-1.8 -0.6,-1.7 -0.5,-1.8 -0.5,-1.8 -0.6,-1.8 -0.5,-1.8 -0.5,-1.8 -0.5,-1.8 -0.5,-1.9 -0.5,-1.8 -0.5,-1.8 -0.5,-1.9 -0.4,-1.8 -0.5,-1.9 -0.5,-1.8 -0.4,-1.9 -0.5,-1.9 -0.4,-1.8 -0.4,-1.9 -0.5,-1.9 -0.4,-1.9 -0.4,-1.9 -0.4,-1.9 -0.4,-1.9 -0.4,-1.9 -0.4,-1.9 -0.4,-1.9 -0.4,-1.9 -0.3,-1.9 -0.4,-2 -0.3,-1.9 -0.4,-1.9 -0.3,-2 -0.4,-1.9 -0.3,-1.9 -0.3,-2 -0.3,-1.9 -0.3,-2 -0.3,-1.9 -0.3,-2 -0.3,-1.9 -0.3,-2 -0.2,-1.9 -0.3,-2 -0.3,-2 -0.2,-1.9 -0.2,-2 -0.3,-1.9 -0.2,-2 -0.2,-2 -0.2,-1.9 -0.2,-2 -0.2,-1.9 -0.2,-2 -0.2,-2 -0.2,-1.9 -0.1,-2 -0.2,-2 -0.1,-1.9 -0.2,-2 -0.1,-1.9 -0.2,-2 -0.1,-2 -0.1,-1.9 -0.1,-2 -0.1,-1.9 -0.1,-2 -0.1,-1.9 -0.1,-1.9 0,-2 -0.1,-1.9 0,-2 -0.1,-1.9 0,-1.9 -0.1,-1.9 0,-2 0,-1.9 0,-1.9 0,-1.9 0,-1.9 0,-1.9 0,-1.9 0.1,-1.9 0,-1.9 0.1,-1.9 0,-1.9 0.1,-1.9 0,-1.8 0.1,-1.9 0.1,-1.8 0.1,-1.9 0.1,-1.9 0.1,-1.8 0.1,-1.8 0.1,-1.9 0.1,-1.8 0.2,-1.8 0.1,-1.8 0.2,-1.8 0.1,-1.8 0.2,-1.8 0.2,-1.8 0.1,-1.8 0.2,-1.7 0.2,-1.8 0.2,-1.8 0.2,-1.7 0.3,-1.7 0.2,-1.8 0.2,-1.7 0.2,-1.7 0.3,-1.7 0.2,-1.7 0.3,-1.7 0.3,-1.7 0.3,-1.7 0.2,-1.6 0.3,-1.7 0.3,-1.6 0.3,-1.7 0.3,-1.6 0.4,-1.6 0.3,-1.6 0.3,-1.6 0.3,-1.6 0.4,-1.6 0.3,-1.5 0.4,-1.6 0.4,-1.5 0.3,-1.5 0.4,-1.6 0.4,-1.5 0.4,-1.5 0.4,-1.5 0.4,-1.4 0.4,-1.5 0.4,-1.5 0.5,-1.4 0.4,-1.4 0.4,-1.5 0.5,-1.4 0.4,-1.4 0.5,-1.4 0.5,-1.3 0.4,-1.4 0.5,-1.3 0.5,-1.4 0.5,-1.3 0.5,-1.3 0.5,-1.3 0.5,-1.3 0.5,-1.3 0.5,-1.2 0.6,-1.3 0.5,-1.2 0.5,-1.2 0.6,-1.2 0.5,-1.2 0.6,-1.2 0.6,-1.1 0.5,-1.2 0.6,-1.1 0.6,-1.1 0.6,-1.2 0.6,-1 0.6,-1.1 0.6,-1.1 0.6,-1 0.6,-1.1 0.6,-1 0.6,-1 0.7,-1 0.6,-1 0.6,-0.9 0.7,-1 0.6,-0.9 0.7,-0.9 0.6,-0.9 0.7,-0.9 0.7,-0.9 0.7,-0.8 0.6,-0.9 0.7,-0.8 0.7,-0.8 0.7,-0.8 0.7,-0.8 0.7,-0.8 0.7,-0.7 0.7,-0.7 0.7,-0.7 0.7,-0.7 0.8,-0.7 0.7,-0.7 0.7,-0.6 0.8,-0.7 0.7,-0.6 0.8,-0.6 0.71168,-0.6 0.78832,-0.6 0.7,-0.5 0.8,-0.5 0.7,-0.6 0.8,-0.5 0.8,-0.4 0.7,-0.5 0.8,-0.5 0.8,-0.4 0.8,-0.4 0.8,-0.4 0.8,-0.4 0.7,-0.4 0.8,-0.3 0.8,-0.4 0.8,-0.3 0.8,-0.3 0.9,-0.3 0.8,-0.2 0.8,-0.3 0.8,-0.2 0.8,-0.2 0.8,-0.2 0.9,-0.2 0.8,-0.2 0.8,-0.1 0.8,-0.2 0.9,-0.1 0.8,-0.1 0.8,-0.1 0.9,0 0.8,-0.1 0.9,0 0.8,0 0.9,0 0.8,0 0.9,0.1 0.8,0 0.9,0.1 0.8,0.1 0.9,0.1 0.8,0.1 0.9,0.1 0.8,0.2 0.9,0.2 0.9,0.2 0.8,0.2 0.9,0.2 0.8,0.3 0.9,0.2 0.9,0.3 0.8,0.3 0.9,0.3 0.9,0.3 0.8,0.4 0.9,0.3 0.9,0.4 0.8,0.4 0.9,0.4 0.9,0.5 0.9,0.4 0.8,0.5 0.9,0.5 0.9,0.5 0.8,0.5 0.9,0.5 0.9,0.5 0.8,0.6 0.9,0.6 0.9,0.6 0.8,0.6 0.9,0.6 0.8,0.7 0.9,0.6 0.9,0.7 0.8,0.7 0.9,0.7 0.9,0.7 0.8,0.8 0.9,0.7 0.8,0.8 0.9,0.8 0.8,0.8 0.9,0.8 0.8,0.8 0.9,0.9 0.8,0.9 0.9,0.8 0.8,0.9 0.9,1 0.8,0.9 0.8,0.9 0.9,1 0.8,0.9 0.8,1 0.9,1 0.8,1.1 0.8,1 0.8,1 0.8,1.1 0.9,1.1 0.8,1 0.8,1.1 0.8,1.2 0.8,1.1 0.8,1.1 0.8,1.2 0.8,1.2 0.8,1.2 0.8,1.2 0.8,1.2 0.8,1.2 0.7,1.2 0.8,1.3 0.8,1.3 0.8,1.2 0.7,1.3 0.8,1.3 0.7,1.3 0.8,1.4 0.8,1.3 0.7,1.4 0.8,1.3 0.7,1.4 0.7,1.4 0.8,1.4 0.7,1.4 0.7,1.5 0.7,1.4 0.8,1.5 0.7,1.4 0.7,1.5 0.7,1.5 0.7,1.5 0.7,1.5 0.7,1.5 0.6,1.5 0.7,1.6 0.7,1.5 0.7,1.6 0.6,1.6 0.7,1.5 0.6,1.6 0.7,1.6 0.6,1.6 0.7,1.7 0.6,1.6 0.7,1.6 0.6,1.7 0.6,1.6 0.6,1.7 0.6,1.7 0.6,1.7 0.6,1.7 0.6,1.7 0.6,1.7 0.6,1.7 0.6,1.7 0.5,1.8 0.6,1.7 0.6,1.8 0.5,1.7 0.6,1.8 0.5,1.8 0.5,1.7 0.6,1.8 0.5,1.8 0.5,1.8 0.5,1.8 0.5,1.9 0.5,1.8 0.5,1.8 0.5,1.8 0.5,1.9 0.4,1.8 0.5,1.9 0.5,1.8 0.4,1.9 0.5,1.9 0.4,1.8 0.5,1.9 0.4,1.9 0.4,1.9 0.4,1.9 0.4,1.9 0.4,1.9 0.4,1.9 0.4,1.9 0.4,1.9 0.4,1.9 0.3,2 0.4,1.9 0.3,1.9 0.4,1.9 0.3,2 0.4,1.9 0.3,2 0.3,1.9 0.3,1.9 0.3,2 0.3,1.9 0.3,2 0.3,1.9 0.3,2 0.2,2 0.3,1.9 0.3,2 0.2,1.9 0.3,2 0.2,2 0.2,1.9 0.2,2 0.2,1.9 0.2,2 0.2,2 0.2,1.9 0.2,2 0.2,2 0.1,1.9 0.2,2 0.2,1.9 0.1,2 0.1,2 0.2,1.9 0.1,2 0.1,1.9 0.1,2 0.1,1.9 0.1,2 0.1,1.9 0.1,2 0,1.9 0.1,1.9 0,2 0.1,1.9 0,1.9 0.1,2 0,1.9 0,1.9 0,1.9 0,1.9 0,1.9 0,1.9 0,1.9 -0.1,1.9 0,1.9 0,1.9 -0.1,1.9 -0.1,1.9 0,1.8 -0.1,1.9 -0.1,1.9 -0.1,1.8 -0.1,1.9 -0.1,1.8 -0.1,1.8 -0.1,1.9 -0.1,1.8 -0.2,1.8 -0.1,1.8 -0.2,1.8 -0.1,1.8 -0.2,1.8 -0.2,1.8 -0.1,1.8 -0.2,1.8 -0.2,1.7 -0.2,1.8 -0.2,1.7 -0.2,1.8 -0.3,1.7 -0.2,1.7 -0.2,1.7 -0.3,1.7 -0.2,1.7 -0.3,1.7 -0.3,1.7 -0.2,1.7 -0.3,1.6 -0.3,1.7 -0.3,1.6 -0.3,1.7 -0.3,1.6 -0.3,1.6 -0.4,1.6 -0.3,1.6 -0.3,1.6 -0.4,1.6 -0.3,1.5 -0.4,1.6 -0.4,1.5 -0.3,1.6 -0.4,1.5 -0.4,1.5 -0.4,1.5 -0.4,1.5 -0.4,1.5 -0.4,1.4 -0.4,1.5 -0.5,1.4 -0.4,1.5"
       id="path334"
       inkscape:connector-curvature="0"
       sodipodi:nodetypes="ccccccccccccccccccccccccccccccccccccccccccccccccccccccccccccccccccccccccccccccccccccccccccccccccccccccccccccccccccccccccccccccccccccccccccccccccccccccccccccccccccccccccccccccccccccccccccccccccccccccccccccccccccccccccccccccccccccccccccccccccccccccccccccccccccccccccccccccccccccccccccccccccccccccccccccccccccccccccccccccccccccccccccccccccccccccccccccccccccccccccccccccccccccccccccccccccccccccccccccccccccccccccccccccccccccccccccccccccccccccccccccccccccccccccccccccccccccccccccccccccccccccccccccccccccccccccccccccccccccccccccccccccccccccc" />
    <path
       style="color:#ff0000;fill:#00ff00;fill-opacity:0.25098039;stroke:none"
       d="m 419.4,98.8 0.3,-0.2 0.3,-0.2 0.3,-0.1 0.4,-0.2 0.3,-0.1 0.3,-0.1 0.4,-0.2 0.3,-0.1 0.3,-0.1 0.3,0 0.4,-0.1 0.3,-0.1 0.4,0 0.3,-0.1 0.3,0 0.4,-0.1 0.3,0 0.4,0 0.3,0 0.4,0 0.3,0.1 0.4,0 0.3,0.1 0.4,0 0.3,0.1 0.4,0.1 0.3,0 0.4,0.1 0.4,0.1 0.3,0.2 0.4,0.1 0.3,0.1 0.4,0.2 0.4,0.1 0.3,0.2 0.4,0.2 0.4,0.2 0.3,0.2 0.4,0.2 0.4,0.2 0.3,0.2 0.4,0.3 0.4,0.2 0.3,0.3 0.4,0.3 0.4,0.2 0.4,0.3 0.3,0.3 0.4,0.3 0.4,0.4 0.4,0.3 0.3,0.3 0.4,0.4 0.4,0.3 0.4,0.4 0.3,0.4 0.4,0.4 0.4,0.4 0.4,0.4 0.3,0.4 0.4,0.4 0.4,0.5 0.4,0.4 0.4,0.5 0.3,0.4 0.4,0.5 0.4,0.5 0.4,0.5 0.3,0.5 0.4,0.5 0.4,0.5 0.4,0.5 0.4,0.6 0.3,0.5 0.4,0.6 0.4,0.5 0.4,0.6 0.3,0.6 0.4,0.6 0.4,0.6 0.4,0.6 0.3,0.6 0.4,0.7 0.4,0.6 0.4,0.6 0.3,0.7 0.4,0.7 0.4,0.6 0.3,0.7 0.4,0.7 0.4,0.7 0.4,0.7 0.3,0.7 0.4,0.7 0.4,0.8 0.3,0.7 0.4,0.7 0.3,0.8 0.4,0.8 0.4,0.7 0.3,0.8 0.4,0.8 0.3,0.8 0.4,0.8 0.4,0.8 0.3,0.8 0.4,0.8 0.3,0.9 0.4,0.8 0.3,0.8 0.4,0.9 0.3,0.8 0.4,0.9 0.3,0.9 0.4,0.9 0.3,0.8 0.3,0.9 0.4,0.9 0.3,0.9 0.4,1 0.3,0.9 0.3,0.9 0.4,0.9 0.3,1 0.3,0.9 0.3,1 0.4,0.9 0.3,1 0.3,0.9 0.3,1 0.4,1 0.3,1 0.3,1 0.3,1 0.3,1 0.3,1 0.3,1 0.3,1 0.3,1 0.3,1.1 0.3,1 0.3,1 0.3,1.1 0.3,1 0.3,1.1 0.3,1 0.3,1.1 0.3,1 0.3,1.1 0.2,1.1 0.3,1.1 0.3,1.1 0.3,1 0.2,1.1 0.3,1.1 0.3,1.1 0.2,1.1 0.3,1.1 0.3,1.1 0.2,1.1 0.3,1.2 0.2,1.1 0.3,1.1 0.2,1.1 0.3,1.2 0.2,1.1 0.3,1.1 0.2,1.2 0.2,1.1 0.3,1.1 0.2,1.2 0.2,1.1 0.2,1.2 0.3,1.1 0.2,1.2 0.2,1.1 0.2,1.2 0.2,1.1 0.2,1.2 0.2,1.2 0.2,1.1 0.2,1.2 0.2,1.2 0.2,1.1 0.2,1.2 0.2,1.2 0.2,1.1 0.2,1.2 0.2,1.2 0.1,1.2 0.2,1.1 0.2,1.2 0.2,1.2 0.1,1.2 0.2,1.1 0.1,1.2 0.2,1.2 0.1,1.2 0.2,1.2 0.1,1.1 0.2,1.2 0.1,1.2 0.2,1.2 0.1,1.1 0.1,1.2 0.2,1.2 0.1,1.2 0.1,1.1 0.1,1.2 0.2,1.2 0.1,1.2 0.1,1.1 0.1,1.2 0.1,1.2 0.1,1.1 0.1,1.2 0.1,1.1 0.1,1.2 0.1,1.2 0,1.1 0.1,1.2 0.1,1.1 0.1,1.2 0,1.1 0.1,1.2 0.1,1.1 0,1.2 0.1,1.1 0.1,1.1 0,1.2 0.1,1.1 0,1.1 0,1.2 0.1,1.1 0,1.1 0.1,1.1 0,1.1 0,1.1 0,1.1 0.1,1.1 0,1.1 0,1.1 0,1.1 0,1.1 0,1.1 0,1.1 0,1 0,1.1 0,1.1 0,1 0,1.1 -0.1,1 0,1.1 0,1 0,1.1 -0.1,1 0,1 -0.1,1 0,1.1 0,1 -0.1,1 -0.1,1 0,1 -0.1,1 0,1 -0.1,0.9 -0.1,1 0,1 -0.1,0.9 -0.1,1 -0.1,0.9 -0.1,1 0,0.9 -0.1,0.9 -0.1,1 -0.1,0.9 -0.1,0.9 -0.1,0.9 -0.1,0.9 -0.2,0.9 -0.1,0.9 -0.1,0.9 -0.1,0.8 -0.1,0.9 -0.2,0.9 -0.1,0.8 -0.1,0.9 -0.2,0.8 -0.1,0.8 -0.1,0.8 -0.2,0.9 -0.1,0.8 -0.2,0.8 -0.1,0.8 -0.2,0.7 -0.2,0.8 -0.1,0.8 -0.2,0.7 -0.2,0.8 -0.1,0.7 -0.2,0.8 -0.2,0.7 -0.2,0.7 -0.1,0.7 -0.2,0.7 -0.2,0.7 -0.2,0.7 -0.2,0.7 -0.2,0.7 -0.2,0.6 -0.2,0.7 -0.2,0.6 -0.2,0.7 -0.2,0.6 -0.2,0.6 -0.3,0.6 -0.2,0.6 -0.2,0.6 -0.2,0.6 -0.3,0.6 -0.2,0.6 -0.2,0.5 -0.3,0.6 -0.2,0.5 -0.2,0.5 -0.3,0.6 -0.2,0.5 -0.3,0.5 -0.2,0.5 -0.3,0.4 -0.2,0.5 -0.3,0.5 -0.3,0.4 -0.2,0.5 -0.3,0.4 -0.2,0.4 -0.3,0.5 -0.3,0.4 -0.3,0.4 -0.2,0.4 -0.3,0.3 -0.3,0.4 -0.3,0.4 -0.3,0.3 -0.3,0.3 -0.2,0.4 -0.3,0.3 -0.3,0.3 -0.3,0.3 -0.3,0.3 -0.3,0.3 -0.3,0.2 -0.3,0.3 -0.3,0.3 -0.3,0.2 -0.4,0.2 -0.3,0.2 -0.3,0.3 -0.3,0.2 -0.3,0.1 -0.3,0.2 -0.4,0.2 -0.3,0.1 -0.3,0.2 -0.3,0.1 -0.4,0.2 -0.3,0.1 -0.3,0.1 -0.3,0.1 -0.4,0.1 -0.3,0.1 -0.4,0 -0.3,0.1 -0.3,0 -0.4,0.1 -0.3,0 -0.4,0 -0.3,0 -0.4,0 -0.3,0 -0.4,0 -0.3,-0.1 -0.4,0 -0.3,-0.1 -0.4,-0.1 -0.3,0 -0.4,-0.1 -0.3,-0.1 -0.4,-0.1 -0.3,-0.1 -0.4,-0.2 -0.4,-0.1 -0.3,-0.2 -0.4,-0.1 -0.4,-0.2 -0.3,-0.2 -0.4,-0.2 -0.4,-0.2 -0.3,-0.2 -0.4,-0.2 -0.4,-0.2 -0.3,-0.2 -0.4,-0.3 -0.4,-0.3 -0.3,-0.2 -0.4,-0.3 -0.4,-0.3 -0.4,-0.3 -0.3,-0.3 -0.4,-0.3 -0.4,-0.4 -0.4,-0.3 -0.3,-0.3 -0.4,-0.4 -0.4,-0.4 -0.4,-0.4 -0.3,-0.3 -0.4,-0.4 -0.4,-0.4 -0.4,-0.5 -0.4,-0.4 -0.3,-0.4 -0.4,-0.5 -0.4,-0.4 -0.4,-0.5 -0.3,-0.5 -0.4,-0.5 -0.4,-0.4 -0.4,-0.5 -0.4,-0.6 -0.3,-0.5 -0.4,-0.5 -0.4,-0.6 -0.4,-0.5 -0.3,-0.6 -0.4,-0.5 -0.4,-0.6 -0.4,-0.6 -0.3,-0.6 -0.4,-0.6 -0.4,-0.6 -0.4,-0.6 -0.3,-0.6 -0.4,-0.7 -0.4,-0.6 -0.4,-0.7 -0.3,-0.6 -0.4,-0.7 -0.4,-0.7 -0.3,-0.7 -0.4,-0.7 -0.4,-0.7 -0.4,-0.7 -0.3,-0.7 -0.4,-0.7 -0.3,-0.8 -0.4,-0.7 -0.4,-0.8 -0.3,-0.7 -0.4,-0.8 -0.4,-0.8 -0.3,-0.8 -0.4,-0.8 -0.3,-0.8 -0.4,-0.8 -0.3,-0.8 -0.4,-0.8 -0.4,-0.8 -0.3,-0.9 -0.4,-0.8 -0.3,-0.9 -0.4,-0.8 -0.3,-0.9 -0.3,-0.9 -0.4,-0.8 -0.3,-0.9 -0.4,-0.9 -0.3,-0.9 -0.3,-0.9 -0.4,-0.9 -0.3,-0.9 -0.4,-1 -0.3,-0.9 -0.3,-0.9 -0.3,-1 -0.4,-0.9 -0.3,-1 -0.3,-0.9 -0.3,-1 -0.4,-1 -0.3,-1 -0.3,-1 -0.3,-0.9 -0.3,-1 -0.3,-1 -0.3,-1 -0.4,-1.1 -0.3,-1 -0.3,-1 -0.3,-1 -0.3,-1.1 -0.3,-1 -0.3,-1 -0.3,-1.1 -0.2,-1 -0.3,-1.1 -0.3,-1.1 -0.3,-1 -0.3,-1.1 -0.3,-1.1 -0.2,-1 -0.3,-1.1 -0.3,-1.1 -0.3,-1.1 -0.2,-1.1 -0.3,-1.1 -0.3,-1.1 -0.2,-1.1 -0.3,-1.1 -0.3,-1.1 -0.2,-1.1 -0.3,-1.1 -0.2,-1.2 -0.3,-1.1 -0.2,-1.1 -0.2,-1.2 -0.3,-1.1 -0.2,-1.1 -0.3,-1.2 -0.2,-1.1 -0.2,-1.1 -0.2,-1.2 -0.3,-1.1 -0.2,-1.2 -0.2,-1.1 -0.2,-1.2 -0.2,-1.2 -0.3,-1.1 -0.2,-1.2 -0.2,-1.1 -0.2,-1.2 -0.2,-1.2 -0.2,-1.1 -0.2,-1.2 -0.2,-1.2 -0.1,-1.1 -0.2,-1.2 -0.2,-1.2 -0.2,-1.2 -0.2,-1.1 -0.1,-1.2 -0.2,-1.2 -0.2,-1.2 -0.1,-1.1 -0.2,-1.2 -0.2,-1.2 -0.1,-1.2 -0.2,-1.1 -0.1,-1.2 -0.2,-1.2 -0.1,-1.2 -0.2,-1.2 -0.1,-1.1 -0.1,-1.2 -0.2,-1.2 -0.1,-1.2 -0.1,-1.1 -0.1,-1.2 -0.2,-1.2 -0.1,-1.2 -0.1,-1.1 -0.1,-1.2 -0.1,-1.2 -0.1,-1.1 -0.1,-1.2 -0.1,-1.2 -0.1,-1.1 -0.1,-1.2 -0.1,-1.1 -0.1,-1.2 -0.1,-1.2 0,-1.1 -0.1,-1.2 -0.1,-1.1 0,-1.1 -0.1,-1.2 -0.1,-1.1 0,-1.2 -0.1,-1.1 0,-1.1 -0.1,-1.2 0,-1.1 -0.1,-1.1 0,-1.1 -0.1,-1.2 0,-1.1 0,-1.1 0,-1.1 -0.1,-1.1 0,-1.1 0,-1.1 0,-1.1 0,-1.1 0,-1.1 0,-1.1 0,-1 0,-1.1 0,-1.1 0,-1 0,-1.1 0,-1.1 0,-1 0.1,-1.1 0,-1 0,-1 0.1,-1.1 0,-1 0,-1 0.1,-1 0,-1 0.1,-1.1 0,-1 0.1,-0.9 0,-1 0.1,-1 0.1,-1 0,-1 0.1,-0.9 0.1,-1 0.1,-1 0,-0.9 0.1,-1 0.1,-0.9 0.1,-0.9 0.1,-0.9 0.1,-1 0.1,-0.9 0.1,-0.9 0.1,-0.9 0.1,-0.9 0.1,-0.9 0.2,-0.8 0.1,-0.9 0.1,-0.9 0.1,-0.8 0.2,-0.9 0.1,-0.8 0.1,-0.9 0.2,-0.8 0.1,-0.8 0.2,-0.8 0.1,-0.8 0.2,-0.8 0.1,-0.8 0.2,-0.8 0.1,-0.8 0.2,-0.8 0.2,-0.7 0.1,-0.8 0.2,-0.7 0.2,-0.7 0.1,-0.8 0.2,-0.7 0.2,-0.7 0.2,-0.7 0.2,-0.7 0.2,-0.7 0.2,-0.7 0.2,-0.6 0.2,-0.7 0.2,-0.7 0.2,-0.6 0.2,-0.6 0.2,-0.7 0.2,-0.6 0.2,-0.6 0.3,-0.6 0.2,-0.6 0.2,-0.6 0.2,-0.6 0.3,-0.5 0.2,-0.6 0.2,-0.5 0.3,-0.6 0.2,-0.5 0.2,-0.5 0.3,-0.5 0.2,-0.5 0.3,-0.5 0.2,-0.5 0.3,-0.5 0.3,-0.5 0.2,-0.4 0.3,-0.5 0.2,-0.4 0.3,-0.4 0.3,-0.4 0.3,-0.4 0.2,-0.4 0.3,-0.4 0.3,-0.4 0.3,-0.4 0.3,-0.3 0.2,-0.4 0.3,-0.3 0.3,-0.4 0.3,-0.3 0.3,-0.3 0.3,-0.3 0.3,-0.3 0.3,-0.2 0.3,-0.3 0.3,-0.3 0.3,-0.2 0.3,-0.3 0.3,-0.2 0.3,-0.2 0.4,-0.2 0.3,-0.2 0.3,-0.2"
       id="path340"
       inkscape:connector-curvature="0" />
    <path
       style="color:#ff0000;fill:#00ff00;fill-opacity:0.25098039;stroke:none"
       d="m 377.4,63 0.2,0.1 0.2,0.1 0.2,0.2 0.1,0.2 0.2,0.2 0.2,0.2 0.2,0.2 0.2,0.2 0.1,0.3 0.2,0.2 0.2,0.3 0.2,0.3 0.1,0.3 0.2,0.3 0.1,0.3 0.2,0.3 0.1,0.4 0.2,0.3 0.1,0.4 0.2,0.4 0.1,0.4 0.2,0.4 0.1,0.4 0.1,0.4 0.2,0.5 0.1,0.4 0.1,0.5 0.1,0.5 0.1,0.5 0.2,0.5 0.1,0.5 0.1,0.5 0.1,0.6 0.1,0.5 0.1,0.6 0.1,0.6 0.1,0.6 0.1,0.6 0,0.6 0.1,0.6 0.1,0.6 0.1,0.7 0.1,0.6 0,0.7 0.1,0.7 0.1,0.7 0,0.7 0.1,0.7 0,0.7 0.1,0.8 0,0.7 0.1,0.8 0,0.8 0.1,0.7 0,0.8 0,0.8 0.1,0.9 0,0.8 0,0.8 0,0.9 0.1,0.8 0,0.9 0,0.9 0,0.9 0,0.9 0,0.9 0,0.9 0,0.9 0,1 0,0.9 0,1 -0.1,1 0,0.9 0,1 0,1 -0.1,1 0,1 0,1.1 -0.1,1 0,1.1 0,1 -0.1,1.1 0,1 -0.1,1.1 -0.1,1.1 0,1.1 -0.1,1.1 -0.1,1.1 0,1.2 -0.1,1.1 -0.1,1.1 -0.1,1.2 0,1.1 -0.1,1.2 -0.1,1.2 -0.1,1.2 -0.1,1.2 -0.1,1.2 -0.1,1.2 -0.1,1.2 -0.1,1.2 -0.1,1.2 -0.1,1.2 -0.1,1.3 -0.2,1.2 -0.1,1.3 -0.1,1.3 -0.1,1.2 -0.2,1.3 -0.1,1.3 -0.1,1.3 -0.2,1.3 -0.1,1.3 -0.2,1.3 -0.1,1.3 -0.2,1.3 -0.1,1.3 -0.2,1.4 -0.1,1.3 -0.2,1.3 -0.2,1.4 -0.1,1.3 -0.2,1.4 -0.2,1.3 -0.2,1.4 -0.1,1.4 -0.2,1.4 -0.2,1.3 -0.2,1.4 -0.2,1.4 -0.2,1.4 -0.2,1.4 -0.2,1.4 -0.2,1.4 -0.2,1.4 -0.2,1.4 -0.2,1.5 -0.2,1.4 -0.2,1.4 -0.2,1.4 -0.2,1.5 -0.3,1.4 -0.2,1.5 -0.2,1.4 -0.2,1.4 -0.3,1.5 -0.2,1.4 -0.3,1.5 -0.2,1.4 -0.2,1.5 -0.3,1.5 -0.2,1.4 -0.3,1.5 -0.2,1.5 -0.3,1.4 -0.2,1.5 -0.3,1.5 -0.2,1.4 -0.3,1.5 -0.3,1.5 -0.2,1.5 -0.3,1.4 -0.3,1.5 -0.2,1.5 -0.3,1.5 -0.3,1.4 -0.3,1.5 -0.3,1.5 -0.2,1.5 -0.3,1.5 -0.3,1.4 -0.3,1.5 -0.3,1.5 -0.3,1.5 -0.3,1.5 -0.3,1.4 -0.3,1.5 -0.3,1.5 -0.3,1.5 -0.3,1.4 -0.3,1.5 -0.3,1.5 -0.3,1.5 -0.3,1.4 -0.3,1.5 -0.3,1.5 -0.3,1.4 -0.3,1.5 -0.4,1.5 -0.3,1.4 -0.3,1.5 -0.3,1.4 -0.3,1.5 -0.4,1.4 -0.3,1.5 -0.3,1.4 -0.4,1.4 -0.3,1.5 -0.3,1.4 -0.3,1.4 -0.4,1.5 -0.3,1.4 -0.4,1.4 -0.3,1.4 -0.3,1.4 -0.4,1.4 -0.3,1.5 -0.4,1.4 -0.3,1.3 -0.3,1.4 -0.4,1.4 -0.3,1.4 -0.4,1.4 -0.3,1.4 -0.4,1.3 -0.3,1.4 -0.4,1.3 -0.3,1.4 -0.4,1.3 -0.3,1.4 -0.4,1.3 -0.3,1.4 -0.4,1.3 -0.3,1.3 -0.4,1.3 -0.4,1.3 -0.3,1.3 -0.4,1.3 -0.3,1.3 -0.4,1.3 -0.3,1.3 -0.4,1.2 -0.4,1.3 -0.3,1.3 -0.4,1.2 -0.3,1.2 -0.4,1.3 -0.4,1.2 -0.3,1.2 -0.4,1.2 -0.4,1.2 -0.3,1.2 -0.4,1.2 -0.3,1.2 -0.4,1.2 -0.4,1.2 -0.3,1.1 -0.4,1.2 -0.4,1.1 -0.3,1.1 -0.4,1.2 -0.3,1.1 -0.4,1.1 -0.4,1.1 -0.3,1.1 -0.4,1.1 -0.3,1.1 -0.4,1 -0.4,1.1 -0.3,1 -0.4,1.1 -0.3,1 -0.4,1 -0.4,1 -0.3,1 -0.4,1 -0.3,1 -0.4,1 -0.3,0.9 -0.4,1 -0.4,0.9 -0.3,1 -0.4,0.9 -0.3,0.9 -0.4,0.9 -0.3,0.9 -0.4,0.9 -0.3,0.8 -0.4,0.9 -0.3,0.8 -0.4,0.9 -0.3,0.8 -0.3,0.8 -0.4,0.8 -0.3,0.8 -0.4,0.8 -0.3,0.8 -0.3,0.8 -0.4,0.7 -0.3,0.8 -0.4,0.7 -0.3,0.7 -0.3,0.7 -0.4,0.7 -0.3,0.7 -0.3,0.7 -0.3,0.6 -0.4,0.7 -0.3,0.6 -0.3,0.6 -0.3,0.7 -0.4,0.6 -0.3,0.6 -0.3,0.5 -0.3,0.6 -0.3,0.6 -0.3,0.5 -0.4,0.5 -0.3,0.5 -0.3,0.6 -0.3,0.5 -0.3,0.4 -0.3,0.5 -0.3,0.5 -0.3,0.4 -0.3,0.4 -0.3,0.5 -0.3,0.4 -0.3,0.4 -0.3,0.4 -0.3,0.3 -0.2,0.4 -0.3,0.3 -0.3,0.4 -0.3,0.3 -0.3,0.3 -0.2,0.3 -0.3,0.3 -0.3,0.2 -0.3,0.3 -0.2,0.3 -0.3,0.2 -0.3,0.2 -0.2,0.2 -0.3,0.2 -0.2,0.2 -0.3,0.2 -0.2,0.1 -0.3,0.2 -0.2,0.1 -0.3,0.1 -0.2,0.1 -0.3,0.1 -0.2,0.1 -0.3,0 -0.2,0.1 -0.2,0 -0.2,0.1 -0.3,0 -0.2,0 -0.2,0 -0.2,-0.1 -0.3,0 -0.2,0 -0.2,-0.1 -0.2,-0.1 -0.2,-0.1 -0.2,-0.1 -0.2,-0.1 -0.2,-0.1 -0.2,-0.2 -0.2,-0.1 -0.2,-0.2 -0.2,-0.2 -0.2,-0.1 -0.1,-0.3 -0.2,-0.2 -0.2,-0.2 -0.2,-0.2 -0.1,-0.3 -0.2,-0.3 -0.2,-0.3 -0.1,-0.2 -0.2,-0.4 -0.2,-0.3 -0.1,-0.3 -0.2,-0.3 -0.1,-0.4 -0.2,-0.4 -0.1,-0.4 -0.2,-0.3 -0.1,-0.5 -0.1,-0.4 -0.2,-0.4 -0.1,-0.5 -0.1,-0.4 -0.1,-0.5 -0.2,-0.5 -0.1,-0.4 -0.1,-0.6 -0.1,-0.5 -0.1,-0.5 -0.1,-0.5 -0.1,-0.6 -0.1,-0.6 -0.1,-0.5 -0.1,-0.6 -0.1,-0.6 -0.1,-0.6 -0.1,-0.7 0,-0.6 -0.1,-0.6 -0.1,-0.7 -0.1,-0.7 0,-0.7 -0.1,-0.7 -0.1,-0.7 0,-0.7 -0.1,-0.7 0,-0.7 -0.1,-0.8 0,-0.8 -0.1,-0.7 0,-0.8 0,-0.8 -0.1,-0.8 0,-0.8 0,-0.9 -0.1,-0.8 0,-0.8 0,-0.9 0,-0.9 0,-0.8 0,-0.9 0,-0.9 0,-0.9 0,-1 0,-0.9 0,-0.9 0,-1 0,-0.9 0,-1 0,-1 0.1,-1 0,-1 0,-1 0.1,-1 0,-1 0,-1.1 0.1,-1 0,-1.1 0.1,-1 0,-1.1 0.1,-1.1 0,-1.1 0.1,-1.1 0.1,-1.1 0,-1.1 0.1,-1.1 0.1,-1.2 0,-1.1 0.1,-1.2 0.1,-1.1 0.1,-1.2 0.1,-1.2 0.1,-1.1 0.1,-1.2 0.1,-1.2 0.1,-1.2 0.1,-1.2 0.1,-1.3 0.1,-1.2 0.1,-1.2 0.1,-1.3 0.1,-1.2 0.2,-1.3 0.1,-1.2 0.1,-1.3 0.1,-1.3 0.2,-1.2 0.1,-1.3 0.2,-1.3 0.1,-1.3 0.1,-1.3 0.2,-1.3 0.1,-1.4 0.2,-1.3 0.2,-1.3 0.1,-1.4 0.2,-1.3 0.1,-1.3 0.2,-1.4 0.2,-1.3 0.2,-1.4 0.1,-1.4 0.2,-1.4 0.2,-1.3 0.2,-1.4 0.2,-1.4 0.2,-1.4 0.1,-1.4 0.2,-1.4 0.2,-1.4 0.2,-1.4 0.2,-1.4 0.3,-1.4 0.2,-1.4 0.2,-1.5 0.2,-1.4 0.2,-1.4 0.2,-1.4 0.2,-1.5 0.3,-1.4 0.2,-1.5 0.2,-1.4 0.3,-1.5 0.2,-1.4 0.2,-1.5 0.3,-1.4 0.2,-1.5 0.2,-1.4 0.3,-1.5 0.2,-1.5 0.3,-1.4 0.2,-1.5 0.3,-1.5 0.3,-1.4 0.2,-1.5 0.3,-1.5 0.2,-1.4 0.3,-1.5 0.3,-1.5 0.2,-1.5 0.3,-1.5 0.3,-1.4 0.3,-1.5 0.2,-1.5 0.3,-1.5 0.3,-1.5 0.3,-1.4 0.3,-1.5 0.3,-1.5 0.3,-1.5 0.2,-1.5 0.3,-1.4 0.3,-1.5 0.3,-1.5 0.3,-1.5 0.3,-1.4 0.3,-1.5 0.3,-1.5 0.3,-1.5 0.4,-1.4 0.3,-1.5 0.3,-1.5 0.3,-1.4 0.3,-1.5 0.3,-1.5 0.3,-1.4 0.4,-1.5 0.3,-1.4 0.3,-1.5 0.3,-1.4 0.3,-1.5 0.4,-1.4 0.3,-1.5 0.3,-1.4 0.4,-1.4 0.3,-1.5 0.3,-1.4 0.4,-1.4 0.3,-1.5 0.3,-1.4 0.4,-1.4 0.3,-1.4 0.3,-1.4 0.4,-1.4 0.3,-1.4 0.4,-1.4 0.3,-1.4 0.4,-1.4 0.3,-1.4 0.3,-1.4 0.4,-1.3 0.3,-1.4 0.4,-1.4 0.3,-1.3 0.4,-1.4 0.3,-1.3 0.4,-1.4 0.4,-1.3 0.3,-1.3 0.4,-1.3 0.3,-1.4 0.4,-1.3 0.3,-1.3 0.4,-1.3 0.3,-1.3 0.4,-1.3 0.4,-1.3 0.3,-1.2 0.4,-1.3 0.3,-1.3 0.4,-1.2 0.4,-1.3 0.3,-1.2 0.4,-1.2 0.3,-1.3 0.4,-1.2 0.4,-1.2 0.3,-1.2 0.4,-1.2 0.4,-1.2 0.3,-1.2 0.4,-1.2 0.3,-1.1 0.4,-1.2 0.4,-1.1 0.3,-1.2 0.4,-1.1 0.4,-1.1 0.3,-1.2 0.4,-1.1 0.3,-1.1 0.4,-1.1 0.4,-1 0.3,-1.1 0.4,-1.1 0.3,-1 0.4,-1.1 0.4,-1 0.3,-1.1 0.4,-1 0.3,-1 0.4,-1 0.3,-1 0.4,-1 0.4,-0.9 0.3,-1 0.4,-0.9 0.3,-1 0.4,-0.9 0.3,-0.9 0.4,-1 0.3,-0.9 0.4,-0.9 0.3,-0.8 0.4,-0.9 0.3,-0.9 0.4,-0.8 0.3,-0.9 0.4,-0.8 0.3,-0.8 0.4,-0.8 0.3,-0.8 0.3,-0.8 0.4,-0.8 0.3,-0.7 0.4,-0.8 0.3,-0.7 0.3,-0.8 0.4,-0.7 0.3,-0.7 0.3,-0.7 0.4,-0.7 0.3,-0.6 0.3,-0.7 0.3,-0.6 0.4,-0.7 0.3,-0.6 0.3,-0.6 0.3,-0.6 0.4,-0.6 0.3,-0.6 0.3,-0.6 0.3,-0.5 0.3,-0.6 0.3,-0.5 0.3,-0.5 0.3,-0.5 0.4,-0.5 0.3,-0.5 0.3,-0.5 0.3,-0.4 0.3,-0.5 0.3,-0.4 0.3,-0.4 0.3,-0.4 0.2,-0.4 0.3,-0.4 0.3,-0.4 0.3,-0.4 0.3,-0.3 0.3,-0.3 0.3,-0.4 0.2,-0.3 0.3,-0.3 0.3,-0.2 0.3,-0.3 0.2,-0.3 0.3,-0.2 0.3,-0.3 0.2,-0.2 0.3,-0.2 0.3,-0.2 0.2,-0.2 0.3,-0.1 0.2,-0.2 0.3,-0.1 0.2,-0.2 0.3,-0.1 0.2,-0.1 0.2,-0.1 0.3,0 0.2,-0.1 0.3,-0.1 0.2,0 0.2,0 0.2,0 0.3,0 0.2,0 0.2,0 0.2,0 0.2,0.1 0.3,0 0.2,0.1 0.2,0.1 0.2,0.1 0.2,0.1 0.2,0.2"
       id="path346"
       inkscape:connector-curvature="0" />
    <path
       style="color:#ff0000;fill:#ff0000;fill-opacity:0.25098039000000000;stroke:none;stroke-width:1;stroke-linecap:butt;stroke-linejoin:miter"
       d="m 162.9,412.8 -0.9,-1.2 -0.8,-1.3 -0.9,-1.4 -0.9,-1.3 -0.9,-1.4 -0.8,-1.4 -0.9,-1.4 -0.8,-1.4 -0.9,-1.4 -0.8,-1.4 -0.9,-1.4 -0.8,-1.5 -0.8,-1.4 -0.9,-1.5 -0.8,-1.5 -0.8,-1.5 -0.8,-1.5 -0.8,-1.5 -0.8,-1.5 -0.8,-1.6 -0.7,-1.5 -0.8,-1.6 -0.8,-1.5 -0.7,-1.6 -0.8,-1.6 -0.7,-1.6 -0.8,-1.6 -0.7,-1.6 -0.7,-1.6 -0.8,-1.6 -0.7,-1.7 -0.7,-1.6 -0.7,-1.7 -0.7,-1.7 -0.7,-1.6 -0.6,-1.7 -0.7,-1.7 -0.7,-1.7 -0.6,-1.7 -0.7,-1.7 -0.6,-1.8 -0.7,-1.7 -0.6,-1.7 -0.6,-1.8 -0.6,-1.7 -0.6,-1.8 -0.6,-1.8 -0.6,-1.7 -0.6,-1.8 -0.6,-1.8 -0.5,-1.8 -0.6,-1.8 -0.5,-1.8 -0.6,-1.8 -0.5,-1.8 -0.6,-1.9 -0.5,-1.8 -0.5,-1.8 -0.5,-1.9 -0.5,-1.8 -0.5,-1.9 -0.4,-1.8 -0.5,-1.9 -0.5,-1.9 -0.4,-1.8 -0.5,-1.9 -0.4,-1.9 -0.4,-1.9 -0.5,-1.8 -0.4,-1.9 -0.4,-1.9 -0.4,-1.9 -0.3,-1.9 -0.4,-1.9 -0.4,-1.9 -0.3,-1.9 -0.4,-2 -0.3,-1.9 -0.4,-1.9 -0.3,-1.9 -0.3,-1.9 -0.3,-2 -0.3,-1.9 -0.3,-1.9 -0.3,-1.9 -0.3,-2 -0.2,-1.9 -0.3,-1.9 -0.2,-2 -0.2,-1.9 -0.3,-1.9 -0.2,-2 -0.2,-1.9 -0.2,-1.9 -0.2,-2 -0.2,-1.9 -0.1,-2 -0.2,-1.9 -0.2,-1.9 -0.1,-2 -0.1,-1.9 -0.2,-1.9 -0.1,-2 -0.1,-1.9 -0.1,-1.9 -0.1,-2 0,-1.9 -0.1,-1.9 -0.1,-1.9 0,-2 -0.1,-1.9 0,-1.9 0,-1.9 0,-1.9 -0.1,-1.9 0.1,-1.9 0,-1.9 0,-1.9 0,-1.9 0.1,-1.9 0,-1.9 0.1,-1.9 0,-1.9 0.1,-1.8 0.1,-1.9 0.1,-1.9 0.1,-1.8 0.1,-1.9 0.1,-1.9 0.2,-1.8 0.1,-1.9 0.2,-1.8 0.1,-1.8 0.2,-1.8 0.2,-1.9 0.2,-1.8 0.2,-1.8 0.2,-1.8 0.2,-1.8 0.2,-1.8 0.2,-1.8 0.3,-1.8 0.2,-1.7 0.3,-1.8 0.3,-1.7 0.2,-1.8 0.3,-1.7 0.3,-1.8 0.3,-1.7 0.3,-1.7 0.4,-1.7 0.3,-1.7 0.3,-1.7 0.4,-1.7 0.3,-1.7 0.4,-1.7 0.4,-1.6 0.4,-1.7 0.4,-1.6 0.4,-1.7 0.4,-1.6 0.4,-1.6 0.4,-1.6 0.4,-1.6 0.5,-1.6 0.4,-1.6 0.5,-1.6 0.5,-1.5 0.4,-1.6 0.5,-1.5 0.5,-1.5 0.5,-1.5 0.5,-1.6 0.5,-1.5 0.6,-1.4 0.5,-1.5 0.5,-1.5 0.6,-1.4 0.5,-1.5 0.6,-1.4 0.6,-1.4 0.6,-1.4 0.6,-1.4 0.5,-1.4 0.7,-1.4 0.6,-1.3 0.6,-1.4 0.6,-1.3 0.6,-1.4 0.7,-1.3 0.6,-1.3 0.7,-1.3 0.6,-1.2 0.7,-1.3 0.7,-1.2 0.7,-1.3 0.65283,-1.170519 L 137.1,75.6 l 0.7,-1.2 0.7,-1.2 0.7,-1.1 0.7,-1.2 0.8,-1.1 0.7,-1.2 0.7,-1.1 0.8,-1.1 0.8,-1.1 0.7,-1 0.8,-1.1 0.8,-1.1 0.8,-1 0.7,-1 0.8,-1 0.8,-1 0.9,-1 0.8,-0.9 0.8,-1 0.8,-0.9 0.8,-0.9 0.9,-0.9 0.8,-0.9 0.9,-0.8 0.8,-0.9 0.9,-0.8 0.9,-0.9 0.8,-0.8 0.9,-0.8 0.9,-0.7 0.9,-0.8 0.9,-0.7 0.9,-0.8 0.9,-0.7 0.9,-0.7 0.9,-0.7 0.9,-0.6 0.9,-0.7 0.9,-0.6 1,-0.6 0.9,-0.6 0.9,-0.6 1,-0.6 0.9,-0.5 1,-0.6 0.9,-0.5 1,-0.5 0.9,-0.5 1,-0.5 1,-0.4 1,-0.5 0.9,-0.4 1,-0.4 1,-0.4 1,-0.4 1,-0.3 1,-0.4 1,-0.3 1,-0.3 1,-0.3 1,-0.2 1,-0.3 1,-0.2 1,-0.3 1,-0.2 1,-0.2 1.1,-0.1 1,-0.2 1,-0.1 1,-0.2 1.1,-0.1 1,0 1.1,-0.1 1,-0.1 1,0 1.1,0 1,0 1.1,0 1,0 1,0.1 1.1,0 1,0.1 1.1,0.1 1.1,0.1 1,0.1 1.1,0.2 1,0.2 1.1,0.1 1,0.2 1.1,0.2 1,0.3 1.1,0.2 1.1,0.3 1,0.3 1.1,0.3 1,0.3 1.1,0.3 1.1,0.4 1,0.3 1.1,0.4 1,0.4 1.1,0.4 1.1,0.5 1,0.4 1.1,0.5 1,0.5 1.1,0.5 1,0.5 1.1,0.5 1.1,0.5 1,0.6 1.1,0.6 1,0.6 1.1,0.6 1,0.6 1,0.7 1.1,0.6 1,0.7 1.1,0.7 1,0.7 1.1,0.7 1,0.8 1,0.7 1.1,0.8 1,0.8 1,0.8 1,0.8 1.1,0.8 1,0.8 1,0.9 1,0.9 1,0.9 1,0.9 1,0.9 1.1,0.9 1,1 1,1 0.9,0.9 1,1 1,1 1,1.1 1,1 1,1 0.9,1.1 1,1.1 1,1.1 0.9,1.1 1,1.1 1,1.2 0.9,1.1 1,1.2 0.9,1.1 0.9,1.2 1,1.2 0.9,1.2 0.9,1.3 0.9,1.2 1,1.3 0.9,1.2 0.9,1.3 0.9,1.3 0.9,1.3 0.9,1.3 0.9,1.4 0.8,1.3 0.9,1.4 0.9,1.3 0.9,1.4 0.8,1.4 0.9,1.4 0.8,1.4 0.9,1.4 0.8,1.5 0.8,1.4 0.9,1.5 0.8,1.5 0.8,1.4 0.8,1.5 0.8,1.5 0.8,1.5 0.8,1.6 0.8,1.5 0.8,1.5 0.7,1.6 0.8,1.6 0.8,1.5 0.7,1.6 0.8,1.6 0.7,1.6 0.7,1.6 0.8,1.7 0.7,1.6 0.7,1.6 0.7,1.7 0.7,1.6 0.7,1.7 0.7,1.7 0.7,1.7 0.6,1.7 0.7,1.7 0.7,1.7 0.6,1.7 0.6,1.7 0.7,1.7 0.6,1.8 0.6,1.7 0.6,1.8 0.6,1.7 0.6,1.8 0.6,1.8 0.6,1.8 0.6,1.8 0.6,1.7 0.5,1.8 0.6,1.9 0.5,1.8 0.5,1.8 0.6,1.8 0.5,1.8 0.5,1.9 0.5,1.8 0.5,1.9 0.5,1.8 0.5,1.9 0.4,1.8 0.5,1.9 0.4,1.9 0.5,1.8 0.4,1.9 0.5,1.9 0.4,1.9 0.4,1.9 0.4,1.9 0.4,1.9 0.4,1.9 0.3,1.9 0.4,1.9 0.4,1.9 0.3,1.9 0.4,1.9 0.3,1.9 0.3,2 0.3,1.9 0.3,1.9 0.3,1.9 0.3,2 0.3,1.9 0.3,1.9 0.2,1.9 0.3,2 0.2,1.9 0.3,1.9 0.2,2 0.2,1.9 0.2,2 0.2,1.9 0.2,1.9 0.2,2 0.2,1.9 0.1,1.9 0.2,2 0.1,1.9 0.2,1.9 0.1,2 0.1,1.9 0.1,1.9 0.1,2 0.1,1.9 0.1,1.9 0,2 0.1,1.9 0.1,1.9 0,1.9 0,1.9 0.1,1.9 0,2 0,1.9 0,1.9 0,1.9 -0.1,1.9 0,1.9 0,1.9 -0.1,1.8 0,1.9 -0.1,1.9 -0.1,1.9 -0.1,1.9 -0.1,1.8 -0.1,1.9 -0.1,1.9 -0.1,1.8 -0.2,1.9 -0.1,1.8 -0.1,1.8 -0.2,1.9 -0.2,1.8 -0.2,1.8 -0.1,1.8 -0.2,1.8 -0.2,1.8 -0.3,1.8 -0.2,1.8 -0.2,1.8 -0.3,1.8 -0.2,1.8 -0.3,1.7 -0.2,1.8 -0.3,1.7 -0.3,1.8 -0.3,1.7 -0.3,1.7 -0.3,1.8 -0.3,1.7 -0.4,1.7 -0.3,1.7 -0.4,1.7 -0.3,1.6 -0.4,1.7 -0.4,1.7 -0.3,1.6 -0.4,1.7 -0.4,1.6 -0.4,1.6 -0.5,1.7 -0.4,1.6 -0.4,1.6 -0.5,1.6 -0.4,1.5 -0.5,1.6 -0.4,1.6 -0.5,1.5 -0.5,1.5 -0.5,1.6 -0.5,1.5 -0.5,1.5 -0.5,1.5 -0.5,1.5 -0.6,1.5 -0.5,1.4 -0.6,1.5 -0.5,1.4 -0.6,1.5 -0.6,1.4 -0.5,1.4 -0.6,1.4 -0.6,1.4 -0.6,1.3 -0.6,1.4 -0.7,1.3 -0.6,1.4 -0.6,1.3 -0.3,0.5"
       id="path364"
       inkscape:connector-curvature="0"
       sodipodi:nodetypes="ccccccccccccccccccccccccccccccccccccccccccccccccccccccccccccccccccccccccccccccccccccccccccccccccccccccccccccccccccccccccccccccccccccccccccccccccccccccccccccccccccccccccccccccccccccccccccccccccccccccccccccccccccccccccccccccccccccccccccccccccccccccccccccccccccccccccccccccccccccccccccccccccccccccccccccccccccccccccccccccccccccccccccccccccccccccccccccccccccccccccccccccccccccccccccccccccccccccccccccccccccccccccccccccccccccccccccccccccccccccccccccccccccccccccccccccccccccccccccccccccccccccccccccccccccccccccccccccccccccccccccccccccccccccccccccccccccccccc" />
    <path
       style="color:#ff0000;fill:#0000ff;fill-opacity:0.25098039;stroke:none"
       d="m 555.6,289.1 0.1,0 0.1,0 0.1,0 0.1,0 0.1,0 0.1,0 0.1,0 0.1,0.1 0.1,0 0.1,0 0.1,0 0.1,0.1 0.1,0 0.1,0 0.1,0.1 0.1,0 0.1,0 0.1,0.1 0.1,0.1 0.1,0 0.1,0 0.1,0.1 0.1,0 0.1,0.1 0.1,0 0.1,0.1 0,0.1 0.1,0 0.1,0.1 0.1,0 0.1,0.1 0.1,0.1 0.1,0 0.1,0.1 0,0.1 0.1,0.1 0.1,0 0.1,0.1 0.1,0.1 0.1,0.1 0.1,0 0,0.1 0.1,0.1 0.1,0.1 0.1,0.1 0.1,0.1 0.1,0.1 0,0.1 0.1,0.1 0.1,0.1 0.1,0.1 0.1,0.1 0,0.1 0.1,0.1 0.1,0.1 0.1,0.1 0.1,0.1 0,0.1 0.1,0.1 0.1,0.1 0.1,0.1 0,0.1 0.1,0.2 0.1,0.1 0.1,0.1 0,0.1 0.1,0.2 0.1,0.1 0.1,0.1 0,0.1 0.1,0.2 0.1,0.1 0.1,0.1 0,0.2 0.1,0.1 0.1,0.1 0,0.2 0.1,0.1 0.1,0.2 0,0.1 0.1,0.2 0.1,0.1 0,0.2 0.1,0.1 0.1,0.2 0,0.1 0.1,0.2 0.1,0.1 0,0.2 0.1,0.1 0,0.2 0.1,0.1 0.1,0.2 0,0.2 0.1,0.1 0,0.2 0.1,0.2 0.1,0.1 0,0.2 0.1,0.2 0,0.1 0.1,0.2 0,0.2 0.1,0.2 0,0.1 0.1,0.2 0,0.2 0.1,0.2 0,0.1 0.1,0.2 0,0.2 0.1,0.2 0,0.2 0.1,0.2 0,0.1 0.1,0.2 0,0.2 0.1,0.2 0,0.2 0,0.2 0.1,0.2 0,0.2 0.1,0.2 0,0.2 0,0.1 0.1,0.2 0,0.2 0.1,0.2 0,0.2 0,0.2 0.1,0.2 0,0.2 0,0.2 0.1,0.2 0,0.2 0,0.2 0.1,0.2 0,0.2 0,0.2 0,0.3 0.1,0.2 0,0.2 0,0.2 0,0.2 0.1,0.2 0,0.2 0,0.2 0,0.2 0.1,0.2 0,0.2 0,0.2 0,0.3 0,0.2 0,0.2 0.1,0.2 0,0.2 0,0.2 0,0.2 0,0.2 0,0.3 0,0.2 0.1,0.2 0,0.2 0,0.2 0,0.2 0,0.2 0,0.3 0,0.2 0,0.2 0,0.2 0,0.2 0,0.2 0,0.3 0,0.2 0,0.2 0,0.2 0,0.2 0,0.2 0,0.2 0,0.3 0,0.2 0,0.2 0,0.2 0,0.2 0,0.2 0,0.3 0,0.2 -0.1,0.2 0,0.2 0,0.2 0,0.2 0,0.2 0,0.3 0,0.2 -0.1,0.2 0,0.2 0,0.2 0,0.2 0,0.2 0,0.2 -0.1,0.3 0,0.2 0,0.2 0,0.2 -0.1,0.2 0,0.2 0,0.2 0,0.2 -0.1,0.2 0,0.2 0,0.2 0,0.2 -0.1,0.3 0,0.2 0,0.2 -0.1,0.2 0,0.2 0,0.2 -0.1,0.2 0,0.2 0,0.2 -0.1,0.2 0,0.2 0,0.2 -0.1,0.2 0,0.2 -0.1,0.2 0,0.1 0,0.2 -0.1,0.2 0,0.2 -0.1,0.2 0,0.2 -0.1,0.2 0,0.2 -0.1,0.2 0,0.2 0,0.1 -0.1,0.2 0,0.2 -0.1,0.2 0,0.2 -0.1,0.2 0,0.1 -0.1,0.2 -0.1,0.2 0,0.2 -0.1,0.1 0,0.2 -0.1,0.2 0,0.2 -0.1,0.1 0,0.2 -0.1,0.2 -0.1,0.1 0,0.2 -0.1,0.2 0,0.1 -0.1,0.2 -0.1,0.2 0,0.1 -0.1,0.2 -0.1,0.1 0,0.2 -0.1,0.1 0,0.2 -0.1,0.2 -0.1,0.1 0,0.2 -0.1,0.1 -0.1,0.1 0,0.2 -0.1,0.1 -0.1,0.2 -0.1,0.1 0,0.2 -0.1,0.1 -0.1,0.1 0,0.2 -0.1,0.1 -0.1,0.1 -0.1,0.2 0,0.1 -0.1,0.1 -0.1,0.1 -0.1,0.2 0,0.1 -0.1,0.1 -0.1,0.1 -0.1,0.2 0,0.1 -0.1,0.1 -0.1,0.1 -0.1,0.1 -0.1,0.1 0,0.1 -0.1,0.1 -0.1,0.1 -0.1,0.1 -0.1,0.2 0,0.1 -0.1,0.1 -0.1,0 -0.1,0.1 -0.1,0.1 -0.1,0.1 0,0.1 -0.1,0.1 -0.1,0.1 -0.1,0.1 -0.1,0.1 -0.1,0 0,0.1 -0.1,0.1 -0.1,0.1 -0.1,0.1 -0.1,0 -0.1,0.1 -0.1,0.1 -0.1,0.1 -0.1,0.1 -0.1,0 -0.1,0.1 -0.1,0 -0.1,0.1 -0.1,0.1 -0.1,0 0,0.1 -0.1,0 -0.1,0.1 -0.1,0 -0.1,0.1 -0.1,0 -0.1,0 -0.1,0.1 -0.1,0 -0.1,0 0,0.1 -0.1,0 -0.1,0 -0.1,0.1 -0.1,0 -0.1,0 -0.1,0 -0.1,0.1 -0.1,0 -0.1,0 -0.1,0 -0.1,0 -0.1,0 -0.1,0 -0.1,0 -0.1,0 -0.1,0.1 -0.1,-0.1 -0.1,0 -0.1,0 -0.1,0 -0.1,0 -0.1,0 -0.1,0 -0.1,0 -0.1,0 -0.1,-0.1 -0.1,0 -0.1,0 -0.1,0 -0.1,-0.1 -0.1,0 -0.1,-0.1 -0.1,0 -0.1,0 -0.1,-0.1 -0.1,0 -0.1,0 -0.1,-0.1 -0.1,0 -0.1,-0.1 -0.1,-0.1 -0.1,0 -0.1,-0.1 -0.1,0 -0.1,-0.1 -0.1,-0.1 -0.1,0 0,-0.1 -0.1,-0.1 -0.1,0 -0.1,-0.1 -0.1,-0.1 -0.1,0 -0.1,-0.1 0,-0.1 -0.1,-0.1 -0.1,0 -0.1,-0.1 -0.1,-0.1 -0.1,-0.1 -0.1,-0.1 0,-0.1 -0.1,-0.1 -0.1,-0.1 -0.1,-0.1 -0.1,0 0,-0.1 -0.1,-0.1 -0.1,-0.1 -0.1,-0.1 -0.1,-0.1 0,-0.2 -0.1,-0.1 -0.1,-0.1 -0.1,-0.1 -0.1,-0.1 0,-0.1 -0.1,-0.1 -0.1,-0.1 -0.1,-0.2 0,-0.1 -0.1,-0.1 -0.1,-0.1 -0.1,-0.1 0,-0.2 -0.1,-0.1 -0.1,-0.1 -0.1,-0.2 0,-0.1 -0.1,-0.1 -0.1,-0.2 0,-0.1 -0.1,-0.1 -0.1,-0.2 0,-0.1 -0.1,-0.2 -0.1,-0.1 0,-0.1 -0.1,-0.2 -0.1,-0.1 0,-0.2 -0.1,-0.1 -0.1,-0.2 0,-0.1 -0.1,-0.2 -0.1,-0.2 0,-0.1 -0.1,-0.2 0,-0.1 -0.1,-0.2 -0.1,-0.2 0,-0.1 -0.1,-0.2 0,-0.2 -0.1,-0.1 -0.1,-0.2 0,-0.2 -0.1,-0.1 0,-0.2 -0.1,-0.2 0,-0.1 -0.1,-0.2 0,-0.2 -0.1,-0.2 0,-0.2 -0.1,-0.1 0,-0.2 -0.1,-0.2 0,-0.2 -0.1,-0.2 0,-0.1 -0.1,-0.2 0,-0.2 -0.1,-0.2 0,-0.2 0,-0.2 -0.1,-0.2 0,-0.2 -0.1,-0.2 0,-0.1 -0.1,-0.2 0,-0.2 0,-0.2 -0.1,-0.2 0,-0.2 0,-0.2 -0.1,-0.2 0,-0.2 0,-0.2 -0.1,-0.2 0,-0.2 0,-0.2 -0.1,-0.2 0,-0.2 0,-0.2 -0.1,-0.2 0,-0.2 0,-0.2 0,-0.3 -0.1,-0.2 0,-0.2 0,-0.2 0,-0.2 -0.1,-0.2 0,-0.2 0,-0.2 0,-0.2 0,-0.2 -0.1,-0.2 0,-0.3 0,-0.2 0,-0.2 0,-0.2 0,-0.2 -0.1,-0.2 0,-0.2 0,-0.2 0,-0.3 0,-0.2 0,-0.2 0,-0.2 0,-0.2 0,-0.2 0,-0.2 0,-0.3 0,-0.2 -0.1,-0.2 0,-0.2 0,-0.2 0,-0.2 0,-0.3 0,-0.2 0,-0.2 0,-0.2 0,-0.2 0,-0.2 0,-0.3 0.1,-0.2 0,-0.2 0,-0.2 0,-0.2 0,-0.2 0,-0.2 0,-0.3 0,-0.2 0,-0.2 0,-0.2 0,-0.2 0.1,-0.2 0,-0.2 0,-0.3 0,-0.2 0,-0.2 0,-0.2 0.1,-0.2 0,-0.2 0,-0.2 0,-0.2 0,-0.3 0.1,-0.2 0,-0.2 0,-0.2 0,-0.2 0.1,-0.2 0,-0.2 0,-0.2 0,-0.2 0.1,-0.2 0,-0.2 0,-0.2 0,-0.2 0.1,-0.2 0,-0.3 0,-0.2 0.1,-0.2 0,-0.2 0,-0.2 0.1,-0.2 0,-0.2 0.1,-0.2 0,-0.2 0,-0.2 0.1,-0.1 0,-0.2 0.1,-0.2 0,-0.2 0,-0.2 0.1,-0.2 0,-0.2 0.1,-0.2 0,-0.2 0.1,-0.2 0,-0.2 0.1,-0.1 0,-0.2 0,-0.2 0.1,-0.2 0,-0.2 0.1,-0.2 0,-0.1 0.1,-0.2 0.1,-0.2 0,-0.2 0.1,-0.2 0,-0.1 0.1,-0.2 0,-0.2 0.1,-0.2 0,-0.1 0.1,-0.2 0.1,-0.2 0,-0.1 0.1,-0.2 0,-0.2 0.1,-0.1 0.1,-0.2 0,-0.1 0.1,-0.2 0,-0.2 0.1,-0.1 0.1,-0.2 0,-0.1 0.1,-0.2 0.1,-0.1 0,-0.2 0.1,-0.1 0.1,-0.2 0,-0.1 0.1,-0.2 0.1,-0.1 0,-0.2 0.1,-0.1 0.1,-0.1 0,-0.2 0.1,-0.1 0.1,-0.2 0.1,-0.1 0,-0.1 0.1,-0.2 0.1,-0.1 0.1,-0.1 0,-0.1 0.1,-0.2 0.1,-0.1 0.1,-0.1 0,-0.1 0.1,-0.1 0.1,-0.2 0.1,-0.1 0.1,-0.1 0,-0.1 0.1,-0.1 0.1,-0.1 0.1,-0.1 0,-0.1 0.1,-0.1 0.1,-0.1 0.1,-0.1 0.1,-0.1 0.1,-0.1 0,-0.1 0.1,-0.1 0.1,-0.1 0.1,-0.1 0.1,-0.1 0.1,-0.1 0,-0.1 0.1,-0.1 0.1,0 0.1,-0.1 0.1,-0.1 0.1,-0.1 0.1,0 0,-0.1 0.1,-0.1 0.1,-0.1 0.1,0 0.1,-0.1 0.1,-0.1 0.1,0 0.1,-0.1 0.1,-0.1 0.1,0 0.1,-0.1 0.1,-0.1 0.1,0 0.1,-0.1 0.1,0 0.1,0 0,-0.1 0.1,0 0.1,-0.1 0.1,0 0.1,0 0.1,-0.1 0.1,0 0.1,0 0.1,-0.1 0.1,0 0.1,0 0.1,0 0.1,-0.1 0.1,0 0.1,0 0.1,0 0.1,0 0.1,0 0.1,0 0.1,0 0.1,0 0.1,0 0.1,0"
       id="path370"
       inkscape:connector-curvature="0" />
    <path
       style="color:#ff0000;fill:#ff0000;fill-opacity:0.25098039000000000;stroke:none;stroke-width:1;stroke-linecap:butt;stroke-linejoin:miter"
       d="m 187.1,412.8 0,-0.2 -0.8,-1.7 -0.8,-1.7 -0.8,-1.7 -0.8,-1.7 -0.8,-1.7 -0.8,-1.8 -0.8,-1.7 -0.7,-1.8 -0.8,-1.7 -0.8,-1.8 -0.7,-1.8 -0.8,-1.8 -0.7,-1.8 -0.8,-1.8 -0.7,-1.9 -0.7,-1.8 -0.7,-1.9 -0.7,-1.8 -0.8,-1.9 -0.7,-1.9 -0.7,-1.9 -0.6,-1.8 -0.7,-2 -0.7,-1.9 -0.7,-1.9 -0.6,-1.9 -0.7,-1.9 -0.7,-2 -0.6,-1.9 -0.6,-2 -0.7,-2 -0.6,-1.9 -0.6,-2 -0.6,-2 -0.6,-2 -0.6,-2 -0.6,-2 -0.6,-2 -0.6,-2 -0.6,-2 -0.5,-2.1 -0.6,-2 -0.6,-2 -0.5,-2.1 -0.5,-2 -0.6,-2.1 -0.5,-2 -0.5,-2.1 -0.5,-2.1 -0.5,-2 -0.5,-2.1 -0.5,-2.1 -0.5,-2.1 -0.4,-2.1 -0.5,-2 -0.5,-2.1 -0.4,-2.1 -0.5,-2.1 -0.4,-2.1 -0.4,-2.1 -0.4,-2.2 -0.4,-2.1 -0.4,-2.1 -0.4,-2.1 -0.4,-2.1 -0.4,-2.1 -0.4,-2.1 -0.3,-2.2 -0.4,-2.1 -0.3,-2.1 -0.4,-2.1 -0.3,-2.2 -0.3,-2.1 -0.3,-2.1 -0.4,-2.1 -0.3,-2.2 -0.2,-2.1 -0.3,-2.1 -0.3,-2.2 -0.3,-2.1 -0.2,-2.1 -0.3,-2.1 -0.2,-2.1 -0.2,-2.2 -0.3,-2.1 -0.2,-2.1 -0.2,-2.1 -0.2,-2.1 -0.2,-2.2 -0.2,-2.1 -0.1,-2.1 -0.2,-2.1 -0.2,-2.1 -0.1,-2.1 -0.1,-2.1 -0.2,-2.1 -0.1,-2.1 -0.1,-2.1 -0.1,-2 -0.1,-2.1 -0.1,-2.1 -0.1,-2.1 -0.1,-2 0,-2.1 -0.1,-2.1 0,-2 -0.1,-2.1 0,-2 0,-2.1 0,-2 0,-2 0,-2 0,-2.1 0,-2 0.1,-2 0,-2 0,-2 0.1,-2 0.1,-1.9 0,-2 0.1,-2 0.1,-1.9 0.1,-2 0.1,-1.9 0.1,-2 0.2,-1.9 0.1,-1.9 0.1,-1.9 0.2,-1.9 0.2,-1.9 0.1,-1.9 0.2,-1.9 0.2,-1.9 0.2,-1.8 0.2,-1.9 0.2,-1.8 0.2,-1.9 0.2,-1.8 0.3,-1.8 0.2,-1.8 0.3,-1.8 0.2,-1.8 0.3,-1.8 0.3,-1.7 0.2,-1.8 0.3,-1.7 0.3,-1.7 0.4,-1.8 0.3,-1.7 0.3,-1.7 0.3,-1.7 0.4,-1.6 0.3,-1.7 0.4,-1.7 0.3,-1.6 0.4,-1.6 0.4,-1.7 0.4,-1.6 0.4,-1.6 0.4,-1.5 0.4,-1.6 0.4,-1.6 0.4,-1.5 0.5,-1.5 0.4,-1.6 0.5,-1.5 0.4,-1.5 0.5,-1.4 0.5,-1.5 0.5,-1.5 0.4,-1.4 0.5,-1.4 0.5,-1.4 0.6,-1.4 0.5,-1.4 0.5,-1.4 0.5,-1.3 0.6,-1.4 0.5,-1.3 0.6,-1.3 0.5,-1.3 0.6,-1.3 0.6,-1.3 0.6,-1.2 0.5,-1.2 0.6,-1.3 0.6,-1.2 0.7,-1.2 0.6,-1.1 0.6,-1.2 0.6,-1.2 0.7,-1.1 0.6,-1.1 0.7,-1.1 0.6,-1.1 0.7,-1 0.6,-1.1 0.7,-1 0.7,-1 0.7,-1 0.7,-1 0.7,-1 0.7,-0.9 0.7,-1 0.7,-0.9 0.7,-0.9 0.8,-0.9 0.7,-0.8 0.7,-0.9 0.8,-0.8 0.7,-0.8 0.66242,-0.770519 L 180.2,36.2 l 0.8,-0.8 0.8,-0.7 0.8,-0.8 0.7,-0.7 0.8,-0.7 0.8,-0.7 0.8,-0.6 0.8,-0.7 0.8,-0.6 0.8,-0.6 0.9,-0.6 0.8,-0.5 0.8,-0.6 0.8,-0.5 0.9,-0.5 0.8,-0.5 0.9,-0.5 0.8,-0.5 0.9,-0.4 0.8,-0.5 0.9,-0.4 0.8,-0.4 0.9,-0.3 0.9,-0.4 0.9,-0.3 0.9,-0.3 0.8,-0.3 0.9,-0.3 0.9,-0.3 0.9,-0.2 0.9,-0.2 0.9,-0.3 0.9,-0.1 0.9,-0.2 0.9,-0.2 1,-0.1 0.9,-0.1 0.9,-0.1 0.9,-0.1 1,0 0.9,-0.1 0.9,0 1,0 0.9,0 0.9,0.1 1,0 0.9,0.1 1,0.1 0.9,0.1 1,0.1 0.9,0.1 1,0.2 0.9,0.2 1,0.2 1,0.2 0.9,0.3 1,0.2 1,0.3 0.9,0.3 1,0.3 1,0.3 1,0.4 0.9,0.3 1,0.4 1,0.4 1,0.4 0.9,0.5 1,0.4 1,0.5 1,0.5 0.9,0.5 1,0.6 1,0.5 1,0.6 1,0.6 1,0.6 0.9,0.6 1,0.6 1,0.7 1,0.6 1,0.7 0.9,0.7 1,0.8 1,0.7 1,0.8 1,0.7 1,0.8 0.9,0.8 1,0.9 1,0.8 1,0.9 0.9,0.9 1,0.9 1,0.9 1,0.9 0.9,1 1,0.9 1,1 0.9,1 1,1 1,1 0.9,1.1 1,1 0.9,1.1 1,1.1 0.9,1.1 1,1.1 1,1.2 0.9,1.1 0.9,1.2 1,1.2 0.9,1.2 1,1.2 0.9,1.3 0.9,1.2 1,1.3 0.9,1.2 0.9,1.3 0.9,1.3 1,1.4 0.9,1.3 0.9,1.3 0.9,1.4 0.9,1.4 0.9,1.4 0.9,1.4 0.9,1.4 0.9,1.5 0.9,1.4 0.9,1.5 0.8,1.4 0.9,1.5 0.9,1.5 0.9,1.5 0.8,1.6 0.9,1.5 0.8,1.6 0.9,1.5 0.8,1.6 0.9,1.6 0.8,1.6 0.9,1.6 0.8,1.6 0.8,1.7 0.8,1.6 0.8,1.7 0.9,1.7 0.8,1.7 0.8,1.7 0.8,1.7 0.8,1.7 0.7,1.7 0.8,1.8 0.8,1.7 0.8,1.8 0.7,1.7 0.8,1.8 0.7,1.8 0.8,1.8 0.7,1.8 0.8,1.9 0.7,1.8 0.7,1.8 0.8,1.9 0.7,1.8 0.7,1.9 0.7,1.9 0.7,1.9 0.7,1.9 0.7,1.9 0.6,1.9 0.7,1.9 0.7,1.9 0.6,1.9 0.7,2 0.6,1.9 0.7,2 0.6,2 0.6,1.9 0.6,2 0.7,2 0.6,2 0.6,2 0.6,2 0.6,2 0.5,2 0.6,2 0.6,2.1 0.5,2 0.6,2 0.5,2.1 0.6,2 0.5,2.1 0.5,2 0.5,2.1 0.5,2.1 0.5,2 0.5,2.1 0.5,2.1 0.5,2.1 0.5,2.1 0.4,2.1 0.5,2 0.4,2.1 0.5,2.1 0.4,2.1 0.4,2.2 0.5,2.1 0.4,2.1 0.4,2.1 0.4,2.1 0.3,2.1 0.4,2.1 0.4,2.2 0.4,2.1 0.3,2.1 0.4,2.1 0.3,2.1 0.3,2.2 0.4,2.1 0.3,2.1 0.3,2.2 0.3,2.1 0.3,2.1 0.2,2.1 0.3,2.2 0.3,2.1 0.2,2.1 0.3,2.1 0.2,2.2 0.3,2.1 0.2,2.1 0.2,2.1 0.2,2.1 0.2,2.1 0.2,2.2 0.2,2.1 0.2,2.1 0.1,2.1 0.2,2.1 0.1,2.1 0.2,2.1 0.1,2.1 0.1,2.1 0.1,2.1 0.1,2 0.1,2.1 0.1,2.1 0.1,2.1 0.1,2 0,2.1 0.1,2.1 0,2 0.1,2.1 0,2 0,2.1 0,2 0,2 0,2 0,2.1 0,2 0,2 -0.1,2 0,2 -0.1,2 0,1.9 -0.1,2 -0.1,2 -0.1,1.9 -0.1,2 -0.1,1.9 -0.1,2 -0.1,1.9 -0.2,1.9 -0.1,1.9 -0.2,1.9 -0.1,1.9 -0.2,1.9 -0.2,1.9 -0.2,1.9 -0.2,1.8 -0.2,1.9 -0.2,1.8 -0.2,1.9 -0.2,1.8 -0.2,1.8 -0.3,1.8 -0.2,1.8 -0.3,1.8 -0.3,1.8 -0.2,1.7 -0.3,1.8 -0.3,1.7 -0.3,1.8 -0.3,1.7 -0.3,1.7 -0.4,1.7 -0.3,1.7 -0.1,0.6"
       id="path358"
       inkscape:connector-curvature="0"
       sodipodi:nodetypes="cccccccccccccccccccccccccccccccccccccccccccccccccccccccccccccccccccccccccccccccccccccccccccccccccccccccccccccccccccccccccccccccccccccccccccccccccccccccccccccccccccccccccccccccccccccccccccccccccccccccccccccccccccccccccccccccccccccccccccccccccccccccccccccccccccccccccccccccccccccccccccccccccccccccccccccccccccccccccccccccccccccccccccccccccccccccccccccccccccccccccccccccccccccccccccccccccccccccccccccccccccccccccccccccccccccccccccccccccccccccccccccccccccccccccccccccccccccccccccccccccccccccccccccccccccccccccccccccccc" />
    <path
       style="fill:none;stroke:#0000ff;stroke-width:3.00000001999999988;stroke-linecap:butt;stroke-linejoin:miter;stroke-opacity:1;stroke-miterlimit:4;stroke-dasharray:none"
       d="M 517.96337,243.74748 529.682,297.18442"
       id="path3125"
       inkscape:connector-curvature="0"
       transform="translate(27.759521,18.999998)" />
  </g>
  <g
     inkscape:groupmode="layer"
     id="layer2"
     inkscape:label="points"
     style="display:inline"
     transform="translate(-27.759521,-19)">
    <path
       sodipodi:type="arc"
       style="fill:#ffffff;fill-opacity:1;fill-rule:evenodd;stroke:#000000;stroke-width:5.25960684;stroke-miterlimit:4;stroke-opacity:1;stroke-dasharray:none"
       id="path4250-6"
       sodipodi:cx="216.74719"
       sodipodi:cy="146.50597"
       sodipodi:rx="19.617296"
       sodipodi:ry="19.617296"
       d="m 236.36449,146.50597 c 0,10.83433 -8.78296,19.61729 -19.6173,19.61729 -10.83433,0 -19.61729,-8.78296 -19.61729,-19.61729 0,-10.83434 8.78296,-19.6173 19.61729,-19.6173 10.83434,0 19.6173,8.78296 19.6173,19.6173 z"
       transform="matrix(0.38025655,0,0,0.38025655,60.28046,306.99015)" />
    <path
       sodipodi:type="arc"
       style="fill:#ffffff;fill-opacity:1;fill-rule:evenodd;stroke:#000000;stroke-width:5.25960684;stroke-miterlimit:4;stroke-opacity:1;stroke-dasharray:none"
       id="path4250-6-1"
       sodipodi:cx="216.74719"
       sodipodi:cy="146.50597"
       sodipodi:rx="19.617296"
       sodipodi:ry="19.617296"
       d="m 236.36449,146.50597 c 0,10.83433 -8.78296,19.61729 -19.6173,19.61729 -10.83433,0 -19.61729,-8.78296 -19.61729,-19.61729 0,-10.83434 8.78296,-19.6173 19.61729,-19.6173 10.83434,0 19.6173,8.78296 19.6173,19.6173 z"
       transform="matrix(0.38025655,0,0,0.38025655,474.88046,344.99015)" />
    <path
       sodipodi:type="arc"
       style="fill:#ffffff;fill-opacity:1;fill-rule:evenodd;stroke:#000000;stroke-width:5.25960684;stroke-miterlimit:4;stroke-opacity:1;stroke-dasharray:none"
       id="path4250-6-9"
       sodipodi:cx="216.74719"
       sodipodi:cy="146.50597"
       sodipodi:rx="19.617296"
       sodipodi:ry="19.617296"
       d="m 236.36449,146.50597 c 0,10.83433 -8.78296,19.61729 -19.6173,19.61729 -10.83433,0 -19.61729,-8.78296 -19.61729,-19.61729 0,-10.83434 8.78296,-19.6173 19.61729,-19.6173 10.83434,0 19.6173,8.78296 19.6173,19.6173 z"
       transform="matrix(0.38025655,0,0,0.38025655,474.88046,259.39015)" />
    <path
       sodipodi:type="arc"
       style="fill:#ffffff;fill-opacity:1;fill-rule:evenodd;stroke:#000000;stroke-width:5.25960684;stroke-miterlimit:4;stroke-opacity:1;stroke-dasharray:none"
       id="path4250-6-6"
       sodipodi:cx="216.74719"
       sodipodi:cy="146.50597"
       sodipodi:rx="19.617296"
       sodipodi:ry="19.617296"
       d="m 236.36449,146.50597 c 0,10.83433 -8.78296,19.61729 -19.6173,19.61729 -10.83433,0 -19.61729,-8.78296 -19.61729,-19.61729 0,-10.83434 8.78296,-19.6173 19.61729,-19.6173 10.83434,0 19.6173,8.78296 19.6173,19.6173 z"
       transform="matrix(0.38025655,0,0,0.38025655,463.38046,206.19015)" />
    <path
       sodipodi:type="arc"
       style="fill:#ffffff;fill-opacity:1;fill-rule:evenodd;stroke:#000000;stroke-width:5.25960684;stroke-miterlimit:4;stroke-opacity:1;stroke-dasharray:none"
       id="path4250-6-0"
       sodipodi:cx="216.74719"
       sodipodi:cy="146.50597"
       sodipodi:rx="19.617296"
       sodipodi:ry="19.617296"
       d="m 236.36449,146.50597 c 0,10.83433 -8.78296,19.61729 -19.6173,19.61729 -10.83433,0 -19.61729,-8.78296 -19.61729,-19.61729 0,-10.83434 8.78296,-19.6173 19.61729,-19.6173 10.83434,0 19.6173,8.78296 19.6173,19.6173 z"
       transform="matrix(0.38025655,0,0,0.38025655,86.98046,291.69015)" />
    <path
       sodipodi:type="arc"
       style="fill:#ffffff;fill-opacity:1;fill-rule:evenodd;stroke:#000000;stroke-width:5.25960684;stroke-miterlimit:4;stroke-opacity:1;stroke-dasharray:none"
       id="path4250-6-52"
       sodipodi:cx="216.74719"
       sodipodi:cy="146.50597"
       sodipodi:rx="19.617296"
       sodipodi:ry="19.617296"
       d="m 236.36449,146.50597 c 0,10.83433 -8.78296,19.61729 -19.6173,19.61729 -10.83433,0 -19.61729,-8.78296 -19.61729,-19.61729 0,-10.83434 8.78296,-19.6173 19.61729,-19.6173 10.83434,0 19.6173,8.78296 19.6173,19.6173 z"
       transform="matrix(0.38025655,0,0,0.38025655,134.28046,310.79015)" />
    <path
       sodipodi:type="arc"
       style="fill:#ffffff;fill-opacity:1;fill-rule:evenodd;stroke:#000000;stroke-width:5.25960684;stroke-miterlimit:4;stroke-opacity:1;stroke-dasharray:none"
       id="path4250-6-8"
       sodipodi:cx="216.74719"
       sodipodi:cy="146.50597"
       sodipodi:rx="19.617296"
       sodipodi:ry="19.617296"
       d="m 236.36449,146.50597 c 0,10.83433 -8.78296,19.61729 -19.6173,19.61729 -10.83433,0 -19.61729,-8.78296 -19.61729,-19.61729 0,-10.83434 8.78296,-19.6173 19.61729,-19.6173 10.83434,0 19.6173,8.78296 19.6173,19.6173 z"
       transform="matrix(0.38025655,0,0,0.38025655,348.28046,226.79015)" />
    <path
       sodipodi:type="arc"
       style="fill:#ffffff;fill-opacity:1;fill-rule:evenodd;stroke:#000000;stroke-width:5.25960684;stroke-miterlimit:4;stroke-opacity:1;stroke-dasharray:none"
       id="path4250-6-4"
       sodipodi:cx="216.74719"
       sodipodi:cy="146.50597"
       sodipodi:rx="19.617296"
       sodipodi:ry="19.617296"
       d="m 236.36449,146.50597 c 0,10.83433 -8.78296,19.61729 -19.6173,19.61729 -10.83433,0 -19.61729,-8.78296 -19.61729,-19.61729 0,-10.83434 8.78296,-19.6173 19.61729,-19.6173 10.83434,0 19.6173,8.78296 19.6173,19.6173 z"
       transform="matrix(0.38025655,0,0,0.38025655,251.08046,237.79015)" />
  </g>
  <g
     inkscape:groupmode="layer"
     id="layer3"
     inkscape:label="labels"
     style="display:inline"
     transform="translate(-27.759521,-19)">
    <text
       style="font-size:17.5px;text-anchor:start;color:#000000;fill:#000000;fill-opacity:1;stroke:none;font-family:Arial"
       id="text266"
       x="497.81317"
       y="395.54382">Vegas</text>
    <text
       style="font-size:17.5px;text-anchor:start;color:#000000;fill:#000000;fill-opacity:1;stroke:none;font-family:Arial"
       id="text278"
       x="94.931793"
       y="386.60602">Cubic</text>
    <text
       style="font-size:17.50000000000000000px;text-anchor:start;color:#000000;fill:#000000;fill-opacity:1;stroke:none;font-family:Arial"
       id="text308"
       x="164.75636"
       y="336.15012">
      <tspan
         style="font-weight:normal;fill:#000000;fill-opacity:1;stroke:none;-inkscape-font-specification:Arial"
         id="tspan4390">NewReno</tspan>
    </text>
    <text
       style="font-size:17.5px;text-anchor:start;color:#000000;fill:#000000;fill-opacity:1;stroke:none;display:inline;font-family:Arial"
       id="text260"
       x="442.52206"
       y="280.2966">Cubic</text>
    <text
       style="font-size:17.5px;text-anchor:start;color:#000000;fill:#000000;fill-opacity:1;stroke:none;display:inline;font-family:Arial"
       id="text260-5"
       x="442.52206"
       y="294.85443">CoDel</text>
    <text
       style="font-size:17.5px;text-anchor:start;color:#000000;fill:#000000;fill-opacity:1;stroke:none;display:inline;font-family:Arial"
       id="text248"
       x="509.51395"
       y="223.66422">Remy</text>
    <text
       style="font-size:17.5px;text-anchor:start;color:#000000;fill:#000000;fill-opacity:1;stroke:none;display:inline;font-family:Arial"
       id="text248-4"
       x="510.27444"
       y="240.00444">=0.1</text>
    <text
       style="font-size:17.5px;text-anchor:start;color:#000000;fill:#000000;fill-opacity:1;stroke:none;display:inline;font-family:Arial"
       id="text272-2"
       x="508.13416"
       y="335.38544">Remy</text>
    <text
       style="font-size:17.5px;text-anchor:start;color:#000000;fill:#000000;fill-opacity:1;stroke:none;display:inline;font-family:Arial"
       id="text248-4-7-2"
       x="508.89465"
       y="351.98029">=10</text>
    <text
       style="font-size:17.50000000000000000px;text-anchor:start;color:#000000;fill:#000000;fill-opacity:1;stroke:none;font-family:Arial"
       id="text290"
       x="311.98154"
       y="317.87476">
      <tspan
         style="font-weight:normal;stroke:none;-inkscape-font-specification:Arial;fill:#000000;fill-opacity:1"
         id="tspan4375">XCP</tspan>
    </text>
    <text
       style="font-size:17.50000000000000000px;font-weight:bold;text-anchor:start;color:#000000;fill:#000000;fill-opacity:1;stroke:none;font-family:Arial;-inkscape-font-specification:Arial Bold"
       id="text302"
       x="178.77544"
       y="389.93729">
      <tspan
         style="font-weight:normal;-inkscape-font-specification:Arial;fill:#000000;fill-opacity:1"
         id="tspan3896">Compound</tspan>
    </text>
  </g>
  <g
     transform="translate(201.58205,1.693881)"
     id="g3451">
    <path
       transform="matrix(0.81139419,-0.58449935,0.58449935,0.81139419,9.0540023,189.77768)"
       d="m 347.93938,61.902275 c 0,17.143049 -22.5156,31.040236 -50.29,31.040236 -27.77439,0 -50.28999,-13.897187 -50.28999,-31.040236 0,-17.143049 22.5156,-31.040235 50.28999,-31.040235 27.7744,0 50.29,13.897186 50.29,31.040235 z"
       sodipodi:ry="31.040236"
       sodipodi:rx="50.289993"
       sodipodi:cy="61.902275"
       sodipodi:cx="297.64938"
       id="path36637"
       style="fill:#ffd7ff;fill-opacity:1;fill-rule:evenodd;stroke:none;display:inline"
       sodipodi:type="arc" />
    <path
       sodipodi:nodetypes="cc"
       inkscape:connector-curvature="0"
       id="path36165"
       d="M 303.37106,51.535803 318.8748,38.856783"
       style="fill:none;stroke:#000000;stroke-width:2;stroke-linecap:butt;stroke-linejoin:miter;stroke-miterlimit:4;stroke-opacity:1;stroke-dasharray:none;marker-end:url(#Arrow1Lend);display:inline" />
    <text
       transform="matrix(0.76379002,-0.6454648,0.6454648,0.76379002,0,0)"
       y="239.76408"
       x="137.55965"
       id="text270-5"
       style="font-size:18px;text-anchor:start;color:#000000;fill:#000000;fill-opacity:1;stroke:none;display:inline;font-family:Arial">
      <tspan
         id="tspan36635"
         style="font-style:italic;font-weight:bold;-inkscape-font-specification:Arial Bold Italic">Better</tspan>
    </text>
  </g>
</svg>
