<?xml version="1.0" encoding="UTF-8" standalone="no"?>
<svg
   xmlns:dc="http://purl.org/dc/elements/1.1/"
   xmlns:cc="http://creativecommons.org/ns#"
   xmlns:rdf="http://www.w3.org/1999/02/22-rdf-syntax-ns#"
   xmlns:svg="http://www.w3.org/2000/svg"
   xmlns="http://www.w3.org/2000/svg"
   xmlns:xlink="http://www.w3.org/1999/xlink"
   xmlns:sodipodi="http://sodipodi.sourceforge.net/DTD/sodipodi-0.dtd"
   xmlns:inkscape="http://www.inkscape.org/namespaces/inkscape"
   width="544.68964"
   height="446.461"
   viewBox="0 0 544.68964 446.461"
   id="svg2"
   version="1.1"
   inkscape:version="0.48.3.1 r9886"
   sodipodi:docname="eth-graph-8b.svg">
  <metadata
     id="metadata354">
    <rdf:RDF>
      <cc:Work
         rdf:about="">
        <dc:format>image/svg+xml</dc:format>
        <dc:type
           rdf:resource="http://purl.org/dc/dcmitype/StillImage" />
        <dc:title />
      </cc:Work>
    </rdf:RDF>
  </metadata>
  <sodipodi:namedview
     pagecolor="#ffffff"
     bordercolor="#666666"
     borderopacity="1"
     objecttolerance="10"
     gridtolerance="10"
     guidetolerance="10"
     inkscape:pageopacity="0"
     inkscape:pageshadow="2"
     inkscape:window-width="1920"
     inkscape:window-height="1124"
     id="namedview352"
     showgrid="false"
     inkscape:zoom="2.0899924"
     inkscape:cx="388.1826"
     inkscape:cy="218.23049"
     inkscape:window-x="1200"
     inkscape:window-y="24"
     inkscape:window-maximized="1"
     inkscape:current-layer="layer2"
     fit-margin-top="0"
     fit-margin-left="0"
     fit-margin-right="0"
     fit-margin-bottom="0" />
  <desc
     id="desc4">Produced by GNUPLOT 4.4 patchlevel 3 </desc>
  <defs
     id="defs6">
    <circle
       id="gpDot"
       r="0.5"
       cx="0"
       cy="0"
       sodipodi:cx="0"
       sodipodi:cy="0"
       sodipodi:rx="0.5"
       sodipodi:ry="0.5"
       style="stroke-width:0.5" />
    <path
       id="gpPt0"
       d="M -1,0 H 1 M 0,-1 v 2"
       inkscape:connector-curvature="0"
       style="stroke:currentColor;stroke-width:0.19" />
    <path
       id="gpPt1"
       d="M -1,-1 1,1 M 1,-1 -1,1"
       inkscape:connector-curvature="0"
       style="stroke:currentColor;stroke-width:0.19" />
    <path
       id="gpPt2"
       d="M -1,0 1,0 M 0,-1 0,1 m -1,-2 2,2 m -2,0 2,-2"
       inkscape:connector-curvature="0"
       style="stroke:currentColor;stroke-width:0.19" />
    <rect
       id="gpPt3"
       x="-1"
       y="-1"
       width="2"
       height="2"
       style="stroke:currentColor;stroke-width:0.19" />
    <rect
       id="gpPt4"
       x="-1"
       y="-1"
       width="2"
       height="2"
       style="fill:currentColor;stroke:currentColor;stroke-width:0.19" />
    <circle
       id="gpPt5"
       cx="0"
       cy="0"
       r="1"
       sodipodi:cx="0"
       sodipodi:cy="0"
       sodipodi:rx="1"
       sodipodi:ry="1"
       style="stroke:currentColor;stroke-width:0.19" />
    <use
       xlink:href="#gpPt5"
       id="gpPt6"
       style="fill:currentColor;stroke:none"
       x="0"
       y="0"
       width="600"
       height="480" />
    <path
       id="gpPt7"
       d="m 0,-1.33 -1.33,2 2.66,0 z"
       inkscape:connector-curvature="0"
       style="stroke:currentColor;stroke-width:0.19" />
    <use
       xlink:href="#gpPt7"
       id="gpPt8"
       style="fill:currentColor;stroke:none"
       x="0"
       y="0"
       width="600"
       height="480" />
    <use
       xlink:href="#gpPt7"
       id="gpPt9"
       transform="scale(-1,-1)"
       style="stroke:currentColor"
       x="0"
       y="0"
       width="600"
       height="480" />
    <use
       xlink:href="#gpPt9"
       id="gpPt10"
       style="fill:currentColor;stroke:none"
       x="0"
       y="0"
       width="600"
       height="480" />
    <use
       xlink:href="#gpPt3"
       id="gpPt11"
       transform="matrix(0.70710678,0.70710678,-0.70710678,0.70710678,0,0)"
       style="stroke:currentColor"
       x="0"
       y="0"
       width="600"
       height="480" />
    <use
       xlink:href="#gpPt11"
       id="gpPt12"
       style="fill:currentColor;stroke:none"
       x="0"
       y="0"
       width="600"
       height="480" />
    <marker
       inkscape:stockid="Arrow1Lend"
       orient="auto"
       refY="0"
       refX="0"
       id="Arrow1Lend"
       style="overflow:visible">
      <path
         id="path36174"
         d="M 0,0 5,-5 -12.5,0 5,5 0,0 z"
         style="fill-rule:evenodd;stroke:#000000;stroke-width:1pt"
         transform="matrix(-0.8,0,0,-0.8,-10,0)"
         inkscape:connector-curvature="0" />
    </marker>
  </defs>
  <path
     style="color:#808080;fill:none;stroke:currentColor;stroke-width:1;stroke-linecap:butt;stroke-linejoin:miter"
     inkscape:connector-curvature="0"
     id="path28"
     d="m 56.240479,395.07813 486.800001,0" />
  <path
     style="color:#000000;fill:none;stroke:currentColor;stroke-width:1;stroke-linecap:butt;stroke-linejoin:miter"
     inkscape:connector-curvature="0"
     id="path32"
     d="m 56.240479,395.07813 10.5,0 m 476.300001,0 -10.5,0" />
  <text
     style="font-size:17.5px;text-anchor:end;color:#000000;fill:#000000;stroke:none;font-family:Arial"
     id="text36"
     x="46.540482"
     y="400.27814">0</text>
  <path
     style="color:#808080;fill:none;stroke:currentColor;stroke-width:1;stroke-linecap:butt;stroke-linejoin:miter"
     inkscape:connector-curvature="0"
     id="path40"
     d="m 56.240479,330.47813 486.800001,0" />
  <path
     style="color:#000000;fill:none;stroke:currentColor;stroke-width:1;stroke-linecap:butt;stroke-linejoin:miter"
     inkscape:connector-curvature="0"
     id="path44"
     d="m 56.240479,330.47813 10.5,0"
     sodipodi:nodetypes="cc" />
  <text
     style="font-size:17.5px;text-anchor:end;color:#000000;fill:#000000;stroke:none;font-family:Arial"
     id="text48"
     x="46.540482"
     y="335.67813">0.5</text>
  <path
     style="color:#808080;fill:none;stroke:currentColor;stroke-width:1;stroke-linecap:butt;stroke-linejoin:miter"
     inkscape:connector-curvature="0"
     id="path52"
     d="m 56.240479,265.87813 486.800001,0" />
  <path
     style="color:#000000;fill:none;stroke:currentColor;stroke-width:1;stroke-linecap:butt;stroke-linejoin:miter"
     inkscape:connector-curvature="0"
     id="path56"
     d="m 56.240479,265.87813 10.5,0"
     sodipodi:nodetypes="cc" />
  <text
     style="font-size:17.5px;text-anchor:end;color:#000000;fill:#000000;stroke:none;font-family:Arial"
     id="text60"
     x="46.540482"
     y="271.07812">1</text>
  <path
     style="color:#808080;fill:none;stroke:currentColor;stroke-width:1;stroke-linecap:butt;stroke-linejoin:miter"
     inkscape:connector-curvature="0"
     id="path64"
     d="m 56.240479,201.17813 486.800001,0" />
  <path
     style="color:#000000;fill:none;stroke:currentColor;stroke-width:1;stroke-linecap:butt;stroke-linejoin:miter"
     inkscape:connector-curvature="0"
     id="path68"
     d="m 56.240479,201.17813 10.5,0"
     sodipodi:nodetypes="cc" />
  <text
     style="font-size:17.5px;text-anchor:end;color:#000000;fill:#000000;stroke:none;font-family:Arial"
     id="text72"
     x="46.540482"
     y="206.37813">1.5</text>
  <path
     style="color:#808080;fill:none;stroke:currentColor;stroke-width:1;stroke-linecap:butt;stroke-linejoin:miter"
     inkscape:connector-curvature="0"
     id="path76"
     d="m 56.240479,136.57813 486.800001,0" />
  <path
     style="color:#000000;fill:none;stroke:currentColor;stroke-width:1;stroke-linecap:butt;stroke-linejoin:miter"
     inkscape:connector-curvature="0"
     id="path80"
     d="m 56.240479,136.57813 10.5,0"
     sodipodi:nodetypes="cc" />
  <text
     style="font-size:17.5px;text-anchor:end;color:#000000;fill:#000000;stroke:none;font-family:Arial"
     id="text84"
     x="46.540482"
     y="141.77812">2</text>
  <path
     style="color:#808080;fill:none;stroke:currentColor;stroke-width:1;stroke-linecap:butt;stroke-linejoin:miter"
     inkscape:connector-curvature="0"
     id="path88"
     d="m 56.240479,71.978126 486.800001,0" />
  <path
     style="color:#000000;fill:none;stroke:currentColor;stroke-width:1;stroke-linecap:butt;stroke-linejoin:miter"
     inkscape:connector-curvature="0"
     id="path92"
     d="m 56.240479,71.978126 10.5,0"
     sodipodi:nodetypes="cc" />
  <text
     style="font-size:17.5px;text-anchor:end;color:#000000;fill:#000000;stroke:none;font-family:Arial"
     id="text96"
     x="46.540482"
     y="77.178131">2.5</text>
  <path
     style="color:#808080;fill:none;stroke:currentColor;stroke-width:1;stroke-linecap:butt;stroke-linejoin:miter"
     inkscape:connector-curvature="0"
     id="path100"
     d="m 56.240479,7.3781258 486.800001,0" />
  <path
     style="color:#000000;fill:none;stroke:currentColor;stroke-width:1;stroke-linecap:butt;stroke-linejoin:miter"
     inkscape:connector-curvature="0"
     id="path104"
     d="m 56.240479,7.3781258 10.5,0"
     sodipodi:nodetypes="cc" />
  <text
     style="font-size:17.5px;text-anchor:end;color:#000000;fill:#000000;stroke:none;font-family:Arial"
     id="text108"
     x="46.540482"
     y="12.578125">3</text>
  <path
     style="color:#808080;fill:none;stroke:currentColor;stroke-width:1;stroke-linecap:butt;stroke-linejoin:miter"
     inkscape:connector-curvature="0"
     id="path112"
     d="m 543.04048,395.07813 0,-393.3000042" />
  <path
     style="color:#000000;fill:none;stroke:currentColor;stroke-width:1;stroke-linecap:butt;stroke-linejoin:miter"
     inkscape:connector-curvature="0"
     id="path116"
     d="m 543.04048,395.07813 0,-10.5"
     sodipodi:nodetypes="cc" />
  <text
     style="font-size:17.5px;text-anchor:middle;color:#000000;fill:#000000;stroke:none;font-family:Arial"
     id="text120"
     x="543.04047"
     y="421.27814">1</text>
  <path
     style="color:#808080;fill:none;stroke:currentColor;stroke-width:1;stroke-linecap:butt;stroke-linejoin:miter"
     inkscape:connector-curvature="0"
     id="path124"
     d="m 492.04048,395.07813 0,-393.3000042" />
  <path
     style="color:#000000;fill:none;stroke:currentColor;stroke-width:1;stroke-linecap:butt;stroke-linejoin:miter"
     inkscape:connector-curvature="0"
     id="path128"
     d="m 492.04048,395.07813 0,-10.5"
     sodipodi:nodetypes="cc" />
  <text
     style="font-size:17.5px;text-anchor:middle;color:#000000;fill:#000000;stroke:none;font-family:Arial"
     id="text132"
     x="492.04047"
     y="421.27814">2</text>
  <path
     style="color:#808080;fill:none;stroke:currentColor;stroke-width:1;stroke-linecap:butt;stroke-linejoin:miter"
     inkscape:connector-curvature="0"
     id="path136"
     d="m 441.14048,395.07813 0,-393.3000042" />
  <path
     style="color:#000000;fill:none;stroke:currentColor;stroke-width:1;stroke-linecap:butt;stroke-linejoin:miter"
     inkscape:connector-curvature="0"
     id="path140"
     d="m 441.14048,395.07813 0,-10.5"
     sodipodi:nodetypes="cc" />
  <text
     style="font-size:17.5px;text-anchor:middle;color:#000000;fill:#000000;stroke:none;font-family:Arial"
     id="text144"
     x="441.14047"
     y="421.27814">4</text>
  <path
     style="color:#808080;fill:none;stroke:currentColor;stroke-width:1;stroke-linecap:butt;stroke-linejoin:miter"
     inkscape:connector-curvature="0"
     id="path148"
     d="m 390.14048,395.07813 0,-393.3000042" />
  <path
     style="color:#000000;fill:none;stroke:currentColor;stroke-width:1;stroke-linecap:butt;stroke-linejoin:miter"
     inkscape:connector-curvature="0"
     id="path152"
     d="m 390.14048,395.07813 0,-10.5"
     sodipodi:nodetypes="cc" />
  <text
     style="font-size:17.5px;text-anchor:middle;color:#000000;fill:#000000;stroke:none;font-family:Arial"
     id="text156"
     x="390.14047"
     y="421.27814">8</text>
  <path
     style="color:#808080;fill:none;stroke:currentColor;stroke-width:1;stroke-linecap:butt;stroke-linejoin:miter"
     inkscape:connector-curvature="0"
     id="path160"
     d="m 339.14048,395.07813 0,-393.3000042" />
  <path
     style="color:#000000;fill:none;stroke:currentColor;stroke-width:1;stroke-linecap:butt;stroke-linejoin:miter"
     inkscape:connector-curvature="0"
     id="path164"
     d="m 339.14048,395.07813 0,-10.5"
     sodipodi:nodetypes="cc" />
  <text
     style="font-size:17.5px;text-anchor:middle;color:#000000;fill:#000000;stroke:none;font-family:Arial"
     id="text168"
     x="339.14047"
     y="421.27814">16</text>
  <path
     style="color:#808080;fill:none;stroke:currentColor;stroke-width:1;stroke-linecap:butt;stroke-linejoin:miter"
     inkscape:connector-curvature="0"
     id="path172"
     d="m 288.24048,395.07813 0,-393.3000042" />
  <path
     style="color:#000000;fill:none;stroke:currentColor;stroke-width:1;stroke-linecap:butt;stroke-linejoin:miter"
     inkscape:connector-curvature="0"
     id="path176"
     d="m 288.24048,395.07813 0,-10.5"
     sodipodi:nodetypes="cc" />
  <text
     style="font-size:17.5px;text-anchor:middle;color:#000000;fill:#000000;stroke:none;font-family:Arial"
     id="text180"
     x="288.24048"
     y="421.27814">32</text>
  <path
     style="color:#808080;fill:none;stroke:currentColor;stroke-width:1;stroke-linecap:butt;stroke-linejoin:miter"
     inkscape:connector-curvature="0"
     id="path184"
     d="m 237.24048,395.07813 0,-393.3000042" />
  <path
     style="color:#000000;fill:none;stroke:currentColor;stroke-width:1;stroke-linecap:butt;stroke-linejoin:miter"
     inkscape:connector-curvature="0"
     id="path188"
     d="m 237.24048,395.07813 0,-10.5"
     sodipodi:nodetypes="cc" />
  <text
     style="font-size:17.5px;text-anchor:middle;color:#000000;fill:#000000;stroke:none;font-family:Arial"
     id="text192"
     x="237.24048"
     y="421.27814">64</text>
  <path
     style="color:#808080;fill:none;stroke:currentColor;stroke-width:1;stroke-linecap:butt;stroke-linejoin:miter"
     inkscape:connector-curvature="0"
     id="path196"
     d="m 186.24048,395.07813 0,-393.3000042" />
  <path
     style="color:#000000;fill:none;stroke:currentColor;stroke-width:1;stroke-linecap:butt;stroke-linejoin:miter"
     inkscape:connector-curvature="0"
     id="path200"
     d="m 186.24048,395.07813 0,-10.5"
     sodipodi:nodetypes="cc" />
  <text
     style="font-size:17.5px;text-anchor:middle;color:#000000;fill:#000000;stroke:none;font-family:Arial"
     id="text204"
     x="186.24048"
     y="421.27814">128</text>
  <path
     style="color:#808080;fill:none;stroke:currentColor;stroke-width:1;stroke-linecap:butt;stroke-linejoin:miter"
     inkscape:connector-curvature="0"
     id="path208"
     d="m 135.24048,395.07813 0,-393.3000042" />
  <path
     style="color:#000000;fill:none;stroke:currentColor;stroke-width:1;stroke-linecap:butt;stroke-linejoin:miter"
     inkscape:connector-curvature="0"
     id="path212"
     d="m 135.24048,395.07813 0,-10.5"
     sodipodi:nodetypes="cc" />
  <text
     style="font-size:17.5px;text-anchor:middle;color:#000000;fill:#000000;stroke:none;font-family:Arial"
     id="text216"
     x="135.24048"
     y="421.27814">256</text>
  <path
     style="color:#808080;fill:none;stroke:currentColor;stroke-width:1;stroke-linecap:butt;stroke-linejoin:miter"
     inkscape:connector-curvature="0"
     id="path220"
     d="m 84.340479,395.07813 0,-393.3000042" />
  <path
     style="color:#000000;fill:none;stroke:currentColor;stroke-width:1;stroke-linecap:butt;stroke-linejoin:miter"
     inkscape:connector-curvature="0"
     id="path224"
     d="m 84.340479,395.07813 0,-10.5"
     sodipodi:nodetypes="cc" />
  <text
     style="font-size:17.5px;text-anchor:middle;color:#000000;fill:#000000;stroke:none;font-family:Arial"
     id="text228"
     x="84.340477"
     y="421.27814">512</text>
  <path
     style="color:#000000;fill:none;stroke:currentColor;stroke-width:1;stroke-linecap:butt;stroke-linejoin:miter"
     inkscape:connector-curvature="0"
     id="path230"
     d="m 56.240479,1.7781258 0,393.3000042 486.800001,0"
     sodipodi:nodetypes="ccc" />
  <text
     style="font-size:17.5px;text-anchor:middle;color:#000000;fill:#000000;stroke:none;font-family:Arial"
     id="text234"
     transform="matrix(0,-1,1,0,0,0)"
     x="-198.47812"
     y="12.740479">Throughput (Mbps)</text>
  <text
     style="font-size:17.5px;text-anchor:middle;color:#000000;fill:#000000;stroke:none;font-family:Arial"
     id="text238"
     x="299.64047"
     y="442.77814">Queueing delay (ms)</text>
  <use
     height="480"
     width="600"
     y="0"
     x="0"
     style="color:#000000;fill:none;stroke:currentColor;stroke-width:1;stroke-linecap:butt;stroke-linejoin:miter"
     id="use244"
     transform="matrix(5.25,0,0,5.25,529.64048,378.27813)"
     xlink:href="#gpPt0" />
  <use
     height="480"
     width="600"
     y="0"
     x="0"
     style="color:#000000;fill:none;stroke:currentColor;stroke-width:1;stroke-linecap:butt;stroke-linejoin:miter"
     id="use250"
     transform="matrix(5.25,0,0,5.25,429.24048,194.37813)"
     xlink:href="#gpPt0" />
  <use
     height="480"
     width="600"
     y="0"
     x="0"
     style="color:#000000;fill:none;stroke:currentColor;stroke-width:1;stroke-linecap:butt;stroke-linejoin:miter"
     id="use256"
     transform="matrix(5.25,0,0,5.25,95.340479,349.07813)"
     xlink:href="#gpPt0" />
  <use
     height="480"
     width="600"
     y="0"
     x="0"
     style="color:#000000;fill:none;stroke:currentColor;stroke-width:1;stroke-linecap:butt;stroke-linejoin:miter"
     id="use262"
     transform="matrix(5.25,0,0,5.25,392.94048,238.97813)"
     xlink:href="#gpPt0" />
  <use
     height="480"
     width="600"
     y="0"
     x="0"
     style="color:#000000;fill:none;stroke:currentColor;stroke-width:1;stroke-linecap:butt;stroke-linejoin:miter"
     id="use268"
     transform="matrix(5.25,0,0,5.25,358.54048,274.27813)"
     xlink:href="#gpPt0" />
  <use
     height="480"
     width="600"
     y="0"
     x="0"
     style="color:#000000;fill:none;stroke:currentColor;stroke-width:1;stroke-linecap:butt;stroke-linejoin:miter"
     id="use274"
     transform="matrix(5.25,0,0,5.25,488.44048,222.67813)"
     xlink:href="#gpPt0" />
  <use
     height="480"
     width="600"
     y="0"
     x="0"
     style="color:#000000;fill:none;stroke:currentColor;stroke-width:1;stroke-linecap:butt;stroke-linejoin:miter"
     id="use280"
     transform="matrix(5.25,0,0,5.25,138.74048,348.77813)"
     xlink:href="#gpPt0" />
  <use
     height="480"
     width="600"
     y="0"
     x="0"
     style="color:#000000;fill:none;stroke:currentColor;stroke-width:1;stroke-linecap:butt;stroke-linejoin:miter"
     id="use286"
     transform="matrix(5.25,0,0,5.25,142.14048,334.97813)"
     xlink:href="#gpPt0" />
  <use
     height="480"
     width="600"
     y="0"
     x="0"
     style="color:#000000;fill:none;stroke:currentColor;stroke-width:1;stroke-linecap:butt;stroke-linejoin:miter"
     id="use292"
     transform="matrix(5.25,0,0,5.25,518.34048,264.67813)"
     xlink:href="#gpPt0" />
  <a
     xlink:title="Plot #1"
     id="a294"
     transform="translate(-27.759521,-17.721874)">
    <g
       style="color:#ff0000;fill:none;stroke:currentColor;stroke-width:1;stroke-linecap:butt;stroke-linejoin:miter"
       id="g296" />
  </a>
  <a
     xlink:title="Plot #2"
     id="a300"
     transform="translate(-27.759521,-17.721874)">
    <g
       style="color:#ff0000;fill:none;stroke:currentColor;stroke-width:1;stroke-linecap:butt;stroke-linejoin:miter"
       id="g302" />
  </a>
  <a
     xlink:title="Plot #3"
     id="a306"
     transform="translate(-27.759521,-17.721874)">
    <g
       style="color:#ff0000;fill:none;stroke:currentColor;stroke-width:1;stroke-linecap:butt;stroke-linejoin:miter"
       id="g308" />
  </a>
  <a
     xlink:title="Plot #4"
     id="a312"
     transform="translate(-27.759521,-17.721874)">
    <g
       style="color:#ff0000;fill:none;stroke:currentColor;stroke-width:1;stroke-linecap:butt;stroke-linejoin:miter"
       id="g314" />
  </a>
  <a
     xlink:title="Plot #5"
     id="a318"
     transform="translate(-27.759521,-17.721874)">
    <g
       style="color:#ff0000;fill:none;stroke:currentColor;stroke-width:1;stroke-linecap:butt;stroke-linejoin:miter"
       id="g320" />
  </a>
  <a
     xlink:title="Plot #6"
     id="a324"
     transform="translate(-27.759521,-17.721874)">
    <g
       style="color:#ff0000;fill:none;stroke:currentColor;stroke-width:1;stroke-linecap:butt;stroke-linejoin:miter"
       id="g326" />
  </a>
  <a
     xlink:title="Plot #7"
     id="a330"
     transform="translate(-27.759521,-17.721874)">
    <g
       style="color:#ff0000;fill:none;stroke:currentColor;stroke-width:1;stroke-linecap:butt;stroke-linejoin:miter"
       id="g332" />
  </a>
  <a
     xlink:title="Plot #8"
     id="a336"
     transform="translate(-27.759521,-17.721874)">
    <g
       style="color:#ff0000;fill:none;stroke:currentColor;stroke-width:1;stroke-linecap:butt;stroke-linejoin:miter"
       id="g338" />
  </a>
  <a
     xlink:title="Plot #9"
     id="a342"
     transform="translate(-27.759521,-17.721874)">
    <g
       style="color:#ff0000;fill:none;stroke:currentColor;stroke-width:1;stroke-linecap:butt;stroke-linejoin:miter"
       id="g344" />
  </a>
  <path
     style="color:#000000;fill:none;stroke:currentColor;stroke-width:1;stroke-linecap:butt;stroke-linejoin:miter"
     inkscape:connector-curvature="0"
     id="path350"
     d="m 56.240479,395.07813 486.800001,0"
     sodipodi:nodetypes="cc" />
  <g
     inkscape:groupmode="layer"
     id="layer1"
     inkscape:label="ovals"
     style="display:inline"
     transform="translate(-27.759521,-17.721874)">
    <path
       style="color:#ff0000;fill:#ff00ff;fill-opacity:0.25098041;stroke:none;stroke-width:1.00000000999999994;stroke-linecap:butt;stroke-linejoin:miter;stroke-miterlimit:4;stroke-dasharray:none;stroke-opacity:1;stroke-dashoffset:0"
       d="m 553.3,412.8 -0.1,-0.1 0,-0.1 0,-0.2 -0.1,-0.2 0,-0.2 -0.1,-0.2 0,-0.2 0,-0.2 -0.1,-0.2 0,-0.2 -0.1,-0.2 0,-0.2 0,-0.2 -0.1,-0.2 0,-0.2 -0.1,-0.2 0,-0.2 0,-0.2 -0.1,-0.3 0,-0.2 0,-0.2 -0.1,-0.2 0,-0.2 0,-0.2 -0.1,-0.2 0,-0.3 -0.1,-0.2 0,-0.2 0,-0.2 -0.1,-0.3 0,-0.2 0,-0.2 0,-0.2 -0.1,-0.3 0,-0.2 0,-0.2 -0.1,-0.3 0,-0.2 0,-0.2 -0.1,-0.3 0,-0.2 0,-0.2 0,-0.3 -0.1,-0.2 0,-0.2 0,-0.3 -0.1,-0.2 0,-0.3 0,-0.2 0,-0.2 -0.1,-0.3 0,-0.2 0,-0.3 0,-0.2 -0.1,-0.3 0,-0.2 0,-0.2 0,-0.3 0,-0.2 -0.1,-0.3 0,-0.2 0,-0.3 0,-0.2 0,-0.3 -0.1,-0.2 0,-0.3 0,-0.2 0,-0.3 0,-0.2 -0.1,-0.3 0,-0.2 0,-0.3 0,-0.2 0,-0.3 0,-0.3 0,-0.2 -0.1,-0.3 0,-0.2 0,-0.3 0,-0.2 0,-0.3 0,-0.2 0,-0.3 0,-0.2 -0.1,-0.3 0,-0.3 0,-0.2 0,-0.3 0,-0.2 0,-0.3 0,-0.2 0,-0.3 0,-0.2 0,-0.3 0,-0.2 0,-0.3 0,-0.3 0,-0.2 -0.1,-0.3 0,-0.2 0,-0.3 0,-0.2 0,-0.3 0,-0.2 0,-0.3 0,-0.2 0,-0.3 0,-0.2 0,-0.3 0,-0.2 0,-0.3 0,-0.2 0,-0.3 0,-0.2 0.1,-0.3 0,-0.2 0,-0.3 0,-0.2 0,-0.2 0,-0.3 0,-0.2 0,-0.3 0,-0.2 0,-0.3 0,-0.2 0,-0.2 0,-0.3 0,-0.2 0.1,-0.3 0,-0.2 0,-0.2 0,-0.3 0,-0.2 0,-0.2 0,-0.3 0,-0.2 0,-0.2 0.1,-0.3 0,-0.2 0,-0.2 0,-0.2 0,-0.3 0,-0.2 0.1,-0.2 0,-0.2 0,-0.3 0,-0.2 0,-0.2 0,-0.2 0.1,-0.2 0,-0.3 0,-0.2 0,-0.2 0,-0.2 0.1,-0.2 0,-0.2 0,-0.2 0,-0.2 0.1,-0.2 0,-0.2 0,-0.3 0,-0.2 0.1,-0.2 0,-0.2 0,-0.2 0,-0.1 0.1,-0.2 0,-0.2 0,-0.2 0,-0.2 0.1,-0.2 0,-0.2 0,-0.2 0.1,-0.2 0,-0.2 0,-0.1 0,-0.2 0.1,-0.2 0,-0.2 0,-0.1 0.1,-0.2 0,-0.2 0,-0.2 0.1,-0.1 0,-0.2 0,-0.2 0.1,-0.1 0,-0.2 0,-0.1 0.1,-0.2 0,-0.2 0,-0.1 0.1,-0.2 0,-0.1 0.1,-0.2 0,-0.1 0,-0.2 0.1,-0.1 0,-0.2 0,-0.1 0.1,-0.1 0,-0.2 0.1,-0.1 0,-0.1 0,-0.2 0.1,-0.1 0,-0.1 0.1,-0.1 0,-0.2 0,-0.1 0.1,-0.1 0,-0.1 0.1,-0.1 0,-0.2 0.1,-0.1 0,-0.1 0,-0.1 0.1,-0.1 0,-0.1 0.1,-0.1 0,-0.1 0.1,-0.1 0,-0.1 0.1,-0.1 0,-0.1 0.1,-0.1 0,-0.1 0.1,-0.1 0,-0.1 0.1,-0.1 0,-0.1 0.1,0 0,-0.1 0.1,-0.1 0.1,-0.1 0,-0.1 0.1,0 0,-0.1 0.1,-0.1 0.1,-0.1 0.1,-0.1 0.1,0 0,-0.1 0.1,0 0,-0.1 0.1,0 0.1,-0.1 0.1,0 c -0.35271,-0.27294 0.0667,-0.0667 0.1,-0.1 l 0.0981,0.002 0.10195,-0.002 0.1,-0.1 0.1,0 0.1,0 0.1,0 0.1,0.1 0.1,0 0.1,0 0.1,0 0,0.1 0.1,0 0.1,0 0,0.1 0.1,0 0.1,0.1 0.1,0.1 0.1,0 0.1,0.1 0.1,0.1 0,0.1 0.1,0 0,0.1 0.1,0 0,0.1 0.1,0.1 0.1,0.1 0,0.1 0.1,0 0,0.1 0.1,0.1 0,0.1 0.1,0.1 0.1,0.1 0.1,0.1 0,0.1 0.1,0.1 0,0.1 0.1,0.1 0,0.1 0.1,0.1 0,0.1 0.1,0.1 0,0.1 0.1,0.1 0,0.1 0.1,0.2 0,0.1 0.1,0.1 0,0.1 0.1,0.1 0,0.2 0.1,0.1 0,0.1 0.1,0.1 0,0.2 0.1,0.1 0,0.1 0.1,0.2 0,0.1 0.1,0.2 0,0.1 0.1,0.1 0,0.2 0.1,0.1 0,0.2 0.1,0.1 0,0.2 0.1,0.1 0,0.2 0.1,0.2 0,0.1 0,0.2 0.1,0.1 0,0.2 0.1,0.2 0,0.2 0.1,0.1 0,0.2 0.1,0.2 0,0.1 0.1,0.2 0,0.2 0,0.2 0.1,0.2 0,0.1 0.1,0.2 0,0.2 0.1,0.2 0,0.2 0,0.2 0.1,0.2 0,0.2 0.1,0.2 0,0.2 0,0.2 0.1,0.2 0,0.2 0.1,0.2 0,0.2 0,0.2 0.1,0.2 0,0.2 0,0.2 0.1,0.2 0,0.2 0.1,0.2 0,0.2 0,0.3 0.1,0.2 0,0.2 0,0.2 0.1,0.2 0,0.2 0,0.3 0.1,0.2 0,0.2 0,0.2 0.1,0.3 0,0.2 0,0.2 0.1,0.3 0,0.2 0,0.2 0.1,0.2 0,0.3 0,0.2 0,0.2 0.1,0.3 0,0.2 0,0.3 0.1,0.2 0,0.2 0,0.3 0,0.2 0.1,0.3 0,0.2 0,0.2 0,0.3 0.1,0.2 0,0.3 0,0.2 0,0.3 0.1,0.2 0,0.2 0,0.3 0,0.2 0,0.3 0.1,0.2 0,0.3 0,0.2 0,0.3 0,0.2 0.1,0.3 0,0.2 0,0.3 0,0.2 0,0.3 0,0.3 0.1,0.2 0,0.3 0,0.2 0,0.3 0,0.2 0,0.3 0,0.2 0.1,0.3 0,0.2 0,0.3 0,0.2 0,0.3 0,0.3 0,0.2 0,0.3 0,0.2 0,0.3 0.1,0.2 0,0.3 0,0.2 0,0.3 0,0.2 0,0.3 0,0.3 0,0.2 0,0.3 0,0.2 0,0.3 0,0.2 0,0.3 0,0.2 0,0.3 0,0.2 0,0.3 0,0.2 0,0.3 0,0.2 0,0.3 0,0.2 0,0.3 0,0.2 0,0.3 0,0.2 0,0.3 0,0.2 0,0.3 0,0.2 0,0.3 0,0.2 0,0.2 0,0.3 0,0.2 -0.1,0.3 0,0.2 0,0.2 0,0.3 0,0.2 0,0.3 0,0.2 0,0.2 0,0.3 -0.1,0.2 0,0.2 0,0.3 0,0.2 0,0.2 0,0.2 0,0.3 -0.1,0.2 0,0.2 0,0.3 0,0.2 0,0.2 0,0.2 -0.1,0.2 0,0.3 0,0.2 0,0.2 0,0.2 0,0.2 -0.1,0.2 0,0.3 0,0.2 0,0.2 -0.1,0.2 0,0.2 0,0.2 0,0.2 -0.1,0.2 0,0.2 0,0.2 0,0.2 -0.1,0.2 0,0.2 0,0.2 0,0.2 -0.1,0.2 0,0.2 0,0.2 0,0.2"
       id="path298"
       inkscape:connector-curvature="0"
       sodipodi:nodetypes="ccccccccccccccccccccccccccccccccccccccccccccccccccccccccccccccccccccccccccccccccccccccccccccccccccccccccccccccccccccccccccccccccccccccccccccccccccccccccccccccccccccccccccccccccccccccccccccccccccccccccccccccccccccccccccccccccccccccccccccccccccccccccccccccccccccccccccccccccccccccccccccccccccccccccccccccccccccccccccccccccccccccccccccccccccccccccccccccccccccccccccccccccccccccccccccccccccccccccccccccccccccccccccccccccccccccccccccccccccccccccccccccccccccccccccccccccccccccccccccccccccccccccccccccccccccccccccccc" />
    <path
       style="color:#ff0000;fill:#0000ff;fill-opacity:0.25098041;stroke:none;stroke-width:1.00000000999999994;stroke-linecap:butt;stroke-linejoin:miter;stroke-miterlimit:4;stroke-dasharray:none;stroke-opacity:1;stroke-dashoffset:0"
       d="m 493,257.6 -0.2,0.7 -0.2,0.6 -0.2,0.5 -0.1,0.6 -0.2,0.6 -0.2,0.6 -0.2,0.6 -0.2,0.5 -0.2,0.6 -0.2,0.5 -0.2,0.6 -0.2,0.5 -0.2,0.6 -0.2,0.5 -0.2,0.5 -0.2,0.6 -0.2,0.5 -0.2,0.5 -0.3,0.5 -0.2,0.5 -0.2,0.5 -0.2,0.5 -0.3,0.5 -0.2,0.5 -0.2,0.4 -0.3,0.5 -0.2,0.5 -0.2,0.4 -0.3,0.5 -0.2,0.4 -0.3,0.4 -0.2,0.5 -0.3,0.4 -0.2,0.4 -0.3,0.4 -0.2,0.4 -0.3,0.4 -0.3,0.4 -0.2,0.4 -0.3,0.4 -0.3,0.4 -0.2,0.3 -0.3,0.4 -0.3,0.3 -0.2,0.4 -0.3,0.3 -0.3,0.4 -0.3,0.3 -0.3,0.3 -0.3,0.3 -0.2,0.3 -0.3,0.3 -0.3,0.3 -0.3,0.3 -0.3,0.3 -0.3,0.3 -0.3,0.2 -0.3,0.3 -0.3,0.2 -0.3,0.3 -0.3,0.2 -0.3,0.3 -0.3,0.2 -0.3,0.2 -0.3,0.2 -0.3,0.2 -0.4,0.2 -0.3,0.2 -0.3,0.2 -0.3,0.2 -0.3,0.1 -0.3,0.2 -0.4,0.2 -0.3,0.1 -0.3,0.1 -0.3,0.2 -0.4,0.1 -0.3,0.1 -0.3,0.1 -0.3,0.1 -0.4,0.1 -0.3,0.1 -0.3,0.1 -0.4,0.1 -0.3,0.1 -0.3,0 -0.4,0.1 -0.3,0 -0.3,0.1 -0.4,0 -0.3,0 -0.4,0.1 -0.3,0 -0.4,0 -0.3,0 -0.3,0 -0.4,-0.1 -0.3,0 -0.4,0 -0.3,-0.1 -0.4,0 -0.3,-0.1 -0.4,0 -0.3,-0.1 -0.4,-0.1 -0.3,0 -0.4,-0.1 -0.3,-0.1 -0.4,-0.1 -0.3,-0.1 -0.4,-0.1 -0.3,-0.2 -0.4,-0.1 -0.3,-0.1 -0.4,-0.2 -0.3,-0.1 -0.4,-0.2 -0.3,-0.2 -0.4,-0.1 -0.3,-0.2 -0.4,-0.2 -0.3,-0.2 -0.4,-0.2 -0.3,-0.2 -0.4,-0.2 -0.4,-0.3 -0.3,-0.2 -0.4,-0.2 -0.3,-0.3 -0.4,-0.2 -0.3,-0.3 -0.4,-0.2 -0.3,-0.3 -0.4,-0.3 -0.3,-0.3 -0.4,-0.3 -0.3,-0.3 -0.4,-0.3 -0.3,-0.3 -0.4,-0.3 -0.3,-0.3 -0.4,-0.4 -0.3,-0.3 -0.4,-0.3 -0.3,-0.4 -0.3,-0.3 -0.4,-0.4 -0.3,-0.4 -0.4,-0.4 -0.3,-0.3 -0.4,-0.4 -0.3,-0.4 -0.3,-0.4 -0.4,-0.4 -0.3,-0.5 -0.4,-0.4 -0.3,-0.4 -0.3,-0.4 -0.4,-0.5 -0.3,-0.4 -0.3,-0.5 -0.4,-0.4 -0.3,-0.5 -0.3,-0.5 -0.4,-0.4 -0.3,-0.5 -0.3,-0.5 -0.3,-0.5 -0.4,-0.5 -0.3,-0.5 -0.3,-0.5 -0.3,-0.5 -0.3,-0.6 -0.4,-0.5 -0.3,-0.5 -0.3,-0.6 -0.3,-0.5 -0.3,-0.5 -0.3,-0.6 -0.3,-0.6 -0.4,-0.5 -0.3,-0.6 -0.3,-0.6 -0.3,-0.6 -0.3,-0.5 -0.3,-0.6 -0.3,-0.6 -0.3,-0.6 -0.3,-0.6 -0.3,-0.6 -0.2,-0.7 -0.3,-0.6 -0.3,-0.6 -0.3,-0.6 -0.3,-0.7 -0.3,-0.6 -0.3,-0.6 -0.2,-0.7 -0.3,-0.6 -0.3,-0.7 -0.3,-0.7 -0.2,-0.6 -0.3,-0.7 -0.3,-0.7 -0.2,-0.7 -0.3,-0.6 -0.3,-0.7 -0.2,-0.7 -0.3,-0.7 -0.2,-0.7 -0.3,-0.7 -0.2,-0.7 -0.3,-0.7 -0.2,-0.7 -0.3,-0.7 -0.2,-0.8 -0.2,-0.7 -0.3,-0.7 -0.2,-0.8 -0.3,-0.7 -0.2,-0.7 -0.2,-0.8 -0.2,-0.7 -0.3,-0.8 -0.2,-0.7 -0.2,-0.8 -0.2,-0.7 -0.2,-0.8 -0.2,-0.7 -0.2,-0.8 -0.2,-0.8 -0.3,-0.7 -0.2,-0.8 -0.2,-0.8 -0.1,-0.8 -0.2,-0.7 -0.2,-0.8 -0.2,-0.8 -0.2,-0.8 -0.2,-0.8 -0.2,-0.8 -0.1,-0.8 -0.2,-0.8 -0.2,-0.7 -0.2,-0.8 -0.1,-0.8 -0.2,-0.9 -0.2,-0.8 -0.1,-0.8 -0.2,-0.8 -0.1,-0.8 -0.2,-0.8 -0.1,-0.8 -0.2,-0.8 -0.1,-0.8 -0.1,-0.8 -0.2,-0.9 -0.1,-0.8 -0.1,-0.8 -0.2,-0.8 -0.1,-0.8 -0.1,-0.9 -0.1,-0.8 -0.2,-0.8 -0.1,-0.8 -0.1,-0.8 -0.1,-0.9 -0.1,-0.8 -0.1,-0.8 -0.1,-0.8 -0.1,-0.9 -0.1,-0.8 -0.1,-0.8 0,-0.8 -0.1,-0.9 -0.1,-0.8 -0.1,-0.8 -0.1,-0.9 0,-0.8 -0.1,-0.8 -0.1,-0.8 0,-0.9 -0.1,-0.8 0,-0.8 -0.1,-0.8 -0.1,-0.8 0,-0.9 0,-0.8 -0.1,-0.8 0,-0.8 -0.1,-0.8 0,-0.9 0,-0.8 0,-0.8 -0.1,-0.8 0,-0.8 0,-0.8 0,-0.8 0,-0.8 0,-0.8 0,-0.9 0,-0.8 0,-0.8 0,-0.8 0,-0.8 0,-0.7 0,-0.8 0,-0.8 0,-0.8 0.1,-0.8 0,-0.8 0,-0.8 0.1,-0.8 0,-0.7 0,-0.8 0.1,-0.8 0,-0.8 0.1,-0.7 0,-0.8 0.1,-0.7 0,-0.8 0.1,-0.8 0.1,-0.7 0,-0.8 0.1,-0.7 0.1,-0.8 0,-0.7 0.1,-0.7 0.1,-0.8 0.1,-0.7 0.1,-0.7 0.1,-0.8 0,-0.7 0.1,-0.7 0.1,-0.7 0.1,-0.7 0.2,-0.7 0.1,-0.7 0.1,-0.7 0.1,-0.7 0.1,-0.7 0.1,-0.7 0.1,-0.7 0.2,-0.7 0.1,-0.7 0.1,-0.6 0.2,-0.7 0.1,-0.7 0.1,-0.6 0.2,-0.7 0.1,-0.6 0.2,-0.7 0.1,-0.6 0.2,-0.6 0.1,-0.7 0.2,-0.6 0.2,-0.6 0.1,-0.6 0.2,-0.6 0.2,-0.7 0.1,-0.6 0.2,-0.6 0.2,-0.5 0.2,-0.6 0.2,-0.6 0.1,-0.6 0.2,-0.6 0.2,-0.5 0.2,-0.6 0.2,-0.6 0.2,-0.5 0.2,-0.5 0.2,-0.6 0.2,-0.5 0.2,-0.6 0.2,-0.5 0.3,-0.5 0.2,-0.5 0.2,-0.5 0.2,-0.5 0.2,-0.5 0.3,-0.5 0.2,-0.5 0.2,-0.5 0.3,-0.4 0.2,-0.5 0.2,-0.5 0.3,-0.4 0.2,-0.5 0.3,-0.4 0.2,-0.4 0.3,-0.5 0.2,-0.4 0.3,-0.4 0.2,-0.4 0.3,-0.4 0.2,-0.4 0.3,-0.4 0.3,-0.4 0.2,-0.4 0.3,-0.4 0.3,-0.3 0.2,-0.4 0.3,-0.3 0.3,-0.4 0.3,-0.3 0.2,-0.4 0.3,-0.3 0.3,-0.3 0.3,-0.3 0.3,-0.3 0.3,-0.3 0.2,-0.3 0.3,-0.3 0.3,-0.3 0.3,-0.3 0.3,-0.2 0.3,-0.3 0.3,-0.2 0.3,-0.3 0.3,-0.2 0.3,-0.3 0.3,-0.2 0.4,-0.2 0.3,-0.2 0.3,-0.2 0.3,-0.2 0.3,-0.2 0.3,-0.2 0.3,-0.2 0.4,-0.1 0.3,-0.2 0.3,-0.2 0.3,-0.1 0.3,-0.1 0.4,-0.2 0.3,-0.1 0.3,-0.1 0.3,-0.1 0.4,-0.1 0.3,-0.1 0.3,-0.1 0.4,-0.1 0.3,-0.1 0.3,-0.1 0.4,0 0.3,-0.1 0.3,0 0.4,-0.1 0.3,0 0.4,0 0.3,-0.1 0.3,0 0.4,0 0.3,0 0.4,0 0.3,0.1 0.4,0 0.3,0 0.4,0.1 0.3,0 0.3,0 0.4,0.1 0.3,0.1 0.4,0.1 0.3,0 0.4,0.1 0.3,0.1 0.4,0.1 0.3,0.1 0.4,0.1 0.3,0.2 0.4,0.1 0.3,0.1 0.4,0.2 0.4,0.1 0.3,0.2 0.4,0.2 0.3,0.1 0.4,0.2 0.3,0.2 0.4,0.2 0.3,0.2 0.4,0.2 0.3,0.2 0.4,0.3 0.3,0.2 0.4,0.2 0.3,0.3 0.4,0.2 0.3,0.3 0.4,0.2 0.3,0.3 0.4,0.3 0.4,0.3 0.3,0.3 0.4,0.3 0.3,0.3 0.4,0.3 0.3,0.3 0.3,0.3 0.4,0.4 0.3,0.3 0.4,0.3 0.3,0.4 0.4,0.3 0.3,0.4 0.4,0.4 0.3,0.4 0.4,0.3 0.3,0.4 0.3,0.4 0.4,0.4 0.3,0.4 0.4,0.5 0.3,0.4 0.3,0.4 0.4,0.4 0.3,0.5 0.3,0.4 0.4,0.5 0.3,0.4 0.3,0.5 0.4,0.5 0.3,0.4 0.3,0.5 0.3,0.5 0.4,0.5 0.3,0.5 0.3,0.5 0.3,0.5 0.4,0.5 0.3,0.6 0.3,0.5 0.3,0.5 0.3,0.5 0.3,0.6 0.4,0.5 0.3,0.6 0.3,0.6 0.3,0.5 0.3,0.6 0.3,0.6 0.3,0.5 0.3,0.6 0.3,0.6 0.3,0.6 0.3,0.6 0.3,0.6 0.3,0.6 0.3,0.7 0.3,0.6 0.3,0.6 0.2,0.6 0.3,0.7 0.3,0.6 0.3,0.6 0.3,0.7 0.2,0.6 0.3,0.7 0.3,0.7 0.3,0.6 0.2,0.7 0.3,0.7 0.3,0.6 0.2,0.7 0.3,0.7 0.2,0.7 0.3,0.7 0.3,0.7 0.2,0.7 0.3,0.7 0.2,0.7 0.3,0.7 0.2,0.7 0.2,0.8 0.3,0.7 0.2,0.7 0.2,0.7 0.3,0.8 0.2,0.7 0.2,0.8 0.3,0.7 0.2,0.7 0.2,0.8 0.2,0.8 0.2,0.7 0.3,0.8 0.2,0.7 0.2,0.8 0.2,0.8 0.2,0.7 0.2,0.8 0.2,0.8 0.2,0.8 0.2,0.7 0.2,0.8 0.2,0.8 0.1,0.8 0.2,0.8 0.2,0.8 0.2,0.8 0.2,0.8 0.1,0.7 0.2,0.8 0.2,0.8 0.1,0.8 0.2,0.9 0.1,0.8 0.2,0.8 0.2,0.8 0.1,0.8 0.1,0.8 0.2,0.8 0.1,0.8 0.2,0.8 0.1,0.9 0.1,0.8 0.2,0.8 0.1,0.8 0.1,0.8 0.1,0.8 0.2,0.9 0.1,0.8 0.1,0.8 0.1,0.8 0.1,0.9 0.1,0.8 0.1,0.8 0.1,0.8 0.1,0.9 0.1,0.8 0.1,0.8 0.1,0.8 0.1,0.9 0,0.8 0.1,0.8 0.1,0.8 0.1,0.9 0,0.8 0.1,0.8 0.1,0.8 0,0.9 0.1,0.8 0,0.8 0.1,0.8 0,0.9 0.1,0.8 0,0.8 0.1,0.8 0,0.8 0,0.9 0,0.8 0.1,0.8 0,0.8 0,0.8 0,0.8 0,0.8 0.1,0.8 0,0.8 0,0.8 0,0.9 0,0.8 0,0.8 0,0.7 -0.1,0.8 0,0.8 0,0.8 0,0.8 0,0.8 -0.1,0.8 0,0.8 0,0.8 -0.1,0.7 0,0.8 0,0.8 -0.1,0.8 0,0.7 -0.1,0.8 0,0.7 -0.1,0.8 -0.1,0.8 0,0.7 -0.1,0.8 -0.1,0.7 0,0.8 -0.1,0.7 -0.1,0.7 -0.1,0.8 0,0.7 -0.1,0.7 -0.1,0.8 -0.1,0.7 -0.1,0.7 -0.1,0.7 -0.1,0.7 -0.1,0.7 -0.1,0.7 -0.1,0.7 -0.2,0.7 -0.1,0.7 -0.1,0.7 -0.1,0.7 -0.1,0.7 -0.2,0.6 -0.1,0.7 -0.1,0.7 -0.2,0.6 -0.1,0.7 -0.2,0.7 -0.1,0.6 -0.1,0.7 -0.2,0.6 -0.2,0.6 -0.1,0.7 -0.2,0.6 -0.1,0.6 -0.2,0.6 -0.2,0.6 -0.1,0.6"
       id="path304"
       inkscape:connector-curvature="0" />
    <path
       style="color:#ff0000;fill:#ff0000;fill-opacity:0.25098041;stroke:none;stroke-width:1.00000000999999994;stroke-linecap:butt;stroke-linejoin:miter;stroke-miterlimit:4;stroke-dasharray:none;stroke-opacity:1;stroke-dashoffset:0"
       d="m 102,412.8 -0.3,-1 -0.4,-1 -0.3,-1 -0.4,-1.1 -0.3,-1 -0.4,-1 -0.3,-1.1 -0.3,-1 -0.4,-1.1 -0.3,-1.1 -0.3,-1 -0.3,-1.1 -0.3,-1.1 -0.4,-1.1 -0.3,-1.1 -0.3,-1.1 -0.3,-1.2 -0.3,-1.1 -0.3,-1.1 -0.3,-1.2 -0.3,-1.1 -0.3,-1.2 -0.2,-1.1 -0.3,-1.2 -0.3,-1.2 -0.3,-1.2 -0.3,-1.2 -0.2,-1.1 -0.3,-1.2 -0.2,-1.3 -0.3,-1.2 -0.3,-1.2 -0.2,-1.2 -0.3,-1.2 -0.2,-1.3 -0.2,-1.2 -0.3,-1.3 -0.2,-1.2 -0.2,-1.3 -0.3,-1.2 -0.2,-1.3 -0.2,-1.3 -0.2,-1.2 -0.2,-1.3 -0.2,-1.3 -0.2,-1.3 -0.2,-1.3 -0.2,-1.3 -0.2,-1.3 -0.2,-1.3 -0.2,-1.3 -0.2,-1.3 -0.1,-1.3 -0.2,-1.3 -0.2,-1.4 -0.2,-1.3 -0.1,-1.3 -0.2,-1.4 -0.1,-1.3 -0.2,-1.3 -0.1,-1.4 -0.2,-1.3 -0.1,-1.4 -0.1,-1.3 -0.1,-1.4 -0.2,-1.3 -0.1,-1.4 -0.1,-1.4 -0.1,-1.3 -0.1,-1.4 -0.1,-1.4 -0.1,-1.3 -0.1,-1.4 -0.1,-1.4 -0.1,-1.3 -0.1,-1.4 -0.1,-1.4 -0.1,-1.4 0,-1.4 -0.1,-1.3 -0.1,-1.4 0,-1.4 -0.1,-1.4 0,-1.4 -0.1,-1.3 0,-1.4 0,-1.4 -0.1,-1.4 0,-1.4 0,-1.4 -0.1,-1.3 0,-1.4 0,-1.4 0,-1.4 0,-1.4 0,-1.3 0,-1.4 0,-1.4 0,-1.4 0,-1.4 0.1,-1.3 0,-1.4 0,-1.4 0,-1.3 0.1,-1.4 0,-1.4 0.1,-1.3 0,-1.4 0.1,-1.4 0,-1.3 0.1,-1.4 0.1,-1.3 0,-1.4 0.1,-1.3 0.1,-1.4 0.1,-1.3 0,-1.4 0.1,-1.3 0.1,-1.3 0.1,-1.4 0.1,-1.3 0.1,-1.3 0.2,-1.4 0.1,-1.3 0.1,-1.3 0.1,-1.3 0.1,-1.3 0.2,-1.3 0.1,-1.3 0.1,-1.3 0.2,-1.3 0.1,-1.3 0.2,-1.3 0.1,-1.2 0.2,-1.3 0.2,-1.3 0.1,-1.2 0.2,-1.3 0.2,-1.2 0.1,-1.3 0.2,-1.2 0.2,-1.3 0.2,-1.2 0.2,-1.2 0.2,-1.2 0.2,-1.2 0.2,-1.3 0.2,-1.2 0.2,-1.1 0.2,-1.2 0.3,-1.2 0.2,-1.2 0.2,-1.2 0.2,-1.1 0.3,-1.2 0.2,-1.1 0.3,-1.2 0.2,-1.1 0.3,-1.2 0.2,-1.1 0.3,-1.1 0.2,-1.1 0.3,-1.1 0.3,-1.1 0.2,-1.1 0.3,-1.1 0.3,-1 0.3,-1.1 0.2,-1.1 0.3,-1 0.3,-1 0.3,-1.1 0.3,-1 0.3,-1 0.3,-1 0.3,-1 0.3,-1 0.3,-1 0.4,-1 0.3,-0.9 0.3,-1 0.3,-0.9 0.4,-1 0.3,-0.9 0.3,-0.9 0.4,-0.9 0.3,-1 0.3,-0.8 0.4,-0.9 0.3,-0.9 0.4,-0.9 0.3,-0.8 0.4,-0.9 0.4,-0.8 0.3,-0.8 0.4,-0.9 0.4,-0.8 0.3,-0.8 0.4,-0.8 0.4,-0.7 0.4,-0.8 0.3,-0.8 0.4,-0.7 0.4,-0.8 0.4,-0.7 0.4,-0.7 0.4,-0.7 0.4,-0.7 0.4,-0.7 0.4,-0.7 0.4,-0.6 0.4,-0.7 0.4,-0.6 0.4,-0.7 0.4,-0.6 0.4,-0.6 0.5,-0.6 0.4,-0.6 0.4,-0.6 0.4,-0.6 0.4,-0.5 0.5,-0.6 0.4,-0.5 0.4,-0.5 0.5,-0.5 0.4,-0.5 0.4,-0.5 0.5,-0.5 0.4,-0.5 0.4,-0.4 0.5,-0.5 0.4,-0.4 0.5,-0.4 0.4,-0.4 0.5,-0.4 0.4,-0.4 0.5,-0.4 0.4,-0.4 0.5,-0.3 0.4,-0.4 0.5,-0.3 0.4,-0.3 0.5,-0.3 0.4,-0.3 0.47204,-0.27204 L 124.8,147 l 0.4,-0.2 0.5,-0.3 0.5,-0.2 0.4,-0.2 0.5,-0.2 0.5,-0.2 0.4,-0.2 0.5,-0.2 0.5,-0.2 0.4,-0.1 0.5,-0.2 0.5,-0.1 0.5,-0.1 0.4,-0.1 0.5,-0.1 0.5,-0.1 0.5,0 0.4,-0.1 0.5,0 0.5,-0.1 0.5,0 0.4,0 0.5,0 0.5,0 0.5,0.1 0.4,0 0.5,0 0.5,0.1 0.5,0.1 0.5,0.1 0.4,0.1 0.5,0.1 0.5,0.1 0.5,0.2 0.4,0.1 0.5,0.2 0.5,0.1 0.5,0.2 0.5,0.2 0.4,0.2 0.5,0.3 0.5,0.2 0.5,0.2 0.4,0.3 0.5,0.3 0.5,0.2 0.5,0.3 0.4,0.3 0.5,0.4 0.5,0.3 0.4,0.3 0.5,0.4 0.5,0.3 0.4,0.4 0.5,0.4 0.5,0.4 0.4,0.4 0.5,0.4 0.5,0.5 0.4,0.4 0.5,0.5 0.5,0.4 0.4,0.5 0.5,0.5 0.4,0.5 0.5,0.5 0.4,0.5 0.5,0.6 0.4,0.5 0.5,0.6 0.4,0.5 0.5,0.6 0.4,0.6 0.5,0.6 0.4,0.6 0.5,0.6 0.4,0.7 0.4,0.6 0.5,0.7 0.4,0.6 0.4,0.7 0.5,0.7 0.4,0.7 0.4,0.7 0.4,0.7 0.5,0.7 0.4,0.8 0.4,0.7 0.4,0.8 0.4,0.7 0.4,0.8 0.5,0.8 0.4,0.8 0.4,0.8 0.4,0.8 0.4,0.9 0.4,0.8 0.4,0.8 0.4,0.9 0.4,0.9 0.3,0.8 0.4,0.9 0.4,0.9 0.4,0.9 0.4,0.9 0.4,0.9 0.3,1 0.4,0.9 0.4,1 0.3,0.9 0.4,1 0.4,1 0.3,0.9 0.4,1 0.3,1 0.4,1 0.3,1 0.4,1.1 0.3,1 0.4,1 0.3,1.1 0.3,1 0.4,1.1 0.3,1.1 0.3,1.1 0.3,1 0.3,1.1 0.4,1.1 0.3,1.1 0.3,1.2 0.3,1.1 0.3,1.1 0.3,1.1 0.3,1.2 0.3,1.1 0.3,1.2 0.2,1.2 0.3,1.1 0.3,1.2 0.3,1.2 0.2,1.2 0.3,1.2 0.3,1.2 0.2,1.2 0.3,1.2 0.3,1.2 0.2,1.2 0.2,1.3 0.3,1.2 0.2,1.2 0.3,1.3 0.2,1.2 0.2,1.3 0.3,1.2 0.2,1.3 0.2,1.3 0.2,1.3 0.2,1.2 0.2,1.3 0.2,1.3 0.2,1.3 0.2,1.3 0.2,1.3 0.2,1.3 0.2,1.3 0.2,1.3 0.1,1.3 0.2,1.4 0.2,1.3 0.1,1.3 0.2,1.3 0.2,1.4 0.1,1.3 0.2,1.4 0.1,1.3 0.1,1.4 0.2,1.3 0.1,1.4 0.1,1.3 0.2,1.4 0.1,1.3 0.1,1.4 0.1,1.3 0.1,1.4 0.1,1.4 0.1,1.3 0.1,1.4 0.1,1.4 0.1,1.4 0.1,1.3 0.1,1.4 0,1.4 0.1,1.4 0.1,1.3 0,1.4 0.1,1.4 0.1,1.4 0,1.4 0.1,1.4 0,1.3 0,1.4 0.1,1.4 0,1.4 0,1.4 0,1.4 0.1,1.3 0,1.4 0,1.4 0,1.4 0,1.4 0,1.3 0,1.4 0,1.4 0,1.4 -0.1,1.3 0,1.4 0,1.4 -0.1,1.4 0,1.3 0,1.4 -0.1,1.4 0,1.3 -0.1,1.4 0,1.4 -0.1,1.3 -0.1,1.4 0,1.3 -0.1,1.4 -0.1,1.3 -0.1,1.4 -0.1,1.3 0,1.3 -0.1,1.4 -0.1,1.3 -0.1,1.3 -0.1,1.4 -0.2,1.3 -0.1,1.3 -0.1,1.3 -0.1,1.3 -0.1,1.3 -0.2,1.3 -0.1,1.3 -0.1,1.3 -0.2,1.3 -0.1,1.3 -0.2,1.3 -0.1,1.2 -0.2,1.3 -0.2,1.3 -0.1,1.2 -0.2,1.3 -0.2,1.3 -0.2,1.2 -0.1,1.2 -0.2,1.3 -0.2,1.2 -0.2,1.2 -0.2,1.3 -0.2,1.2 -0.2,1.2 -0.2,1.2 -0.2,1.2 -0.3,1.2 -0.2,1.1 -0.2,1.2 -0.2,1.2 -0.3,1.2 -0.2,1.1 -0.2,1.2 -0.3,1.1 -0.2,1.1 -0.3,1.2 -0.2,1.1 -0.3,1.1 -0.2,1.1 -0.3,1.1 -0.3,1.1 -0.2,1.1 -0.3,1.1 -0.3,1.1 -0.3,1 -0.2,1.1 -0.3,1 -0.3,1.1 -0.3,1 -0.3,1 -0.3,1 -0.3,1 -0.3,1 -0.1,0.2"
       id="path310"
       inkscape:connector-curvature="0"
       sodipodi:nodetypes="cccccccccccccccccccccccccccccccccccccccccccccccccccccccccccccccccccccccccccccccccccccccccccccccccccccccccccccccccccccccccccccccccccccccccccccccccccccccccccccccccccccccccccccccccccccccccccccccccccccccccccccccccccccccccccccccccccccccccccccccccccccccccccccccccccccccccccccccccccccccccccccccccccccccccccccccccccccccccccccccccccccccccccccccccccccccccccccccccccccccccccccccccccccccccccccccccccccccccccccccccccccccccccccccccccccccccccccccccccccccccccccccccccccccccccccccccccccccccccccccccccccccccccccccccccccccccccccccccccccccccccccccccccccccccc" />
    <path
       style="color:#ff0000;fill:#00ff00;fill-opacity:0.25098041;stroke:none;stroke-width:1.00000000999999994;stroke-linecap:butt;stroke-linejoin:miter;stroke-miterlimit:4;stroke-dasharray:none;stroke-opacity:1;stroke-dashoffset:0"
       d="m 402.2,122.1 0.2,-0.3 0.3,-0.3 0.2,-0.4 0.2,-0.3 0.2,-0.3 0.2,-0.3 0.2,-0.3 0.3,-0.2 0.2,-0.3 0.2,-0.3 0.2,-0.2 0.3,-0.3 0.2,-0.2 0.2,-0.2 0.3,-0.3 0.2,-0.2 0.3,-0.2 0.2,-0.2 0.2,-0.2 0.3,-0.1 0.2,-0.2 0.3,-0.2 0.2,-0.1 0.3,-0.2 0.2,-0.1 0.3,-0.1 0.2,-0.2 0.3,-0.1 0.3,-0.1 0.2,-0.1 0.3,-0.1 0.2,-0.1 0.3,0 0.3,-0.1 0.2,-0.1 0.3,0 0.3,0 0.2,-0.1 0.3,0 0.3,0 0.3,0 0.2,0 0.3,0 0.3,0 0.3,0 0.3,0.1 0.2,0 0.3,0.1 0.3,0 0.3,0.1 0.3,0.1 0.3,0.1 0.2,0.1 0.3,0.1 0.3,0.1 0.3,0.1 0.3,0.1 0.3,0.2 0.3,0.1 0.3,0.1 0.3,0.2 0.3,0.2 0.3,0.2 0.3,0.1 0.3,0.2 0.2,0.2 0.3,0.2 0.3,0.3 0.3,0.2 0.3,0.2 0.3,0.3 0.3,0.2 0.3,0.3 0.3,0.2 0.4,0.3 0.3,0.3 0.3,0.3 0.3,0.3 0.3,0.3 0.3,0.3 0.3,0.3 0.3,0.3 0.3,0.4 0.3,0.3 0.3,0.4 0.3,0.3 0.3,0.4 0.3,0.4 0.3,0.4 0.3,0.4 0.3,0.4 0.3,0.4 0.3,0.4 0.4,0.4 0.3,0.4 0.3,0.5 0.3,0.4 0.3,0.5 0.3,0.4 0.3,0.5 0.3,0.5 0.3,0.4 0.3,0.5 0.3,0.5 0.3,0.5 0.3,0.5 0.3,0.6 0.3,0.5 0.3,0.5 0.3,0.5 0.4,0.6 0.3,0.5 0.3,0.6 0.3,0.6 0.3,0.5 0.3,0.6 0.3,0.6 0.3,0.6 0.3,0.6 0.3,0.6 0.3,0.6 0.3,0.6 0.3,0.6 0.3,0.7 0.2,0.6 0.3,0.6 0.3,0.7 0.3,0.6 0.3,0.7 0.3,0.7 0.3,0.6 0.3,0.7 0.3,0.7 0.3,0.7 0.3,0.7 0.2,0.7 0.3,0.7 0.3,0.7 0.3,0.7 0.3,0.8 0.3,0.7 0.2,0.7 0.3,0.8 0.3,0.7 0.3,0.8 0.3,0.7 0.2,0.8 0.3,0.7 0.3,0.8 0.3,0.8 0.2,0.8 0.3,0.7 0.3,0.8 0.2,0.8 0.3,0.8 0.3,0.8 0.2,0.8 0.3,0.9 0.2,0.8 0.3,0.8 0.2,0.8 0.3,0.8 0.3,0.9 0.2,0.8 0.3,0.9 0.2,0.8 0.3,0.9 0.2,0.8 0.2,0.9 0.3,0.8 0.2,0.9 0.3,0.9 0.2,0.8 0.2,0.9 0.3,0.9 0.2,0.9 0.2,0.9 0.3,0.8 0.2,0.9 0.2,0.9 0.2,0.9 0.3,0.9 0.2,0.9 0.2,0.9 0.2,0.9 0.2,1 0.2,0.9 0.2,0.9 0.3,0.9 0.2,0.9 0.2,0.9 0.2,1 0.2,0.9 0.2,0.9 0.2,1 0.2,0.9 0.1,0.9 0.2,1 0.2,0.9 0.2,0.9 0.2,1 0.2,0.9 0.2,1 0.1,0.9 0.2,1 0.2,0.9 0.1,1 0.2,0.9 0.2,1 0.1,0.9 0.2,1 0.2,0.9 0.1,1 0.2,0.9 0.1,1 0.2,0.9 0.1,1 0.2,0.9 0.1,1 0.1,1 0.2,0.9 0.1,1 0.2,0.9 0.1,1 0.1,0.9 0.1,1 0.2,1 0.1,0.9 0.1,1 0.1,0.9 0.1,1 0.1,0.9 0.1,1 0.2,0.9 0.1,1 0.1,0.9 0.1,1 0.1,0.9 0,1 0.1,0.9 0.1,1 0.1,0.9 0.1,0.9 0.1,1 0.1,0.9 0,1 0.1,0.9 0.1,0.9 0,1 0.1,0.9 0.1,0.9 0,0.9 0.1,1 0,0.9 0.1,0.9 0,0.9 0.1,0.9 0,0.9 0.1,0.9 0,0.9 0,0.9 0.1,0.9 0,0.9 0,0.9 0.1,0.9 0,0.9 0,0.9 0,0.9 0,0.8 0,0.9 0,0.9 0.1,0.9 0,0.8 0,0.9 0,0.8 0,0.9 -0.1,0.8 0,0.9 0,0.8 0,0.9 0,0.8 0,0.8 -0.1,0.8 0,0.9 0,0.8 0,0.8 -0.1,0.8 0,0.8 -0.1,0.8 0,0.8 0,0.8 -0.1,0.7 0,0.8 -0.1,0.8 0,0.8 -0.1,0.7 -0.1,0.8 0,0.7 -0.1,0.8 -0.1,0.7 0,0.8 -0.1,0.7 -0.1,0.7 -0.1,0.7 0,0.8 -0.1,0.7 -0.1,0.7 -0.1,0.7 -0.1,0.7 -0.1,0.7 -0.1,0.6 -0.1,0.7 -0.1,0.7 -0.1,0.6 -0.1,0.7 -0.1,0.7 -0.1,0.6 -0.1,0.6 -0.1,0.7 -0.2,0.6 -0.1,0.6 -0.1,0.6 -0.1,0.6 -0.2,0.6 -0.1,0.6 -0.1,0.6 -0.2,0.6 -0.1,0.6 -0.1,0.5 -0.2,0.6 -0.1,0.6 -0.2,0.5 -0.1,0.5 -0.2,0.6 -0.1,0.5 -0.2,0.5 -0.2,0.5 -0.1,0.5 -0.2,0.5 -0.1,0.5 -0.2,0.5 -0.2,0.5 -0.2,0.5 -0.1,0.4 -0.2,0.5 -0.2,0.4 -0.2,0.5 -0.2,0.4 -0.1,0.4 -0.2,0.4 -0.2,0.4 -0.2,0.4 -0.2,0.4 -0.2,0.4 -0.2,0.4 -0.2,0.4 -0.2,0.3 -0.2,0.4 -0.2,0.4 -0.2,0.3 -0.2,0.3 -0.2,0.4 -0.3,0.3 -0.2,0.3 -0.2,0.3 -0.2,0.3 -0.2,0.3 -0.3,0.2 -0.2,0.3 -0.2,0.3 -0.2,0.2 -0.3,0.3 -0.2,0.2 -0.2,0.2 -0.3,0.3 -0.2,0.2 -0.3,0.2 -0.2,0.2 -0.2,0.2 -0.3,0.1 -0.2,0.2 -0.3,0.2 -0.2,0.1 -0.3,0.2 -0.2,0.1 -0.3,0.2 -0.2,0.1 -0.3,0.1 -0.3,0.1 -0.2,0.1 -0.3,0.1 -0.2,0.1 -0.3,0 -0.3,0.1 -0.2,0.1 -0.3,0 -0.3,0 -0.2,0.1 -0.3,0 -0.3,0 -0.3,0 -0.2,0 -0.3,0 -0.3,0 -0.3,0 -0.2,-0.1 -0.3,0 -0.3,-0.1 -0.3,0 -0.3,-0.1 -0.3,-0.1 -0.2,-0.1 -0.3,-0.1 -0.3,-0.1 -0.3,-0.1 -0.3,-0.1 -0.3,-0.1 -0.3,-0.2 -0.3,-0.1 -0.3,-0.1 -0.3,-0.2 -0.3,-0.2 -0.3,-0.2 -0.3,-0.1 -0.2,-0.2 -0.3,-0.2 -0.3,-0.2 -0.3,-0.3 -0.3,-0.2 -0.3,-0.2 -0.3,-0.3 -0.3,-0.2 -0.3,-0.3 -0.3,-0.2 -0.3,-0.3 -0.4,-0.3 -0.3,-0.3 -0.3,-0.3 -0.3,-0.3 -0.3,-0.3 -0.3,-0.3 -0.3,-0.3 -0.3,-0.4 -0.3,-0.3 -0.3,-0.4 -0.3,-0.3 -0.3,-0.4 -0.3,-0.4 -0.3,-0.4 -0.3,-0.4 -0.3,-0.4 -0.3,-0.4 -0.3,-0.4 -0.4,-0.4 -0.3,-0.4 -0.3,-0.5 -0.3,-0.4 -0.3,-0.5 -0.3,-0.4 -0.3,-0.5 -0.3,-0.5 -0.3,-0.4 -0.3,-0.5 -0.3,-0.5 -0.3,-0.5 -0.3,-0.5 -0.3,-0.5 -0.3,-0.6 -0.3,-0.5 -0.3,-0.5 -0.3,-0.6 -0.4,-0.5 -0.3,-0.6 -0.3,-0.6 -0.3,-0.5 -0.3,-0.6 -0.3,-0.6 -0.3,-0.6 -0.3,-0.6 -0.3,-0.6 -0.3,-0.6 -0.3,-0.6 -0.3,-0.6 -0.2,-0.7 -0.3,-0.6 -0.3,-0.6 -0.3,-0.7 -0.3,-0.6 -0.3,-0.7 -0.3,-0.7 -0.3,-0.6 -0.3,-0.7 -0.3,-0.7 -0.3,-0.7 -0.3,-0.7 -0.2,-0.7 -0.3,-0.7 -0.3,-0.7 -0.3,-0.7 -0.3,-0.7 -0.3,-0.8 -0.2,-0.7 -0.3,-0.8 -0.3,-0.7 -0.3,-0.7 -0.3,-0.8 -0.2,-0.8 -0.3,-0.7 -0.3,-0.8 -0.2,-0.8 -0.3,-0.8 -0.3,-0.7 -0.3,-0.8 -0.2,-0.8 -0.3,-0.8 -0.3,-0.8 -0.2,-0.8 -0.3,-0.8 -0.2,-0.9 -0.3,-0.8 -0.2,-0.8 -0.3,-0.8 -0.3,-0.9 -0.2,-0.8 -0.3,-0.9 -0.2,-0.8 -0.3,-0.9 -0.2,-0.8 -0.2,-0.9 -0.3,-0.8 -0.2,-0.9 -0.3,-0.9 -0.2,-0.8 -0.2,-0.9 -0.3,-0.9 -0.2,-0.9 -0.2,-0.9 -0.3,-0.8 -0.2,-0.9 -0.2,-0.9 -0.2,-0.9 -0.3,-0.9 -0.2,-0.9 -0.2,-0.9 -0.2,-0.9 -0.2,-0.9 -0.2,-1 -0.2,-0.9 -0.3,-0.9 -0.2,-0.9 -0.2,-0.9 -0.2,-1 -0.2,-0.9 -0.2,-0.9 -0.2,-1 -0.2,-0.9 -0.1,-0.9 -0.2,-1 -0.2,-0.9 -0.2,-0.9 -0.2,-1 -0.2,-0.9 -0.1,-1 -0.2,-0.9 -0.2,-1 -0.2,-0.9 -0.1,-1 -0.2,-0.9 -0.2,-1 -0.1,-0.9 -0.2,-1 -0.2,-0.9 -0.1,-1 -0.2,-0.9 -0.1,-1 -0.2,-0.9 -0.1,-1 -0.2,-0.9 -0.1,-1 -0.1,-1 -0.2,-0.9 -0.1,-1 -0.2,-0.9 -0.1,-1 -0.1,-0.9 -0.1,-1 -0.2,-1 -0.1,-0.9 -0.1,-1 -0.1,-0.9 -0.1,-1 -0.1,-0.9 -0.1,-1 -0.2,-0.9 -0.1,-1 -0.1,-0.9 -0.1,-1 0,-0.9 -0.1,-1 -0.1,-0.9 -0.1,-1 -0.1,-0.9 -0.1,-0.9 -0.1,-1 0,-0.9 -0.1,-1 -0.1,-0.9 -0.1,-0.9 0,-1 -0.1,-0.9 -0.1,-0.9 0,-0.9 -0.1,-1 0,-0.9 -0.1,-0.9 0,-0.9 -0.1,-0.9 0,-0.9 -0.1,-0.9 0,-0.9 0,-0.9 -0.1,-0.9 0,-0.9 0,-0.9 0,-0.9 -0.1,-0.9 0,-0.9 0,-0.9 0,-0.8 0,-0.9 0,-0.9 0,-0.9 -0.1,-0.8 0,-0.9 0,-0.8 0.1,-0.9 0,-0.8 0,-0.9 0,-0.8 0,-0.8 0,-0.9 0,-0.8 0.1,-0.8 0,-0.9 0,-0.8 0,-0.8 0.1,-0.8 0,-0.8 0.1,-0.8 0,-0.8 0,-0.8 0.1,-0.7 0,-0.8 0.1,-0.8 0,-0.8 0.1,-0.7 0.1,-0.8 0,-0.7 0.1,-0.8 0.1,-0.7 0,-0.8 0.1,-0.7 0.1,-0.7 0.1,-0.7 0,-0.8 0.1,-0.7 0.1,-0.7 0.1,-0.7 0.1,-0.7 0.1,-0.6 0.1,-0.7 0.1,-0.7 0.1,-0.7 0.1,-0.6 0.1,-0.7 0.1,-0.6 0.1,-0.7 0.1,-0.6 0.1,-0.7 0.2,-0.6 0.1,-0.6 0.1,-0.6 0.1,-0.6 0.2,-0.6 0.1,-0.6 0.1,-0.6 0.2,-0.6 0.1,-0.6 0.1,-0.5 0.2,-0.6 0.1,-0.5 0.2,-0.6 0.1,-0.5 0.2,-0.6 0.1,-0.5 0.2,-0.5 0.2,-0.5 0.1,-0.5 0.2,-0.5 0.1,-0.5 0.2,-0.5 0.2,-0.5 0.2,-0.5 0.1,-0.4 0.2,-0.5 0.2,-0.4 0.2,-0.5 0.2,-0.4 0.1,-0.4 0.2,-0.4 0.2,-0.4 0.2,-0.4 0.2,-0.4 0.2,-0.4 0.2,-0.4 0.2,-0.4 0.2,-0.3 0.2,-0.4 0.2,-0.3 0.2,-0.4"
       id="path316"
       inkscape:connector-curvature="0" />
    <path
       style="color:#ff0000;fill:#00ff00;fill-opacity:0.25098041;stroke:none;stroke-width:1.00000000999999994;stroke-linecap:butt;stroke-linejoin:miter;stroke-miterlimit:4;stroke-dasharray:none;stroke-opacity:1;stroke-dashoffset:0"
       d="m 413,65.5 0.1,0.2 0.2,0.2 0.2,0.2 0.2,0.2 0.1,0.2 0.2,0.2 0.2,0.3 0.1,0.2 0.2,0.3 0.1,0.3 0.2,0.3 0.1,0.3 0.2,0.3 0.2,0.3 0.1,0.3 0.1,0.4 0.2,0.4 0.1,0.3 0.2,0.4 0.1,0.4 0.2,0.4 0.1,0.4 0.1,0.5 0.1,0.4 0.2,0.5 0.1,0.5 0.1,0.4 0.2,0.5 0.1,0.5 0.1,0.6 0.1,0.5 0.1,0.5 0.1,0.6 0.1,0.5 0.2,0.6 0.1,0.6 0.1,0.6 0.1,0.6 0.1,0.6 0.1,0.7 0.1,0.6 0,0.7 0.1,0.6 0.1,0.7 0.1,0.7 0.1,0.7 0.1,0.7 0.1,0.7 0,0.7 0.1,0.8 0.1,0.7 0,0.8 0.1,0.8 0.1,0.8 0,0.8 0.1,0.8 0.1,0.8 0,0.8 0.1,0.8 0,0.9 0.1,0.8 0,0.9 0.1,0.9 0,0.8 0.1,0.9 0,0.9 0,1 0.1,0.9 0,0.9 0,1 0,0.9 0.1,1 0,0.9 0,1 0,1 0,1 0.1,1 0,1 0,1 0,1.1 0,1 0,1.1 0,1 0,1.1 0,1.1 0,1 0,1.1 -0.1,1.1 0,1.1 0,1.2 0,1.1 0,1.1 -0.1,1.1 0,1.2 0,1.1 0,1.2 -0.1,1.2 0,1.1 -0.1,1.2 0,1.2 0,1.2 -0.1,1.2 0,1.2 -0.1,1.2 0,1.2 -0.1,1.3 0,1.2 -0.1,1.2 -0.1,1.3 0,1.2 -0.1,1.3 -0.1,1.3 0,1.2 -0.1,1.3 -0.1,1.3 -0.1,1.3 0,1.3 -0.1,1.3 -0.1,1.3 -0.1,1.3 -0.1,1.3 -0.1,1.3 -0.1,1.3 -0.1,1.4 -0.1,1.3 -0.1,1.3 -0.1,1.4 -0.1,1.3 -0.1,1.4 -0.1,1.3 -0.1,1.4 -0.1,1.3 -0.1,1.4 -0.1,1.4 -0.2,1.3 -0.1,1.4 -0.1,1.4 -0.1,1.4 -0.2,1.3 -0.1,1.4 -0.1,1.4 -0.2,1.4 -0.1,1.4 -0.1,1.4 -0.2,1.4 -0.1,1.4 -0.1,1.4 -0.2,1.4 -0.1,1.4 -0.2,1.5 -0.1,1.4 -0.2,1.4 -0.2,1.4 -0.1,1.4 -0.2,1.4 -0.1,1.5 -0.2,1.4 -0.2,1.4 -0.1,1.4 -0.2,1.5 -0.2,1.4 -0.1,1.4 -0.2,1.4 -0.2,1.5 -0.2,1.4 -0.1,1.4 -0.2,1.4 -0.2,1.5 -0.2,1.4 -0.2,1.4 -0.2,1.5 -0.1,1.4 -0.2,1.4 -0.2,1.4 -0.2,1.5 -0.2,1.4 -0.2,1.4 -0.2,1.4 -0.2,1.5 -0.2,1.4 -0.2,1.4 -0.2,1.4 -0.2,1.4 -0.2,1.4 -0.2,1.5 -0.3,1.4 -0.2,1.4 -0.2,1.4 -0.2,1.4 -0.2,1.4 -0.2,1.4 -0.3,1.4 -0.2,1.4 -0.2,1.4 -0.2,1.3 -0.2,1.4 -0.3,1.4 -0.2,1.4 -0.2,1.4 -0.3,1.3 -0.2,1.4 -0.2,1.4 -0.3,1.3 -0.2,1.4 -0.2,1.3 -0.3,1.4 -0.2,1.3 -0.2,1.4 -0.3,1.3 -0.2,1.3 -0.3,1.4 -0.2,1.3 -0.2,1.3 -0.3,1.3 -0.2,1.3 -0.3,1.3 -0.2,1.3 -0.3,1.3 -0.2,1.3 -0.3,1.3 -0.2,1.3 -0.3,1.2 -0.2,1.3 -0.3,1.3 -0.2,1.2 -0.3,1.3 -0.3,1.2 -0.2,1.2 -0.3,1.3 -0.2,1.2 -0.3,1.2 -0.2,1.2 -0.3,1.2 -0.3,1.2 -0.2,1.2 -0.3,1.2 -0.2,1.1 -0.3,1.2 -0.3,1.2 -0.2,1.1 -0.3,1.2 -0.3,1.1 -0.2,1.1 -0.3,1.2 -0.3,1.1 -0.2,1.1 -0.3,1.1 -0.3,1.1 -0.2,1 -0.3,1.1 -0.3,1.1 -0.2,1 -0.3,1.1 -0.3,1 -0.2,1.1 -0.3,1 -0.3,1 -0.2,1 -0.3,1 -0.3,1 -0.2,1 -0.3,0.9 -0.3,1 -0.2,1 -0.3,0.9 -0.3,0.9 -0.2,1 -0.3,0.9 -0.3,0.9 -0.2,0.9 -0.3,0.8 -0.3,0.9 -0.2,0.9 -0.3,0.8 -0.3,0.9 -0.2,0.8 -0.3,0.8 -0.3,0.9 -0.2,0.8 -0.3,0.8 -0.3,0.7 -0.2,0.8 -0.3,0.8 -0.3,0.7 -0.2,0.8 -0.3,0.7 -0.3,0.7 -0.2,0.7 -0.3,0.7 -0.2,0.7 -0.3,0.7 -0.3,0.7 -0.2,0.6 -0.3,0.7 -0.2,0.6 -0.3,0.6 -0.2,0.6 -0.3,0.6 -0.3,0.6 -0.2,0.6 -0.3,0.5 -0.2,0.6 -0.3,0.5 -0.2,0.6 -0.3,0.5 -0.2,0.5 -0.3,0.5 -0.2,0.5 -0.3,0.4 -0.2,0.5 -0.3,0.4 -0.2,0.5 -0.2,0.4 -0.3,0.4 -0.2,0.4 -0.3,0.4 -0.2,0.4 -0.2,0.3 -0.3,0.4 -0.2,0.3 -0.2,0.4 -0.3,0.3 -0.2,0.3 -0.2,0.3 -0.3,0.3 -0.2,0.2 -0.2,0.3 -0.2,0.2 -0.3,0.2 -0.2,0.3 -0.2,0.2 -0.2,0.2 -0.3,0.1 -0.2,0.2 -0.2,0.2 -0.2,0.1 -0.2,0.1 -0.2,0.2 -0.2,0.1 -0.2,0.1 -0.3,0 -0.2,0.1 -0.2,0.1 -0.2,0 -0.2,0 -0.2,0.1 -0.2,0 -0.2,0 -0.2,-0.1 -0.2,0 -0.1,0 -0.2,-0.1 -0.2,-0.1 -0.2,0 -0.2,-0.1 -0.2,-0.1 -0.2,-0.2 -0.1,-0.1 -0.2,-0.1 -0.2,-0.2 -0.2,-0.2 -0.1,-0.1 -0.2,-0.2 -0.2,-0.2 -0.2,-0.2 -0.1,-0.3 -0.2,-0.2 -0.1,-0.3 -0.2,-0.2 -0.2,-0.3 -0.1,-0.3 -0.2,-0.3 -0.1,-0.3 -0.2,-0.4 -0.1,-0.3 -0.2,-0.3 -0.1,-0.4 -0.2,-0.4 -0.1,-0.4 -0.1,-0.4 -0.2,-0.4 -0.1,-0.4 -0.1,-0.4 -0.2,-0.5 -0.1,-0.4 -0.1,-0.5 -0.2,-0.5 -0.1,-0.5 -0.1,-0.5 -0.1,-0.5 -0.1,-0.5 -0.2,-0.6 -0.1,-0.5 -0.1,-0.6 -0.1,-0.6 -0.1,-0.6 -0.1,-0.6 -0.1,-0.6 -0.1,-0.6 -0.1,-0.6 -0.1,-0.7 -0.1,-0.6 -0.1,-0.7 -0.1,-0.7 0,-0.6 -0.1,-0.7 -0.1,-0.8 -0.1,-0.7 -0.1,-0.7 0,-0.7 -0.1,-0.8 -0.1,-0.8 0,-0.7 -0.1,-0.8 -0.1,-0.8 0,-0.8 -0.1,-0.8 -0.1,-0.8 0,-0.9 -0.1,-0.8 0,-0.9 -0.1,-0.8 0,-0.9 0,-0.9 -0.1,-0.9 0,-0.9 -0.1,-0.9 0,-0.9 0,-1 -0.1,-0.9 0,-1 0,-0.9 0,-1 0,-1 -0.1,-1 0,-1 0,-1 0,-1 0,-1 0,-1 0,-1.1 0,-1 0,-1.1 0,-1 0,-1.1 0,-1.1 0,-1.1 0,-1.1 0,-1.1 0.1,-1.1 0,-1.1 0,-1.2 0,-1.1 0.1,-1.1 0,-1.2 0,-1.2 0,-1.1 0.1,-1.2 0,-1.2 0.1,-1.2 0,-1.2 0.1,-1.2 0,-1.2 0.1,-1.2 0,-1.2 0.1,-1.2 0,-1.3 0.1,-1.2 0,-1.2 0.1,-1.3 0.1,-1.3 0,-1.2 0.1,-1.3 0.1,-1.3 0.1,-1.2 0,-1.3 0.1,-1.3 0.1,-1.3 0.1,-1.3 0.1,-1.3 0.1,-1.3 0,-1.4 0.1,-1.3 0.1,-1.3 0.1,-1.3 0.1,-1.4 0.1,-1.3 0.1,-1.4 0.1,-1.3 0.2,-1.4 0.1,-1.3 0.1,-1.4 0.1,-1.3 0.1,-1.4 0.1,-1.4 0.2,-1.4 0.1,-1.3 0.1,-1.4 0.1,-1.4 0.2,-1.4 0.1,-1.4 0.1,-1.4 0.2,-1.4 0.1,-1.4 0.1,-1.4 0.2,-1.4 0.1,-1.4 0.2,-1.4 0.1,-1.4 0.2,-1.4 0.1,-1.4 0.2,-1.4 0.1,-1.5 0.2,-1.4 0.1,-1.4 0.2,-1.4 0.2,-1.4 0.1,-1.5 0.2,-1.4 0.2,-1.4 0.1,-1.4 0.2,-1.5 0.2,-1.4 0.1,-1.4 0.2,-1.4 0.2,-1.5 0.2,-1.4 0.2,-1.4 0.2,-1.5 0.1,-1.4 0.2,-1.4 0.2,-1.4 0.2,-1.5 0.2,-1.4 0.2,-1.4 0.2,-1.4 0.2,-1.5 0.2,-1.4 0.2,-1.4 0.2,-1.4 0.2,-1.5 0.2,-1.4 0.2,-1.4 0.2,-1.4 0.2,-1.4 0.2,-1.4 0.2,-1.4 0.3,-1.4 0.2,-1.4 0.2,-1.4 0.2,-1.4 0.2,-1.4 0.2,-1.4 0.3,-1.4 0.2,-1.4 0.2,-1.4 0.2,-1.4 0.3,-1.3 0.2,-1.4 0.2,-1.4 0.3,-1.4 0.2,-1.3 0.2,-1.4 0.3,-1.3 0.2,-1.4 0.2,-1.3 0.3,-1.4 0.2,-1.3 0.2,-1.4 0.3,-1.3 0.2,-1.3 0.3,-1.3 0.2,-1.4 0.3,-1.3 0.2,-1.3 0.3,-1.3 0.2,-1.3 0.2,-1.3 0.3,-1.3 0.2,-1.2 0.3,-1.3 0.3,-1.3 0.2,-1.3 0.3,-1.2 0.2,-1.3 0.3,-1.2 0.2,-1.3 0.3,-1.2 0.2,-1.2 0.3,-1.2 0.3,-1.3 0.2,-1.2 0.3,-1.2 0.2,-1.2 0.3,-1.1 0.3,-1.2 0.2,-1.2 0.3,-1.2 0.2,-1.1 0.3,-1.2 0.3,-1.1 0.2,-1.2 0.3,-1.1 0.3,-1.1 0.2,-1.1 0.3,-1.1 0.3,-1.1 0.2,-1.1 0.3,-1.1 0.3,-1.1 0.2,-1 0.3,-1.1 0.3,-1 0.2,-1.1 0.3,-1 0.3,-1 0.2,-1.1 0.3,-1 0.3,-1 0.2,-0.9 0.3,-1 0.3,-1 0.2,-1 0.3,-0.9 0.3,-1 0.2,-0.9 0.3,-0.9 0.3,-0.9 0.2,-0.9 0.3,-0.9 0.3,-0.9 0.3,-0.9 0.2,-0.8 0.3,-0.9 0.3,-0.8 0.2,-0.9 0.3,-0.8 0.3,-0.8 0.2,-0.8 0.3,-0.8 0.2,-0.8 0.3,-0.8 0.3,-0.7 0.2,-0.8 0.3,-0.7 0.3,-0.8 0.2,-0.7 0.3,-0.7 0.2,-0.7 0.3,-0.7 0.3,-0.6 0.2,-0.7 0.3,-0.7 0.2,-0.6 0.3,-0.6 0.3,-0.7 0.2,-0.6 0.3,-0.6 0.2,-0.6 0.3,-0.5 0.2,-0.6 0.3,-0.6 0.2,-0.5 0.3,-0.5 0.2,-0.5 0.3,-0.5 0.2,-0.5 0.3,-0.5 0.2,-0.5 0.3,-0.5 0.2,-0.4 0.3,-0.4 0.2,-0.5 0.2,-0.4 0.3,-0.4 0.2,-0.4 0.3,-0.3 0.2,-0.4 0.2,-0.4 0.3,-0.3 0.2,-0.3 0.2,-0.3 0.3,-0.3 0.2,-0.3 0.2,-0.3 0.3,-0.3 0.2,-0.2 0.2,-0.3 0.2,-0.2 0.3,-0.2 0.2,-0.2 0.2,-0.2 0.2,-0.2 0.2,-0.2 0.3,-0.1 0.2,-0.2 0.2,-0.1 0.2,-0.1 0.2,-0.1 0.2,-0.1 0.2,-0.1 0.2,-0.1 0.2,0 0.2,-0.1 0.2,0 0.2,0 0.2,0 0.2,0 0.2,0 0.2,0 0.2,0.1 0.2,0 0.2,0.1 0.2,0.1 0.2,0.1 0.2,0.1 0.1,0.1 0.2,0.1 0.2,0.2 0.2,0.1"
       id="path322"
       inkscape:connector-curvature="0" />
    <path
       style="fill:none;stroke:#0000ff;stroke-width:3.00000001999999988;stroke-linecap:butt;stroke-linejoin:miter;stroke-opacity:1;stroke-miterlimit:4;stroke-dasharray:none"
       d="m 429.18816,194.78544 0,0 59.80883,28.22977 29.66518,41.62695 11.00483,113.39754"
       id="path4428"
       inkscape:connector-curvature="0"
       transform="translate(27.759521,17.721873)" />
    <path
       style="color:#ff0000;fill:#0000ff;fill-opacity:0.25098041;stroke:none;stroke-width:1.00000000999999994;stroke-linecap:butt;stroke-linejoin:miter;stroke-miterlimit:4;stroke-dasharray:none;stroke-opacity:1;stroke-dashoffset:0"
       d="m 513.8,169.4 0.1,-0.1 0.2,0 0.1,0 0.1,-0.1 0.2,0 0.1,0 0.1,0 0.2,0 0.1,0 0.1,0 0.2,0 0.1,0 0.1,0.1 0.2,0 0.1,0 0.1,0 0.2,0.1 0.1,0 0.1,0.1 0.2,0 0.1,0.1 0.1,0.1 0.2,0 0.1,0.1 0.1,0.1 0.2,0.1 0.1,0 0.1,0.1 0.1,0.1 0.2,0.1 0.1,0.1 0.1,0.1 0.2,0.2 0.1,0.1 0.1,0.1 0.2,0.1 0.1,0.2 0.1,0.1 0.2,0.1 0.1,0.2 0.1,0.1 0.2,0.2 0.1,0.2 0.1,0.1 0.2,0.2 0.1,0.2 0.1,0.2 0.1,0.1 0.2,0.2 0.1,0.2 0.1,0.2 0.2,0.2 0.1,0.2 0.1,0.2 0.1,0.2 0.2,0.3 0.1,0.2 0.1,0.2 0.1,0.2 0.2,0.3 0.1,0.2 0.1,0.3 0.1,0.2 0.2,0.3 0.1,0.2 0.1,0.3 0.1,0.3 0.2,0.2 0.1,0.3 0.1,0.3 0.1,0.3 0.1,0.2 0.2,0.3 0.1,0.3 0.1,0.3 0.1,0.3 0.1,0.3 0.2,0.3 0.1,0.4 0.1,0.3 0.1,0.3 0.1,0.3 0.1,0.3 0.1,0.4 0.2,0.3 0.1,0.4 0.1,0.3 0.1,0.3 0.1,0.4 0.1,0.4 0.1,0.3 0.1,0.4 0.1,0.3 0.2,0.4 0.1,0.4 0.1,0.4 0.1,0.3 0.1,0.4 0.1,0.4 0.1,0.4 0.1,0.4 0.1,0.4 0.1,0.4 0.1,0.4 0.1,0.4 0.1,0.4 0.1,0.4 0.1,0.4 0.1,0.4 0.1,0.5 0.1,0.4 0.1,0.4 0.1,0.4 0,0.5 0.1,0.4 0.1,0.5 0.1,0.4 0.1,0.4 0.1,0.5 0.1,0.4 0.1,0.5 0.1,0.4 0,0.5 0.1,0.5 0.1,0.4 0.1,0.5 0.1,0.5 0,0.4 0.1,0.5 0.1,0.5 0.1,0.4 0.1,0.5 0,0.5 0.1,0.5 0.1,0.5 0.1,0.5 0,0.5 0.1,0.4 0.1,0.5 0,0.5 0.1,0.5 0.1,0.5 0,0.5 0.1,0.5 0.1,0.5 0,0.6 0.1,0.5 0,0.5 0.1,0.5 0.1,0.5 0,0.5 0.1,0.5 0,0.5 0.1,0.6 0,0.5 0.1,0.5 0,0.5 0.1,0.6 0,0.5 0.1,0.5 0,0.5 0.1,0.6 0,0.5 0.1,0.5 0,0.6 0.1,0.5 0,0.5 0,0.6 0.1,0.5 0,0.5 0,0.6 0.1,0.5 0,0.6 0,0.5 0.1,0.5 0,0.6 0,0.5 0.1,0.6 0,0.5 0,0.5 0,0.6 0.1,0.5 0,0.6 0,0.5 0,0.6 0,0.5 0.1,0.6 0,0.5 0,0.5 0,0.6 0,0.5 0,0.6 0,0.5 0,0.6 0.1,0.5 0,0.5 0,0.6 0,0.5 0,0.6 0,0.5 0,0.6 0,0.5 0,0.5 0,0.6 0,0.5 0,0.6 0,0.5 0,0.5 0,0.6 -0.1,0.5 0,0.5 0,0.6 0,0.5 0,0.5 0,0.6 0,0.5 -0.1,0.5 0,0.5 0,0.6 0,0.5 0,0.5 -0.1,0.5 0,0.6 0,0.5 0,0.5 -0.1,0.5 0,0.5 0,0.5 0,0.5 -0.1,0.5 0,0.6 0,0.5 -0.1,0.5 0,0.5 -0.1,0.5 0,0.5 0,0.5 -0.1,0.5 0,0.4 -0.1,0.5 0,0.5 -0.1,0.5 0,0.5 0,0.5 -0.1,0.5 0,0.4 -0.1,0.5 0,0.5 -0.1,0.5 -0.1,0.4 0,0.5 -0.1,0.5 0,0.4 -0.1,0.5 0,0.4 -0.1,0.5 -0.1,0.4 0,0.5 -0.1,0.4 0,0.5 -0.1,0.4 -0.1,0.4 0,0.5 -0.1,0.4 -0.1,0.4 -0.1,0.5 0,0.4 -0.1,0.4 -0.1,0.4 0,0.4 -0.1,0.4 -0.1,0.4 -0.1,0.4 0,0.4 -0.1,0.4 -0.1,0.4 -0.1,0.4 -0.1,0.4 -0.1,0.4 0,0.4 -0.1,0.3 -0.1,0.4 -0.1,0.4 -0.1,0.4 -0.1,0.3 -0.1,0.4 0,0.3 -0.1,0.4 -0.1,0.3 -0.1,0.4 -0.1,0.3 -0.1,0.4 -0.1,0.3 -0.1,0.3 -0.1,0.3 -0.1,0.4 -0.1,0.3 -0.1,0.3 -0.1,0.3 -0.1,0.3 -0.1,0.3 -0.1,0.3 -0.1,0.3 -0.1,0.3 -0.1,0.3 -0.1,0.3 -0.1,0.3 -0.1,0.2 -0.1,0.3 -0.1,0.3 -0.1,0.2 -0.1,0.3 -0.2,0.2 -0.1,0.3 -0.1,0.2 -0.1,0.3 -0.1,0.2 -0.1,0.2 -0.1,0.3 -0.1,0.2 -0.1,0.2 -0.2,0.2 -0.1,0.2 -0.1,0.3 -0.1,0.2 -0.1,0.2 -0.1,0.1 -0.2,0.2 -0.1,0.2 -0.1,0.2 -0.1,0.2 -0.1,0.1 -0.2,0.2 -0.1,0.2 -0.1,0.1 -0.1,0.2 -0.2,0.1 -0.1,0.2 -0.1,0.1 -0.1,0.1 -0.1,0.2 -0.2,0.1 -0.1,0.1 -0.1,0.1 -0.1,0.2 -0.2,0.1 -0.1,0.1 -0.1,0.1 -0.2,0.1 -0.1,0 -0.1,0.1 -0.1,0.1 -0.2,0.1 -0.1,0 -0.1,0.1 -0.2,0.1 -0.1,0 -0.1,0.1 -0.1,0 -0.2,0.1 -0.1,0 -0.1,0 -0.2,0.1 -0.1,0 -0.1,0 -0.2,0 -0.1,0 -0.1,0 -0.2,0 -0.1,0 -0.1,0 -0.1,0 -0.2,0 -0.1,-0.1 -0.1,0 -0.2,0 -0.1,-0.1 -0.1,0 -0.2,-0.1 -0.1,0 -0.1,-0.1 -0.2,0 -0.1,-0.1 -0.1,-0.1 -0.2,-0.1 -0.1,0 -0.1,-0.1 -0.2,-0.1 -0.1,-0.1 -0.1,-0.1 -0.2,-0.1 -0.1,-0.1 -0.1,-0.1 -0.2,-0.2 -0.1,-0.1 -0.1,-0.1 -0.2,-0.2 -0.1,-0.1 -0.1,-0.1 -0.2,-0.2 -0.1,-0.1 -0.1,-0.2 -0.1,-0.2 -0.2,-0.1 -0.1,-0.2 -0.1,-0.2 -0.2,-0.1 -0.1,-0.2 -0.1,-0.2 -0.2,-0.2 -0.1,-0.2 -0.1,-0.2 -0.1,-0.2 -0.2,-0.2 -0.1,-0.2 -0.1,-0.3 -0.1,-0.2 -0.2,-0.2 -0.1,-0.2 -0.1,-0.3 -0.1,-0.2 -0.2,-0.3 -0.1,-0.2 -0.1,-0.3 -0.1,-0.2 -0.2,-0.3 -0.1,-0.2 -0.1,-0.3 -0.1,-0.3 -0.2,-0.3 -0.1,-0.2 -0.1,-0.3 -0.1,-0.3 -0.1,-0.3 -0.2,-0.3 -0.1,-0.3 -0.1,-0.3 -0.1,-0.3 -0.1,-0.3 -0.1,-0.4 -0.2,-0.3 -0.1,-0.3 -0.1,-0.3 -0.1,-0.4 -0.1,-0.3 -0.1,-0.3 -0.1,-0.4 -0.2,-0.3 -0.1,-0.4 -0.1,-0.3 -0.1,-0.4 -0.1,-0.4 -0.1,-0.3 -0.1,-0.4 -0.1,-0.4 -0.1,-0.3 -0.1,-0.4 -0.1,-0.4 -0.1,-0.4 -0.1,-0.4 -0.1,-0.4 -0.1,-0.4 -0.1,-0.4 -0.1,-0.4 -0.1,-0.4 -0.1,-0.4 -0.1,-0.4 -0.1,-0.4 -0.1,-0.4 -0.1,-0.5 -0.1,-0.4 -0.1,-0.4 -0.1,-0.4 -0.1,-0.5 -0.1,-0.4 -0.1,-0.4 -0.1,-0.5 -0.1,-0.4 0,-0.5 -0.1,-0.4 -0.1,-0.5 -0.1,-0.4 -0.1,-0.5 -0.1,-0.4 -0.1,-0.5 0,-0.5 -0.1,-0.4 -0.1,-0.5 -0.1,-0.5 -0.1,-0.5 0,-0.4 -0.1,-0.5 -0.1,-0.5 -0.1,-0.5 0,-0.5 -0.1,-0.5 -0.1,-0.4 -0.1,-0.5 0,-0.5 -0.1,-0.5 -0.1,-0.5 0,-0.5 -0.1,-0.5 -0.1,-0.5 0,-0.5 -0.1,-0.5 0,-0.5 -0.1,-0.6 -0.1,-0.5 0,-0.5 -0.1,-0.5 0,-0.5 -0.1,-0.5 0,-0.6 -0.1,-0.5 0,-0.5 -0.1,-0.5 0,-0.5 -0.1,-0.6 0,-0.5 -0.1,-0.5 0,-0.6 -0.1,-0.5 0,-0.5 -0.1,-0.6 0,-0.5 0,-0.5 -0.1,-0.6 0,-0.5 -0.1,-0.5 0,-0.6 0,-0.5 -0.1,-0.5 0,-0.6 0,-0.5 -0.1,-0.6 0,-0.5 0,-0.5 0,-0.6 -0.1,-0.5 0,-0.6 0,-0.5 0,-0.6 -0.1,-0.5 0,-0.6 0,-0.5 0,-0.5 0,-0.6 0,-0.5 -0.1,-0.6 0,-0.5 0,-0.6 0,-0.5 0,-0.5 0,-0.6 0,-0.5 0,-0.6 0,-0.5 0,-0.6 0,-0.5 0,-0.5 0,-0.6 0,-0.5 0,-0.6 0,-0.5 0,-0.5 0,-0.6 0,-0.5 0,-0.5 0,-0.6 0,-0.5 0,-0.5 0,-0.6 0.1,-0.5 0,-0.5 0,-0.6 0,-0.5 0,-0.5 0,-0.5 0.1,-0.6 0,-0.5 0,-0.5 0,-0.5 0.1,-0.6 0,-0.5 0,-0.5 0,-0.5 0.1,-0.5 0,-0.5 0,-0.5 0.1,-0.5 0,-0.5 0,-0.6 0.1,-0.5 0,-0.5 0,-0.5 0.1,-0.4 0,-0.5 0.1,-0.5 0,-0.5 0.1,-0.5 0,-0.5 0,-0.5 0.1,-0.5 0,-0.4 0.1,-0.5 0,-0.5 0.1,-0.5 0,-0.4 0.1,-0.5 0.1,-0.5 0,-0.4 0.1,-0.5 0,-0.5 0.1,-0.4 0,-0.5 0.1,-0.4 0.1,-0.5 0,-0.4 0.1,-0.4 0.1,-0.5 0,-0.4 0.1,-0.5 0.1,-0.4 0,-0.4 0.1,-0.4 0.1,-0.5 0,-0.4 0.1,-0.4 0.1,-0.4 0.1,-0.4 0,-0.4 0.1,-0.4 0.1,-0.4 0.1,-0.4 0.1,-0.4 0,-0.4 0.1,-0.4 0.1,-0.4 0.1,-0.4 0.1,-0.3 0.1,-0.4 0,-0.4 0.1,-0.3 0.1,-0.4 0.1,-0.4 0.1,-0.3 0.1,-0.4 0.1,-0.3 0.1,-0.4 0.1,-0.3 0.1,-0.3 0,-0.4 0.1,-0.3 0.1,-0.3 0.1,-0.4 0.1,-0.3 0.1,-0.3 0.1,-0.3 0.1,-0.3 0.1,-0.3 0.1,-0.3 0.1,-0.3 0.1,-0.3 0.1,-0.3 0.1,-0.3 0.2,-0.2 0.1,-0.3 0.1,-0.3 0.1,-0.3 0.1,-0.2 0.1,-0.3 0.1,-0.2 0.1,-0.3 0.1,-0.2 0.1,-0.3 0.1,-0.2 0.2,-0.2 0.1,-0.3 0.1,-0.2 0.1,-0.2 0.1,-0.2 0.1,-0.2 0.1,-0.2 0.2,-0.2 0.1,-0.2 0.1,-0.2 0.1,-0.2 0.1,-0.2 0.1,-0.2 0.2,-0.2 0.1,-0.1 0.1,-0.2 0.1,-0.2 0.2,-0.1 0.1,-0.2 0.1,-0.1 0.1,-0.2 0.1,-0.1 0.2,-0.1 0.1,-0.2 0.1,-0.1 0.1,-0.1 0.2,-0.1 0.1,-0.1 0.1,-0.1 0.1,-0.1 0.2,-0.1 0.1,-0.1 0.1,-0.1 0.2,-0.1 0.1,-0.1 0.1,-0.1 0.1,0 0.2,-0.1 0.1,-0.1 0.1,0 0.2,-0.1 0.1,0 0.1,0"
       id="path328"
       inkscape:connector-curvature="0" />
    <path
       style="color:#ff0000;fill:#ff0000;fill-opacity:0.25098041;stroke:none;stroke-width:1.00000000999999994;stroke-linecap:butt;stroke-linejoin:miter;stroke-miterlimit:4;stroke-dasharray:none;stroke-opacity:1;stroke-dashoffset:0"
       d="m 131.9,412.8 -0.2,-1.1 -0.5,-1.8 -0.4,-1.9 -0.4,-1.9 -0.3,-1.9 -0.4,-1.9 -0.4,-1.9 -0.4,-1.9 -0.4,-1.9 -0.3,-2 -0.4,-1.9 -0.4,-2 -0.3,-1.9 -0.4,-2 -0.3,-2 -0.4,-2 -0.3,-2 -0.3,-2 -0.4,-2 -0.3,-2.1 -0.3,-2 -0.3,-2 -0.3,-2.1 -0.3,-2 -0.3,-2.1 -0.3,-2.1 -0.3,-2 -0.3,-2.1 -0.3,-2.1 -0.2,-2.1 -0.3,-2.1 -0.3,-2.1 -0.2,-2.1 -0.3,-2.2 -0.2,-2.1 -0.3,-2.1 -0.2,-2.2 -0.2,-2.1 -0.3,-2.1 -0.2,-2.2 -0.2,-2.1 -0.2,-2.2 -0.2,-2.2 -0.2,-2.1 -0.2,-2.2 -0.2,-2.2 -0.2,-2.2 -0.2,-2.1 -0.1,-2.2 -0.2,-2.2 -0.2,-2.2 -0.1,-2.2 -0.2,-2.2 -0.1,-2.2 -0.2,-2.2 -0.1,-2.2 -0.1,-2.2 -0.1,-2.2 -0.2,-2.2 -0.1,-2.2 -0.1,-2.3 -0.1,-2.2 -0.1,-2.2 -0.1,-2.2 -0.1,-2.2 0,-2.2 -0.1,-2.2 -0.1,-2.2 0,-2.3 -0.1,-2.2 0,-2.2 -0.1,-2.2 0,-2.2 -0.1,-2.2 0,-2.2 0,-2.2 0,-2.3 0,-2.2 0,-2.2 0,-2.2 0,-2.2 0,-2.2 0,-2.2 0,-2.1 0,-2.2 0.1,-2.2 0,-2.2 0.1,-2.2 0,-2.2 0.1,-2.1 0,-2.2 0.1,-2.2 0.1,-2.1 0,-2.2 0.1,-2.1 0.1,-2.2 0.1,-2.1 0.1,-2.2 0.1,-2.1 0.1,-2.1 0.1,-2.1 0.2,-2.2 0.1,-2.1 0.1,-2.1 0.2,-2.1 0.1,-2.1 0.2,-2.1 0.1,-2 0.2,-2.1 0.1,-2.1 0.2,-2 0.2,-2.1 0.2,-2 0.2,-2.1 0.2,-2 0.2,-2 0.2,-2 0.2,-2 0.2,-2 0.2,-2 0.2,-2 0.3,-2 0.2,-1.9 0.3,-2 0.2,-1.9 0.2,-1.9 0.3,-2 0.3,-1.9 0.2,-1.9 0.3,-1.9 0.3,-1.9 0.3,-1.8 0.3,-1.9 0.3,-1.9 0.2,-1.8 0.4,-1.8 0.3,-1.9 0.3,-1.8 0.3,-1.8 0.3,-1.7 0.3,-1.8 0.4,-1.8 0.3,-1.7 0.4,-1.8 0.3,-1.7 0.3,-1.7 0.4,-1.7 0.4,-1.7 0.3,-1.7 0.4,-1.7 0.4,-1.6 0.4,-1.7 0.3,-1.6 0.4,-1.6 0.4,-1.6 0.4,-1.6 0.4,-1.6 0.4,-1.5 0.4,-1.6 0.5,-1.5 0.4,-1.5 0.4,-1.5 0.4,-1.5 0.5,-1.5 0.4,-1.5 0.4,-1.4 0.5,-1.4 0.4,-1.5 0.5,-1.4 0.4,-1.4 0.5,-1.3 0.5,-1.4 0.4,-1.3 0.5,-1.4 0.5,-1.3 0.4,-1.3 0.5,-1.2 0.5,-1.3 0.5,-1.3 0.5,-1.2 0.5,-1.2 0.5,-1.2 0.5,-1.2 0.5,-1.2 0.5,-1.1 0.5,-1.1 0.6,-1.2 0.5,-1.1 0.5,-1 0.5,-1.1 0.6,-1.1 0.5,-1 0.5,-1 0.6,-1 0.5,-1 0.6,-1 0.5,-0.9 0.6,-0.9 0.5,-0.9 0.6,-0.9 0.6,-0.9 0.5,-0.9 0.6,-0.8 0.6,-0.8 0.5,-0.8 0.6,-0.8 0.6,-0.8 0.6,-0.8 0.5,-0.7 0.6,-0.7 0.6,-0.7 0.6,-0.7 0.6,-0.6 0.6,-0.7 0.6,-0.6 0.6,-0.6 0.6,-0.6 0.6,-0.5 0.6,-0.6 0.6,-0.5 0.6,-0.5 0.6,-0.5 0.6,-0.5 0.6,-0.5 0.7,-0.4 0.6,-0.4 0.6,-0.4 0.6,-0.4 0.6,-0.3 0.7,-0.4 0.6,-0.3 0.6,-0.3 0.61103,-0.283449 L 172.6,21.2 l 0.6,-0.3 0.6,-0.2 0.7,-0.2 0.6,-0.2 0.6,-0.2 0.7,-0.1 0.6,-0.1 0.6,-0.1 0.7,-0.1 0.6,-0.1 0.7,-0.1 0.6,0 0.6,0 0.7,0 0.6,0 0.7,0.1 0.6,0 0.7,0.1 0.6,0.1 0.7,0.2 0.6,0.1 0.6,0.2 0.7,0.1 0.6,0.2 0.7,0.3 0.6,0.2 0.7,0.3 0.6,0.2 0.7,0.3 0.6,0.3 0.6,0.4 0.7,0.3 0.6,0.4 0.7,0.4 0.6,0.4 0.7,0.4 0.6,0.5 0.7,0.5 0.6,0.4 0.6,0.5 0.7,0.6 0.6,0.5 0.7,0.6 0.6,0.6 0.6,0.6 0.7,0.6 0.6,0.6 0.6,0.7 0.7,0.6 0.6,0.7 0.6,0.7 0.7,0.8 0.6,0.7 0.6,0.8 0.6,0.8 0.7,0.8 0.6,0.8 0.6,0.8 0.6,0.9 0.6,0.8 0.7,0.9 0.6,0.9 0.6,1 0.6,0.9 0.6,1 0.6,0.9 0.6,1 0.6,1 0.6,1.1 0.6,1 0.6,1.1 0.6,1.1 0.6,1.1 0.6,1.1 0.6,1.1 0.6,1.2 0.5,1.1 0.6,1.2 0.6,1.2 0.6,1.2 0.5,1.2 0.6,1.3 0.6,1.2 0.5,1.3 0.6,1.3 0.6,1.3 0.5,1.3 0.6,1.4 0.5,1.3 0.6,1.4 0.5,1.4 0.6,1.4 0.5,1.4 0.5,1.4 0.6,1.5 0.5,1.4 0.5,1.5 0.5,1.5 0.6,1.5 0.5,1.5 0.5,1.5 0.5,1.6 0.5,1.5 0.5,1.6 0.5,1.6 0.5,1.6 0.5,1.6 0.5,1.6 0.5,1.7 0.4,1.6 0.5,1.7 0.5,1.7 0.5,1.6 0.4,1.7 0.5,1.8 0.4,1.7 0.5,1.7 0.4,1.8 0.5,1.7 0.4,1.8 0.5,1.8 0.4,1.8 0.4,1.8 0.4,1.8 0.5,1.8 0.4,1.9 0.4,1.8 0.4,1.9 0.4,1.9 0.4,1.9 0.4,1.8 0.4,1.9 0.4,2 0.3,1.9 0.4,1.9 0.4,2 0.4,1.9 0.3,2 0.4,1.9 0.3,2 0.4,2 0.3,2 0.3,2 0.4,2 0.3,2 0.3,2 0.3,2.1 0.4,2 0.3,2.1 0.3,2 0.3,2.1 0.3,2.1 0.3,2 0.2,2.1 0.3,2.1 0.3,2.1 0.3,2.1 0.2,2.1 0.3,2.1 0.2,2.1 0.3,2.2 0.2,2.1 0.3,2.1 0.2,2.2 0.2,2.1 0.2,2.2 0.2,2.1 0.3,2.2 0.2,2.2 0.2,2.1 0.2,2.2 0.1,2.2 0.2,2.2 0.2,2.1 0.2,2.2 0.1,2.2 0.2,2.2 0.2,2.2 0.1,2.2 0.2,2.2 0.1,2.2 0.1,2.2 0.2,2.2 0.1,2.2 0.1,2.2 0.1,2.2 0.1,2.2 0.1,2.2 0.1,2.3 0.1,2.2 0.1,2.2 0.1,2.2 0,2.2 0.1,2.2 0.1,2.2 0,2.3 0.1,2.2 0,2.2 0.1,2.2 0,2.2 0,2.2 0.1,2.2 0,2.2 0,2.2 0,2.2 0,2.3 0,2.2 0,2.1 0,2.2 -0.1,2.2 0,2.2 0,2.2 -0.1,2.2 0,2.2 -0.1,2.2 0,2.1 -0.1,2.2 0,2.2 -0.1,2.1 -0.1,2.2 -0.1,2.1 -0.1,2.2 -0.1,2.1 -0.1,2.2 -0.1,2.1 -0.1,2.1 -0.1,2.1 -0.1,2.1 -0.2,2.2 -0.1,2.1 -0.1,2.1 -0.2,2.1 -0.1,2 -0.2,2.1 -0.1,2.1 -0.2,2.1 -0.2,2 -0.2,2.1 -0.1,2 -0.2,2 -0.2,2.1 -0.2,2 -0.2,2 -0.2,2 -0.3,2 -0.2,2 -0.2,2 -0.2,1.9 -0.3,2 -0.2,2 -0.3,1.9 -0.2,1.9 -0.3,2 -0.2,1.9 -0.3,1.9 -0.3,1.9 -0.2,1.9 -0.3,1.8 -0.3,1.9 -0.3,1.5"
       id="path334"
       inkscape:connector-curvature="0"
       sodipodi:nodetypes="ccccccccccccccccccccccccccccccccccccccccccccccccccccccccccccccccccccccccccccccccccccccccccccccccccccccccccccccccccccccccccccccccccccccccccccccccccccccccccccccccccccccccccccccccccccccccccccccccccccccccccccccccccccccccccccccccccccccccccccccccccccccccccccccccccccccccccccccccccccccccccccccccccccccccccccccccccccccccccccccccccccccccccccccccccccccccccccccccccccccccccccccccccccccccccccccccccccccccccccccccccccccccccccccccccccccccccccccccccccccccccccccccccccccccccccccccccccccccccccccccccccccccccccccc" />
    <path
       style="color:#ff0000;fill:#ff0000;fill-opacity:0.25098041;stroke:none;stroke-width:1.00000000999999994;stroke-linecap:butt;stroke-linejoin:miter;stroke-miterlimit:4;stroke-dasharray:none;stroke-opacity:1;stroke-dashoffset:0"
       d="m 154,412.8 -0.1,-0.1 -0.6,-0.9 -0.7,-1 -0.6,-0.9 -0.7,-1 -0.6,-0.9 -0.7,-1 -0.6,-1 -0.7,-1 -0.6,-1 -0.6,-1 -0.6,-1 -0.6,-1 -0.6,-1.1 -0.6,-1 -0.6,-1.1 -0.6,-1 -0.6,-1.1 -0.6,-1.1 -0.5,-1 -0.6,-1.1 -0.6,-1.1 -0.5,-1.1 -0.5,-1.1 -0.6,-1.2 -0.5,-1.1 -0.5,-1.1 -0.6,-1.2 -0.5,-1.1 -0.5,-1.2 -0.5,-1.1 -0.5,-1.2 -0.5,-1.2 -0.4,-1.2 -0.5,-1.1 -0.5,-1.2 -0.4,-1.2 -0.5,-1.3 -0.4,-1.2 -0.5,-1.2 -0.4,-1.2 -0.4,-1.2 -0.5,-1.3 -0.4,-1.2 -0.4,-1.3 -0.4,-1.2 -0.4,-1.3 -0.4,-1.3 -0.3,-1.2 -0.4,-1.3 -0.4,-1.3 -0.3,-1.3 -0.4,-1.3 -0.3,-1.3 -0.4,-1.3 -0.3,-1.3 -0.3,-1.3 -0.3,-1.3 -0.3,-1.3 -0.3,-1.3 -0.3,-1.4 -0.3,-1.3 -0.3,-1.3 -0.3,-1.4 -0.2,-1.3 -0.3,-1.3 -0.2,-1.4 -0.3,-1.3 -0.2,-1.4 -0.2,-1.4 -0.2,-1.3 -0.3,-1.4 -0.2,-1.4 -0.2,-1.3 -0.1,-1.4 -0.2,-1.4 -0.2,-1.3 -0.2,-1.4 -0.1,-1.4 -0.2,-1.4 -0.1,-1.4 -0.1,-1.4 -0.2,-1.4 -0.1,-1.3 -0.1,-1.4 -0.1,-1.4 -0.1,-1.4 -0.1,-1.4 -0.1,-1.4 0,-1.4 -0.1,-1.4 -0.1,-1.4 0,-1.4 0,-1.4 -0.1,-1.4 0,-1.4 0,-1.4 0,-1.4 0,-1.4 0,-1.4 0,-1.4 0,-1.4 0,-1.4 0.1,-1.4 0,-1.4 0.1,-1.4 0,-1.4 0.1,-1.4 0.1,-1.4 0,-1.4 0.1,-1.4 0.1,-1.4 0.1,-1.4 0.2,-1.4 0.1,-1.4 0.1,-1.4 0.1,-1.4 0.2,-1.4 0.1,-1.3 0.2,-1.4 0.2,-1.4 0.1,-1.4 0.2,-1.3 0.2,-1.4 0.2,-1.4 0.2,-1.3 0.2,-1.4 0.3,-1.4 0.2,-1.3 0.2,-1.4 0.3,-1.3 0.2,-1.4 0.3,-1.3 0.2,-1.3 0.3,-1.4 0.3,-1.3 0.3,-1.3 0.3,-1.4 0.3,-1.3 0.3,-1.3 0.3,-1.3 0.3,-1.3 0.4,-1.3 0.3,-1.3 0.3,-1.3 0.4,-1.3 0.3,-1.3 0.4,-1.2 0.4,-1.3 0.4,-1.3 0.4,-1.2 0.4,-1.3 0.4,-1.2 0.4,-1.3 0.4,-1.2 0.4,-1.3 0.4,-1.2 0.5,-1.2 0.4,-1.2 0.5,-1.2 0.4,-1.2 0.5,-1.2 0.5,-1.2 0.4,-1.2 0.5,-1.2 0.5,-1.2 0.5,-1.1 0.5,-1.2 0.5,-1.1 0.5,-1.2 0.5,-1.1 0.6,-1.1 0.5,-1.1 0.5,-1.2 0.6,-1.1 0.5,-1.1 0.6,-1.1 0.6,-1 0.5,-1.1 0.6,-1.1 0.6,-1 0.6,-1.1 0.6,-1 0.6,-1.1 0.6,-1 0.6,-1 0.6,-1 0.6,-1 0.7,-1 0.6,-1 0.6,-1 0.7,-0.9 0.6,-1 0.7,-0.9 0.6,-1 0.7,-0.9 0.7,-0.9 0.7,-0.9 0.6,-1 0.7,-0.8 0.7,-0.9 0.7,-0.9 0.7,-0.9 0.7,-0.8 0.7,-0.9 0.7,-0.8 0.8,-0.8 0.7,-0.8 0.7,-0.8 0.7,-0.8 0.8,-0.8 0.7,-0.8 0.8,-0.8 0.7,-0.7 0.8,-0.8 0.7,-0.7 0.8,-0.7 0.7,-0.7 0.8,-0.7 0.8,-0.7 0.8,-0.7 0.8,-0.7 0.7,-0.6 0.8,-0.7 0.8,-0.6 0.8,-0.6 0.8,-0.7 0.8,-0.6 0.8,-0.6 0.8,-0.5 0.8,-0.6 0.9,-0.6 0.8,-0.5 0.8,-0.6 0.8,-0.5 0.9,-0.5 0.8,-0.5 0.8,-0.5 0.9,-0.5 0.8,-0.4 0.8,-0.5 0.9,-0.4 0.8,-0.5 0.9,-0.4 0.8,-0.4 0.9,-0.4 0.8,-0.4 0.9,-0.4 0.8,-0.3 0.9,-0.4 0.9,-0.3 0.8,-0.4 0.9,-0.3 0.9,-0.3 0.8,-0.3 0.9,-0.3 0.9,-0.2 0.9,-0.3 0.8,-0.2 0.9,-0.3 0.9,-0.2 0.9,-0.2 0.9,-0.2 0.8,-0.2 0.9,-0.1 0.9,-0.2 0.9,-0.1 0.9,-0.2 0.9,-0.1 0.9,-0.1 0.8,-0.1 0.9,-0.1 0.9,-0.1 0.9,0 0.9,-0.1 0.9,0 0.9,0 0.9,-0.1 0.9,0 0.9,0.1 0.8,0 0.9,0 0.9,0.1 0.9,0 0.9,0.1 0.9,0.1 0.9,0.1 0.9,0.1 0.9,0.1 0.8,0.1 0.9,0.2 0.9,0.1 0.9,0.2 0.9,0.2 0.9,0.2 0.8,0.2 0.9,0.2 0.9,0.3 0.9,0.2 0.9,0.3 0.8,0.2 0.9,0.3 0.9,0.3 0.8,0.3 0.9,0.3 0.9,0.3 0.8,0.4 0.9,0.3 0.9,0.4 0.8,0.4 0.9,0.3 0.8,0.4 0.9,0.5 0.8,0.4 0.9,0.4 0.8,0.5 0.9,0.4 0.8,0.5 0.9,0.5 0.8,0.4 0.8,0.5 0.9,0.6 0.8,0.5 0.8,0.5 0.8,0.6 0.8,0.5 0.9,0.6 0.8,0.6 0.8,0.6 0.8,0.6 0.8,0.6 0.8,0.6 0.8,0.7 0.8,0.6 0.8,0.7 0.7,0.6 0.8,0.7 0.8,0.7 0.8,0.7 0.7,0.7 0.8,0.7 0.8,0.8 0.7,0.7 0.8,0.8 0.7,0.7 0.8,0.8 0.7,0.8 0.7,0.8 0.8,0.8 0.7,0.8 0.7,0.8 0.7,0.9 0.7,0.8 0.8,0.8 0.7,0.9 0.7,0.9 0.6,0.9 0.7,0.9 0.7,0.9 0.7,0.9 0.7,0.9 0.6,0.9 0.7,1 0.7,0.9 0.6,1 0.7,0.9 0.6,1 0.6,1 0.7,1 0.6,1 0.6,1 0.6,1 0.6,1 0.7,1.1 0.5,1 0.6,1.1 0.6,1 0.6,1.1 0.6,1.1 0.5,1 0.6,1.1 0.6,1.1 0.5,1.1 0.6,1.1 0.5,1.2 0.5,1.1 0.6,1.1 0.5,1.2 0.5,1.1 0.5,1.2 0.5,1.1 0.5,1.2 0.5,1.2 0.5,1.2 0.4,1.1 0.5,1.2 0.5,1.2 0.4,1.3 0.5,1.2 0.4,1.2 0.4,1.2 0.5,1.2 0.4,1.3 0.4,1.2 0.4,1.3 0.4,1.2 0.4,1.3 0.4,1.3 0.4,1.2 0.3,1.3 0.4,1.3 0.4,1.3 0.3,1.3 0.3,1.3 0.4,1.3 0.3,1.3 0.3,1.3 0.3,1.3 0.4,1.3 0.3,1.3 0.2,1.4 0.3,1.3 0.3,1.3 0.3,1.4 0.2,1.3 0.3,1.3 0.2,1.4 0.3,1.3 0.2,1.4 0.2,1.4 0.3,1.3 0.2,1.4 0.2,1.4 0.2,1.3 0.2,1.4 0.1,1.4 0.2,1.3 0.2,1.4 0.1,1.4 0.2,1.4 0.1,1.4 0.2,1.4 0.1,1.4 0.1,1.3 0.1,1.4 0.1,1.4 0.1,1.4 0.1,1.4 0.1,1.4 0.1,1.4 0,1.4 0.1,1.4 0,1.4 0.1,1.4 0,1.4 0,1.4 0,1.4 0.1,1.4 0.015,1.39624 -0.015,1.40376 -0.1,1.4 0,1.4 0,1.4 0,1.4 -0.1,1.4 0,1.4 -0.1,1.4 -0.1,1.4 0,1.4 -0.1,1.4 -0.1,1.4 -0.1,1.4 -0.1,1.4 -0.1,1.4 -0.2,1.4 -0.1,1.4 -0.1,1.4 -0.2,1.4 -0.1,1.3 -0.2,1.4 -0.1,1.4 -0.2,1.4 -0.2,1.3 -0.2,1.4 -0.2,1.4 -0.2,1.3 -0.2,1.4 -0.2,1.4 -0.3,1.3 -0.2,1.4 -0.2,1.3 -0.3,1.4 -0.2,1.3 -0.3,1.3 -0.3,1.4 -0.3,1.3 -0.3,1.3 -0.2,1.4 -0.4,1.3 -0.3,1.3 -0.3,1.3 -0.3,1.3 -0.3,1.3 -0.4,1.3 -0.3,1.3 -0.4,1.3 -0.3,1.3 -0.4,1.2 -0.4,1.3 -0.4,1.3 -0.3,1.2 -0.4,1.3 -0.4,1.2 -0.4,1.3 -0.5,1.2 -0.4,1.3 -0.4,1.2 -0.4,1.2 -0.5,1.2 -0.4,1.2 -0.5,1.2 -0.5,1.2 -0.4,1.2 -0.5,1.2 -0.5,1.2 -0.5,1.2 -0.5,1.1 -0.5,1.2 -0.5,1.1 -0.5,1.2 -0.5,1.1 -0.6,1.1 -0.5,1.1 -0.5,1.2 -0.6,1.1 -0.5,1.1 -0.6,1.1 -0.5,1 -0.6,1.1 -0.6,1.1 -0.6,1 -0.6,1.1 -0.6,1 -0.6,1.1 -0.6,1 -0.6,1 -0.6,1 -0.6,1 -0.6,1 -0.7,1 -0.6,1 -0.7,0.9 -0.6,1 -0.7,0.9 -0.6,1 -0.7,0.9 -0.1,0.2"
       id="path340"
       inkscape:connector-curvature="0"
       sodipodi:nodetypes="cccccccccccccccccccccccccccccccccccccccccccccccccccccccccccccccccccccccccccccccccccccccccccccccccccccccccccccccccccccccccccccccccccccccccccccccccccccccccccccccccccccccccccccccccccccccccccccccccccccccccccccccccccccccccccccccccccccccccccccccccccccccccccccccccccccccccccccccccccccccccccccccccccccccccccccccccccccccccccccccccccccccccccccccccccccccccccccccccccccccccccccccccccccccccccccccccccccccccccccccccccccccccccccccccccccccccccccccccccccccccccccccccccccccccccccccccccccccccccccccccccccccccccccccccccccccccccccccccccccccccccccccccccccccccccccccccccccccccccccc" />
    <path
       style="color:#ff0000;fill:#0000ff;fill-opacity:0.25098041;stroke:none;stroke-width:1.00000000999999994;stroke-linecap:butt;stroke-linejoin:miter;stroke-miterlimit:4;stroke-dasharray:none;stroke-opacity:1;stroke-dashoffset:0"
       d="m 547.2,256.8 0.1,-0.1 0.1,0 0.1,0 0.1,-0.1 0.1,0 0.1,0 0.1,0 0.1,0 0.1,0 0.1,0 0.1,0 0.1,0 0.1,0 0.1,0 0.1,0 0.1,0 0.1,0 0.1,0 0,0.1 0.1,0 0.1,0 0.1,0 0.1,0 0.1,0.1 0.1,0 0.1,0.1 0.1,0 0.1,0 0.1,0.1 0.1,0 0,0.1 0.1,0 0.1,0.1 0.1,0 0.1,0.1 0.1,0 0,0.1 0.1,0 0.1,0.1 0.1,0 0.1,0.1 0,0.1 0.1,0 0.1,0.1 0.1,0.1 0.1,0.1 0.1,0.1 0.1,0.1 0.1,0.1 0.1,0.1 0.1,0.1 0.1,0.1 0.1,0.1 0.1,0.1 0,0.1 0.1,0.1 0.1,0.1 0.1,0.1 0,0.1 0.1,0.1 0.1,0.1 0.1,0.1 0.1,0.1 0,0.1 0.1,0.1 0.1,0.1 0.1,0.2 0,0.1 0.1,0.1 0.1,0.1 0,0.1 0.1,0.2 0.1,0.1 0.1,0.1 0,0.1 0.1,0.2 0.1,0.1 0,0.1 0.1,0.2 0.1,0.1 0.1,0.2 0,0.1 0.1,0.1 0.1,0.2 0,0.1 0.1,0.2 0.1,0.1 0,0.2 0.1,0.1 0.1,0.2 0,0.1 0.1,0.2 0,0.2 0.1,0.1 0.1,0.2 0,0.1 0.1,0.2 0.1,0.2 0,0.1 0.1,0.2 0,0.2 0.1,0.2 0,0.1 0.1,0.2 0.1,0.2 0,0.2 0.1,0.1 0,0.2 0.1,0.2 0,0.2 0.1,0.2 0,0.1 0.1,0.2 0.1,0.2 0,0.2 0.1,0.2 0,0.2 0.1,0.2 0,0.2 0.1,0.2 0,0.2 0,0.2 0.1,0.2 0,0.1 0.1,0.2 0,0.2 0.1,0.3 0,0.2 0.1,0.2 0,0.2 0,0.2 0.1,0.2 0,0.2 0.1,0.2 0,0.2 0,0.2 0.1,0.2 0,0.2 0.1,0.2 0,0.3 0,0.2 0.1,0.2 0,0.2 0,0.2 0.1,0.2 0,0.3 0,0.2 0.1,0.2 0,0.2 0,0.2 0,0.3 0.1,0.2 0,0.2 0,0.2 0,0.3 0.1,0.2 0,0.2 0,0.2 0,0.3 0.1,0.2 0,0.2 0,0.2 0,0.3 0,0.2 0.1,0.2 0,0.3 0,0.2 0,0.2 0,0.2 0,0.3 0.1,0.2 0,0.2 0,0.3 0,0.2 0,0.2 0,0.3 0,0.2 0,0.2 0,0.3 0,0.2 0.1,0.2 0,0.3 0,0.2 0,0.2 0,0.3 0,0.2 0,0.2 0,0.3 0,0.2 0,0.2 0,0.3 0,0.2 0,0.2 0,0.3 0,0.2 0,0.2 0,0.3 0,0.2 -0.1,0.2 0,0.3 0,0.2 0,0.2 0,0.3 0,0.2 0,0.2 0,0.2 0,0.3 0,0.2 -0.1,0.2 0,0.3 0,0.2 0,0.2 0,0.2 0,0.3 -0.1,0.2 0,0.2 0,0.3 0,0.2 0,0.2 -0.1,0.2 0,0.3 0,0.2 0,0.2 -0.1,0.2 0,0.2 0,0.3 0,0.2 -0.1,0.2 0,0.2 0,0.2 0,0.3 -0.1,0.2 0,0.2 0,0.2 -0.1,0.2 0,0.2 0,0.2 -0.1,0.3 0,0.2 0,0.2 -0.1,0.2 0,0.2 -0.1,0.2 0,0.2 0,0.2 -0.1,0.2 0,0.2 -0.1,0.2 0,0.2 0,0.2 -0.1,0.2 0,0.2 -0.1,0.2 0,0.2 -0.1,0.2 0,0.2 0,0.2 -0.1,0.2 0,0.2 -0.1,0.1 0,0.2 -0.1,0.2 0,0.2 -0.1,0.2 0,0.2 -0.1,0.2 0,0.1 -0.1,0.2 -0.1,0.2 0,0.2 -0.1,0.1 0,0.2 -0.1,0.2 0,0.2 -0.1,0.1 0,0.2 -0.1,0.2 -0.1,0.1 0,0.2 -0.1,0.1 0,0.2 -0.1,0.2 -0.1,0.1 0,0.2 -0.1,0.1 0,0.2 -0.1,0.1 -0.1,0.2 0,0.1 -0.1,0.2 -0.1,0.1 0,0.2 -0.1,0.1 -0.1,0.1 0,0.2 -0.1,0.1 -0.1,0.2 0,0.1 -0.1,0.1 -0.1,0.1 0,0.2 -0.1,0.1 -0.1,0.1 -0.1,0.1 0,0.2 -0.1,0.1 -0.1,0.1 0,0.1 -0.1,0.1 -0.1,0.2 -0.1,0.1 0,0.1 -0.1,0.1 -0.1,0.1 -0.1,0.1 0,0.1 -0.1,0.1 -0.1,0.1 -0.1,0.1 0,0.1 -0.1,0.1 -0.1,0.1 -0.1,0 -0.1,0.1 0,0.1 -0.1,0.1 -0.1,0.1 -0.1,0.1 -0.1,0.1 -0.1,0.1 -0.1,0.1 -0.1,0 0,0.1 -0.1,0.1 -0.1,0 -0.1,0.1 -0.1,0 0,0.1 -0.1,0.1 -0.1,0 -0.1,0.1 -0.1,0 -0.1,0.1 -0.1,0 -0.1,0.1 -0.1,0 -0.1,0.1 -0.1,0 -0.1,0.1 -0.1,0 -0.1,0 -0.1,0 -0.1,0.1 -0.1,0 -0.1,0 -0.1,0 -0.1,0.1 -0.1,0 -0.1,0 -0.1,0 -0.1,0 -0.1,0 -0.1,0 -0.1,0 -0.1,0 -0.1,0 -0.1,0 -0.1,-0.1 -0.1,0 -0.1,0 -0.1,0 -0.1,0 -0.1,-0.1 -0.1,0 -0.1,-0.1 -0.1,0 -0.1,0 -0.1,-0.1 -0.1,0 -0.1,-0.1 -0.1,0 -0.1,-0.1 -0.1,0 -0.1,-0.1 -0.1,-0.1 -0.1,-0.1 -0.1,0 -0.1,-0.1 -0.1,0 0,-0.1 -0.1,-0.1 -0.1,0 -0.1,-0.1 -0.1,-0.1 0,-0.1 -0.1,0 -0.1,-0.1 -0.1,-0.1 -0.1,-0.1 0,-0.1 -0.1,0 -0.1,-0.1 -0.1,-0.1 -0.1,-0.1 0,-0.1 -0.1,-0.1 -0.1,-0.1 -0.1,-0.1 0,-0.1 -0.1,-0.1 -0.1,-0.1 -0.1,-0.1 0,-0.1 -0.1,-0.1 -0.1,-0.2 -0.1,-0.1 0,-0.1 -0.1,-0.1 -0.1,-0.1 -0.1,-0.1 0,-0.2 -0.1,-0.1 -0.1,-0.1 -0.1,-0.1 0,-0.2 -0.1,-0.1 -0.1,-0.1 0,-0.2 -0.1,-0.1 -0.1,-0.1 0,-0.2 -0.1,-0.1 -0.1,-0.2 -0.1,-0.1 0,-0.2 -0.1,-0.1 -0.1,-0.2 0,-0.1 -0.1,-0.2 0,-0.1 -0.1,-0.2 -0.1,-0.1 0,-0.2 -0.1,-0.1 -0.1,-0.2 0,-0.2 -0.1,-0.1 0,-0.2 -0.1,-0.2 -0.1,-0.1 0,-0.2 -0.1,-0.2 0,-0.2 -0.1,-0.1 -0.1,-0.2 0,-0.2 -0.1,-0.2 0,-0.1 -0.1,-0.2 0,-0.2 -0.1,-0.2 0,-0.2 -0.1,-0.2 0,-0.1 -0.1,-0.2 0,-0.2 -0.1,-0.2 0,-0.2 -0.1,-0.2 0,-0.2 -0.1,-0.2 0,-0.2 -0.1,-0.2 0,-0.2 -0.1,-0.2 0,-0.2 -0.1,-0.2 0,-0.2 -0.1,-0.2 0,-0.2 0,-0.2 -0.1,-0.2 0,-0.2 -0.1,-0.2 0,-0.2 0,-0.2 -0.1,-0.2 0,-0.3 0,-0.2 -0.1,-0.2 0,-0.2 -0.1,-0.2 0,-0.2 0,-0.2 -0.1,-0.3 0,-0.2 0,-0.2 0,-0.2 -0.1,-0.2 0,-0.3 0,-0.2 -0.1,-0.2 0,-0.2 0,-0.3 0,-0.2 -0.1,-0.2 0,-0.2 0,-0.3 0,-0.2 -0.1,-0.2 0,-0.2 0,-0.3 0,-0.2 0,-0.2 -0.1,-0.2 0,-0.3 0,-0.2 0,-0.2 0,-0.3 0,-0.2 0,-0.2 -0.1,-0.3 0,-0.2 0,-0.2 0,-0.3 0,-0.2 0,-0.2 0,-0.3 0,-0.2 0,-0.2 0,-0.3 -0.1,-0.2 0,-0.2 0,-0.3 0,-0.2 0,-0.2 0,-0.3 0,-0.2 0,-0.2 0,-0.3 0,-0.2 0,-0.2 0,-0.3 0,-0.2 0,-0.2 0,-0.3 0,-0.2 0.1,-0.2 0,-0.3 0,-0.2 0,-0.2 0,-0.2 0,-0.3 0,-0.2 0,-0.2 0,-0.3 0,-0.2 0.1,-0.2 0,-0.3 0,-0.2 0,-0.2 0,-0.2 0,-0.3 0,-0.2 0.1,-0.2 0,-0.3 0,-0.2 0,-0.2 0,-0.2 0.1,-0.3 0,-0.2 0,-0.2 0,-0.2 0.1,-0.2 0,-0.3 0,-0.2 0,-0.2 0.1,-0.2 0,-0.2 0,-0.3 0.1,-0.2 0,-0.2 0,-0.2 0,-0.2 0.1,-0.2 0,-0.3 0,-0.2 0.1,-0.2 0,-0.2 0,-0.2 0.1,-0.2 0,-0.2 0.1,-0.2 0,-0.2 0,-0.2 0.1,-0.2 0,-0.2 0.1,-0.2 0,-0.2 0,-0.2 0.1,-0.2 0,-0.2 0.1,-0.2 0,-0.2 0.1,-0.2 0,-0.2 0.1,-0.2 0,-0.2 0,-0.2 0.1,-0.2 0,-0.2 0.1,-0.1 0,-0.2 0.1,-0.2 0,-0.2 0.1,-0.2 0.1,-0.2 0,-0.1 0.1,-0.2 0,-0.2 0.1,-0.2 0,-0.1 0.1,-0.2 0,-0.2 0.1,-0.1 0.1,-0.2 0,-0.2 0.1,-0.1 0,-0.2 0.1,-0.2 0,-0.1 0.1,-0.2 0.1,-0.1 0,-0.2 0.1,-0.2 0.1,-0.1 0,-0.2 0.1,-0.1 0,-0.2 0.1,-0.1 0.1,-0.1 0,-0.2 0.1,-0.1 0.1,-0.2 0,-0.1 0.1,-0.1 0.1,-0.2 0,-0.1 0.1,-0.1 0.1,-0.2 0.1,-0.1 0,-0.1 0.1,-0.2 0.1,-0.1 0,-0.1 0.1,-0.1 0.1,-0.1 0.1,-0.1 0,-0.2 0.1,-0.1 0.1,-0.1 0,-0.1 0.1,-0.1 0.1,-0.1 0.1,-0.1 0,-0.1 0.1,-0.1 0.1,-0.1 0.1,-0.1 0,-0.1 0.1,-0.1 0.1,-0.1 0.1,-0.1 0.1,-0.1 0.1,-0.1 0.1,-0.1 0.1,-0.1 0,-0.1 0.1,0 0.1,-0.1 0.1,-0.1 0.1,-0.1 0.1,-0.1 0.1,0 0.1,-0.1 0.1,-0.1 0.1,0 0,-0.1 0.1,0 0.1,-0.1 0.1,0 0.1,-0.1 0.1,-0.1 0.1,0 0.1,-0.1 0.1,0 0.1,0 0,-0.1 0.1,0 0.1,0 0.1,0"
       id="path346"
       inkscape:connector-curvature="0" />
  </g>
  <g
     inkscape:groupmode="layer"
     id="layer2"
     inkscape:label="text"
     style="display:inline"
     transform="translate(-27.759521,-17.721874)">
    <text
       style="font-size:17.5px;text-anchor:start;color:#000000;fill:#000000;fill-opacity:1;stroke:none;font-family:Arial"
       id="text242"
       x="498.00644"
       y="394.08612">Vegas</text>
    <text
       style="font-size:17.5px;text-anchor:start;color:#000000;fill:#000000;fill-opacity:1;stroke:none;font-family:Arial"
       id="text248"
       x="456.93683"
       y="183.39177">Remy</text>
    <text
       style="font-size:17.5px;text-anchor:start;color:#000000;fill:#000000;fill-opacity:1;stroke:none;font-family:Arial"
       id="text254"
       x="99.591766"
       y="352.92435">Cubic</text>
    <text
       style="font-size:17.5px;text-anchor:start;color:#000000;fill:#000000;fill-opacity:1;stroke:none;font-family:Arial"
       id="text260"
       x="413.45978"
       y="280.14508">Cubic</text>
    <text
       style="font-size:17.5px;text-anchor:start;color:#000000;fill:#000000;fill-opacity:1;stroke:none;font-family:Arial"
       id="text266"
       x="362.79175"
       y="315.92352">XCP</text>
    <text
       style="font-size:17.5px;text-anchor:start;color:#000000;fill:#000000;fill-opacity:1;stroke:none;font-family:Arial"
       id="text272"
       x="518.52917"
       y="215.04105">Remy</text>
    <text
       style="font-size:17.5px;text-anchor:start;color:#000000;fill:#000000;fill-opacity:1;stroke:none;font-family:Arial"
       id="text278"
       x="136.77164"
       y="390.90201">Compound</text>
    <text
       style="font-size:17.5px;text-anchor:start;color:#000000;fill:#000000;fill-opacity:1;stroke:none;font-family:Arial"
       id="text284"
       x="154.52577"
       y="339.30283">NewReno</text>
    <text
       style="font-size:17.5px;text-anchor:start;color:#000000;fill:#000000;fill-opacity:1;stroke:none;display:inline;font-family:Arial"
       id="text260-5"
       x="413.45978"
       y="294.70291">CoDel</text>
    <text
       style="font-size:17.5px;text-anchor:start;color:#000000;fill:#000000;fill-opacity:1;stroke:none;display:inline;font-family:Arial"
       id="text248-4"
       x="457.69733"
       y="199.73199">=0.1</text>
    <text
       style="font-size:17.5px;text-anchor:start;color:#000000;fill:#000000;fill-opacity:1;stroke:none;display:inline;font-family:Arial"
       id="text248-4-7"
       x="519.28967"
       y="231.63588">=1</text>
    <text
       style="font-size:17.5px;text-anchor:start;color:#000000;fill:#000000;fill-opacity:1;stroke:none;display:inline;font-family:Arial"
       id="text272-2"
       x="497.49118"
       y="305.61401">Remy</text>
    <text
       style="font-size:17.5px;text-anchor:start;color:#000000;fill:#000000;fill-opacity:1;stroke:none;display:inline;font-family:Arial"
       id="text248-4-7-2"
       x="498.25168"
       y="322.20886">=10</text>
  </g>
  <g
     inkscape:groupmode="layer"
     id="layer3"
     inkscape:label="medians"
     transform="translate(-27.759521,-17.721874)">
    <path
       sodipodi:type="arc"
       style="fill:#ffffff;fill-opacity:1;fill-rule:evenodd;stroke:#000000;stroke-width:5.25960684;stroke-miterlimit:4;stroke-opacity:1;stroke-dasharray:none"
       id="path4250"
       sodipodi:cx="216.74719"
       sodipodi:cy="146.50597"
       sodipodi:rx="19.617296"
       sodipodi:ry="19.617296"
       d="m 236.36449,146.50597 c 0,10.83433 -8.78296,19.61729 -19.6173,19.61729 -10.83433,0 -19.61729,-8.78296 -19.61729,-19.61729 0,-10.83434 8.78296,-19.6173 19.61729,-19.6173 10.83434,0 19.6173,8.78296 19.6173,19.6173 z"
       transform="matrix(0.38025655,0,0,0.38025655,84.08046,310.79015)" />
    <path
       sodipodi:type="arc"
       style="fill:#ffffff;fill-opacity:1;fill-rule:evenodd;stroke:#000000;stroke-width:5.25960684;stroke-miterlimit:4;stroke-opacity:1;stroke-dasharray:none"
       id="path4250-6"
       sodipodi:cx="216.74719"
       sodipodi:cy="146.50597"
       sodipodi:rx="19.617296"
       sodipodi:ry="19.617296"
       d="m 236.36449,146.50597 c 0,10.83433 -8.78296,19.61729 -19.6173,19.61729 -10.83433,0 -19.61729,-8.78296 -19.61729,-19.61729 0,-10.83434 8.78296,-19.6173 19.61729,-19.6173 10.83434,0 19.6173,8.78296 19.6173,19.6173 z"
       transform="matrix(0.38025655,0,0,0.38025655,40.68046,311.09015)" />
    <path
       sodipodi:type="arc"
       style="fill:#ffffff;fill-opacity:1;fill-rule:evenodd;stroke:#000000;stroke-width:5.25960684;stroke-miterlimit:4;stroke-opacity:1;stroke-dasharray:none"
       id="path4250-21"
       sodipodi:cx="216.74719"
       sodipodi:cy="146.50597"
       sodipodi:rx="19.617296"
       sodipodi:ry="19.617296"
       d="m 236.36449,146.50597 c 0,10.83433 -8.78296,19.61729 -19.6173,19.61729 -10.83433,0 -19.61729,-8.78296 -19.61729,-19.61729 0,-10.83434 8.78296,-19.6173 19.61729,-19.6173 10.83434,0 19.6173,8.78296 19.6173,19.6173 z"
       transform="matrix(0.38025655,0,0,0.38025655,474.98046,340.29015)" />
    <path
       sodipodi:type="arc"
       style="fill:#ffffff;fill-opacity:1;fill-rule:evenodd;stroke:#000000;stroke-width:5.25960684;stroke-miterlimit:4;stroke-opacity:1;stroke-dasharray:none"
       id="path4250-7"
       sodipodi:cx="216.74719"
       sodipodi:cy="146.50597"
       sodipodi:rx="19.617296"
       sodipodi:ry="19.617296"
       d="m 236.36449,146.50597 c 0,10.83433 -8.78296,19.61729 -19.6173,19.61729 -10.83433,0 -19.61729,-8.78296 -19.61729,-19.61729 0,-10.83434 8.78296,-19.6173 19.61729,-19.6173 10.83434,0 19.6173,8.78296 19.6173,19.6173 z"
       transform="matrix(0.38025655,0,0,0.38025655,463.68046,226.69015)" />
    <path
       sodipodi:type="arc"
       style="fill:#ffffff;fill-opacity:1;fill-rule:evenodd;stroke:#000000;stroke-width:5.25960684;stroke-miterlimit:4;stroke-opacity:1;stroke-dasharray:none"
       id="path4250-80"
       sodipodi:cx="216.74719"
       sodipodi:cy="146.50597"
       sodipodi:rx="19.617296"
       sodipodi:ry="19.617296"
       d="m 236.36449,146.50597 c 0,10.83433 -8.78296,19.61729 -19.6173,19.61729 -10.83433,0 -19.61729,-8.78296 -19.61729,-19.61729 0,-10.83434 8.78296,-19.6173 19.61729,-19.6173 10.83434,0 19.6173,8.78296 19.6173,19.6173 z"
       transform="matrix(0.38025655,0,0,0.38025655,433.78046,184.69015)" />
    <path
       sodipodi:type="arc"
       style="fill:#ffffff;fill-opacity:1;fill-rule:evenodd;stroke:#000000;stroke-width:5.25960684;stroke-miterlimit:4;stroke-opacity:1;stroke-dasharray:none"
       id="path4250-0"
       sodipodi:cx="216.74719"
       sodipodi:cy="146.50597"
       sodipodi:rx="19.617296"
       sodipodi:ry="19.617296"
       d="m 236.36449,146.50597 c 0,10.83433 -8.78296,19.61729 -19.6173,19.61729 -10.83433,0 -19.61729,-8.78296 -19.61729,-19.61729 0,-10.83434 8.78296,-19.6173 19.61729,-19.6173 10.83434,0 19.6173,8.78296 19.6173,19.6173 z"
       transform="matrix(0.38025655,0,0,0.38025655,374.58046,156.39015)" />
    <path
       sodipodi:type="arc"
       style="fill:#ffffff;fill-opacity:1;fill-rule:evenodd;stroke:#000000;stroke-width:5.25960684;stroke-miterlimit:4;stroke-opacity:1;stroke-dasharray:none"
       id="path4250-73"
       sodipodi:cx="216.74719"
       sodipodi:cy="146.50597"
       sodipodi:rx="19.617296"
       sodipodi:ry="19.617296"
       d="m 236.36449,146.50597 c 0,10.83433 -8.78296,19.61729 -19.6173,19.61729 -10.83433,0 -19.61729,-8.78296 -19.61729,-19.61729 0,-10.83434 8.78296,-19.6173 19.61729,-19.6173 10.83434,0 19.6173,8.78296 19.6173,19.6173 z"
       transform="matrix(0.38025655,0,0,0.38025655,338.28046,200.99015)" />
    <path
       sodipodi:type="arc"
       style="fill:#ffffff;fill-opacity:1;fill-rule:evenodd;stroke:#000000;stroke-width:5.25960684;stroke-miterlimit:4;stroke-opacity:1;stroke-dasharray:none"
       id="path4250-20"
       sodipodi:cx="216.74719"
       sodipodi:cy="146.50597"
       sodipodi:rx="19.617296"
       sodipodi:ry="19.617296"
       d="m 236.36449,146.50597 c 0,10.83433 -8.78296,19.61729 -19.6173,19.61729 -10.83433,0 -19.61729,-8.78296 -19.61729,-19.61729 0,-10.83434 8.78296,-19.6173 19.61729,-19.6173 10.83434,0 19.6173,8.78296 19.6173,19.6173 z"
       transform="matrix(0.38025655,0,0,0.38025655,303.88046,236.29015)" />
    <path
       sodipodi:type="arc"
       style="fill:#ffffff;fill-opacity:1;fill-rule:evenodd;stroke:#000000;stroke-width:5.25960684;stroke-miterlimit:4;stroke-opacity:1;stroke-dasharray:none"
       id="path4250-206"
       sodipodi:cx="216.74719"
       sodipodi:cy="146.50597"
       sodipodi:rx="19.617296"
       sodipodi:ry="19.617296"
       d="m 236.36449,146.50597 c 0,10.83433 -8.78296,19.61729 -19.6173,19.61729 -10.83433,0 -19.61729,-8.78296 -19.61729,-19.61729 0,-10.83434 8.78296,-19.6173 19.61729,-19.6173 10.83434,0 19.6173,8.78296 19.6173,19.6173 z"
       transform="matrix(0.38025655,0,0,0.38025655,87.48046,296.99015)" />
  </g>
  <g
     id="g3451">
    <path
       transform="matrix(0.81139419,-0.58449935,0.58449935,0.81139419,9.0540023,189.77768)"
       d="m 347.93938,61.902275 a 50.289993,31.040236 0 1 1 -100.57999,0 50.289993,31.040236 0 1 1 100.57999,0 z"
       sodipodi:ry="31.040236"
       sodipodi:rx="50.289993"
       sodipodi:cy="61.902275"
       sodipodi:cx="297.64938"
       id="path36637"
       style="fill:#ffd7ff;fill-opacity:1;fill-rule:evenodd;stroke:none;display:inline;stroke-width:1;stroke-miterlimit:4;stroke-dasharray:none"
       sodipodi:type="arc" />
    <path
       sodipodi:nodetypes="cc"
       inkscape:connector-curvature="0"
       id="path36165"
       d="M 303.37106,51.535803 318.8748,38.856783"
       style="fill:none;stroke:#000000;stroke-width:2;stroke-linecap:butt;stroke-linejoin:miter;stroke-miterlimit:4;stroke-opacity:1;stroke-dasharray:none;marker-end:url(#Arrow1Lend);display:inline" />
    <text
       transform="matrix(0.76379002,-0.6454648,0.6454648,0.76379002,0,0)"
       y="239.76408"
       x="137.55965"
       id="text270-5"
       style="font-size:18px;text-anchor:start;color:#000000;fill:#000000;fill-opacity:1;stroke:none;display:inline;font-family:Arial">
      <tspan
         id="tspan36635"
         style="font-style:italic;font-weight:bold;-inkscape-font-specification:Arial Bold Italic">Better</tspan>
    </text>
  </g>
</svg>
