<?xml version="1.0" encoding="UTF-8" standalone="no"?>
<svg
   xmlns:dc="http://purl.org/dc/elements/1.1/"
   xmlns:cc="http://creativecommons.org/ns#"
   xmlns:rdf="http://www.w3.org/1999/02/22-rdf-syntax-ns#"
   xmlns:svg="http://www.w3.org/2000/svg"
   xmlns="http://www.w3.org/2000/svg"
   xmlns:xlink="http://www.w3.org/1999/xlink"
   xmlns:sodipodi="http://sodipodi.sourceforge.net/DTD/sodipodi-0.dtd"
   xmlns:inkscape="http://www.inkscape.org/namespaces/inkscape"
   width="566.29456"
   height="499.87646"
   viewBox="0 0 566.29456 499.87647"
   id="svg2"
   version="1.1"
   inkscape:version="0.48.4 r9939"
   sodipodi:docname="oprange-manual.svg">
  <metadata
     id="metadata155">
    <rdf:RDF>
      <cc:Work
         rdf:about="">
        <dc:format>image/svg+xml</dc:format>
        <dc:type
           rdf:resource="http://purl.org/dc/dcmitype/StillImage" />
        <dc:title>Gnuplot</dc:title>
      </cc:Work>
    </rdf:RDF>
  </metadata>
  <defs
     id="defs153">
    <defs
       id="defs11">
      <circle
         r="0.5"
         id="gpDot"
         cx="0"
         cy="0"
         style="stroke-width:0.5" />
      <path
         d="M -1,0 1,0 M 0,-1 0,1"
         id="gpPt0"
         inkscape:connector-curvature="0"
         style="stroke:currentColor;stroke-width:0.222" />
      <path
         d="M -1,-1 1,1 M 1,-1 -1,1"
         id="gpPt1"
         inkscape:connector-curvature="0"
         style="stroke:currentColor;stroke-width:0.222" />
      <path
         d="M -1,0 1,0 M 0,-1 0,1 m -1,-2 2,2 m -2,0 2,-2"
         id="gpPt2"
         inkscape:connector-curvature="0"
         style="stroke:currentColor;stroke-width:0.222" />
      <rect
         height="2"
         width="2"
         y="-1"
         x="-1"
         id="gpPt3"
         style="stroke:currentColor;stroke-width:0.222" />
      <rect
         height="2"
         width="2"
         y="-1"
         x="-1"
         id="gpPt4"
         style="fill:currentColor;stroke:currentColor;stroke-width:0.222" />
      <circle
         r="1"
         cy="0"
         cx="0"
         id="gpPt5"
         style="stroke:currentColor;stroke-width:0.222" />
      <use
         id="gpPt6"
         xlink:href="#gpPt5"
         style="fill:currentColor;stroke:none"
         x="0"
         y="0"
         width="100%"
         height="100%" />
      <path
         d="m 0,-1.33 -1.33,2 2.66,0 z"
         id="gpPt7"
         inkscape:connector-curvature="0"
         style="stroke:currentColor;stroke-width:0.222" />
      <use
         id="gpPt8"
         xlink:href="#gpPt7"
         style="fill:currentColor;stroke:none"
         x="0"
         y="0"
         width="100%"
         height="100%" />
      <use
         transform="scale(-1,-1)"
         id="gpPt9"
         xlink:href="#gpPt7"
         style="stroke:currentColor"
         x="0"
         y="0"
         width="100%"
         height="100%" />
      <use
         id="gpPt10"
         xlink:href="#gpPt9"
         style="fill:currentColor;stroke:none"
         x="0"
         y="0"
         width="100%"
         height="100%" />
      <use
         transform="matrix(0.70710678,0.70710678,-0.70710678,0.70710678,0,0)"
         id="gpPt11"
         xlink:href="#gpPt3"
         style="stroke:currentColor"
         x="0"
         y="0"
         width="100%"
         height="100%" />
      <use
         id="gpPt12"
         xlink:href="#gpPt11"
         style="fill:currentColor;stroke:none"
         x="0"
         y="0"
         width="100%"
         height="100%" />
    </defs>
  </defs>
  <sodipodi:namedview
     pagecolor="#ffffff"
     bordercolor="#666666"
     borderopacity="1"
     objecttolerance="10"
     gridtolerance="10"
     guidetolerance="10"
     inkscape:pageopacity="0"
     inkscape:pageshadow="2"
     inkscape:window-width="1366"
     inkscape:window-height="719"
     id="namedview151"
     showgrid="false"
     fit-margin-top="0"
     fit-margin-left="0"
     fit-margin-right="0"
     fit-margin-bottom="0"
     inkscape:zoom="1.0862684"
     inkscape:cx="287.98302"
     inkscape:cy="248.09706"
     inkscape:window-x="0"
     inkscape:window-y="25"
     inkscape:window-maximized="1"
     inkscape:current-layer="layer3" />
  <title
     id="title4">Gnuplot</title>
  <desc
     id="desc6">Produced by GNUPLOT 4.6 patchlevel 3 </desc>
  <rect
     style="fill:none"
     id="rect9"
     height="480"
     width="600"
     y="34.819729"
     x="-12.67959" />
  <path
     d="m 59.22041,457.21973 9,0 m 494.1,0 -9,0 0.01,0"
     id="path31"
     inkscape:connector-curvature="0"
     style="color:#000000;fill:none;stroke:#000000;stroke-width:1;stroke-linecap:round;stroke-linejoin:round" />
  <text
     style="font-size:15px;text-anchor:end;color:#000000;fill:#000000;stroke:none;font-family:Arial"
     id="text35"
     x="50.92041"
     y="461.71973">-2</text>
  <path
     d="m 59.22041,330.41973 9,0"
     id="path37"
     inkscape:connector-curvature="0"
     style="color:#000000;fill:none;stroke:#000000;stroke-width:1;stroke-linecap:round;stroke-linejoin:round"
     sodipodi:nodetypes="cc" />
  <text
     style="font-size:15px;text-anchor:end;color:#000000;fill:#000000;stroke:none;font-family:Arial"
     id="text41"
     x="50.92041"
     y="334.91974">-1.5</text>
  <path
     d="m 59.22041,203.61973 9,0"
     id="path43"
     inkscape:connector-curvature="0"
     style="color:#000000;fill:none;stroke:#000000;stroke-width:1;stroke-linecap:round;stroke-linejoin:round"
     sodipodi:nodetypes="cc" />
  <text
     style="font-size:15px;text-anchor:end;color:#000000;fill:#000000;stroke:none;font-family:Arial"
     id="text47"
     x="50.92041"
     y="208.11974">-1</text>
  <path
     d="m 59.22041,76.919729 9,0"
     id="path49"
     inkscape:connector-curvature="0"
     style="color:#000000;fill:none;stroke:#000000;stroke-width:1;stroke-linecap:round;stroke-linejoin:round"
     sodipodi:nodetypes="cc" />
  <text
     style="font-size:15px;text-anchor:end;color:#000000;fill:#000000;stroke:none;font-family:Arial"
     id="text53"
     x="50.92041"
     y="81.419724">-0.5</text>
  <path
     d="m 59.22041,457.21973 0,-9"
     id="path55"
     inkscape:connector-curvature="0"
     style="color:#000000;fill:none;stroke:#000000;stroke-width:1;stroke-linecap:round;stroke-linejoin:round"
     sodipodi:nodetypes="cc" />
  <text
     style="font-size:15px;text-anchor:middle;color:#000000;fill:#000000;stroke:none;font-family:Arial"
     id="text59"
     x="59.220413"
     y="479.71973">1</text>
  <path
     d="m 109.72041,457.21973 0,-4.5 m 29.5,4.5 0,-4.5 m 21,4.5 0,-4.5 m 16.2,4.5 0,-4.5 m 13.3,4.5 0,-4.5 m 11.2,4.5 0,-4.5 m 9.7,4.5 0,-4.5 m 8.6,4.5 0,-4.5 m 7.7,4.5 0,-9"
     id="path61"
     inkscape:connector-curvature="0"
     style="color:#000000;fill:none;stroke:#000000;stroke-width:1;stroke-linecap:round;stroke-linejoin:round"
     sodipodi:nodetypes="cccccccccccccccccc" />
  <text
     style="font-size:15px;text-anchor:middle;color:#000000;fill:#000000;stroke:none;font-family:Arial"
     id="text65"
     x="226.92041"
     y="479.71973">10</text>
  <path
     d="m 277.42041,457.21973 0,-4.5 m 29.5,4.5 0,-4.5 m 21,4.5 0,-4.5 m 16.2,4.5 0,-4.5 m 13.3,4.5 0,-4.5 m 11.2,4.5 0,-4.5 m 9.7,4.5 0,-4.5 m 8.6,4.5 0,-4.5 m 7.7,4.5 0,-9"
     id="path67"
     inkscape:connector-curvature="0"
     style="color:#000000;fill:none;stroke:#000000;stroke-width:1;stroke-linecap:round;stroke-linejoin:round"
     sodipodi:nodetypes="cccccccccccccccccc" />
  <text
     style="font-size:15px;text-anchor:middle;color:#000000;fill:#000000;stroke:none;font-family:Arial"
     id="text71"
     x="394.62039"
     y="479.71973">100</text>
  <path
     d="m 445.12041,457.21973 0,-4.5 m 29.5,4.5 0,-4.5 m 21,4.5 0,-4.5 m 16.2,4.5 0,-4.5 m 13.3,4.5 0,-4.5 m 11.2,4.5 0,-4.5 m 9.7,4.5 0,-4.5 m 8.6,4.5 0,-4.5 m 7.7,4.5 0,-9"
     id="path73"
     inkscape:connector-curvature="0"
     style="color:#000000;fill:none;stroke:#000000;stroke-width:1;stroke-linecap:round;stroke-linejoin:round"
     sodipodi:nodetypes="cccccccccccccccccc" />
  <text
     style="font-size:15px;text-anchor:middle;color:#000000;fill:#000000;stroke:none;font-family:Arial"
     id="text77"
     x="550.32043"
     y="479.71973">1000</text>
  <path
     d="m 59.22041,77.013687 0,380.206043 503.1,0"
     id="path79"
     inkscape:connector-curvature="0"
     style="color:#000000;fill:none;stroke:#000000;stroke-width:1;stroke-linecap:round;stroke-linejoin:round"
     sodipodi:nodetypes="ccc" />
  <text
     style="font-size:15px;text-anchor:middle;color:#000000;fill:#000000;stroke:none;font-family:Arial"
     id="text83"
     transform="matrix(0,-1,1,0,0,0)"
     x="-254.41974"
     y="10.92041">log( normalized throughput / delay )</text>
  <text
     style="font-size:15px;text-anchor:middle;color:#000000;fill:#000000;stroke:none;font-family:Arial"
     id="text87"
     x="310.7204"
     y="496.71973">Link rate (Mbps)</text>
  <path
     d="m 59.22041,457.21973 503.1,0"
     id="path149"
     inkscape:connector-curvature="0"
     style="color:#000000;fill:none;stroke:#000000;stroke-width:1;stroke-linecap:round;stroke-linejoin:round"
     sodipodi:nodetypes="cc" />
  <text
     xml:space="preserve"
     style="font-size:15px;font-style:normal;font-variant:normal;font-weight:normal;font-stretch:normal;text-align:start;line-height:100%;letter-spacing:0px;word-spacing:0px;writing-mode:lr-tb;text-anchor:start;fill:#000000;fill-opacity:1;stroke:none;font-family:Arial;-inkscape-font-specification:'Arial, Normal'"
     x="302.35056"
     y="62.620403"
     id="text4359"
     sodipodi:linespacing="100%"><tspan
       sodipodi:role="line"
       id="tspan4361"
       x="302.35056"
       y="62.620403" /></text>
  <g
     inkscape:groupmode="layer"
     id="layer1"
     inkscape:label="2x"
     style="opacity:0.5;display:inline">
    <rect
       style="fill:#ff0000;fill-opacity:0.82352941000000002;stroke:none"
       id="rect4357"
       width="50.468575"
       height="15"
       x="285.52771"
       y="-6.2837279e-07" />
    <path
       style="color:#ff0000;fill:none;stroke:#ff0000;stroke-width:4;stroke-linecap:round;stroke-linejoin:round;stroke-miterlimit:4;stroke-opacity:0.82352941000000002;stroke-dasharray:none"
       inkscape:connector-curvature="0"
       id="path94"
       d="m 190.82041,457.21973 0.3,-23.3 0.5,-5.9 0.6,7.8 0.5,-27.6 0.5,13.3 0.5,-38.4 0.5,9.9 0.5,-4.3 0.5,-22.1 0.5,-3.1 0.5,-2.4 0.5,-23.8 0.5,0.7 0.5,4.4 0.5,-13.1 0.5,-4.2 0.5,-4.1 0.5,1.3 0.5,-0.1 0.5,-5.7 0.5,-1.7 0.5,-0.7 0.5,-1.5 0.5,-9.8 0.5,-1.3 0.5,-2 0.5,-0.8 0.5,-1.9 0.5,-2.1 0.5,-1.6 0.6,-2.1 0.5,-4.4 0.5,6.3 0.5,-1.7 0.5,-1.2 0.5,-8.8 0.5,-1.3 0.5,-1.5 0.5,-1 0.5,-1.2 0.5,-1.9 0.5,-2.2 0.5,-0.9 0.5,-1.8 0.5,-1.7 0.5,-1 0.5,-2.1 0.5,-2.3 0.5,-1.1 0.5,-1.4 0.5,-0.4 0.5,-1.4 0.5,-2.5 0.5,-1.3 0.5,-1.3 0.5,-1.6 0.5,-2 0.5,-1.6 0.6,-1.8 0.5,-1.6 0.5,-2 0.5,-1.4 0.5,-2.4 0.5,-1.2 0.5,-1.5 0.5,-1.9 0.5,-2.5 0.5,-2.4 0.5,-1.5 0.5,-2.6 0.5,-1.7 0.5,-2 0.5,-1.9 0.5,-1.4 0.5,-1.5 0.5,-1.4 0.5,-1.8 0.5,-1.9 0.5,-1.9 0.5,-1.8 0.5,-2.1 0.5,-1.5 0.5,-1.9 0.5,-1.3 0.5,-1.2 0.6,-1.9 0.5,-2 0.5,2.2 0.5,-0.9 0.5,-1.7 0.5,-2 0.5,-0.9 0.5,-1.1 0.5,-1.1 0.5,-1.6 0.5,-1.5 0.5,-1.1 0.5,-1.4 0.5,-0.9 0.5,-0.8 0.5,-1.6 0.5,-1.3 0.5,-0.5 0.5,-1.3 0.5,-1.1 0.5,-1.6 0.5,-3.6 0.5,0.4 0.5,-1.4 0.5,-0.6 0.5,0.1 0.5,-0.5 0.5,-1.5 0.6,-1.6 0.5,-0.7 0.5,-1.4 0.5,-1.3 0.5,-0.9 0.5,-0.5 0.5,-0.5 0.5,-1.2 0.5,-0.9 0.5,-1 0.5,-1.1 0.5,-0.8 0.5,-0.9 0.5,-1 0.5,-1 0.5,-1.1 0.5,-1.2 0.5,-0.9 0.5,-1.1 0.5,-1 0.5,-1.2 0.5,-2 0.5,-0.7 0.5,-1 0.5,-15 0.5,-1.7 0.5,-1 0.5,-0.7 0.6,-1.6 0.5,-1.6 0.5,-1.4 0.5,0 0.5,-1.2 0.5,-1.2 0.5,0.6 0.5,-0.4 0.5,-1.3 0.5,-1.1 0.5,-1.3 0.5,-1.2 0.5,-1.2 0.5,-1.3 0.5,-1.9 0.5,-1.4 0.5,-0.9 0.5,-1 0.5,-0.8 0.5,-1.3 0.5,-1.4 0.5,-1.1 0.5,-0.9 0.5,0.1 0.5,-0.500001 0.5,-0.7 0.5,0.2 0.5,-0.4 0.6,0 0.5,-0.3 0.5,-0.1 0.5,-0.5 0.5,-0.3 0.5,0.1 0.5,-0.5 0.5,-2.2 0.5,-0.7 0.5,-0.7 0.5,-0.5 0.5,0.4 0.5,0.4 0.5,-0.3 0.5,-0.5 0.5,-0.6 0.5,0.1 0.5,-0.4 0.5,-0.1 0.5,-8.4 0.5,-1.6 0.5,-0.7 0.5,-0.8 0.5,0.5 0.5,0.8 0.5,2.1 0.5,0.3 0.6,-0.2 0.5,-0.2 0.5,-0.3 0.5,-0.1 0.5,-0.4 0.5,0.1 0.5,-0.7 0.5,-0.4 0.5,-0.5 0.5,-0.9 0.5,-0.6 0.5,-0.6 0.5,-0.4 0.5,-0.5 0.5,-0.6 0.5,-1.1 0.5,-0.8 0.5,-1 0.5,-0.3 0.5,4.1 0.5,2.4 0.5,-3.4 0.5,-0.8 0.5,-0.3 0.5,1.6 0.5,-1.1 0.5,0.8 0.5,-1.4 0.6,-0.9 0.5,-0.9 0.5,-1.2 0.5,-1.3 0.5,-0.3 0.5,-0.5 0.5,-0.6 0.5,1.8 0.5,-0.5 0.5,-0.1 0.5,-0.1 0.5,-0.1 0.5,-0.3 0.5,0.1 0.5,-0.4 0.5,-0.6 0.5,1 0.5,-0.8 0.5,-0.4 0.5,0 0.5,-0.6 0.5,-0.4 0.5,-0.2 0.5,-0.3 0.5,-0.4 0.5,-0.2 0.5,-0.3 0.5,-0.3 0.6,-0.2 0.5,0.1 0.5,0 0.5,0.2 0.5,1.2 0.5,0.7 0.5,0.6 0.5,0.8 0.5,0.5 0.5,0.5 0.5,0 0.5,0.3 0.5,0.5 0.5,0.4 0.5,0.3 0.5,0.4 0.5,0.5 0.5,0.7 0.5,0.3 0.5,-0.2 0.5,0.5 0.5,0.4 0.5,0.9 0.5,-3 0.5,0.9 0.5,1 0.5,0.8 0.5,0.7 0.6,1.2 0.5,0.7 0.5,0.9 0.5,1.2 0.5,0.8 0.5,1.4 0.5,1 0.5,1.2 0.5,1.2 0.5,1.2 0.5,0.2 0.5,1.3 0.5,1 0.5,0.5 0.5,-0.2 0.5,0 0.5,1.6 0.5,0.4 0.5,0.6 0.5,0.4 0.5,0.7 0.5,1 0.5,0.5 0.5,0.7 0.5,1.7 0.5,0.4 0.5,0.700001 0.6,0.8 0.5,1.4 0.5,0.4 0.5,0.4 0.5,1.1 0.5,0.7 0.5,1.2 0.5,0.2 0.5,0.6 0.5,0.8 0.5,0.4 0.5,0.3 0.5,1.1 0.5,0.8 0.5,0.7 0.5,0 0.5,0.7 0.5,0.4 0.5,0.7 0.5,0.6 0.5,0.7 0.5,1 0.5,0.9 0.5,0.9 0.5,1.1 0.5,1.2 0.5,1.5 0.5,1 0.6,0.4 0.5,0.3 0.5,0.9 0.5,0.7 0.5,0.8 0.5,1 0.5,0.6 0.5,0.8 0.5,1 0.5,0.9 0.5,0.9 0.5,0.3 0.5,0.7 0.5,0.8 0.5,0.9 0.5,0.4 0.5,1 0.5,0.8 0.5,1.1 0.5,1.5 0.5,1 0.5,1.2 0.5,1.3 0.5,1.1 0.5,1.2 0.5,1.3 0.5,1.3 0.5,1.1 0.6,1.6 0.5,1.6 0.5,1.4 0.5,1.4 0.5,1.2 0.5,1.2 0.5,1.6 0.5,0.5 0.5,1.6 0.5,0.8 0.5,1.1 0.5,1.3 0.5,1.6 0.5,1.8 0.5,1.4 0.5,1.9 0.5,1.6 0.5,1.8 0.5,1.7 0.5,1.7 0.5,1.6 0.5,1.7 0.5,1.7 0.5,1.4 0.5,1.6 0.5,1.8 0.5,1.6 0.5,1.6 0.6,1.8 0.5,1.6 0.5,1.8 0.5,1.6 0.5,1.9 0.5,1.6 0.5,1.9 0.5,1.5 0.5,1.8 0.5,1.7 0.5,1.5 0.5,1.8 0.5,1.7 0.5,1.6 0.5,1.6 0.5,1.7 0.5,1.7 0.5,1.6 0.5,1.7 0.5,1.7 0.5,1.7 0.5,1.6 0.5,1.7 0.5,1.8 0.5,1.6 0.5,1.7 0.5,1.7 0.6,1.7 0.5,1.6 0.5,1.7 0.5,1.8 0.5,1.6 0.5,1.8 0.5,1.8 0.5,1.6 0.5,1.6 0.5,1.8 0.5,1.9 0.5,1.6 0.5,1.6 0.5,1.7 0.5,1.7 0.5,1.8 0.5,1.6 0.5,1.7 0.5,1.7 0.5,1.8 0.5,1.6 0.5,1.7 0.5,1.6 0.5,1.8 0.5,1.8 0.5,1.7 0.5,1.6 0.5,1.8 0.6,1.6 0.5,1.7 0.5,1.7 0.5,1.7 0.5,1.7 0.5,1.7 0.5,1.6 0.5,1.8 0.5,1.7 0.5,1.6 0.5,1.7 0.5,1.7 0.5,1.7 0.5,1.7 0.5,1.8 0.5,1.7 0.5,1.6 0.5,1.7 0.5,1.7 0.5,1.8 0.5,1.7 0.5,1.7 0.5,1.8 0.5,1.6 0.5,1.8 0.5,1.6 0.5,1.7 0.5,1.6 0.6,1.8 0.5,1.7 0.5,1.6 0.5,1.7 0.5,1.8 0.5,1.8 0.5,1.7 0.5,1.8 0.5,1.5 0.5,1.8 0.5,1.7 0.5,1.7 0.5,1.7 0.5,1.7 0.5,1.8 0.5,1.7 0.5,1.6 0.5,1.7 0.5,1.8 0.5,1.6 0.5,1.8 0.5,1.7 0.5,1.7 0.5,1.7 0.5,1.7 0.5,1.7 0.5,1.8 0.5,1.7 0.6,1.7 0.5,1.8 0.5,1.7 0.5,1.7 0.5,1.9 0.5,1.6 0.5,1.7 0.5,1.8 0.5,1.7 0.5,1.7 0.5,1.7 0.5,1.9 0.5,1.6 0.5,1.7 0.5,1.8 0.5,1.7 0.5,1.8 0.5,1.6 0.5,1.7 0.5,1.8 0.5,1.7 0.5,1.8 0.5,1.7 0.5,1.7 0.5,1.7 0.5,1.8 0.5,1.7 0.6,1.7 0.5,1.7 0.5,1.8 0.5,1.7 0.5,1.8 0.5,1.8 0.5,1.6 0.5,1.8 0.5,1.7 0.5,1.8 0.5,1.6 0.5,1.8 0.5,1.6 0.5,1.8 0.5,1.8 0.5,1.8 0.5,1.6 0.5,1.8 0.5,1.7 0.1,0.2 0.01,0" />
    <text
       xml:space="preserve"
       style="font-size:15px;font-style:normal;font-variant:normal;font-weight:normal;font-stretch:normal;text-align:start;line-height:100%;letter-spacing:0px;word-spacing:0px;writing-mode:lr-tb;text-anchor:start;fill:#ffffff;fill-opacity:1;stroke:none;font-family:Arial;-inkscape-font-specification:'Arial, Normal'"
       x="286.03241"
       y="11.477697"
       id="text4363"
       sodipodi:linespacing="100%"><tspan
         sodipodi:role="line"
         id="tspan4365"
         x="286.03241"
         y="11.477697"
         style="letter-spacing:-1.25000000000000000px">2x range</tspan></text>
    <text
       xml:space="preserve"
       style="opacity:1;display:inline;font-size:15px;font-style:normal;font-variant:normal;font-weight:normal;font-stretch:normal;text-align:start;line-height:125%;letter-spacing:0px;word-spacing:0px;writing-mode:lr-tb;text-anchor:start;fill:#ff0000;fill-opacity:0.82352941000000002;stroke:none;font-family:Arial;-inkscape-font-specification:Arial"
       x="290.21857"
       y="-297.15707"
       id="text3050-6"
       sodipodi:linespacing="125%"
       transform="matrix(0.29525555,0.955418,-0.955418,0.29525555,2.4086689e-5,0)"><tspan
         sodipodi:role="line"
         id="tspan3052-7"
         x="290.21857"
         y="-297.15707">RemyCC-2x</tspan></text>
  </g>
  <g
     inkscape:groupmode="layer"
     id="layer2"
     inkscape:label="10x"
     style="opacity:0.5;display:inline">
    <path
       style="color:#008000;fill:none;stroke:#006400;stroke-width:4;stroke-linecap:round;stroke-linejoin:round;stroke-miterlimit:4;stroke-opacity:0.82352941000000002;stroke-dasharray:none"
       inkscape:connector-curvature="0"
       id="path101"
       d="m 169.92041,457.21973 0.1,-4.2 0.5,-10.3 0.5,3.6 0.5,-3.6 0.5,-49.6 0.5,6.2 0.5,-47.4 0.5,4.6 0.5,-11.4 0.5,-7.3 0.5,7.2 0.5,-6.6 0.5,-0.9 0.5,-1.7 0.5,-25.8 0.5,20.4 0.6,-23.2 0.5,-1.6 0.5,2.7 0.5,-4.7 0.5,-7.4 0.5,4.4 0.5,-11 0.5,-1.4 0.5,-2.2 0.5,-1.2 0.5,-1.6 0.5,-1.9 0.5,-1.3 0.5,-1.5 0.5,-1.6 0.5,-1.8 0.5,-1.8 0.5,-1.4 0.5,-1.8 0.5,-1.7 0.5,-2.6 0.5,-2.1 0.5,-2 0.5,-2.1 0.5,-2.4 0.5,-2.3 0.5,-2 0.5,-2.2 0.6,-2.2 0.5,-2 0.5,-1.8 0.5,-2.3 0.5,-2.2 0.5,-2.2 0.5,-1.9 0.5,-1.9 0.5,-1.9 0.5,-0.6 0.5,-2.1 0.5,-2.1 0.5,-2 0.5,-2 0.5,-1.8 0.5,-2.3 0.5,-2.1 0.5,-2 0.5,-1.8 0.5,-2.2 0.5,-1.9 0.5,-2 0.5,-0.8 0.5,-1.8 0.5,-2 0.5,-1.9 0.5,-1.7 0.5,-2 0.6,-1.9 0.5,-1.7 0.5,-1.7 0.5,-1.9 0.5,-1.8 0.5,-1.8 0.5,-1.8 0.5,-1.9 0.5,-1.8 0.5,-1.8 0.5,-0.3 0.5,-1.9 0.5,-2 0.5,-1.8 0.5,-1.6 0.5,-1.7 0.5,-1.3 0.5,-1.4 0.5,-0.9 0.5,-1.5 0.5,-1.2 0.5,-1.4 0.5,-1.1 0.5,-1.6 0.5,-1.2 0.5,-1.4 0.5,-1.2 0.5,-1.2 0.6,-1.3 0.5,-1.3 0.5,-1 0.5,-1.3 0.5,-1.6 0.5,-1.5 0.5,-1.6 0.5,-1.2 0.5,-1.1 0.5,-1.5 0.5,-1.7 0.5,-1.6 0.5,-1.6 0.5,-1.3 0.5,-0.1 0.5,-1.4 0.5,-1.2 0.5,-1 0.5,-0.8 0.5,-0.8 0.5,-1 0.5,-0.6 0.5,-2.9 0.5,-1.5 0.5,-1.2 0.5,-1.1 0.5,-0.6 0.6,-0.7 0.5,-0.9 0.5,-0.9 0.5,-0.8 0.5,2.1 0.5,-3.2 0.5,-1.4 0.5,0.4 0.5,-1 0.5,-1.5 0.5,-2.1 0.5,-1.4 0.5,-0.7 0.5,0.3 0.5,-1 0.5,-0.8 0.5,-1.1 0.5,-1 0.5,-0.9 0.5,-1.1 0.5,-0.7 0.5,-0.6 0.5,-1 0.5,-1.100001 0.5,-0.7 0.5,-0.1 0.5,-1.4 0.5,1.2 0.6,-0.2 0.5,-1.8 0.5,-0.9 0.5,-0.4 0.5,-0.6 0.5,0.2 0.5,-0.4 0.5,-0.4 0.5,-1.5 0.5,-0.3 0.5,-0.1 0.5,-0.2 0.5,-0.3 0.5,-0.2 0.5,0 0.5,-0.2 0.5,-0.2 0.5,-0.3 0.5,-0.5 0.5,-0.6 0.5,-0.8 0.5,-0.7 0.5,-0.2 0.5,-3.3 0.5,-2.1 0.5,-0.2 0.5,0.3 0.5,0.3 0.6,0.7 0.5,0.3 0.5,0.3 0.5,0.3 0.5,0.6 0.5,0.6 0.5,0.4 0.5,0.5 0.5,0.6 0.5,1.3 0.5,29.100001 0.5,-0.8 0.5,-0.3 0.5,-1.4 0.5,2.2 0.5,-0.8 0.5,-0.5 0.5,-0.7 0.5,-0.1 0.5,-1 0.5,-0.9 0.5,-1.1 0.5,0.7 0.5,-0.6 0.5,-0.7 0.5,-1 0.5,-1.1 0.5,-1.1 0.6,-1.5 0.5,-0.1 0.5,-0.4 0.5,-0.2 0.5,0.6 0.5,-0.6 0.5,-0.6 0.5,-0.5 0.5,-0.5 0.5,-0.1 0.5,18.8 0.5,-1 0.5,-0.6 0.5,-1.2 0.5,-1.2 0.5,-1.2 0.5,-1.3 0.5,-0.5 0.5,-1.1 0.5,-1.7 0.5,-0.6 0.5,-2 0.5,-0.2 0.5,-1.3 0.5,-0.8 0.5,-1.2 0.5,-0.8 0.6,-0.4 0.5,-0.6 0.5,-0.6 0.5,-0.3 0.5,-1 0.5,-1.2 0.5,-0.6 0.5,-0.4 0.5,-0.9 0.5,-0.3 0.5,0.2 0.5,-0.5 0.5,-0.700001 0.5,-1 0.5,1.3 0.5,0 0.5,-0.4 0.5,0.3 0.5,0.4 0.5,0.100001 0.5,0.4 0.5,-0.3 0.5,-0.300001 0.5,-0.2 0.5,0 0.5,0.1 0.5,-0.8 0.5,-0.3 0.6,0.2 0.5,-1 0.5,-0.5 0.5,0.2 0.5,-0.9 0.5,0.2 0.5,-0.7 0.5,0.5 0.5,-0.7 0.5,0.3 0.5,-0.6 0.5,-0.3 0.5,-1.3 0.5,0 0.5,-0.7 0.5,-0.5 0.5,-0.9 0.5,0.2 0.5,-0.7 0.5,-0.4 0.5,-0.8 0.5,0.1 0.5,-0.1 0.5,-2.3 0.5,1 0.5,0.1 0.5,0.1 0.5,1.1 0.6,0.4 0.5,-0.2 0.5,0.2 0.5,0.3 0.5,0.6 0.5,0.5 0.5,0.3 0.5,-0.3 0.5,0.2 0.5,0.5 0.5,0.2 0.5,-0.1 0.5,1.2 0.5,-0.6 0.5,1.3 0.5,10.800001 0.5,0.1 0.5,-0.4 0.5,0 0.5,-1.2 0.5,-1.8 0.5,-1.5 0.5,-2.300001 0.5,-1.5 0.5,-0.9 0.5,0.1 0.5,-1.1 0.5,-1 0.6,-0.3 0.5,0.5 0.5,-1.1 0.5,0.4 0.5,-0.9 0.5,-0.1 0.5,0 0.5,-1.2 0.5,-0.2 0.5,-0.4 0.5,-0.8 0.5,0 0.5,-0.7 0.5,-1.3 0.5,-0.6 0.5,-0.5 0.5,0.1 0.5,2.3 0.5,0.1 0.5,0.5 0.5,0 0.5,0.1 0.5,-0.5 0.5,0.6 0.5,0.2 0.5,0.5 0.5,-0.5 0.6,1.6 0.5,0.1 0.5,-1.1 0.5,1.1 0.5,0.1 0.5,1.2 0.5,-0.4 0.5,0.1 0.5,0.2 0.5,-0.2 0.5,0.2 0.5,-0.1 0.5,0.2 0.5,-0.8 0.5,-0.3 0.5,0.8 0.5,-0.1 0.5,0.3 0.5,-0.9 0.5,-0.5 0.5,-0.9 0.5,0.4 0.5,-0.6 0.5,-0.7 0.5,-0.1 0.5,0.4 0.5,-0.8 0.5,-0.3 0.6,0 0.5,0.3 0.5,0.1 0.5,-1.1 0.5,0.1 0.5,1.2 0.5,0 0.5,0.5 0.5,-0.3 0.5,1.5 0.5,1.3 0.5,0.7 0.5,0.3 0.5,0.9 0.5,0.4 0.5,0 0.5,0.8 0.5,-0.2 0.5,0.7 0.5,0.1 0.5,0.6 0.5,0 0.5,-0.2 0.5,0.7 0.5,0.8 0.5,-0.5 0.5,-0.1 0.5,0.5 0.6,0.5 0.5,-0.4 0.5,-0.5 0.5,-0.4 0.5,-2 0.5,-0.7 0.5,0.1 0.5,0.1 0.5,0 0.5,0.7 0.5,1 0.5,1.4 0.5,0.5 0.5,-1.5 0.5,0.6 0.5,0.2 0.5,1.4 0.5,0.4 0.5,0.500001 0.5,1.4 0.5,0.8 0.5,0.8 0.5,0.4 0.5,0.8 0.5,0.4 0.5,0.4 0.5,0.6 0.5,1 0.6,1.2 0.5,0.6 0.5,1.2 0.5,0.6 0.5,0.9 0.5,1 0.5,1.3 0.5,1 0.5,1.3 0.5,0.5 0.5,1.1 0.5,0.5 0.5,1.4 0.5,1.4 0.5,1 0.5,1.2 0.5,1.3 0.5,1.3 0.5,1 0.5,1.2 0.5,0.8 0.5,1.1 0.5,1.2 0.5,0.4 0.5,1 0.5,0.6 0.5,1.3 0.6,0.4 0.5,1 0.5,0.7 0.5,1.1 0.5,1 0.5,0.8 0.5,1 0.5,1.2 0.5,1.1 0.5,1.4 0.5,-0.1 0.5,0.6 0.5,1.1 0.5,0.9 0.5,1 0.5,1.3 0.5,0.9 0.5,1.4 0.5,1.2 0.5,1.1 0.5,1.1 0.5,1.1 0.5,0.8 0.5,0.8 0.5,1 0.5,0.9 0.5,0.7 0.5,0.6 0.6,1.6 0.5,1.4 0.5,1.5 0.5,1.4 0.5,1.4 0.5,1.4 0.5,1.4 0.5,1.4 0.5,1.4 0.5,1.3 0.5,1.3 0.5,1.1 0.5,1.3 0.5,1.5 0.5,1.4 0.5,1.5 0.5,1.2 0.5,1.4 0.5,1.1 0.5,1 0.5,0.4 0.5,0.6 0.5,0.1 0.5,0.3 0.5,1.1 0.5,1.4 0.5,1.5 0.5,1.7 0.6,1.7 0.5,1.8 0.5,1.7 0.5,1.7 0.5,1.7 0.5,1.8 0.5,1.7 0.5,1.8 0.5,1.8 0.5,1.6 0.5,1.8 0.5,1.7 0.5,1.8 0.5,1.7 0.5,1.8 0.5,1.7 0.5,1.8 0.5,1.8 0.5,1.7 0.5,1.8 0.5,1.8 0.5,1.7 0.5,1.7 0.5,1.8 0.5,1.8 0.5,1.8 0.5,1.7 0.5,1.7 0.6,1.8 0.5,1.7 0.5,1.8 0.5,1.7 0.5,1.8 0.5,1.7 0.5,1.7 0.5,1.8 0.5,1.7 0.5,1.8 0.5,1.7 0.5,1.8 0.5,1.7 0.5,1.8 0.5,1.7 0.5,1.7 0.5,1.7 0.5,1.7 0.5,1.7 0.5,1.8 0.5,1.7 0.5,1.8 0.5,1.7 0.5,1.7 0.5,1.8 0.5,1.7 0.5,1.7 0.6,1.8 0.5,1.7 0.5,1.8 0.5,1.7 0.5,1.8 0.5,1.7 0.5,1.8 0.5,1.7 0.5,1.8 0.5,1.7 0.5,1.7 0.5,1.8 0.5,1.7 0.5,1.8 0.5,1.7 0.5,1.8 0.5,1.7 0.5,1.8 0.5,1.7 0.5,1.7 0.5,1.8 0.5,1.8 0.5,1.7 0.5,1.8 0.5,1.7 0.5,1.8 0.5,1.7 0.5,1.8 0.6,1.8 0.5,1.7 0.5,1.8 0.5,1.7 0.5,1.7 0.5,1.8 0.5,1.7 0.5,1.7 0.5,1.8 0.5,1.7 0.5,1.7 0.5,1.8 0.5,1.7 0.5,1.8 0.5,1.7 0.5,1.7 0.5,1.8 0.5,1.7 0.5,1.7 0.5,1.7 0.5,1.8 0.5,1.7 0.5,1.8 0.5,1.7 0.5,1.8 0.5,1.7 0.5,1.7 0.5,1.8 0.6,1.7 0.5,1.8 0.5,1.7 0.5,1.8 0.5,1.7 0.5,1.7 0.5,1.8 0.5,1.7 0.5,1.8 0.5,1.7 0.5,1.7 0.5,1.8 0.5,1.7 0.5,1.7 0.5,1.8 0.5,1.7 0.5,1.7 0.5,1.8 0.5,1.7 0.5,1.8 0.5,1.7 0.5,1.8 0.5,1.7 0.5,1.7 0.5,1.8 0.5,1.8 0.5,1.7 0.5,1.8 0.6,1.7 0.5,1.8 0.5,1.9 0.5,1.7 0.5,1.8 0.5,1.7 0.5,1.8 0.5,1.7 0.5,1.8 0.5,1.7 0.5,1.8 0.4,1.2 0.01,0" />
    <rect
       style="fill:#006400;fill-opacity:0.82352941000000002;stroke:none"
       id="rect4357-9"
       width="167.60817"
       height="15"
       x="226.97047"
       y="14.999999" />
    <text
       xml:space="preserve"
       style="font-size:15px;font-style:normal;font-variant:normal;font-weight:normal;font-stretch:normal;text-align:start;line-height:100%;letter-spacing:0px;word-spacing:0px;writing-mode:lr-tb;text-anchor:start;fill:#ffffff;fill-opacity:1;stroke:none;font-family:Arial;-inkscape-font-specification:'Arial, Normal'"
       x="275.60913"
       y="26.405304"
       id="text4363-8"
       sodipodi:linespacing="100%"
       transform="scale(1.0041355,0.99588152)"><tspan
         sodipodi:role="line"
         id="tspan4365-7"
         x="275.60913"
         y="26.405304">10x range</tspan></text>
    <text
       xml:space="preserve"
       style="opacity:1;display:inline;font-size:15px;font-style:normal;font-variant:normal;font-weight:normal;font-stretch:normal;text-align:start;line-height:125%;letter-spacing:0px;word-spacing:0px;writing-mode:lr-tb;text-anchor:start;fill:#006400;fill-opacity:0.82352941000000002;stroke:none;font-family:Arial;-inkscape-font-specification:Arial"
       x="300.16458"
       y="-344.76868"
       id="text3050-7"
       sodipodi:linespacing="125%"
       transform="matrix(0.27099552,0.96258058,-0.96258058,0.27099552,2.2581273e-6,0)"><tspan
         sodipodi:role="line"
         id="tspan3052-79"
         x="300.16458"
         y="-344.76868">RemyCC-10x</tspan></text>
  </g>
  <g
     inkscape:groupmode="layer"
     id="layer3"
     inkscape:label="100x"
     style="opacity:0.5;display:inline">
    <path
       style="color:#0000ff;fill:none;stroke:#0000ff;stroke-width:4;stroke-linecap:round;stroke-linejoin:round;stroke-miterlimit:4;stroke-opacity:0.82352941000000002;stroke-dasharray:none"
       inkscape:connector-curvature="0"
       id="path108"
       d="m 62.22041,457.21973 0,-0.2 0.5,-29.7 0.5,19.8 0.5,-23.4 0.5,8.4 0.5,-12.8 0.5,-3.7 0.5,-10.6 0.6,-10.6 0.5,-26.4 0.5,24.1 0.5,-35 0.5,33.4 0.5,-11.6 0.5,-10.6 0.5,16.7 0.5,-31.4 0.5,3 0.5,-16.7 0.5,7 0.5,-10.2 0.5,5.7 0.5,-2.8 0.5,-7.7 0.5,-2.2 0.5,6.2 0.5,-21.2 0.5,7.6 0.5,-6.9 0.5,2.1 0.5,-5.7 0.5,0.9 0.5,-1.5 0.5,3.2 0.5,-8.3 0.5,-0.7 0.6,-1.5 0.5,0.4 0.5,-0.4 0.5,0.4 0.5,-1.5 0.5,-0.9 0.5,-2.1 0.5,3.2 0.5,-6.1 0.5,1.4 0.5,0.7 0.5,-1 0.5,-0.2 0.5,-4 0.5,-1.6 0.5,2.1 0.5,-4.1 0.5,-4 0.5,-1.3 0.5,-2 0.5,-0.4 0.5,-2 0.5,-0.6 0.5,-1.8 0.5,-2.2 0.5,-1.5 0.5,-1.9 0.5,-1.1 0.6,0 0.5,-2.1 0.5,0.5 0.5,-0.9 0.5,-1.9 0.5,-1 0.5,-0.8 0.5,-1.3 0.5,-3.8 0.5,-2.2 0.5,-0.5 0.5,-1.4 0.5,-1.2 0.5,-1.7 0.5,-1.5 0.5,-1.2 0.5,-0.5 0.5,-1.3 0.5,2.6 0.5,-1.8 0.5,-2 0.5,-0.6 0.5,-1.8 0.5,-1 0.5,-2.3 0.5,-0.6 0.5,-0.9 0.5,-0.4 0.6,-2.4 0.5,-1.6 0.5,-0.4 0.5,-1.6 0.5,-1.9 0.5,-0.9 0.5,-1.4 0.5,-1 0.5,-1.1 0.5,-1.7 0.5,-1.9 0.5,-1 0.5,-1.8 0.5,-2 0.5,-1.8 0.5,-0.2 0.5,-1 0.5,-0.2 0.5,-3.1 0.5,-1.1 0.5,-0.5 0.5,-0.9 0.5,-1.2 0.5,-2.4 0.5,0.5 0.5,-2.4 0.5,-2 0.6,-0.5 0.5,-1.8 0.5,-0.9 0.5,-0.7 0.5,-1.1 0.5,-0.1 0.5,-2 0.5,-1.2 0.5,-2.4 0.5,-0.4 0.5,-1.5 0.5,-1.3 0.5,-0.7 0.5,-1.1 0.5,-1.7 0.5,0 0.5,-1.3 0.5,-1.3 0.5,-0.7 0.5,-2.5 0.5,-1.4 0.5,-1.4 0.5,-1.8 0.5,0.2 0.5,-1 0.5,-1.2 0.5,-1.3 0.5,-1.4 0.6,-1 0.5,-1.2 0.5,-1.2 0.5,-1.5 0.5,-0.4 0.5,-1.9 0.5,-0.6 0.5,-1.6 0.5,-0.4 0.5,-1.6 0.5,-2.2 0.5,-1.5 0.5,-2 0.5,-1.4 0.5,-0.7 0.5,-1.3 0.5,-1.3 0.5,-0.5 0.5,-1.7 0.5,-3.3 0.5,-0.9 0.5,-1.1 0.5,-1.7 0.5,-1.2 0.5,-0.8 0.5,-1.1 0.5,0 0.5,-1.3 0.6,-1.3 0.5,-1.4 0.5,-1 0.5,-1.4 0.5,-1.1 0.5,-1.3 0.5,0.2 0.5,-1.4 0.5,-0.2 0.5,-1.1 0.5,-1.2 0.5,-1.2 0.5,-0.7 0.5,-1.5 0.5,4.8 0.5,-0.9 0.5,-0.9 0.5,-0.1 0.5,-0.8 0.5,-0.5 0.5,-0.4 0.5,-0.3 0.5,-0.3 0.5,-1 0.5,-0.9 0.5,-0.4 0.5,-0.9 0.5,0.8 0.6,-0.2 0.5,-0.7 0.5,-0.5 0.5,0 0.5,-0.9 0.5,1.9 0.5,-0.5 0.5,-1.3 0.5,-0.4 0.5,-0.5 0.5,-0.2 0.5,-1.9 0.5,0.2 0.5,-1.6 0.5,-1 0.5,-0.2 0.5,0.3 0.5,-2.9 0.5,-0.6 0.5,0.2 0.5,0.5 0.5,-0.6 0.5,-0.9 0.5,0 0.5,-0.8 0.5,0.2 0.5,-0.6 0.6,-0.1 0.5,1.2 0.5,-0.2 0.5,-1.3 0.5,-0.2 0.5,0.8 0.5,0.3 0.5,0.4 0.5,-0.3 0.5,4.8 0.5,0 0.5,-0.4 0.5,0.5 0.5,-0.2 0.5,0.5 0.5,-1.2 0.5,-0.3 0.5,0 0.5,-0.3 0.5,-0.2 0.5,-0.1 0.5,-0.6 0.5,-0.7 0.5,-1 0.5,-0.4 0.5,0.1 0.5,-0.5 0.5,-0.4 0.6,-0.5 0.5,-0.4 0.5,0.5 0.5,-1.7 0.5,0.6 0.5,-0.1 0.5,-1 0.5,-0.2 0.5,-0.8 0.5,-0.6 0.5,-0.8 0.5,-0.5 0.5,-0.400001 0.5,-0.3 0.5,-0.1 0.5,-0.1 0.5,0.4 0.5,-0.6 0.5,-0.6 0.5,-0.6 0.5,1 0.5,-0.3 0.5,-0.2 0.5,-0.2 0.5,-0.1 0.5,0 0.5,-0.7 0.5,0.4 0.6,0.6 0.5,-0.2 0.5,-0.4 0.5,0 0.5,-0.4 0.5,0.3 0.5,-0.4 0.5,0 0.5,-0.4 0.5,0.1 0.5,-0.2 0.5,0 0.5,0.2 0.5,-1.1 0.5,-0.3 0.5,-0.6 0.5,0.3 0.5,-0.7 0.5,0.3 0.5,-1.2 0.5,0.1 0.5,-0.1 0.5,3.2 0.5,1.1 0.5,0.6 0.5,1 0.5,-0.9 0.5,0.8 0.6,0.500001 0.5,0.1 0.5,-0.200001 0.5,-0.1 0.5,-0.6 0.5,-0.3 0.5,1.100001 0.5,0.8 0.5,0.2 0.5,0.7 0.5,0.5 0.5,0.4 0.5,0.5 0.5,0.4 0.5,0.2 0.5,0.8 0.5,0.7 0.5,0.1 0.5,1.3 0.5,0.4 0.5,0.2 0.5,0.3 0.5,0.1 0.5,-0.4 0.5,0.6 0.5,-0.8 0.5,-3.2 0.6,-5.400001 0.5,0.3 0.5,0.9 0.5,1.200001 0.5,0.8 0.5,0.9 0.5,0.5 0.5,0.8 0.5,0.8 0.5,0.5 0.5,0.6 0.5,1.3 0.5,0.6 0.5,1.2 0.5,0.5 0.5,1 0.5,0.6 0.5,0.8 0.5,1.2 0.5,0.4 0.5,1.1 0.5,0.8 0.5,0 0.5,1.4 0.5,1.2 0.5,0.5 0.5,0.5 0.5,0.8 0.6,0.6 0.5,-0.6 0.5,0.8 0.5,2.7 0.5,0.1 0.5,1.1 0.5,0.7 0.5,0.2 0.5,0.4 0.5,0.9 0.5,0.1 0.5,0.2 0.5,-0.1 0.5,0.4 0.5,-2.2 0.5,-0.5 0.5,0.2 0.5,-3.4 0.5,0.1 0.5,2.3 0.5,-0.3 0.5,-1.3 0.5,-1.2 0.5,-0.3 0.5,-2 0.5,0.3 0.5,-1.9 0.5,-0.4 0.6,-2 0.5,-0.2 0.5,-1.2 0.5,-0.9 0.5,-2.4 0.5,1.5 0.5,-2.2 0.5,0.1 0.5,0.6 0.5,-2.5 0.5,1.9 0.5,-3.4 0.5,-0.2 0.5,1.6 0.5,-0.2 0.5,-0.6 0.5,1.4 0.5,-0.3 0.5,2.2 0.5,-0.1 0.5,10.8 0.5,1.7 0.5,1.5 0.5,0.9 0.5,0.3 0.5,-0.4 0.5,-0.8 0.5,4.3 0.6,-0.3 0.5,1.3 0.5,1.6 0.5,-0.4 0.5,0.2 0.5,-0.1 0.5,1.3 0.5,0.2 0.5,0 0.5,-0.1 0.5,0 0.5,-0.3 0.5,-1.4 0.5,0.5 0.5,-1.1 0.5,-1.6 0.5,-0.5 0.5,-0.2 0.5,-1.8 0.5,-0.2 0.5,0.2 0.5,-1.6 0.5,-2.1 0.5,11.6 0.5,-0.7 0.5,-0.4 0.5,-1.2 0.6,-1.3 0.5,-1.1 0.5,-1.6 0.5,-0.3 0.5,-1 0.5,-1.8 0.5,-1.3 0.5,-1.1 0.5,-1.3 0.5,-2.2 0.5,2.9 0.5,-0.6 0.5,0.9 0.5,0.8 0.5,-0.5 0.5,-0.4 0.5,-2 0.5,0.8 0.5,-2.9 0.5,0.5 0.5,-0.2 0.5,0.7 0.5,0 0.5,-1.1 0.5,0.2 0.5,-2.8 0.5,-0.2 0.5,-0.2 0.6,0.1 0.5,-1.2 0.5,0.7 0.5,-0.8 0.5,-0.6 0.5,-1.7 0.5,0.1 0.5,-1.6 0.5,0 0.5,0.2 0.5,-0.4 0.5,-0.3 0.5,0.6 0.5,0.5 0.5,-0.3 0.5,-1.1 0.5,1.1 0.5,-1.6 0.5,0.1 0.5,0 0.5,-0.7 0.5,0.1 0.5,34.3 0.5,-1 0.5,-0.3 0.5,-0.1 0.5,-1.4 0.5,0.9 0.6,-0.8 0.5,-0.9 0.5,-0.5 0.5,-0.7 0.5,1 0.5,-1.3 0.5,-0.4 0.5,0.5 0.5,0.5 0.5,-1.2 0.5,-0.6 0.5,0.3 0.5,-1.1 0.5,0.9 0.5,-0.9 0.5,-2.1 0.5,0.1 0.5,0.3 0.5,2.5 0.5,2 0.5,1 0.5,-1.4 0.5,-1.7 0.5,-0.5 0.5,-1.3 0.5,-1.2 0.5,0.9 0.5,-0.9 0.6,-0.4 0.5,0.2 0.5,-0.3 0.5,-0.5 0.5,0.2 0.5,-1 0.5,0 0.5,0.2 0.5,0.6 0.5,-0.7 0.5,-0.2 0.5,-0.1 0.5,0.5 0.5,0 0.5,0.1 0.5,-0.3 0.5,-1.1 0.5,-0.1 0.5,-0.3 0.5,0.3 0.5,0.5 0.5,-0.6 0.5,0.8 0.5,0.1 0.5,0.2 0.5,0.5 0.5,0.2 0.6,-0.4 0.5,0.1 0.5,-0.2 0.5,0.4 0.5,-0.2 0.5,-0.1 0.5,0.8 0.5,0.2 0.5,-0.1 0.5,0 0.5,-0.5 0.5,-7.1 0.5,0.2 0.5,-0.4 0.5,0.3 0.5,-0.5 0.5,0.4 0.5,-1.3 0.5,-0.6 0.5,2.6 0.5,0 0.5,0.3 0.5,-1.2 0.5,-0.8 0.5,0.1 0.5,-1.2 0.5,0.2 0.5,0.2 0.6,-1.2 0.5,-0.3 0.5,0.1 0.5,-0.6 0.5,5.3 0.5,0 0.5,-0.7 0.5,0 0.5,0.5 0.5,-0.6 0.5,0.3 0.5,3.3 0.5,1.4 0.5,0.8 0.5,4.2 0.5,-1 0.5,1.7 0.5,-1.8 0.5,0 0.5,-0.2 0.5,0.3 0.5,1.3 0.5,0.9 0.5,-0.4 0.5,0.3 0.5,-1 0.5,-0.4 0.5,0.3 0.6,-0.1 0.5,-0.4 0.5,0.3 0.5,-0.1 0.5,0 0.5,0.8 0.5,0.1 0.5,1 0.5,-0.3 0.5,0.4 0.5,-0.9 0.5,0.6 0.5,1.1 0.5,0.6 0.5,-1.7 0.5,0.4 0.5,-0.4 0.5,1 0.5,-0.2 0.5,-0.4 0.5,0.3 0.5,-1.7 0.5,-7.8 0.5,-1.2 0.5,-4.7 0.5,-4.3 0.5,-5.4 0.5,-0.5 0.6,1.3 0.5,1 0.5,0.5 0.5,1.2 0.5,1.1 0.5,0.6 0.5,0.8 0.5,-0.4 0.5,0.6 0.5,2.2 0.5,1.2 0.5,1.2 0.5,1.2 0.5,-1.8 0.5,0.4 0.5,0.3 0.5,0.8 0.5,0.8 0.5,1 0.5,-1.2 0.5,-1.6 0.5,-0.3 0.5,-1 0.5,-0.3 0.5,-1.5 0.5,0 0.5,-0.1 0.6,-2.1 0.5,-1.3 0.5,1.8 0.5,0.1 0.5,-1.1 0.5,-0.1 0.5,-0.5 0.5,1 0.5,0 0.5,0.7 0.5,0.9 0.5,0.8 0.5,0 0.5,1.1 0.5,0.8 0.5,3.3 0.5,2.4 0.5,2.6 0.5,0.5 0.5,0.8 0.5,1.6 0.5,0 0.5,0.9 0.5,1.7 0.5,-0.8 0.5,1.6 0.5,1.3 0.5,0.1 0.6,0.3 0.5,-1.8 0.5,4.5 0.5,-2.2 0.5,1.6 0.5,-3.7 0.5,1.9 0.5,0.4 0.5,0.5 0.5,-0.9 0.5,-0.3 0.5,3 0.5,-1.2 0.5,-0.3 0.5,-0.5 0.5,-0.4 0.5,0 0.5,-0.2 0.5,-1.7 0.5,1.4 0.5,-2 0.5,-1.4 0.5,0.5 0.5,1.7 0.5,-0.8 0.5,1.3 0.5,-0.2 0.5,-0.8 0.6,0.3 0.5,-0.5 0.5,0.3 0.5,-1.2 0.5,0.9 0.5,1.3 0.5,-0.2 0.5,11.8 0.5,0.6 0.5,-1.1 0.5,1 0.5,0.1 0.5,0.4 0.5,-2.2 0.5,-1.2 0.5,-2.9 0.5,-0.7 0.5,-0.4 0.5,-0.6 0.5,-0.6 0.5,0.6 0.5,0.2 0.5,1.5 0.5,0.7 0.5,-0.1 0.5,0 0.5,0.5 0.5,0.4 0.6,0 0.5,1.3 0.5,-0.6 0.5,2.9 0.5,2.1 0.5,0.6 0.5,1 0.5,-0.2 0.5,-2.1 0.5,-1.7 0.5,-0.1 0.5,0 0.5,-2.1 0.5,-0.8 0.5,1 0.5,-3.2 0.5,-3.1 0.5,-3 0.5,1 0.5,-0.6 0.5,1.1 0.5,0.7 0.5,1 0.5,0.1 0.5,1.6 0.5,0.6 0.5,1.5 0.6,1.9 0.5,-0.7 0.5,1.1 0.5,1 0.5,0.8 0.5,-0.3 0.5,1.6 0.5,-0.5 0.5,0.3 0.5,-1.6 0.5,2 0.5,0.4 0.5,0 0.5,2 0.5,1.1 0.5,-0.6 0.5,-1.5 0.5,0 0.5,-1.8 0.5,-1.2 0.5,1.2 0.5,-2.4 0.5,0.9 0.5,1.4 0.5,0.9 0.5,0.8 0.5,0.9 0.5,1.3 0.6,1.1 0.5,1 0.5,1.2 0.5,0.5 0.5,1.2 0.5,0.6 0.5,1.7 0.5,1.6 0.5,0.8 0.5,1.1 0.5,1.4 0.5,1.2 0.5,0.9 0.5,0.9 0.5,0.4 0.5,1 0.5,1 0.5,1.4 0.5,1.2 0.5,2 0.5,0.9 0.5,1.9 0.5,1 0.5,1.6 0.5,2.3 0.5,0.7 0.5,1.2 0.5,1.1 0.6,1.2 0.5,2.5 0.5,0 0.5,0.4 0.5,0.9 0.5,0.4 0.5,0.6 0.5,1 0.5,0.6 0.5,1.1 0.5,1.3 0.5,1.2 0.5,1.1 0.5,1.2 0.5,0.9 0.5,1.1 0.5,1.2 0.5,1.5 0.5,1.4 0.5,1.7 0.5,1.5 0.5,1.7 0.5,1.5 0.5,1.5 0.5,1.3 0.5,1 0.5,1 0.5,1.3 0.6,1.3 0.5,0.8 0.5,-0.2 0.5,-0.7 0.5,-1.3 0.5,-2.1 0.5,-0.2 0.5,1.7 0.5,1.7 0.5,1.8 0.5,1.7 0.5,1.8 0.5,1.7 0.5,1.8 0.5,1.7 0.5,1.8 0.5,1.7 0.5,1.8 0.5,1.7 0.5,1.8 0.5,1.8 0.5,1.7 0.5,1.8 0.5,1.7 0.5,1.8 0.5,1.7 0.5,1.8 0.6,1.7 0.5,1.8 0.5,1.7 0.5,1.8 0.5,1.7 0.5,1.8 0.5,1.7 0.5,1.8 0.5,1.7 0.5,1.8 0.5,1.8 0.5,1.7 0.5,1.8 0.5,1.7 0.5,1.8 0.5,1.7 0.5,1.8 0.5,1.7 0.5,1.8 0.5,1.7 0.5,1.8 0.5,1.7 0.5,1.8 0.5,1.7 0.5,1.8 0.5,1.7 0.5,1.8 0.5,1.8 0.6,1.7 0.5,1.8 0.5,1.7 0.5,1.8 0.5,1.7 0.5,1.8 0.5,1.7 0.5,1.8 0.5,1.7 0.5,1.8 0.5,1.7 0.5,1.8 0.5,1.7 0.5,1.8 0.5,1.7 0.5,1.8 0.5,1.8 0.5,1.7 0.5,1.8 0.5,1.7 0.5,1.8 0.5,1.7 0.5,1.8 0.5,1.7 0.5,1.8 0.5,1.7 0.5,1.8 0.5,1.7 0.6,1.8 0.5,1.7 0.5,1.8 0.5,1.8 0.5,1.7 0.5,1.8 0.5,1.7 0.5,1.8 0.5,1.7 0.5,1.8 0.5,1.7 0.5,1.8 0.5,1.7 0.5,1.8 0.5,1.7 0.5,1.8 0.5,1.7 0.5,1.8 0.5,1.7 0.5,1.8 0.5,1.8 0.5,1.7 0.5,1.8 0.5,1.7 0.5,1.8 0.5,1.7 0.5,1.8 0.5,1.7 0.6,1.8 0.5,1.7 0.5,1.8 0.5,1.7 0.5,1.8 0.5,1.7 0.5,1.8 0.5,1.8 0.5,1.7 0.5,1.8 0.5,1.7 0.5,1.8 0.5,1.7 0.5,1.8 0.01,0" />
    <rect
       style="fill:#0000ff;fill-opacity:0.82352941000000002;stroke:none"
       id="rect4357-9-5"
       width="337.46658"
       height="15"
       x="142.04126"
       y="30" />
    <text
       xml:space="preserve"
       style="font-size:15px;font-style:normal;font-variant:normal;font-weight:normal;font-stretch:normal;text-align:start;line-height:100%;letter-spacing:0px;word-spacing:0px;writing-mode:lr-tb;text-anchor:start;fill:#ffffff;fill-opacity:1;stroke:none;font-family:Arial;-inkscape-font-specification:'Arial, Normal'"
       x="271.43433"
       y="41.467339"
       id="text4363-8-8"
       sodipodi:linespacing="100%"
       transform="scale(1.0041355,0.99588152)"><tspan
         sodipodi:role="line"
         id="tspan4365-7-0"
         x="271.43433"
         y="41.467339">100x range</tspan></text>
    <text
       xml:space="preserve"
       style="display:inline;font-size:15px;font-style:normal;font-variant:normal;font-weight:normal;font-stretch:normal;text-align:start;line-height:125%;letter-spacing:0px;word-spacing:0px;writing-mode:lr-tb;text-anchor:start;fill:#0000ff;fill-opacity:0.82352941000000002;stroke:none;font-family:Arial;-inkscape-font-specification:Arial"
       x="349.62134"
       y="-383.26041"
       id="text3050-1"
       sodipodi:linespacing="125%"
       transform="matrix(0.32721444,0.94495009,-0.94495009,0.32721444,1.5054182e-6,0)"><tspan
         sodipodi:role="line"
         id="tspan3052-6"
         x="349.62134"
         y="-383.26041">RemyCC-100x</tspan></text>
  </g>
  <g
     inkscape:groupmode="layer"
     id="layer4"
     inkscape:label="1000x"
     style="display:inline">
    <path
       style="color:#00ffff;fill:none;stroke:#004040;stroke-width:4;stroke-linecap:round;stroke-linejoin:round;stroke-miterlimit:4;stroke-opacity:0.82352941;stroke-dasharray:none"
       inkscape:connector-curvature="0"
       id="path115"
       d="m 59.22041,184.51973 0.5,-0.7 0.5,-1.6 0.5,-1.2 0.5,-0.8 0.5,-1.1 0.5,-1.3 0.5,-1.5 0.5,-1.3 0.5,-1 0.5,-1.5 0.5,-1.4 0.5,-1.8 0.5,-1.4 0.6,-1.8 0.5,-0.8 0.5,-1.5 0.5,-1.6 0.5,-1.9 0.5,-0.8 0.5,-2.8 0.5,-1.7 0.5,-1.6 0.5,-1.4 0.5,-1.7 0.5,-0.6 0.5,-1.7 0.5,0.3 0.5,-1.7 0.5,-1.1 0.5,-1.9 0.5,-1.6 0.5,-1.2 0.5,-0.9 0.5,-0.3 0.5,-2.2 0.5,-1.1 0.5,-1.2 0.5,-1.2 0.5,-1.2 0.5,-1.4 0.5,-1.3 0.6,-0.1 0.5,-0.2 0.5,-1 0.5,-0.1 0.5,-0.2 0.5,-0.1 0.5,-0.2 0.5,-0.4 0.5,0.2 0.5,0 0.5,-0.2 0.5,-0.1 0.5,-0.1 0.5,-0.6 0.5,0 0.5,-0.4 0.5,0.6 0.5,0.1 0.5,-0.1 0.5,-0.5 0.5,-0.2 0.5,0.5 0.5,-0.1 0.5,0.9 0.5,3.1 0.5,0.2 0.5,0.3 0.5,0.6 0.6,0.4 0.5,0 0.5,7.5 0.5,-0.2 0.5,-0.1 0.5,-0.2 0.5,3 0.5,-0.5 0.5,1.2 0.5,1.1 0.5,-0.3 0.5,1 0.5,0.3 0.5,0.4 0.5,-0.3 0.5,1.5 0.5,0.3 0.5,-0.6 0.5,-0.8 0.5,-0.1 0.5,-0.9 0.5,-0.4 0.5,-0.2 0.5,0.5 0.5,-0.7 0.5,-0.1 0.5,-0.8 0.5,0.1 0.6,-0.3 0.5,-1.9 0.5,-0.3 0.5,-0.3 0.5,-1.7 0.5,0.3 0.5,-0.2 0.5,-0.4 0.5,-3 0.5,-0.6 0.5,-0.3 0.5,-0.5 0.5,-1.6 0.5,-0.1 0.5,-0.9 0.5,0.8 0.5,-1.7 0.5,-0.2 0.5,-0.2 0.5,0.2 0.5,-0.6 0.5,-0.5 0.5,-0.5 0.5,-1.1 0.5,3.1 0.5,-0.9 0.5,-0.1 0.6,-0.4 0.5,2.2 0.5,-1.4 0.5,1.1 0.5,7.3 0.5,5.1 0.5,-0.1 0.5,-2.9 0.5,-2.3 0.5,1.4 0.5,-3.8 0.5,-1.8 0.5,3.1 0.5,-2.4 0.5,0.4 0.5,-2.6 0.5,0.9 0.5,-0.6 0.5,-1.3 0.5,2.1 0.5,-2.5 0.5,0.4 0.5,-1.3 0.5,-0.3 0.5,-2.6 0.5,-0.7 0.5,1.5 0.5,-1.7 0.6,0.5 0.5,-1.1 0.5,0.4 0.5,-0.3 0.5,-0.4 0.5,-1.3 0.5,0.9 0.5,0.4 0.5,-1.3 0.5,-0.2 0.5,-0.9 0.5,-3.3 0.5,-0.6 0.5,1.3 0.5,-0.2 0.5,0.1 0.5,-0.3 0.5,-1.9 0.5,-2.2 0.5,1.2 0.5,1.8 0.5,-1.8 0.5,0.9 0.5,-2 0.5,1.6 0.5,-0.7 0.5,0.1 0.5,-1.5 0.6,1.5 0.5,0.4 0.5,1.8 0.5,1.9 0.5,-1 0.5,-2.1 0.5,2.4 0.5,-0.7 0.5,-1 0.5,0.4 0.5,1.4 0.5,-0.9 0.5,0.2 0.5,-0.9 0.5,0.7 0.5,-0.3 0.5,-0.6 0.5,0.3 0.5,0.5 0.5,-0.3 0.5,-0.3 0.5,0.8 0.5,0.6 0.5,-0.3 0.5,0.9 0.5,-0.1 0.5,2.1 0.5,-0.2 0.6,-3.2 0.5,0.5 0.5,-1.2 0.5,-0.3 0.5,1 0.5,-0.5 0.5,-0.2 0.5,0.9 0.5,-3.8 0.5,0.2 0.5,0.3 0.5,1.4 0.5,-0.7 0.5,1 0.5,-0.1 0.5,0.4 0.5,-0.3 0.5,0.2 0.5,-1.1 0.5,-0.4 0.5,0.5 0.5,10.7 0.5,-0.4 0.5,0.4 0.5,0.3 0.5,-0.4 0.5,-0.2 0.6,0.2 0.5,-0.1 0.5,-0.3 0.5,0.2 0.5,-0.6 0.5,0.8 0.5,0.4 0.5,0 0.5,-0.3 0.5,-0.4 0.5,1.2 0.5,-0.6 0.5,0.3 0.5,-0.4 0.5,0.7 0.5,-1.1 0.5,-0.4 0.5,-0.2 0.5,-0.9 0.5,-0.4 0.5,1.4 0.5,-1.4 0.5,0.7 0.5,-0.2 0.5,2.4 0.5,1.1 0.5,-0.2 0.5,-0.1 0.6,0.4 0.5,-0.3 0.5,0.4 0.5,-0.2 0.5,-1.2 0.5,-0.7 0.5,4.6 0.5,-1.7 0.5,2.4 0.5,1.1 0.5,-4.2 0.5,1.4 0.5,-1.1 0.5,1.8 0.5,-3 0.5,-0.1 0.5,2.9 0.5,-2.5 0.5,1.9 0.5,1.3 0.5,-2 0.5,-1.1 0.5,-1 0.5,-0.7 0.5,0.4 0.5,-0.4 0.5,-4.6 0.5,4.4 0.6,-1.2 0.5,-1.4 0.5,0.1 0.5,-1.8 0.5,1.1 0.5,-1.5 0.5,-1.4 0.5,0.4 0.5,0.4 0.5,1.4 0.5,-0.2 0.5,10.6 0.5,-0.1 0.5,-1.3 0.5,0.7 0.5,0.1 0.5,0.3 0.5,0.1 0.5,-1.7 0.5,1.5 0.5,0 0.5,0.5 0.5,3.7 0.5,-1 0.5,-2.7 0.5,-0.2 0.5,-1.6 0.5,3.1 0.6,-1.3 0.5,0.1 0.5,-3.2 0.5,2.3 0.5,-1 0.5,-1.1 0.5,0.4 0.5,0.6 0.5,-1.9 0.5,2.3 0.5,-4.1 0.5,0 0.5,9.4 0.5,-1.2 0.5,-1.9 0.5,1 0.5,0.1 0.5,-2.3 0.5,1.1 0.5,1 0.5,0.9 0.5,-1.9 0.5,-1.9 0.5,3.3 0.5,-3 0.5,-1.7 0.5,-0.8 0.6,0.4 0.5,1.6 0.5,-0.2 0.5,0.2 0.5,1.2 0.5,-0.4 0.5,1 0.5,-1.2 0.5,0.1 0.5,-1.3 0.5,-0.2 0.5,-1.7 0.5,0.5 0.5,3.1 0.5,-1.7 0.5,-0.3 0.5,1.1 0.5,-1.1 0.5,0.6 0.5,-0.7 0.5,0.6 0.5,-0.2 0.5,-2.1 0.5,0.2 0.5,1.2 0.5,-0.3 0.5,0.2 0.5,0.4 0.6,1 0.5,-0.2 0.5,0.7 0.5,-2.3 0.5,0.1 0.5,-1.6 0.5,0.8 0.5,-1.4 0.5,-1.6 0.5,0.7 0.5,-0.8 0.5,-2.3 0.5,-0.9 0.5,-0.5 0.5,-3.9 0.5,-1.3 0.5,-1 0.5,0.9 0.5,-1.8 0.5,4.3 0.5,-1.5 0.5,0.3 0.5,1.3 0.5,-0.1 0.5,1.1 0.5,2.9 0.5,0.5 0.5,-1.5 0.6,0.8 0.5,0.4 0.5,0.7 0.5,5 0.5,-3 0.5,1.9 0.5,6.2 0.5,-0.8 0.5,1 0.5,-1.3 0.5,0.6 0.5,-1.2 0.5,1.3 0.5,1.4 0.5,0.6 0.5,2.3 0.5,3.6 0.5,1 0.5,70.1 0.5,-0.4 0.5,-0.2 0.5,-0.2 0.5,0 0.5,4.1 0.5,1 0.5,-0.2 0.5,-1.4 0.5,-26.6 0.6,-1.1 0.5,-5.5 0.5,-1 0.5,-2.3 0.5,-1 0.5,-2 0.5,0.7 0.5,-1 0.5,-0.1 0.5,1.1 0.5,-2.3 0.5,3 0.5,3.2 0.5,1.9 0.5,1.4 0.5,4.3 0.5,-2.2 0.5,0.7 0.5,12.8 0.5,7.2 0.5,2.4 0.5,1.8 0.5,3.9 0.5,-1.3 0.5,0.5 0.5,0.6 0.5,-1.2 0.6,-0.3 0.5,-1.2 0.5,-0.4 0.5,-0.7 0.5,-1.2 0.5,0.3 0.5,0.2 0.5,-1.8 0.5,-0.6 0.5,-0.5 0.5,-0.8 0.5,-1.1 0.5,0.3 0.5,-0.7 0.5,-0.4 0.5,-2 0.5,-1 0.5,-0.9 0.5,-1.3 0.5,-1 0.5,-0.7 0.5,-1.1 0.5,-0.5 0.5,-0.2 0.5,-1.3 0.5,-0.5 0.5,-1.4 0.5,-1 0.6,0.3 0.5,-1.4 0.5,-1 0.5,-1.1 0.5,-0.8 0.5,-1 0.5,-0.7 0.5,-1.1 0.5,-0.3 0.5,-1.6 0.5,-0.4 0.5,-1.5 0.5,-1.1 0.5,0.7 0.5,-1.5 0.5,-0.9 0.5,-0.8 0.5,-2.4 0.5,-2.1 0.5,-0.8 0.5,-0.9 0.5,-1.3 0.5,-1.9 0.5,-0.4 0.5,-0.7 0.5,-2.4 0.5,-0.8 0.5,0.8 0.6,-2 0.5,0.1 0.5,-1.6 0.5,-3.8 0.5,-2 0.5,0.7 0.5,-1 0.5,-1.5 0.5,-0.9 0.5,-2.1 0.5,-0.6 0.5,-1.7 0.5,-1.3 0.5,-1.3 0.5,-0.8 0.5,-1.4 0.5,-1.4 0.5,-1.2 0.5,-1.7 0.5,-0.7 0.5,-1.3 0.5,-1.1 0.5,-0.7 0.5,-0.9 0.5,-1.5 0.5,-1.2 0.5,-1.2 0.5,-2 0.6,0.6 0.5,-2.2 0.5,-0.4 0.5,-1.1 0.5,-0.6 0.5,-1.8 0.5,-0.7 0.5,-1.5 0.5,-0.2 0.5,-0.6 0.5,-1.3 0.5,0.3 0.5,0.3 0.5,-0.4 0.5,0.5 0.5,2.6 0.5,3.4 0.5,0.6 0.5,0.5 0.5,-0.2 0.5,0.4 0.5,0.9 0.5,1.2 0.5,0.7 0.5,0.6 0.5,0.4 0.5,0.3 0.6,0.4 0.5,0.9 0.5,0.3 0.5,0.8 0.5,0.8 0.5,0 0.5,-0.5 0.5,-0.2 0.5,2.4 0.5,-0.6 0.5,0.7 0.5,0.5 0.5,0.5 0.5,0.5 0.5,0.6 0.5,1.7 0.5,1.2 0.5,0.7 0.5,0.6 0.5,1 0.5,0.5 0.5,0.9 0.5,-0.1 0.5,0.5 0.5,0.6 0.5,0.6 0.5,0.7 0.5,0.4 0.6,0.4 0.5,0.7 0.5,0.7 0.5,0.6 0.5,0.6 0.5,0.3 0.5,0.8 0.5,0.4 0.5,0.6 0.5,0.4 0.5,0.6 0.5,0.1 0.5,0.5 0.5,0.6 0.5,0.8 0.5,0.7 0.5,0.6 0.5,0.3 0.5,2.3 0.5,-0.2 0.5,-0.1 0.5,-1.2 0.5,0.3 0.5,-0.5 0.5,-0.4 0.5,-0.9 0.5,0.5 0.5,-0.5 0.6,1.1 0.5,0.1 0.5,-0.8 0.5,-0.6 0.5,0.1 0.5,-1.1 0.5,-1 0.5,-0.8 0.5,-1 0.5,-0.1 0.5,-0.6 0.5,-2.2 0.5,-0.9 0.5,-1 0.5,-0.3 0.5,-0.6 0.5,-2.1 0.5,0.8 0.5,1.6 0.5,-0.4 0.5,-1.4 0.5,0 0.5,-1.2 0.5,-1.1 0.5,-1.1 0.5,-0.4 0.5,-2 0.5,-1.2 0.6,-0.7 0.5,-1.4 0.5,-0.2 0.5,-0.8 0.5,-0.2 0.5,0.1 0.5,-0.9 0.5,-1.2 0.5,-0.5 0.5,-0.1 0.5,-2.2 0.5,1 0.5,-1.5 0.5,0.2 0.5,0.2 0.5,-2 0.5,0.4 0.5,0 0.5,-0.1 0.5,0.2 0.5,1.2 0.5,0.9 0.5,1.1 0.5,0 0.5,0.9 0.5,0.4 0.5,0.4 0.6,1 0.5,0.7 0.5,1.1 0.5,0.5 0.5,0.8 0.5,0.4 0.5,1 0.5,1 0.5,1.2 0.5,1 0.5,1.4 0.5,0.7 0.5,0.9 0.5,1.1 0.5,2.5 0.5,3.4 0.5,1.3 0.5,1.4 0.5,0.3 0.5,3.7 0.5,1.1 0.5,2.2 0.5,0.7 0.5,2.1 0.5,17.5 0.5,-2.8 0.5,-2.6 0.5,3.3 0.6,-0.5 0.5,-1.2 0.5,0.8 0.5,0.7 0.5,-1.6 0.5,0.5 0.5,2.1 0.5,-0.7 0.5,-0.9 0.5,-0.5 0.5,0.1 0.5,-0.6 0.5,2.2 0.5,1.3 0.5,-0.2 0.5,-2.1 0.5,-0.5 0.5,3.1 0.5,-0.7 0.5,-6.2 0.5,-1 0.5,-0.7 0.5,-0.4 0.5,-0.3 0.5,-0.3 0.5,-1.4 0.5,-1.3 0.5,1 0.6,-1.4 0.5,0.2 0.5,-0.6 0.5,-1.2 0.5,-0.7 0.5,-0.5 0.5,-0.3 0.5,-0.3 0.5,-0.3 0.5,-0.2 0.5,-1.1 0.5,-0.8 0.5,0 0.5,-0.1 0.5,5.8 0.5,3.5 0.5,0.3 0.5,-0.3 0.5,-0.1 0.5,-1.6 0.5,-0.8 0.5,0.5 0.5,-1.1 0.5,0.2 0.5,0.3 0.5,-1.4 0.5,0.2 0.5,0.2 0.6,-0.2 0.5,0.3 0.5,-1.3 0.5,-0.8 0.5,-0.7 0.5,-5.8 0.5,-1.5 0.5,-1.6 0.5,-1.9 0.5,-1.2 0.5,1.9 0.5,-0.7 0.5,2.5 0.5,-0.3 0.5,-0.3 0.5,-0.8 0.5,0.3 0.5,5.2 0.5,1.2 0.5,0.4 0.5,-1.7 0.5,0 0.5,-3.6 0.5,-2.2 0.5,-0.5 0.5,-1 0.5,-1.2 0.6,-0.7 0.5,-2.1 0.5,-1.7 0.5,-0.4 0.5,-1.1 0.5,0.3 0.5,-1.4 0.5,1.3 0.5,-0.5 0.5,0.9 0.5,-0.1 0.5,-0.3 0.5,0.5 0.5,-1.2 0.5,0.1 0.5,1.9 0.5,-1.7 0.5,1.8 0.5,-1 0.5,1.3 0.5,0.1 0.5,-2.9 0.5,-1.9 0.5,0 0.5,-0.2 0.5,-1.9 0.5,0.7 0.5,0.6 0.6,-0.7 0.5,-0.5 0.5,-0.7 0.5,1.4 0.5,-0.1 0.5,0.4 0.5,0.7 0.5,-1.4 0.5,-1.7 0.5,0.9 0.5,0.1 0.5,-0.2 0.5,0.9 0.5,-1.1 0.5,0.3 0.5,0.3 0.5,-0.8 0.5,0.6 0.5,1.4 0.5,-0.3 0.5,0 0.5,40.4 0.5,-0.9 0.5,-31.8 0.5,0.9 0.5,-2.8 0.5,0.4 0.5,0.9 0.6,1.4 0.5,0.1 0.5,-1.2 0.5,-0.6 0.5,-1.2 0.5,1 0.5,-5.6 0.5,-0.2 0.5,0.2 0.5,-3.1 0.5,-0.2 0.5,3.5 0.5,0.1 0.5,-2.2 0.5,0.4 0.5,-0.1 0.5,-1 0.5,-0.7 0.5,-0.8 0.5,-1.5 0.5,-0.9 0.5,-1.6 0.5,-1.6 0.5,0.4 0.5,-2.7 0.5,-0.3 0.5,-0.6 0.5,-0.5 0.6,-0.9 0.5,1.1 0.5,1.3 0.5,1.4 0.5,-3.4 0.5,0.3 0.5,0.5 0.5,0.9 0.5,0 0.5,0.2 0.5,-1.4 0.5,1.6 0.5,0.5 0.5,1 0.5,-1.3 0.5,-0.7 0.5,-2.7 0.5,1.4 0.5,0.3 0.5,-1 0.5,-0.2 0.5,-2.7 0.5,0.1 0.5,-0.3 0.5,-1.5 0.5,-1.1 0.5,-0.5 0.6,-1.6 0.5,0.3 0.5,0.4 0.5,-1.6 0.5,-1.5 0.5,-0.8 0.5,0.6 0.5,2.8 0.5,-1.1 0.5,0.2 0.5,1.9 0.5,0.6 0.5,0.1 0.5,1.6 0.5,1.4 0.5,-1.3 0.5,1.4 0.5,2.4 0.5,1.4 0.5,3 0.5,1.3 0.5,-1.6 0.5,2.4 0.5,1.2 0.5,3.6 0.5,-0.3 0.5,0.1 0.5,3.4 0.6,-2.7 0.5,2.5 0.5,-2.2 0.5,0.8 0.5,0.4 0.5,1 0.5,1.5 0.5,0.1 0.5,1.7 0.5,0.6 0.5,0.8 0.5,1.2 0.5,1.1 0.5,2.3 0.5,1.5 0.5,0 0.5,1.1 0.5,1.4 0.5,1.3 0.5,1.5 0.5,1.3 0.5,1 0.5,1.6 0.5,0.2 0.5,1.7 0.5,0.9 0.5,0.7 0.5,0.7 0.6,1.4 0.5,0.2 0.5,1.9 0.5,0.8 0.5,0.9 0.5,1.9 0.5,2.2 0.5,-1.1 0.5,-0.4 0.5,0.2 0.5,0.6 0.5,1 0.5,0.9 0.5,1 0.5,1 0.5,1 0.5,1 0.5,0.9 0.5,0.9 0.5,1.1 0.5,1.1 0.5,1.2 0.5,1.1 0.5,1.1 0.5,1.2 0.5,1 0.5,1 0.5,1.3 0.6,1.1 0.5,1.1 0.5,1.2 0.5,1.1 0.5,1.1 0.5,0.9 0.5,0.7 0.5,0.9 0.5,-0.3 0.5,0.9 0.5,1 0.5,0.9 0.5,0.9 0.5,0.9 0.01,0" />
    <rect
       style="fill:#004040;fill-opacity:0.82352941;stroke:none"
       id="rect4357-9-5-6"
       width="503.01434"
       height="15"
       x="59.01424"
       y="45" />
    <text
       xml:space="preserve"
       style="font-size:15px;font-style:normal;font-variant:normal;font-weight:normal;font-stretch:normal;text-align:start;line-height:100%;letter-spacing:0px;word-spacing:0px;writing-mode:lr-tb;text-anchor:start;fill:#ffffff;fill-opacity:1;stroke:none;font-family:Arial;-inkscape-font-specification:'Arial, Normal'"
       x="267.00745"
       y="56.529369"
       id="text4363-8-8-2"
       sodipodi:linespacing="100%"
       transform="scale(1.0041355,0.99588152)"><tspan
         sodipodi:role="line"
         id="tspan4365-7-0-0"
         x="267.00745"
         y="56.529369">1000x range</tspan></text>
  </g>
  <g
     inkscape:groupmode="layer"
     id="layer5"
     inkscape:label="Cubic"
     style="display:inline">
    <path
       style="color:#ff9900;fill:none;stroke:#804000;stroke-width:2;stroke-linecap:round;stroke-linejoin:round;stroke-miterlimit:4;stroke-opacity:0.82352941;stroke-dasharray:none"
       inkscape:connector-curvature="0"
       id="path136"
       d="m 59.22041,373.71973 0.5,-13.1 0.5,2 0.5,-9 0.5,10.2 0.5,-8.7 0.5,27 0.5,-19.7 0.5,26.2 0.5,-13.7 0.5,8.2 0.5,-2.3 0.5,-0.5 0.5,-8.1 0.6,2.3 0.5,15.8 0.5,-7.6 0.5,-3.7 0.5,7.4 0.5,1.4 0.5,-3.3 0.5,-0.5 0.5,1.6 0.5,-17.1 0.5,-10.9 0.5,21.6 0.5,5.9 0.5,-10.7 0.5,-18.7 0.5,6.7 0.5,13.6 0.5,-18.1 0.5,23.7 0.5,-11.1 0.5,-5.5 0.5,6.7 0.5,4.8 0.5,-0.9 0.5,5.4 0.5,4.2 0.5,-11 0.5,1.6 0.6,-2.9 0.5,-12 0.5,4 0.5,10.3 0.5,-19.4 0.5,23.2 0.5,-22 0.5,14.1 0.5,-4.2 0.5,-5.9 0.5,2.5 0.5,1.3 0.5,-4 0.5,7.1 0.5,9.8 0.5,-6.4 0.5,-4.6 0.5,-4.8 0.5,-2.2 0.5,7.6 0.5,-8.5 0.5,-9 0.5,7.3 0.5,7.7 0.5,3.9 0.5,2.7 0.5,5.1 0.5,-9.5 0.6,-3.5 0.5,7.8 0.5,-7.7 0.5,-1.1 0.5,21.5 0.5,-6.2 0.5,4.1 0.5,3.3 0.5,-13.7 0.5,-7.5 0.5,16.3 0.5,-20.6 0.5,10.6 0.5,4.6 0.5,-0.9 0.5,-2.4 0.5,-1.5 0.5,0.7 0.5,-3.4 0.5,0.9 0.5,-4.2 0.5,18.5 0.5,-7.7 0.5,3.5 0.5,1.2 0.5,-1.5 0.5,12.3 0.5,-20.1 0.6,10.8 0.5,0 0.5,0.3 0.5,-6.4 0.5,-3.8 0.5,-3.1 0.5,7.3 0.5,-2.7 0.5,-3 0.5,3.2 0.5,9.7 0.5,-7.6 0.5,-0.5 0.5,4.5 0.5,12.6 0.5,-6.9 0.5,-12.4 0.5,1.4 0.5,3.3 0.5,-6.3 0.5,11 0.5,5.3 0.5,-1.3 0.5,0.2 0.5,-3.3 0.5,-4 0.5,1 0.6,2.7 0.5,-8.3 0.5,-5.8 0.5,8.9 0.5,1.5 0.5,-10.2 0.5,13.4 0.5,-7.9 0.5,-2.2 0.5,-4.4 0.5,6.4 0.5,-5.1 0.5,-2 0.5,1.1 0.5,1.5 0.5,10.7 0.5,5.5 0.5,-6.1 0.5,-1.2 0.5,2.1 0.5,2.5 0.5,-7.4 0.5,0.1 0.5,-4.5 0.5,8.9 0.5,-8.6 0.5,-4.8 0.5,-0.3 0.6,7.2 0.5,-6 0.5,-2.5 0.5,-0.1 0.5,-1 0.5,7.4 0.5,-6.6 0.5,3 0.5,1.6 0.5,-7.1 0.5,1.6 0.5,3.8 0.5,-1 0.5,0.1 0.5,-1.2 0.5,4.9 0.5,-9.1 0.5,8.1 0.5,3.1 0.5,-14.8 0.5,9.6 0.5,-7.3 0.5,-0.9 0.5,-2.4 0.5,2.4 0.5,4.2 0.5,7.6 0.5,-2.4 0.6,5.1 0.5,0.8 0.5,-0.6 0.5,-1.2 0.5,-5.1 0.5,1.6 0.5,0.3 0.5,-2.8 0.5,-1.6 0.5,-1.7 0.5,11 0.5,-3.2 0.5,-7.5 0.5,7.4 0.5,-1 0.5,-7.5 0.5,11.4 0.5,-8.2 0.5,0.8 0.5,-0.1 0.5,11.4 0.5,-15.5 0.5,16.2 0.5,1.8 0.5,-16.2 0.5,5.7 0.5,-1.2 0.5,8.1 0.6,-10.2 0.5,5.3 0.5,1.8 0.5,-0.1 0.5,6.7 0.5,-3.3 0.5,-9 0.5,0.7 0.5,-4.6 0.5,1 0.5,1.9 0.5,4.3 0.5,-4.1 0.5,0.9 0.5,2 0.5,1.6 0.5,-1.3 0.5,-3.5 0.5,2.3 0.5,-0.4 0.5,-0.3 0.5,1.1 0.5,-1.3 0.5,1.6 0.5,1.2 0.5,1.3 0.5,-2.8 0.6,3.8 0.5,-0.1 0.5,3 0.5,-2.6 0.5,3.1 0.5,0.3 0.5,2 0.5,2 0.5,-4.7 0.5,-0.3 0.5,-3 0.5,4 0.5,-4.1 0.5,3.3 0.5,-1.2 0.5,-4.6 0.5,2.6 0.5,1.7 0.5,1.3 0.5,-4.1 0.5,-0.5 0.5,2.3 0.5,7.7 0.5,-6.1 0.5,-2.4 0.5,0.3 0.5,3.7 0.5,-6.9 0.6,0.7 0.5,3.3 0.5,-0.2 0.5,-3.1 0.5,2.7 0.5,3.5 0.5,0.3 0.5,3.7 0.5,-1.9 0.5,-1.1 0.5,-0.3 0.5,8.5 0.5,-10.6 0.5,10.5 0.5,-9.1 0.5,2.4 0.5,-7 0.5,15 0.5,-7 0.5,-5.7 0.5,-0.9 0.5,8.6 0.5,-2.6 0.5,0.5 0.5,-6.6 0.5,3 0.5,1.6 0.5,-6.1 0.6,2.1 0.5,-1.3 0.5,10.2 0.5,-3.4 0.5,-7.7 0.5,13.3 0.5,-5.9 0.5,0.4 0.5,-10.3 0.5,9 0.5,1.4 0.5,-0.3 0.5,-0.4 0.5,0.8 0.5,-7.6 0.5,1.5 0.5,2.8 0.5,-3.8 0.5,8.3 0.5,-1.6 0.5,-6 0.5,-1.7 0.5,5.5 0.5,-2.9 0.5,-2 0.5,0.4 0.5,7.8 0.5,-5.2 0.6,-3.9 0.5,6.4 0.5,-1.7 0.5,1.2 0.5,-4.2 0.5,3.5 0.5,2.3 0.5,-6.5 0.5,3 0.5,6.6 0.5,-5.4 0.5,4.6 0.5,1.4 0.5,-3.1 0.5,6.6 0.5,-3.4 0.5,1.3 0.5,0.1 0.5,-0.7 0.5,2.3 0.5,-0.3 0.5,-4.8 0.5,1.5 0.5,3.5 0.5,-1.7 0.5,-4.1 0.5,-2.2 0.6,-0.9 0.5,-1.5 0.5,2.7 0.5,2.7 0.5,-1.7 0.5,-1.1 0.5,1.7 0.5,-0.9 0.5,-2.8 0.5,3.1 0.5,9.2 0.5,-1.4 0.5,2.6 0.5,-3.5 0.5,1.4 0.5,4.1 0.5,-1.6 0.5,-0.3 0.5,-2.8 0.5,3.3 0.5,0.3 0.5,-0.7 0.5,-2.9 0.5,-6.7 0.5,3.6 0.5,-3.2 0.5,1.4 0.5,1.1 0.6,6.4 0.5,-4.2 0.5,4.3 0.5,-1.6 0.5,1.8 0.5,8.8 0.5,-11.9 0.5,5.1 0.5,-4.1 0.5,4.7 0.5,7.6 0.5,-10.8 0.5,0.3 0.5,-9.4 0.5,3.2 0.5,-0.5 0.5,-1.9 0.5,1.8 0.5,-0.3 0.5,8.1 0.5,-7.9 0.5,0.3 0.5,8.7 0.5,-8.5 0.5,6.5 0.5,-6.4 0.5,-1.3 0.5,0.5 0.6,8.3 0.5,-10.1 0.5,9.4 0.5,-0.2 0.5,-1.4 0.5,-5.1 0.5,2.9 0.5,6.7 0.5,-8.5 0.5,-0.9 0.5,0 0.5,1 0.5,9.4 0.5,-10.3 0.5,2.9 0.5,-2.2 0.5,10.6 0.5,1.8 0.5,-9.3 0.5,8.5 0.5,-7.8 0.5,-0.9 0.5,-1.8 0.5,-0.6 0.5,-0.7 0.5,10.4 0.5,-7.6 0.5,-0.5 0.6,-2.3 0.5,11.4 0.5,-11.4 0.5,10.7 0.5,-0.6 0.5,-8.3 0.5,17.1 0.5,-9.1 0.5,2.4 0.5,-1.8 0.5,2.3 0.5,10.8 0.5,1.1 0.5,-8.2 0.5,8 0.5,-10.9 0.5,-0.2 0.5,0.5 0.5,11.9 0.5,-8.7 0.5,7.4 0.5,1.3 0.5,-9.6 0.5,-1.5 0.5,12 0.5,-1.1 0.5,1.1 0.6,-10.6 0.5,3.2 0.5,-2.4 0.5,8.3 0.5,-1 0.5,-11.9 0.5,0.9 0.5,10.3 0.5,1.4 0.5,-8.8 0.5,-1.8 0.5,25.8 0.5,-16.8 0.5,-1.3 0.5,1.2 0.5,-0.3 0.5,-0.5 0.5,5 0.5,13 0.5,-24.3 0.5,-2.9 0.5,1.7 0.5,-0.7 0.5,3.4 0.5,-4.1 0.5,-0.6 0.5,2.6 0.5,1 0.6,-2.7 0.5,6.6 0.5,-0.5 0.5,2.6 0.5,-1.9 0.5,6.5 0.5,-2.3 0.5,4.8 0.5,-0.7 0.5,0.4 0.5,-8.8 0.5,-0.4 0.5,2 0.5,-2.1 0.5,-1.3 0.5,9.1 0.5,3 0.5,-1.4 0.5,-11.7 0.5,1.2 0.5,1.9 0.5,0.4 0.5,-1.4 0.5,4.1 0.5,-3 0.5,-1.2 0.5,1.4 0.5,2.6 0.6,0.2 0.5,-1.2 0.5,3.2 0.5,-1.7 0.5,0 0.5,1.7 0.5,-0.6 0.5,3.1 0.5,-1.4 0.5,0.2 0.5,0.4 0.5,0.1 0.5,-2 0.5,1 0.5,-0.5 0.5,2 0.5,-1.7 0.5,0.5 0.5,-0.3 0.5,-0.6 0.5,0.5 0.5,-1.1 0.5,0.2 0.5,0.3 0.5,0.9 0.5,-0.4 0.5,0.5 0.5,0 0.6,-1.3 0.5,0.8 0.5,-1.4 0.5,1.9 0.5,1.8 0.5,-2 0.5,1.5 0.5,-1.8 0.5,0.5 0.5,2.9 0.5,-0.6 0.5,-0.3 0.5,-2.3 0.5,5 0.5,-3 0.5,-0.4 0.5,0.4 0.5,0.2 0.5,0.5 0.5,-0.8 0.5,0.8 0.5,1.9 0.5,-2.5 0.5,0.9 0.5,8.3 0.5,-15.6 0.5,15.2 0.6,-14.5 0.5,9.1 0.5,-0.8 0.5,1.4 0.5,0.6 0.5,1.3 0.5,-2.3 0.5,-0.4 0.5,0.7 0.5,1.9 0.5,-2.9 0.5,0.2 0.5,2.7 0.5,-3.3 0.5,3 0.5,-0.3 0.5,1.3 0.5,-1 0.5,1.1 0.5,-0.1 0.5,0.9 0.5,-1.6 0.5,-3.1 0.5,0.3 0.5,2.6 0.5,-2.5 0.5,0.1 0.5,1.9 0.6,-1.9 0.5,1.4 0.5,0.8 0.5,-1.8 0.5,-1.4 0.5,-0.1 0.5,0.3 0.5,-3.9 0.5,2.1 0.5,2.5 0.5,0.6 0.5,-0.8 0.5,-1.1 0.5,-5.2 0.5,5.7 0.5,-1.8 0.5,2.5 0.5,0.2 0.5,0.1 0.5,-0.7 0.5,0.9 0.5,0.1 0.5,-0.8 0.5,3.1 0.5,-1.7 0.5,-0.9 0.5,1.3 0.5,1 0.6,-1.4 0.5,0.9 0.5,-0.1 0.5,0.8 0.5,4 0.5,-0.7 0.5,0.6 0.5,0.4 0.5,0.5 0.5,-1.8 0.5,3.6 0.5,-0.5 0.5,-3.8 0.5,2.2 0.5,-0.1 0.5,-0.2 0.5,0.4 0.5,-0.9 0.5,3.3 0.5,-1.6 0.5,1.3 0.5,-3.5 0.5,3.1 0.5,0.8 0.5,-0.6 0.5,1.6 0.5,0.2 0.5,0 0.6,0.8 0.5,-0.7 0.5,1.5 0.5,0.8 0.5,-1.4 0.5,1.9 0.5,-0.3 0.5,-0.5 0.5,0.6 0.5,0.1 0.5,-1.5 0.5,-1.5 0.5,2.3 0.5,-2.7 0.5,2.6 0.5,-0.3 0.5,-2.4 0.5,3 0.5,0.5 0.5,0.3 0.5,-1.2 0.5,1.3 0.5,-0.2 0.5,-0.4 0.5,2.4 0.5,0.9 0.5,-3.3 0.6,3 0.5,2.4 0.5,-2 0.5,-0.3 0.5,2.3 0.5,-1.1 0.5,0.5 0.5,-2.4 0.5,0.6 0.5,1.3 0.5,-1.7 0.5,-0.2 0.5,0.9 0.5,-2.7 0.5,-3.3 0.5,1.5 0.5,-0.3 0.5,0.8 0.5,-1.4 0.5,-0.7 0.5,3.8 0.5,-0.9 0.5,3.6 0.5,-4.2 0.5,0.1 0.5,2.5 0.5,-0.1 0.5,0.7 0.6,-0.5 0.5,1.1 0.5,-1.9 0.5,0.6 0.5,1.2 0.5,-1.5 0.5,0.9 0.5,-0.1 0.5,-1.2 0.5,-1.1 0.5,1.8 0.5,-2.8 0.5,3.7 0.5,4.1 0.5,-2.1 0.5,1.7 0.5,-2.2 0.5,4.2 0.5,-1 0.5,1.7 0.5,0.1 0.5,-0.4 0.5,0.9 0.5,0.3 0.5,0.8 0.5,-2 0.5,1.4 0.5,2.2 0.6,1.7 0.5,-0.7 0.5,0.1 0.5,-2.2 0.5,0.2 0.5,0.2 0.5,0.1 0.5,-1.9 0.5,1.9 0.5,0.7 0.5,-0.1 0.5,1 0.5,1 0.5,4.8 0.5,-5.7 0.5,1.4 0.5,-0.5 0.5,1.6 0.5,2.8 0.5,0.5 0.5,0.4 0.5,1.8 0.5,-1.6 0.5,0.9 0.5,-5.6 0.5,-1.5 0.5,-0.3 0.5,1.8 0.6,-0.5 0.5,0.3 0.5,-1.2 0.5,0.8 0.5,0.9 0.5,-1.1 0.5,3.2 0.5,1.9 0.5,-0.2 0.5,-0.4 0.5,0.9 0.5,-1.6 0.5,0.6 0.5,0.4 0.5,-1.7 0.5,2.5 0.5,-2.9 0.5,2 0.5,3 0.5,-3.3 0.5,1.9 0.5,-1.1 0.5,-1.6 0.5,1.5 0.5,-1.3 0.5,-0.5 0.5,0.6 0.6,4.5 0.5,-1 0.5,0.1 0.5,1.4 0.5,-2.3 0.5,-1.9 0.5,-15.6 0.5,-3.7 0.5,0.7 0.5,-0.4 0.5,1.2 0.5,-1.2 0.5,-1.2 0.5,2 0.5,-3.9 0.5,2 0.5,-1.4 0.5,0.1 0.5,1.5 0.5,-1.4 0.5,1 0.5,-0.9 0.5,0.5 0.5,3.1 0.5,-0.5 0.5,0.8 0.5,-0.3 0.5,0.7 0.6,2 0.5,0.2 0.5,4 0.5,-2.1 0.5,1.4 0.5,0.4 0.5,-1.9 0.5,1.6 0.5,-2.4 0.5,0.1 0.5,1.8 0.5,-3.2 0.5,1.6 0.5,0.9 0.5,-2.6 0.5,3 0.5,-1.2 0.5,-1.2 0.5,1.1 0.5,0.1 0.5,0.5 0.5,-2.1 0.5,0.1 0.5,2.8 0.5,4.8 0.5,-1.1 0.5,4.6 0.5,-4.6 0.6,1.3 0.5,-0.2 0.5,-0.6 0.5,2 0.5,-1.7 0.5,0.2 0.5,1.8 0.5,-3.3 0.5,7.5 0.5,0.9 0.5,0.3 0.5,-3 0.5,1.8 0.5,1.1 0.5,-9.7 0.5,1.7 0.5,0.5 0.5,1.1 0.5,7 0.5,-5.8 0.5,1.3 0.5,-1.5 0.5,-1 0.5,13.7 0.5,-9.8 0.5,-0.8 0.5,1.8 0.5,2.4 0.6,-3.4 0.5,-0.7 0.5,2.2 0.5,-0.7 0.4,10.6 0.01,0" />
    <text
       xml:space="preserve"
       style="font-size:15px;font-style:normal;font-variant:normal;font-weight:normal;font-stretch:normal;text-align:start;line-height:100%;letter-spacing:0px;word-spacing:0px;writing-mode:lr-tb;text-anchor:start;fill:#804000;fill-opacity:0.82352941;stroke:none;font-family:Arial;-inkscape-font-specification:'Arial, Normal'"
       x="288.81082"
       y="372.4845"
       id="text4470"
       sodipodi:linespacing="100%"
       transform="matrix(0.98661016,0.16309619,-0.16309619,0.98661016,7.5270913e-7,0)"><tspan
         sodipodi:role="line"
         id="tspan4472"
         x="288.81082"
         y="372.4845">Cubic</tspan></text>
    <path
       style="color:#ff9900;fill:none;stroke:#804000;stroke-width:1;stroke-linecap:round;stroke-linejoin:round;stroke-opacity:0.82352941"
       inkscape:connector-curvature="0"
       id="path138"
       d="m 501.92041,457.21973 0.5,-7.2 0.4,7.2 m 0.2,0 0.4,-4.8 0.5,-4.9 0.5,8 0.5,-6.7 0.5,7.9 0.2,0.5 m 0.3,0 0.5,-9 0.5,-0.6 0.5,8.7 0.5,-4.4 0.5,1.3 0.5,-6.4 0.5,9 0.5,-4.4 0.5,-1.1 0.5,-3.3 0.5,6.2 0.5,-7.4 0.5,5.4 0.5,2.9 0.6,0.9 0.5,-2 0.5,-7.1 0.5,4.9 0.5,0.9 0.5,-1.8 0.5,-5.3 0.5,-0.4 0.5,8.5 0.5,-2 0.5,-8.5 0.5,6.5 0.5,1.7 0.5,0.5 0.5,3.4 0.5,0.3 0.5,-7.9 0.4,10.5 m 0.4,0 0.2,-1 0.5,-1 0.5,-2.8 0.5,-0.2 0.5,2.5 0.5,0.8 0.5,-2.1 0.5,2.7 0.5,-8.5 0.5,4.9 0.6,-6.1 0.5,7.6 0.5,-10.3 0.5,4.2 0.5,6.6 0.5,-7 0.5,5.7 0.5,0.6 0.5,-4.7 0.5,3.5 0.5,-2.1 0.5,-0.5 0.5,3 0.5,1.5 0.5,1.7 0.5,-1.6 0.5,2.2 0.5,-1.7 0.2,2.1 m 0.6,0 0.2,-1.9 0.5,0.5 0.5,-2.6 0.5,3.7 0.5,-3.5 0.5,2.3 0.5,0 0.2,1.5 0.01,0" />
    <text
       xml:space="preserve"
       style="font-size:15px;font-style:normal;font-variant:normal;font-weight:normal;font-stretch:normal;text-align:start;line-height:125%;letter-spacing:0px;word-spacing:0px;writing-mode:lr-tb;text-anchor:start;fill:#004040;fill-opacity:0.82352941;stroke:none;font-family:Arial;-inkscape-font-specification:Arial"
       x="359.43274"
       y="-382.0986"
       id="text3050"
       sodipodi:linespacing="125%"
       transform="matrix(0.46307475,0.88631923,-0.88631923,0.46307475,0,0)"><tspan
         sodipodi:role="line"
         id="tspan3052"
         x="359.43274"
         y="-382.0986">RemyCC-1000x</tspan></text>
  </g>
  <g
     inkscape:groupmode="layer"
     id="layer6"
     inkscape:label="Cubic-over-sfqCoDeL"
     style="display:inline">
    <path
       style="color:#0099a1;fill:none;stroke:#005a80;stroke-width:2;stroke-linecap:round;stroke-linejoin:round;stroke-miterlimit:4;stroke-opacity:0.82352941;stroke-dasharray:none"
       inkscape:connector-curvature="0"
       id="path145"
       d="m 59.22041,184.41973 0.5,-1.1 0.5,2 0.5,-0.7 0.5,2.9 0.5,0.3 0.5,-5 0.5,2.4 0.5,-0.1 0.5,-1.8 0.5,1.6 0.5,0 0.5,0.8 0.5,-1.5 0.6,-0.8 0.5,3 0.5,-1.6 0.5,-2.1 0.5,2.1 0.5,-0.9 0.5,0.7 0.5,-0.2 0.5,3 0.5,0 0.5,-0.3 0.5,-0.3 0.5,0.7 0.5,1.1 0.5,0 0.5,-4 0.5,-0.3 0.5,3.6 0.5,0.6 0.5,-2.4 0.5,0.9 0.5,-2.4 0.5,3.2 0.5,-1.8 0.5,-0.4 0.5,2.3 0.5,0.2 0.5,-1.6 0.6,-1.7 0.5,0 0.5,-0.5 0.5,3.7 0.5,4.3 0.5,-4.5 0.5,1.9 0.5,-2.1 0.5,0.4 0.5,1.5 0.5,1.4 0.5,-3.6 0.5,2.7 0.5,0.7 0.5,-0.8 0.5,-0.6 0.5,0.5 0.5,3.2 0.5,-2.8 0.5,-0.1 0.5,-1.8 0.5,2.9 0.5,0.9 0.5,-3.5 0.5,1.3 0.5,3.4 0.5,-4.6 0.5,0.5 0.6,0.7 0.5,0.2 0.5,0 0.5,1.1 0.5,-2.6 0.5,1.6 0.5,2.8 0.5,-1.1 0.5,-0.3 0.5,2.3 0.5,-4.7 0.5,-1.1 0.5,1.1 0.5,2.2 0.5,-0.1 0.5,-3.2 0.5,1.7 0.5,-0.2 0.5,3.6 0.5,-0.5 0.5,1.9 0.5,-3.1 0.5,-0.5 0.5,1.5 0.5,1.4 0.5,-4 0.5,2.3 0.5,-0.2 0.6,2.2 0.5,0 0.5,-0.8 0.5,-1.2 0.5,0.8 0.5,-0.3 0.5,3.1 0.5,-0.5 0.5,-4.8 0.5,8.1 0.5,-2.8 0.5,1 0.5,-4 0.5,2.8 0.5,-1.2 0.5,1.1 0.5,-1.8 0.5,0.5 0.5,-0.7 0.5,0.2 0.5,0.9 0.5,-1.6 0.5,0.4 0.5,3.4 0.5,-1.5 0.5,1.1 0.5,0.3 0.6,0.7 0.5,0.7 0.5,-1.8 0.5,-0.8 0.5,0.9 0.5,1.5 0.5,-4.1 0.5,0.4 0.5,2 0.5,1.9 0.5,0 0.5,-1.8 0.5,0.7 0.5,1.6 0.5,-0.9 0.5,-1 0.5,2.8 0.5,-1.4 0.5,0.5 0.5,3.3 0.5,0.5 0.5,-2.8 0.5,4.3 0.5,-4.9 0.5,-0.6 0.5,1 0.5,0.7 0.5,1.6 0.6,-2.6 0.5,-1.5 0.5,2.8 0.5,-0.6 0.5,2.3 0.5,-1.7 0.5,-0.4 0.5,-0.1 0.5,4 0.5,-3 0.5,0.9 0.5,0.3 0.5,0.6 0.5,2.9 0.5,-1.4 0.5,-3 0.5,4.4 0.5,-4.4 0.5,2.9 0.5,0.3 0.5,-3.1 0.5,2.6 0.5,0.8 0.5,1.8 0.5,-3.4 0.5,-0.2 0.5,3.2 0.5,1.5 0.6,-2.9 0.5,0.8 0.5,0.8 0.5,-1.7 0.5,2.1 0.5,0.3 0.5,-1.6 0.5,1.4 0.5,-2.8 0.5,3.1 0.5,1.4 0.5,1.6 0.5,-3.8 0.5,-3.7 0.5,3.7 0.5,2.8 0.5,-2.5 0.5,-0.6 0.5,1.7 0.5,0.3 0.5,3 0.5,-3 0.5,0.4 0.5,1.9 0.5,-1.9 0.5,-0.9 0.5,-0.6 0.5,1.2 0.6,2.5 0.5,-1 0.5,-1 0.5,1.6 0.5,0.9 0.5,0.5 0.5,-2 0.5,-0.1 0.5,4.3 0.5,-3.3 0.5,-0.1 0.5,-1 0.5,0.2 0.5,2.6 0.5,0.8 0.5,-3.5 0.5,2.7 0.5,2.5 0.5,-1.8 0.5,-0.5 0.5,0.3 0.5,-0.3 0.5,-0.9 0.5,-0.2 0.5,1.9 0.5,-0.8 0.5,2.5 0.6,-0.7 0.5,1.7 0.5,1.3 0.5,-3.7 0.5,2.8 0.5,-2.8 0.5,3.6 0.5,-2.2 0.5,0.1 0.5,1.7 0.5,-0.1 0.5,1 0.5,0.5 0.5,-2.8 0.5,6.5 0.5,-2.5 0.5,1.8 0.5,-0.9 0.5,2.2 0.5,-3.5 0.5,1.9 0.5,-0.4 0.5,0 0.5,1.1 0.5,-5.2 0.5,0.9 0.5,3.3 0.5,1.3 0.6,-3.8 0.5,5.8 0.5,-1.2 0.5,-1.8 0.5,-0.6 0.5,1.2 0.5,-1.6 0.5,0.4 0.5,0.4 0.5,0 0.5,0.8 0.5,1.8 0.5,0.2 0.5,-1.3 0.5,2.3 0.5,-2.9 0.5,3.1 0.5,-1.3 0.5,0.1 0.5,-1.6 0.5,3 0.5,-1.1 0.5,-0.5 0.5,1.2 0.5,2.5 0.5,-2.4 0.5,-1.5 0.5,2.6 0.6,4.8 0.5,-4 0.5,0.5 0.5,2.9 0.5,-1.8 0.5,-1.8 0.5,-1.3 0.5,1.9 0.5,0.6 0.5,-0.3 0.5,0.6 0.5,-1.7 0.5,0.5 0.5,0.7 0.5,-2.2 0.5,-2.8 0.5,3.1 0.5,1.8 0.5,0.1 0.5,3 0.5,-0.7 0.5,2.7 0.5,-4.1 0.5,2.6 0.5,-1.5 0.5,0.6 0.5,-1.5 0.5,4.2 0.6,-2.4 0.5,2.6 0.5,-1.1 0.5,-1.3 0.5,1.8 0.5,-2.6 0.5,2.8 0.5,0.7 0.5,2.1 0.5,0 0.5,-0.2 0.5,-2.4 0.5,0.1 0.5,2.5 0.5,-5.3 0.5,0.5 0.5,0.4 0.5,2.6 0.5,-4.5 0.5,3.2 0.5,2 0.5,-0.3 0.5,0.3 0.5,1.3 0.5,-0.2 0.5,-3.3 0.5,3.3 0.6,-0.3 0.5,-0.9 0.5,1.8 0.5,-0.8 0.5,1.4 0.5,-0.4 0.5,-0.3 0.5,-0.9 0.5,3.1 0.5,-1.2 0.5,1.1 0.5,0.7 0.5,0.9 0.5,-1.2 0.5,2 0.5,-0.5 0.5,-1.5 0.5,0.3 0.5,2.1 0.5,-3.5 0.5,-0.2 0.5,2.1 0.5,3.6 0.5,-1.1 0.5,-3.4 0.5,1 0.5,1.3 0.5,-0.8 0.6,-0.2 0.5,-0.1 0.5,-1.6 0.5,4.3 0.5,-2.6 0.5,2.7 0.5,-2 0.5,-1 0.5,-2.3 0.5,5.2 0.5,-1.3 0.5,1.7 0.5,-3.5 0.5,3.7 0.5,-0.3 0.5,1 0.5,2.3 0.5,-3.1 0.5,0.4 0.5,-0.6 0.5,-1.4 0.5,4 0.5,0.2 0.5,-2 0.5,0.3 0.5,-0.7 0.5,0.1 0.5,2 0.6,-0.4 0.5,-1 0.5,1.7 0.5,0.2 0.5,-2 0.5,1.4 0.5,-1.3 0.5,2.3 0.5,-2.6 0.5,4.2 0.5,-0.5 0.5,-1.4 0.5,2.1 0.5,1.5 0.5,0.1 0.5,-0.8 0.5,-2.2 0.5,1.9 0.5,-1.4 0.5,-1.2 0.5,1.4 0.5,0.6 0.5,-0.9 0.5,1 0.5,-2.3 0.5,1.9 0.5,0.5 0.5,2 0.6,-2.4 0.5,-0.8 0.5,1.7 0.5,1.6 0.5,0 0.5,2.1 0.5,-3.3 0.5,1.4 0.5,-1.5 0.5,0.8 0.5,0.5 0.5,3 0.5,-0.5 0.5,1.2 0.5,0.4 0.5,-1.7 0.5,3.1 0.5,-2.7 0.5,-1.9 0.5,3.6 0.5,-0.7 0.5,-0.1 0.5,4.2 0.5,-2.2 0.5,-0.9 0.5,4.2 0.5,-1 0.6,-0.3 0.5,-1.1 0.5,2 0.5,3.3 0.5,-0.4 0.5,-1.4 0.5,-0.3 0.5,0.9 0.5,-0.4 0.5,0.1 0.5,-2.9 0.5,0.7 0.5,1.8 0.5,2.5 0.5,-1.3 0.5,1.5 0.5,-1.6 0.5,3 0.5,-1.9 0.5,1.9 0.5,-0.9 0.5,-0.9 0.5,2.2 0.5,-3.1 0.5,0 0.5,2.4 0.5,-0.4 0.5,-0.3 0.6,-0.3 0.5,0 0.5,2.8 0.5,-0.9 0.5,0.3 0.5,0.2 0.5,0.6 0.5,-0.8 0.5,0.7 0.5,-0.2 0.5,1 0.5,-0.3 0.5,2.3 0.5,-0.9 0.5,-1 0.5,1.4 0.5,0.1 0.5,-2.6 0.5,1 0.5,1.2 0.5,0 0.5,0.6 0.5,0.2 0.5,0.3 0.5,-2 0.5,3.5 0.5,-1.9 0.5,-0.6 0.6,0.5 0.5,0.7 0.5,4.1 0.5,-5.5 0.5,5.4 0.5,0.7 0.5,-2.2 0.5,3.2 0.5,-1.2 0.5,-1 0.5,1.8 0.5,-1.1 0.5,0.5 0.5,-1.1 0.5,2.4 0.5,0.8 0.5,-1.2 0.5,-0.1 0.5,1.7 0.5,-1.4 0.5,-2.7 0.5,0.6 0.5,-0.3 0.5,4.5 0.5,-2.9 0.5,1.8 0.5,-1.6 0.5,0.3 0.6,-1 0.5,3.1 0.5,-1.8 0.5,0.1 0.5,1.5 0.5,-2 0.5,3.3 0.5,-2.1 0.5,-0.8 0.5,3.7 0.5,-2.1 0.5,0.8 0.5,0 0.5,6.3 0.5,-0.4 0.5,-1.6 0.5,4.5 0.5,-3.3 0.5,2.2 0.5,0.7 0.5,2.6 0.5,-2.2 0.5,1.7 0.5,-2.6 0.5,-0.2 0.5,1.3 0.5,-0.3 0.6,0 0.5,0.4 0.5,1.9 0.5,-3.5 0.5,0.7 0.5,0.8 0.5,1.4 0.5,-0.7 0.5,-4.5 0.5,5.2 0.5,0.6 0.5,-1.4 0.5,-0.2 0.5,-1.9 0.5,3.5 0.5,-1.9 0.5,-0.1 0.5,0.7 0.5,1.4 0.5,-1 0.5,1 0.5,1.5 0.5,0 0.5,-0.8 0.5,2 0.5,0.5 0.5,-1.2 0.5,2.1 0.6,-3.8 0.5,0.9 0.5,1.4 0.5,1.2 0.5,0.9 0.5,-2.7 0.5,0.7 0.5,-1.4 0.5,2.9 0.5,0.4 0.5,-0.7 0.5,-0.3 0.5,-2.1 0.5,3.1 0.5,-0.9 0.5,0.1 0.5,-0.3 0.5,3.2 0.5,1.7 0.5,1.2 0.5,-3 0.5,1.4 0.5,-1.5 0.5,-1.3 0.5,0.4 0.5,2.6 0.5,-2 0.5,5.7 0.6,-2.9 0.5,0.2 0.5,-1.5 0.5,-2.2 0.5,1.1 0.5,5.8 0.5,-1.3 0.5,-0.1 0.5,0.4 0.5,2.1 0.5,2.3 0.5,-0.4 0.5,3.4 0.5,-3.5 0.5,1.7 0.5,1.8 0.5,-1.5 0.5,-0.1 0.5,-1.2 0.5,1.3 0.5,-2 0.5,2.2 0.5,1.9 0.5,1.7 0.5,-2.2 0.5,-3.2 0.5,2 0.5,0.4 0.6,4.8 0.5,-4 0.5,0.1 0.5,7.9 0.5,0.4 0.5,3 0.5,-0.8 0.5,1.2 0.5,-2.5 0.5,1 0.5,-2 0.5,1.7 0.5,-1.7 0.5,-1.1 0.5,1.1 0.5,0.2 0.5,4.9 0.5,-0.3 0.5,-1.7 0.5,-1 0.5,-2.5 0.5,3.8 0.5,0.1 0.5,-1.2 0.5,7.9 0.5,-4.7 0.5,-1.3 0.6,1.2 0.5,1 0.5,-1.1 0.5,3 0.5,-1.5 0.5,2.2 0.5,-1.5 0.5,-1.4 0.5,0.5 0.5,0.4 0.5,1 0.5,-0.8 0.5,2.8 0.5,1.9 0.5,-4.2 0.5,6.6 0.5,-5.8 0.5,4.5 0.5,0.8 0.5,-1.1 0.5,-1.9 0.5,2.9 0.5,1.6 0.5,-2.5 0.5,-2 0.5,2.2 0.5,3.3 0.5,-4.3 0.6,2.9 0.5,-1.5 0.5,3.5 0.5,-1.7 0.5,1.6 0.5,-2 0.5,-0.6 0.5,-0.9 0.5,1.4 0.5,0.1 0.5,0.8 0.5,0.3 0.5,-0.3 0.5,-2 0.5,5 0.5,-0.7 0.5,0.8 0.5,-2 0.5,2 0.5,0.9 0.5,-1.3 0.5,-0.2 0.5,2 0.5,-2 0.5,2.5 0.5,1.7 0.5,0.5 0.5,1.8 0.6,-1.7 0.5,1.7 0.5,0.9 0.5,1.2 0.5,0.9 0.5,0.8 0.5,1.1 0.5,1.3 0.5,-2.7 0.5,4.5 0.5,-2 0.5,0.1 0.5,1.8 0.5,0.6 0.5,1.3 0.5,0.5 0.5,-0.3 0.5,1.1 0.5,-1.3 0.5,1.5 0.5,3 0.5,-1.1 0.5,4.3 0.5,-5.1 0.5,1.7 0.5,3.9 0.5,-4.7 0.5,2.9 0.6,3.2 0.5,-0.7 0.5,-1.8 0.5,0.1 0.5,3.2 0.5,1.5 0.5,-0.8 0.5,-0.9 0.5,-1.8 0.5,2.5 0.5,0.5 0.5,-0.4 0.5,-0.8 0.5,2.7 0.5,0 0.5,0.2 0.5,0.8 0.5,-4 0.5,0.1 0.5,0.9 0.5,2.3 0.5,0.6 0.5,2.8 0.5,-7.3 0.5,3.1 0.5,-1.5 0.5,1.9 0.6,0.7 0.5,-0.7 0.5,0.3 0.5,1 0.5,-1.1 0.5,3 0.5,-1.5 0.5,2.6 0.5,0.1 0.5,1.6 0.5,-4.9 0.5,4.2 0.5,-6.9 0.5,2.6 0.5,0.8 0.5,3.6 0.5,-4.4 0.5,4.9 0.5,-4.1 0.5,2.9 0.5,1.8 0.5,0.7 0.5,1.9 0.5,-3.4 0.5,-1.1 0.5,3.8 0.5,-0.1 0.5,1.8 0.6,-5.4 0.5,3 0.5,-0.2 0.5,3.9 0.5,-2.9 0.5,2.3 0.5,-1.4 0.5,5.9 0.5,-3.4 0.5,0 0.5,-0.8 0.5,-4.7 0.5,3.5 0.5,0.9 0.5,-2.2 0.5,1.1 0.5,4 0.5,-2 0.5,6.5 0.5,0.9 0.5,-0.6 0.5,-2 0.5,3.9 0.5,0 0.5,-0.2 0.5,-1.3 0.5,-2.2 0.5,-0.3 0.6,3.6 0.5,-4.2 0.5,2.8 0.5,0.6 0.5,-1.6 0.5,3.2 0.5,2.6 0.5,0.1 0.5,-4.6 0.5,4.3 0.5,2.2 0.5,-2.4 0.5,0.5 0.5,-5 0.5,4 0.5,-0.5 0.5,-1.7 0.5,3.7 0.5,-4.3 0.5,3.3 0.5,-0.2 0.5,-3.5 0.5,-1.6 0.5,1.7 0.5,2.7 0.5,0.6 0.5,0.9 0.5,-4.4 0.6,1 0.5,2.7 0.5,0.2 0.5,-1.4 0.5,1.7 0.5,4.5 0.5,-2.4 0.5,3 0.5,2.8 0.5,-1.7 0.5,-1.7 0.5,-2.5 0.5,-0.6 0.5,-0.7 0.5,0.6 0.5,0.8 0.5,1.1 0.5,-3 0.5,3.5 0.5,-2.2 0.5,-1.2 0.5,-3 0.5,-2.4 0.5,4.8 0.5,-4.3 0.5,7.5 0.5,1.5 0.6,-0.1 0.5,-0.5 0.5,5.7 0.5,-5.8 0.5,3.1 0.5,1.7 0.5,1.8 0.5,-1 0.5,0 0.5,-1.2 0.5,0.8 0.5,1.8 0.5,0.4 0.5,-2.3 0.5,-0.4 0.5,3.5 0.5,2 0.5,0.6 0.5,4.1 0.5,-0.9 0.5,-0.2 0.5,1 0.5,2.1 0.5,-4.8 0.5,2.8 0.5,0.6 0.5,-1.6 0.5,2.9 0.6,0.2 0.5,-8.9 0.5,2.5 0.5,6.7 0.5,3.8 0.5,-5.8 0.5,3.4 0.5,-2.1 0.5,1.3 0.5,-0.6 0.5,6.8 0.5,-5.7 0.5,0.4 0.5,3 0.5,-1 0.5,1.4 0.5,-1.7 0.5,-0.4 0.5,3.5 0.5,-1.3 0.5,6.3 0.5,-3.4 0.5,-0.4 0.5,1.9 0.5,-0.1 0.5,-0.7 0.5,-2.1 0.5,3.4 0.6,-0.5 0.5,1.6 0.5,2.1 0.5,1.5 0.5,-2.8 0.5,-1.9 0.5,2.4 0.5,-1 0.5,1.4 0.5,-3.1 0.5,0.6 0.5,-3.6 0.5,3.5 0.5,-1.4 0.5,-2.6 0.5,3.9 0.5,1.4 0.5,-5 0.5,-5.2 0.5,7.8 0.5,-5.3 0.5,-3.2 0.5,3.4 0.5,-4.4 0.5,4.1 0.5,1.6 0.5,-1.1 0.5,0.2 0.6,-1.8 0.5,0.5 0.5,3 0.5,-6.3 0.5,8.6 0.5,-2.7 0.5,-0.9 0.5,1.4 0.5,-6 0.5,-3.1 0.5,3.3 0.5,2.8 0.5,-0.4 0.5,3.7 0.01,0" />
    <text
       xml:space="preserve"
       style="font-size:15px;font-style:normal;font-variant:normal;font-weight:normal;font-stretch:normal;text-align:start;line-height:100%;letter-spacing:0px;word-spacing:0px;writing-mode:lr-tb;text-anchor:start;fill:#005a80;fill-opacity:0.82352941;stroke:none;font-family:Arial;-inkscape-font-specification:'Arial, Normal'"
       x="317.3812"
       y="139.53912"
       id="text4466"
       sodipodi:linespacing="100%"
       transform="matrix(0.91143817,0.41143704,-0.41143704,0.91143817,7.5270913e-7,0)"><tspan
         sodipodi:role="line"
         id="tspan4468"
         x="317.3812"
         y="139.53912">Cubic-over-sfqCoDel</tspan></text>
  </g>
</svg>
