<?xml version="1.0" encoding="UTF-8" standalone="no"?>
<svg
   xmlns:dc="http://purl.org/dc/elements/1.1/"
   xmlns:cc="http://creativecommons.org/ns#"
   xmlns:rdf="http://www.w3.org/1999/02/22-rdf-syntax-ns#"
   xmlns:svg="http://www.w3.org/2000/svg"
   xmlns="http://www.w3.org/2000/svg"
   xmlns:xlink="http://www.w3.org/1999/xlink"
   xmlns:sodipodi="http://sodipodi.sourceforge.net/DTD/sodipodi-0.dtd"
   xmlns:inkscape="http://www.inkscape.org/namespaces/inkscape"
   width="600"
   height="480"
   viewBox="0 0 600 480"
   id="svg2"
   version="1.1"
   inkscape:version="0.48.4 r9939"
   sodipodi:docname="spec.svg">
  <metadata
     id="metadata146">
    <rdf:RDF>
      <cc:Work
         rdf:about="">
        <dc:format>image/svg+xml</dc:format>
        <dc:type
           rdf:resource="http://purl.org/dc/dcmitype/StillImage" />
      </cc:Work>
    </rdf:RDF>
  </metadata>
  <defs
     id="defs144">
    <defs
       id="defs11">
      <circle
         stroke-width="0.5"
         r="0.5"
         id="gpDot" />
      <path
         d="M-1,0 h2 M0,-1 v2"
         stroke="currentColor"
         stroke-width="0.222"
         id="gpPt0" />
      <path
         d="M-1,-1 L1,1 M1,-1 L-1,1"
         stroke="currentColor"
         stroke-width="0.222"
         id="gpPt1" />
      <path
         d="M-1,0 L1,0 M0,-1 L0,1 M-1,-1 L1,1 M-1,1 L1,-1"
         stroke="currentColor"
         stroke-width="0.222"
         id="gpPt2" />
      <rect
         height="2"
         width="2"
         y="-1"
         x="-1"
         stroke="currentColor"
         stroke-width="0.222"
         id="gpPt3" />
      <rect
         height="2"
         width="2"
         y="-1"
         x="-1"
         fill="currentColor"
         stroke="currentColor"
         stroke-width="0.222"
         id="gpPt4" />
      <circle
         r="1"
         cy="0"
         cx="0"
         stroke="currentColor"
         stroke-width="0.222"
         id="gpPt5" />
      <use
         stroke="none"
         fill="currentColor"
         id="gpPt6"
         xlink:href="#gpPt5" />
      <path
         d="M0,-1.33 L-1.33,0.67 L1.33,0.67 z"
         stroke="currentColor"
         stroke-width="0.222"
         id="gpPt7" />
      <use
         stroke="none"
         fill="currentColor"
         id="gpPt8"
         xlink:href="#gpPt7" />
      <use
         transform="rotate(180)"
         stroke="currentColor"
         id="gpPt9"
         xlink:href="#gpPt7" />
      <use
         stroke="none"
         fill="currentColor"
         id="gpPt10"
         xlink:href="#gpPt9" />
      <use
         transform="rotate(45)"
         stroke="currentColor"
         id="gpPt11"
         xlink:href="#gpPt3" />
      <use
         stroke="none"
         fill="currentColor"
         id="gpPt12"
         xlink:href="#gpPt11" />
    </defs>
  </defs>
  <sodipodi:namedview
     pagecolor="#ffffff"
     bordercolor="#666666"
     borderopacity="1"
     objecttolerance="10"
     gridtolerance="10"
     guidetolerance="10"
     inkscape:pageopacity="0"
     inkscape:pageshadow="2"
     inkscape:window-width="1366"
     inkscape:window-height="719"
     id="namedview142"
     showgrid="false"
     inkscape:zoom="1.1291667"
     inkscape:cx="300"
     inkscape:cy="240"
     inkscape:window-x="0"
     inkscape:window-y="25"
     inkscape:window-maximized="1"
     inkscape:current-layer="layer1" />
  <title
     id="title4">Gnuplot</title>
  <desc
     id="desc6">Produced by GNUPLOT 4.6 patchlevel 1 </desc>
  <rect
     style="fill:none"
     id="rect9"
     height="480"
     width="600"
     y="0"
     x="0" />
  <path
     style="color:#000000;fill:none;stroke:currentColor;stroke-width:1;stroke-linecap:butt;stroke-linejoin:miter"
     d="m 71.9,422.4 9,0 m 485.1,0 -9,0 h 0.01"
     id="path31"
     inkscape:connector-curvature="0" />
  <text
     style="font-size:15px;text-anchor:end;color:#000000;fill:#000000;stroke:none;font-family:Arial"
     id="text35"
     x="63.599998"
     y="426.89999">-2</text>
  <path
     style="color:#000000;fill:none;stroke:currentColor;stroke-width:1;stroke-linecap:butt;stroke-linejoin:miter"
     d="m 71.9,321 9,0 m 485.1,0 -9,0 h 0.01"
     id="path37"
     inkscape:connector-curvature="0" />
  <text
     style="font-size:15px;text-anchor:end;color:#000000;fill:#000000;stroke:none;font-family:Arial"
     id="text41"
     x="63.599998"
     y="325.5">-1.5</text>
  <path
     style="color:#000000;fill:none;stroke:currentColor;stroke-width:1;stroke-linecap:butt;stroke-linejoin:miter"
     d="m 71.9,219.5 9,0 m 485.1,0 -9,0 h 0.01"
     id="path43"
     inkscape:connector-curvature="0" />
  <text
     style="font-size:15px;text-anchor:end;color:#000000;fill:#000000;stroke:none;font-family:Arial"
     id="text47"
     x="63.599998"
     y="224">-1</text>
  <path
     style="color:#000000;fill:none;stroke:currentColor;stroke-width:1;stroke-linecap:butt;stroke-linejoin:miter"
     d="m 71.9,118.1 9,0 m 485.1,0 -9,0 h 0.01"
     id="path49"
     inkscape:connector-curvature="0" />
  <text
     style="font-size:15px;text-anchor:end;color:#000000;fill:#000000;stroke:none;font-family:Arial"
     id="text53"
     x="63.599998"
     y="122.6">-0.5</text>
  <path
     style="color:#000000;fill:none;stroke:currentColor;stroke-width:1;stroke-linecap:butt;stroke-linejoin:miter"
     d="m 71.9,16.7 9,0 m 485.1,0 -9,0 h 0.01"
     id="path55"
     inkscape:connector-curvature="0" />
  <text
     style="font-size:15px;text-anchor:end;color:#000000;fill:#000000;stroke:none;font-family:Arial"
     id="text59"
     x="63.599998"
     y="21.200001">0</text>
  <path
     style="color:#000000;fill:none;stroke:#0000ff;stroke-width:2.50000000000000000;stroke-linecap:butt;stroke-linejoin:miter;stroke-miterlimit:4;stroke-dasharray:7.50000000000000000, 7.50000000000000000;stroke-dashoffset:0;stroke-opacity:1;opacity:0.65"
     d="m 129.1,422.4 0,-401.324723"
     id="path61"
     inkscape:connector-curvature="0"
     sodipodi:nodetypes="cc" />
  <text
     style="font-size:15px;text-anchor:middle;color:#000000;fill:#000000;stroke:none;font-family:Arial"
     id="text65"
     x="129.10001"
     y="444.89999">0.15</text>
  <path
     style="color:#000000;fill:none;stroke:#008000;stroke-width:2.50000000000000000;stroke-linecap:butt;stroke-linejoin:miter;stroke-opacity:1;stroke-miterlimit:4;stroke-dasharray:7.50000000000000000, 7.50000000000000000;stroke-dashoffset:0;opacity:0.65"
     d="m 223.9,422.4 0,-386.269373"
     id="path67"
     inkscape:connector-curvature="0"
     sodipodi:nodetypes="cc" />
  <text
     style="font-size:15px;text-anchor:middle;color:#000000;fill:#000000;stroke:none;font-family:Arial"
     id="text71"
     x="223.89999"
     y="444.89999">0.47</text>
  <path
     style="opacity:0.65;color:#000000;fill:none;stroke:#ff0000;stroke-width:2.5;stroke-linecap:butt;stroke-linejoin:miter;stroke-miterlimit:4;stroke-opacity:1;stroke-dasharray:7.5, 7.5;stroke-dashoffset:0"
     d="m 319,422.47445 0,-232.32233"
     id="path73"
     inkscape:connector-curvature="0"
     sodipodi:nodetypes="cc" />
  <text
     style="font-size:15px;text-anchor:middle;color:#000000;fill:#000000;stroke:none;font-family:Arial"
     id="text77"
     x="319"
     y="444.89999">1.5</text>
  <path
     style="color:#000000;fill:none;stroke:#008000;stroke-width:2.50000000000000000;stroke-linecap:butt;stroke-linejoin:miter;stroke-miterlimit:4;stroke-dasharray:7.50000000000000000, 7.50000000000000000;stroke-dashoffset:0;stroke-opacity:1;opacity:0.65"
     d="m 413.8,422.4 0,-386.269373"
     id="path79"
     inkscape:connector-curvature="0"
     sodipodi:nodetypes="cc" />
  <text
     style="font-size:15px;text-anchor:middle;color:#000000;fill:#000000;stroke:none;font-family:Arial"
     id="text83"
     x="413.79999"
     y="444.89999">4.7</text>
  <path
     style="color:#000000;fill:none;stroke:#0000ff;stroke-width:2.50000000000000000;stroke-linecap:butt;stroke-linejoin:miter;stroke-miterlimit:4;stroke-dasharray:7.50000000000000000, 7.50000000000000000;stroke-dashoffset:0;stroke-opacity:1;opacity:0.65"
     d="m 508.8,422.4 0,-402.210332"
     id="path85"
     inkscape:connector-curvature="0"
     sodipodi:nodetypes="cc" />
  <text
     style="font-size:15px;text-anchor:middle;color:#000000;fill:#000000;stroke:none;font-family:Arial"
     id="text89"
     x="508.79999"
     y="444.89999">15</text>
  <path
     style="color:#000000;fill:none;stroke:currentColor;stroke-width:1;stroke-linecap:butt;stroke-linejoin:miter"
     d="m 71.9,16.7 0,405.7 494.1,0 0,-405.7 -494.1,0 z m 0,0 h 0.01"
     id="path91"
     inkscape:connector-curvature="0" />
  <text
     style="font-size:15px;text-anchor:middle;color:#000000;fill:#000000;stroke:none;font-family:Arial"
     id="text95"
     transform="matrix(0,-1,1,0,0,0)"
     x="-219.60001"
     y="17.6">log(normalized throughput) - log(delay)</text>
  <text
     style="font-size:15px;text-anchor:middle;color:#000000;fill:#000000;stroke:none;font-family:Arial"
     id="text99"
     transform="matrix(0,-1,1,0,0,0)"
     x="-219.60001"
     y="588.40002" />
  <text
     style="font-size:15px;text-anchor:middle;color:#000000;fill:#000000;stroke:none;font-family:Arial"
     id="text103"
     x="318.89999"
     y="471.89999">Throughput (packets per ms)</text>
  <text
     style="font-size:15px;text-anchor:middle;color:#000000;fill:#000000;stroke:none;font-family:Arial"
     id="text107"
     x="318.89999"
     y="30.299999" />
  <text
     style="font-size:15px;text-anchor:start;color:#000000;fill:#000000;stroke:none;font-family:Arial"
     id="text111"
     x="22.1"
     y="475.5" />
  <path
     style="color:#000000;fill:none;stroke:currentColor;stroke-width:1;stroke-linecap:butt;stroke-linejoin:miter"
     d="m 71.9,16.7 0,405.7 494.1,0 0,-405.7 -494.1,0 z m 0,0 h 0.01"
     id="path140"
     inkscape:connector-curvature="0" />
  <rect
     style="fill:#008000;fill-opacity:1;stroke:none"
     id="rect4033"
     width="192.56766"
     height="14.169741"
     x="222.52908"
     y="35.630627" />
  <text
     xml:space="preserve"
     style="font-size:40px;font-style:normal;font-weight:normal;line-height:125%;letter-spacing:0px;word-spacing:0px;fill:#ffffff;fill-opacity:1;stroke:none;font-family:Sans"
     x="266.15726"
     y="46.026043"
     id="text4035"
     sodipodi:linespacing="125%"><tspan
       sodipodi:role="line"
       id="tspan4037"
       x="266.15726"
       y="46.026043"
       style="font-size:12px;fill:#ffffff">10x design range</tspan></text>
  <rect
     style="fill:#0000ff;fill-opacity:1;stroke:none"
     id="rect4033-7"
     width="382.38205"
     height="14.169741"
     x="127.67744"
     y="19.460886" />
  <g
     inkscape:groupmode="layer"
     id="layer1"
     inkscape:label="Lines"
     style="display:inline">
    <path
       style="color:#ff0000;fill:none;stroke:currentColor;stroke-width:1.56250000000000000;stroke-linecap:butt;stroke-linejoin:round;stroke-miterlimit:4;stroke-dasharray:none;"
       inkscape:connector-curvature="0"
       id="path120"
       d="m 275.8,422.4 0.3,-1.7 0.4,-3.3 0.4,5 m 0.1,0 0.4,-1.1 0.4,-2.7 0.3,3.8 m 0.2,0 0.3,-4.7 0.4,-3.2 0.4,7.9 m 0.1,0 0.3,-11.2 0.4,7.9 0.5,-8 0.4,1.7 0.4,-1.4 0.4,0.3 0.4,-1.6 0.4,-3.7 0.4,1.6 0.4,2.5 0.5,-5.1 0.4,-0.4 0.4,0.2 0.4,-3.5 0.4,2.3 0.4,-1.5 0.4,-3.7 0.4,-3 0.4,1 0.5,-0.3 0.4,-5.9 0.4,2.6 0.4,-2 0.4,-1.7 0.4,1.5 0.4,-0.8 0.4,-4.5 0.5,-2.5 0.4,-0.9 0.4,-2.7 0.4,2.2 0.4,-0.4 0.4,-8.6 0.4,-1.5 0.4,-1.9 0.4,-0.8 0.5,-0.5 0.4,-1 0.4,-5.1 0.4,4.7 0.4,-7.6 0.4,-4.1 0.4,4.8 0.4,12.3 0.5,17.8 0.4,-2 0.4,12.6 0.4,-9.4 0.4,-1.8 0.4,-10.8 0.4,3.1 0.4,6.2 0.4,-6.9 0.5,-0.3 0.4,-7.9 0.4,7.2 0.4,-7.2 0.4,-3.5 0.4,3.5 0.4,-4.3 0.4,-1.2 0.5,-6.1 0.4,-5 0.4,0.2 0.4,-4.5 0.4,-20.2 0.4,-8 0.4,-37.3 0.4,-4.3 0.4,-9 0.5,-38.9 0.4,-25.5 0.4,-27 0.4,-34.6 0.4,9.6 0.4,-2.8 0.4,11.8 0.4,-34.2 0.5,3.8 0.4,-5.3 0.4,12.2 0.4,-2.6 0.4,11.2 0.4,27.1 0.4,-20.8 0.4,-7 0.4,3.9 0.5,-3.1 0.4,-22 0.4,-14.4 0.4,-1.6 0.4,-11.6 0.4,-6.5 0.4,1.1 0.4,-5 0.5,-22 0.4,32.7 0.4,1.1 0.4,0.7 0.4,24.2 0.4,-24.5 0.4,2.5 0.4,1.3 0.4,6.6 0.5,-1.2 0.4,4.6 0.4,5.8 0.4,-3.1 0.4,8.3 0.4,7.6 0.4,-0.4 0.4,6.4 0.4,1.9 0.5,3.4 0.4,17 0.4,-8.6 0.4,4.5 0.4,3 0.4,7 0.4,6.2 0.4,0.3 0.5,9.3 0.4,3.4 0.4,2.1 0.4,3.8 0.4,5.5 0.4,8.7 0.4,0.9 0.4,-0.7 0.4,1.8 0.5,6.1 0.4,1.3 0.4,1.6 0.4,-2.2 0.4,8.2 0.4,-0.1 0.4,-0.3 0.4,4.4 0.5,0.2 0.4,2.2 0.4,-2.4 0.4,5.3 0.4,-0.6 0.4,1.1 0.4,2.9 0.4,2.8 0.4,-1.7 0.5,5.1 0.4,0 0.4,2.6 0.4,5.9 0.4,0.1 0.4,0 0.4,7.4 0.4,3.1 0.5,-3.8 0.4,-0.3 0.4,2.3 0.4,0.1 0.4,3.8 0.4,0.3 0.4,3.1 0.4,2.9 0.4,-1.7 0.5,-0.4 0.4,3.6 0.4,0.8 0.4,5.8 0.4,-1.1 0.4,0.1 0.4,1 0.4,3.3 0.5,0.6 0.4,-6.4 0.4,1 0.4,3.2 0.4,0.2 0.4,2.3 0.4,1.7 0.4,-1.3 0.4,1.8 0.5,0.5 0.4,6.2 0.4,0.2 0.4,-0.6 0.4,9.5 0.4,-4.6 0.4,-1.5 0.4,2.4 0.5,-2 0.4,-3.6 0.4,1.9 0.4,-1 0.4,-3.6 0.4,0.8 0.4,6 0.4,-1.6 0.4,-1.4 0.5,0.8 0.4,3.5 0.4,-0.7 0.4,7.1 0.4,-9 0.4,10.6 0.4,-5.6 0.4,7.2 0.5,-5.2 0.4,1.8 0.4,3.3 0.4,-2.9 0.4,0.9 0.4,3.4 0.4,-0.4 0.4,6.2 0.4,-2.7 0.5,1.9 0.4,0.7 0.4,3.2 0.4,1.2 0.4,-6.8 0.4,12.3 0.4,0.6 0.4,-5 0.5,4 0.4,-0.3 0.4,6.8 0.4,4.5 0.4,0.7 0.4,1.1 0.4,2.9 0.4,3.7 0.4,-10.2 0.5,2 0.4,10.6 0.4,-5.2 0.4,-4.8 0.4,9.8 0.4,-0.6 0.4,6.9 0.4,-2.8 0.5,2.2 0.4,12.3 0.4,2.4 0.4,2.2 0.4,0.9 0.4,-1 0.4,7 0.4,-7.2 0.4,2.1 0.5,17.5 0.4,-2.8 0.4,5.4 0.4,6.9 0.4,2.6 0.4,-3.5 0.4,5.9 0.4,-6.1 0.5,5.9 0.4,7 0.4,1.2 0.4,6.5 0.4,-6.7 0.4,11.8 h 0.01" />
    <path
       style="color:#008000;fill:none;stroke:currentColor;stroke-width:1.56250000000000000;stroke-linecap:butt;stroke-linejoin:round;stroke-miterlimit:4;stroke-dasharray:none;"
       inkscape:connector-curvature="0"
       id="path127"
       d="m 199.4,422.4 0.1,-9.6 0.5,-14.8 0.4,-15.4 0.4,-0.9 0.4,-18.8 0.4,-7.3 0.4,-8.1 0.4,-2.9 0.4,-15.8 0.4,-7.3 0.5,4.1 0.4,-13.6 0.4,-12.1 0.4,1.5 0.4,-4 0.4,6.4 0.4,-4.6 0.4,-14.7 0.5,3.5 0.4,-4.2 0.4,0.8 0.4,-8.2 0.4,0.1 0.4,-6.9 0.4,-2.3 0.4,-4.8 0.4,-3.4 0.5,5.5 0.4,-4.7 0.4,-1.1 0.4,-6.2 0.4,4.8 0.4,-9.2 0.4,-6.5 0.4,5.8 0.5,-3.3 0.4,-4.3 0.4,1.3 0.4,-9.3 0.4,-4 0.4,-2.4 0.4,-9.4 0.4,-3.2 0.4,1.4 0.5,-13.1 0.4,2.4 0.4,-4.6 0.4,-2.9 0.4,-8 0.4,-9.5 0.4,1.5 0.4,-5.2 0.5,-6.1 0.4,-0.9 0.4,-4.3 0.4,5.2 0.4,-6.4 0.4,-3.1 0.4,1.5 0.4,4.7 0.4,-1.6 0.5,-3.7 0.4,-2 0.4,2.5 0.4,0.4 0.4,-2.7 0.4,-6.4 0.4,6.3 0.4,-5.2 0.5,-1.1 0.4,3.7 0.4,-0.2 0.4,-0.8 0.4,2.3 0.4,0.6 0.4,1.9 0.4,-0.3 0.4,1 0.5,-0.6 0.4,2 0.4,2.9 0.4,-0.4 0.4,1.8 0.4,0.6 0.4,4.8 0.4,4 0.5,10.7 0.4,-0.5 0.4,1.3 0.4,-2.7 0.4,2.1 0.4,1.9 0.4,-0.9 0.4,-1.2 0.4,0.9 0.5,-1 0.4,2.6 0.4,-1.8 0.4,-1.5 0.4,0.9 0.4,-2 0.4,1.7 0.4,-4.6 0.5,0.8 0.4,-3.5 0.4,2.1 0.4,-4 0.4,1.9 0.4,-2.6 0.4,-1.8 0.4,1 0.4,-0.6 0.5,-0.5 0.4,-1.5 0.4,2.5 0.4,-2.8 0.4,0.5 0.4,-0.4 0.4,-0.5 0.4,-2.5 0.5,0.8 0.4,-3.4 0.4,3.7 0.4,-0.4 0.4,2.1 0.4,-2.9 0.4,-0.7 0.4,0 0.4,1.4 0.5,-1 0.4,0.7 0.4,-1.5 0.4,1.3 0.4,-2.3 0.4,-0.4 0.4,2.1 0.4,-1.3 0.5,0.6 0.4,-2.9 0.4,2.7 0.4,-0.3 0.4,1.1 0.4,0.6 0.4,-0.5 0.4,-2 0.4,1.8 0.5,-1.9 0.4,0.2 0.4,0.1 0.4,-0.2 0.4,-0.9 0.4,0.6 0.4,0.9 0.4,0.5 0.5,1.4 0.4,-7.1 0.4,1.4 0.4,-0.2 0.4,-0.5 0.4,0.5 0.4,-0.2 0.4,-0.1 0.4,0.1 0.5,-2.6 0.4,-3.4 0.4,2.2 0.4,-0.6 0.4,-3 0.4,2.7 0.4,-3.7 0.4,-1.4 0.5,2.8 0.4,-4 0.4,-1.3 0.4,6 0.4,2.3 0.4,2 0.4,-0.5 0.4,-2.3 0.4,-0.1 0.5,1.1 0.4,-2 0.4,-3.2 0.4,-0.1 0.4,-1.4 0.4,-4.3 0.4,0.2 0.4,-3.6 0.5,-8.2 0.4,-2 0.4,-2.2 0.4,-5.4 0.4,-0.4 0.4,-0.1 0.4,0 0.4,-1.9 0.4,1.1 0.5,-2.2 0.4,0.8 0.4,-0.1 0.4,3.6 0.4,1.2 0.4,1.7 0.4,3 0.4,3.4 0.5,1.3 0.4,-0.3 0.4,-1.2 0.4,2.3 0.4,-3.9 0.4,-6.7 0.4,-3.6 0.4,-3.5 0.4,-4.1 0.5,-7.8 0.4,-4.8 0.4,-3.1 0.4,-2.3 0.4,-0.8 0.4,1.6 0.4,-2.4 0.4,3.5 0.5,-0.1 0.4,0.1 0.4,-2.4 0.4,2.1 0.4,1 0.4,5 0.4,5.7 0.4,-1.8 0.4,-2 0.5,-0.5 0.4,4.5 0.4,-1.7 0.4,3.4 0.4,-0.4 0.4,1.4 0.4,0.8 0.4,1.9 0.5,4.3 0.4,0.2 0.4,3.8 0.4,-6.4 0.4,-1.3 0.4,-1.3 0.4,-3 0.4,-2.3 0.4,-1.2 0.5,-1.4 0.4,-2.9 0.4,-0.9 0.4,-0.7 0.4,-0.1 0.4,0.1 0.4,0.8 0.4,-0.4 0.5,-0.7 0.4,-0.5 0.4,-0.4 0.4,-0.8 0.4,1.9 0.4,0.3 0.4,0.5 0.4,-2 0.4,-0.3 0.5,1 0.4,1.2 0.4,1.1 0.4,-0.4 0.4,2.1 0.4,-0.5 0.4,-0.3 0.4,1.4 0.5,0.1 0.4,1.5 0.4,1.4 0.4,0.8 0.4,-0.6 0.4,-0.3 0.4,0.1 0.4,0.9 0.4,2.1 0.5,0.8 0.4,2.3 0.4,0.5 0.4,2 0.4,1.9 0.4,1.9 0.4,-1.5 0.4,2.3 0.5,0.5 0.4,1.1 0.4,1.2 0.4,0.7 0.4,2.1 0.4,0.9 0.4,1.3 0.4,1.1 0.4,6.6 0.5,8.5 0.4,-3.9 0.4,-5.7 0.4,-3.3 0.4,-1.4 0.4,-2.3 0.4,-1.6 0.4,0.4 0.4,1.7 0.5,-2.8 0.4,1 0.4,-2.8 0.4,-1.6 0.4,-5.1 0.4,-2.1 0.4,0.3 0.4,-0.6 0.5,1.1 0.4,-0.7 0.4,-1.5 0.4,-1.4 0.4,3.6 0.4,-2 0.4,-0.1 0.4,0.5 0.4,0.9 0.5,-0.9 0.4,1.9 0.4,-1.9 0.4,2.1 0.4,-0.8 0.4,1.4 0.4,1.1 0.4,-2.2 0.5,0.5 0.4,1.5 0.4,2.9 0.4,0 0.4,0.8 0.4,-1.4 0.4,0.8 0.4,-1.7 0.4,0.5 0.5,-0.6 0.4,0.6 0.4,-0.5 0.4,1.4 0.4,0.8 0.4,-1 0.4,-0.5 0.4,-0.1 0.5,-2.6 0.4,-0.7 0.4,-2.4 0.4,-0.5 0.4,-1 0.4,-2.7 0.4,0.2 0.4,-4.7 0.4,0.3 0.5,-0.6 0.4,0.2 0.4,2.5 0.4,1.6 0.4,-2 0.4,-1.3 0.4,-0.9 0.4,-1.4 0.5,0.3 0.4,-1.2 0.4,-0.6 0.4,0 0.4,-1.7 0.4,0.1 0.4,2.4 0.4,-1.6 0.4,-0.2 0.5,1.2 0.4,-1.5 0.4,0.8 0.4,1.1 0.4,0.1 0.4,0.6 0.4,-2.8 0.4,-0.7 0.5,-0.7 0.4,-0.3 0.4,-1.8 0.4,-1 0.4,-1.7 0.4,-1 0.4,-0.7 0.4,-2.4 0.4,-1.6 0.5,-1.1 0.4,0.1 0.4,-0.4 0.4,1.1 0.4,2.9 0.4,0.7 0.4,-3.2 0.4,0.8 0.5,-0.2 0.4,0.5 0.4,2.6 0.4,0.5 0.4,0 0.4,1.7 0.4,1.5 0.4,0.6 0.4,0.1 0.5,-3.1 0.4,2.6 0.4,-0.4 0.4,-2.9 0.4,-0.2 0.4,2.5 0.4,-1.3 0.4,-1.9 0.5,1.5 0.4,0.1 0.4,-1.3 0.4,-1 0.4,0.4 0.4,0 0.4,-2 0.4,-0.4 0.4,-0.1 0.5,-3.1 0.4,1.9 0.4,0.4 0.4,-3.3 0.4,1.5 0.4,-2.6 0.4,0.4 0.4,-0.9 0.5,-1.3 0.4,-3 0.4,-1.2 0.4,1.3 0.4,-3.1 0.4,2.5 0.4,-3.1 0.4,1.3 0.4,0.1 0.5,-0.7 0.4,0 0.4,-0.8 0.4,-1 0.4,0.9 0.4,3.5 0.4,36.2 0.4,-26.5 0.5,-14.7 0.4,-2.1 0.4,3.1 0.4,-0.4 0.4,-1.3 0.4,2.2 0.4,-1.9 0.4,0.4 0.4,1.4 0.5,0.2 0.4,0.6 0.4,1 0.4,0.4 0.4,-1.7 0.4,1.2 0.4,0.5 0.4,-1.3 0.5,-0.1 0.4,2.4 0.4,-0.2 0.4,0.1 0.4,-1.6 0.4,0.3 0.4,1.6 0.4,-2.9 0.4,1.3 0.5,3.4 0.4,0.3 0.4,-1.7 0.4,-2.4 0.4,-1.7 0.4,2.8 0.4,-1.1 0.4,-1.3 0.5,11.8 0.4,-15.9 0.4,6.2 0.4,-2.2 0.4,1.6 0.4,2.5 0.4,1.1 0.4,0.4 0.4,3.3 0.5,2.8 0.4,-0.5 0.4,1.2 0.4,0.3 0.4,1.5 0.4,6.1 0.4,0.3 0.4,-0.4 0.5,3.8 0.4,-1.6 0.4,5.2 0.4,2.9 0.4,-3.9 0.4,8.1 0.4,0.6 0.4,-1.8 0.4,3.5 0.5,1.4 0.4,6.2 0.4,2.6 0.4,1.7 0.4,-1.2 0.4,1 0.4,1.2 0.4,7.8 0.5,-2.3 0.4,-0.6 0.4,6.9 0.4,-0.5 0.4,4.1 0.4,0.2 0.4,-0.1 0.4,3.3 0.4,0 0.5,1.9 0.4,1.5 0.4,3 0.4,-0.3 0.4,3.2 0.4,1.5 0.4,-0.2 0.4,4.3 0.5,4.3 0.4,1 0.4,4.7 0.4,-4.7 0.4,6.7 0.4,0.5 0.4,-0.8 0.4,4.2 0.4,1.6 0.5,2.4 0.4,-2.2 0.4,3.5 0.4,-0.1 0.4,4.8 0.4,-2.9 0.4,7.2 0.4,1.1 0.5,-0.9 0.4,2 0.4,0.5 0.4,1.9 0.4,5.6 0.4,-2 0.4,5 0.4,-2.9 0.4,2.9 0.5,0.6 0.4,4 0.4,5.5 0.4,-2 0.4,-0.2 0.4,3.9 0.4,4.2 0.4,-0.1 0.5,0.2 0.4,5.6 0.4,0.3 0.4,2.2 0.4,-6.4 0.4,7.9 0.4,-0.1 0.4,-2 0.4,6.8 0.5,-5.8 0.4,4.3 0.4,9.7 0.4,-12.5 0.4,12.4 0.4,-1.8 0.4,3.5 0.4,-2.9 0.5,2.9 0.4,1.7 0.4,9.7 0.4,-10.1 0.4,12 0.4,3.6 0.4,-9.9 0.4,7 0.4,1.5 0.5,-6.3 0.4,6.2 0.4,-8.5 0.4,9 0.4,12.3 0.4,-2.7 0.4,0.3 0.4,1 0.5,5.2 0.4,-2.9 0.4,6.2 0.4,0.1 0.4,2.7 0.4,4 0.4,5.3 0.4,0.2 0.4,-1.3 0.5,4.4 0.4,7.2 0.4,-9.9 0.4,13.5 0.4,-0.8 0.4,-8.7 0.4,4.4 0.4,-6.2 0.5,9.7 0.4,7 0.4,2.4 0.4,6.4 0.4,-2.1 0.4,-14.8 0.4,25.3 0.4,0.5 0.4,-5.1 0.5,5.8 0.4,13.7 0.4,-6.5 0.4,-0.6 0.4,1.9 0.4,3.5 0.4,8 0.4,1.4 0.5,9.7 0.4,2.3 0.4,-15 0.4,10.8 0.4,3.1 0.4,9.1 0.4,-2 0.4,12.2 0.4,8.9 0.5,-4.9 0.4,-2.5 0.4,7.9 0.4,-2.2 0.4,7.6 0.4,-5 0.4,6.3 0.4,9.5 0.5,-1.7 0.4,-1.2 0.4,8.6 0.4,-5 0.4,4.6 0.4,6.2 0.4,-0.9 0.4,-0.2 0.1,1.5 h 0.01" />
    <path
       style="color:#0000ff;fill:none;stroke:currentColor;stroke-width:1.56250000000000000;stroke-linecap:butt;stroke-linejoin:round;stroke-miterlimit:4;stroke-dasharray:none;"
       inkscape:connector-curvature="0"
       id="path134"
       d="m 125.7,422.4 0.1,-11.3 0,11.3 m 1,0 0.3,-7.1 0,7.1 m 1.5,0 0.1,-19 0,19 m 0.8,0 0,-23 0.1,23 m 1.2,0 0,-31 0.4,8.7 0.4,-21.5 0.4,-13.1 0.4,2 0,54.9 m 0.8,0 0.1,-17.9 0.4,8.6 0.1,9.3 m 3.9,0 0.1,-8.3 0.4,-6.3 0.2,14.6 m 1.7,0 0.2,-5.5 0.4,-5.3 0.4,-5.2 0.1,16 m 0.6,0 0.1,-10.3 0.4,-2.4 0.4,-8.7 0.4,-7.6 0.4,11.5 0.1,17.5 m 0.8,0 0,-19.2 0.4,-7.4 0.4,-5.5 0.4,-5 0.4,3.6 0.4,6.3 0.1,27.2 m 0.7,0 0,-51.4 0.5,11 0.4,-5.3 0.4,-4.8 0.4,0.9 0.4,-10.4 0.4,0.4 0.4,-1.4 0.4,2 0.5,3.5 0.4,4 0,51.5 m 0.8,0 0,-55.6 0.4,-4.3 0.4,9.3 0.4,-3.1 0.4,-12.6 0.4,10.1 0.5,-7.1 0.4,-2.4 0.4,-9 0.4,-7.2 0.4,-1.4 0.4,-2.4 0.4,-3.9 0.4,-5.5 0.5,-6.6 0.4,9.8 0.4,-6.2 0.4,-1.6 0.4,1 0.4,-1.7 0.4,-3.5 0.4,1.4 0.5,-13.8 0.4,7.9 0.4,-1 0.4,-3.1 0.4,3 0.4,-3.4 0.4,-10.4 0.4,3.6 0.4,-0.1 0.5,-2.4 0.4,0.7 0.4,-2.1 0.4,-2.6 0.4,-0.2 0.4,5 0.4,1.2 0.4,-3.3 0.5,-6.2 0.4,8 0.4,-3.3 0.4,-2.9 0.4,0.8 0.4,-0.9 0.4,-5.9 0.4,-3.1 0.4,4.5 0.5,2.9 0.4,-3.3 0.4,-7.7 0.4,4.5 0.4,-2.9 0.4,1.9 0.4,-4.9 0.4,-2.2 0.4,-5.8 0.5,-6 0.4,2.7 0.4,-4 0.4,-5.5 0.4,-1.2 0.4,-4.9 0.4,1.3 0.4,0 0.5,-6.4 0.4,5.1 0.4,-1.5 0.4,-6.9 0.4,-5.8 0.4,1.8 0.4,-5.5 0.4,-1.2 0.4,0.4 0.5,-1.4 0.4,3.3 0.4,-0.8 0.4,-8 0.4,-5.6 0.4,4.7 0.4,-2.1 0.4,0.9 0.5,3.8 0.4,3.2 0.4,-4.7 0.4,-0.6 0.4,2.4 0.4,-1.4 0.4,-5.6 0.4,5.7 0.4,6.5 0.5,-3.9 0.4,-1.9 0.4,13.2 0.4,8.8 0.4,-8.7 0.4,2.2 0.4,6 0.4,4.3 0.5,-7 0.4,1.9 0.4,5.6 0.4,-3.9 0.4,7.1 0.4,-1.2 0.4,-3.1 0.4,1.2 0.4,-1.7 0.5,1.6 0.4,-2.9 0.4,8.9 0.4,-6.7 0.4,5.7 0.4,-7.5 0.4,6.4 0.4,-6.1 0.5,2 0.4,-10.5 0.4,-0.3 0.4,1.2 0.4,-10.3 0.4,-3.7 0.4,-8.2 0.4,11.1 0.4,-17.9 0.5,-7.8 0.4,4.6 0.4,-1.6 0.4,-17.4 0.4,4.2 0.4,14.4 0.4,-17.8 0.4,-7.5 0.5,7.9 0.4,-2.7 0.4,-12.7 0.4,2.6 0.4,10 0.4,-15.2 0.4,1.7 0.4,8.7 0.4,-12.6 0.5,2.2 0.4,0.8 0.4,-2.3 0.4,-0.9 0.4,-1.2 0.4,1.9 0.4,-4.5 0.4,1.2 0.5,6.2 0.4,-4.7 0.4,-1.6 0.4,3.7 0.4,-3.2 0.4,-0.9 0.4,2.6 0.4,2.5 0.4,2.7 0.5,6.1 0.4,-5.7 0.4,4.7 0.4,0.9 0.4,3.3 0.4,5.6 0.4,-3 0.4,-0.7 0.5,-5.3 0.4,8 0.4,-6.4 0.4,-1.4 0.4,2 0.4,1.1 0.4,-0.1 0.4,4.5 0.4,4 0.5,-1.4 0.4,1.1 0.4,-1 0.4,0.8 0.4,2.8 0.4,-1.7 0.4,3.8 0.4,-0.5 0.5,2.2 0.4,3.1 0.4,-1.6 0.4,2.3 0.4,1.6 0.4,0.7 0.4,3.1 0.4,0.3 0.4,1 0.5,1.4 0.4,1 0.4,2.2 0.4,0.1 0.4,1.8 0.4,2.7 0.4,0.7 0.4,2.7 0.5,-0.6 0.4,1.8 0.4,2.3 0.4,0.2 0.4,4.7 0.4,-1.8 0.4,2.3 0.4,0.1 0.4,2.6 0.5,-0.9 0.4,0.1 0.4,5.9 0.4,-3.3 0.4,2.5 0.4,1.9 0.4,0.7 0.4,0.5 0.5,3.4 0.4,-1 0.4,0.2 0.4,0.7 0.4,0.3 0.4,-0.9 0.4,2.6 0.4,-3.3 0.4,3.4 0.5,-2.5 0.4,3 0.4,-2 0.4,4.1 0.4,0 0.4,0.6 0.4,-2 0.4,-0.5 0.5,-4.5 0.4,5.2 0.4,-2.3 0.4,1.5 0.4,-3.3 0.4,3.5 0.4,0.2 0.4,2.1 0.4,-10.3 0.5,11.4 0.4,-14.7 0.4,9.9 0.4,-14.2 0.4,18.6 0.4,-20.4 0.4,14.4 0.4,-22.7 0.5,20.8 0.4,-25.6 0.4,4.4 0.4,13.3 0.4,-16.6 0.4,0.2 0.4,-3.9 0.4,14.6 0.4,-12.5 0.5,14.5 0.4,0.8 0.4,-7.3 0.4,-0.1 0.4,-19.2 0.4,9.6 0.4,-12.2 0.4,13 0.5,-10.9 0.4,-0.4 0.4,3.2 0.4,-14.8 0.4,10.6 0.4,-17.9 0.4,0.5 0.4,0.3 0.4,-11.8 0.5,8.3 0.4,-7.4 0.4,6.5 0.4,-6.2 0.4,-1.3 0.4,12.5 0.4,-8.5 0.4,-2.9 0.5,1.6 0.4,0.2 0.4,6.5 0.4,-11.2 0.4,0.6 0.4,1 0.4,3.7 0.4,2.1 0.4,-2.6 0.5,-3.7 0.4,-1.8 0.4,6.3 0.4,-2.6 0.4,-2.9 0.4,4.4 0.4,-3.9 0.4,2.1 0.5,0.6 0.4,2.8 0.4,-1.6 0.4,-0.5 0.4,-0.9 0.4,-0.1 0.4,5.7 0.4,-2.4 0.4,0.2 0.5,4.1 0.4,0.2 0.4,0.1 0.4,1.7 0.4,0 0.4,3.6 0.4,-1.4 0.4,0.6 0.5,6.8 0.4,-1.4 0.4,1.9 0.4,2.9 0.4,-2.4 0.4,-5.1 0.4,-2.6 0.4,-8.3 0.4,0.5 0.5,1.4 0.4,-6.4 0.4,-2 0.4,-1 0.4,-4.6 0.4,5.3 0.4,0.6 0.4,-8.1 0.5,-2.7 0.4,-0.8 0.4,2.4 0.4,-2.1 0.4,-0.1 0.4,-7.1 0.4,15.4 0.4,-8.1 0.4,-1.6 0.5,2.4 0.4,31.1 0.4,19.4 0.4,3.7 0.4,-5.1 0.4,-9.8 0.4,-16.8 0.4,-4.2 0.5,-11.6 0.4,3.8 0.4,-4.8 0.4,-7.7 0.4,-6 0.4,-3.3 0.4,-1.9 0.4,0.2 0.4,-0.5 0.5,-0.8 0.4,0.2 0.4,-0.8 0.4,-8.8 0.4,5.2 0.4,-3.6 0.4,-12.4 0.4,1.6 0.5,-1.2 0.4,-2.2 0.4,-1.5 0.4,-4.1 0.4,0.1 0.4,-2 0.4,1.9 0.4,2.2 0.4,0.8 0.5,2.3 0.4,2.1 0.4,-3.6 0.4,-2.8 0.4,-5.6 0.4,0.6 0.4,-4.8 0.4,1.9 0.5,-1.2 0.4,-2.2 0.4,0.8 0.4,2 0.4,-2.8 0.4,-1 0.4,-1.5 0.4,-0.9 0.4,0.5 0.5,0.6 0.4,2.6 0.4,14.8 0.4,-0.4 0.4,2.3 0.4,-2.4 0.4,-0.7 0.4,-1.9 0.5,-0.2 0.4,0 0.4,0.5 0.4,-1.5 0.4,1.9 0.4,-2.5 0.4,1.1 0.4,0.7 0.4,0.5 0.5,0.8 0.4,1.6 0.4,2 0.4,1.9 0.4,4.7 0.4,14.8 0.4,-16.6 0.4,-2.2 0.4,-0.2 0.5,2.4 0.4,-1.9 0.4,-0.7 0.4,-1.1 0.4,-2.4 0.4,0.5 0.4,0.3 0.4,-1.5 0.5,-2.2 0.4,-1.7 0.4,2 0.4,-1.2 0.4,-2.6 0.4,0.9 0.4,0.2 0.4,3.3 0.4,1.5 0.5,0.2 0.4,0.6 0.4,1.2 0.4,2.4 0.4,-3.6 0.4,2.6 0.4,1.8 0.4,-0.5 0.5,1.6 0.4,-0.6 0.4,0 0.4,-0.1 0.4,-4.2 0.4,-1.6 0.4,-2.8 0.4,2 0.4,-1.3 0.5,-1.5 0.4,-3.5 0.4,-3.5 0.4,-1.3 0.4,2 0.4,2.6 0.4,1.9 0.4,5.1 0.5,-1.1 0.4,-0.7 0.4,2.1 0.4,1.7 0.4,1.6 0.4,0.4 0.4,4.4 0.4,-2.2 0.4,1.4 0.5,3.2 0.4,3.6 0.4,0.8 0.4,-1.8 0.4,0.3 0.4,-1.4 0.4,0 0.4,3.6 0.5,-2.2 0.4,0.2 0.4,1.2 0.4,4.6 0.4,-3.5 0.4,2.2 0.4,1.9 0.4,-4.6 0.4,-7.8 0.5,4 0.4,5.4 0.4,-5.5 0.4,-1.7 0.4,-1 0.4,3.6 0.4,-1.5 0.4,-4.7 0.5,-0.1 0.4,-0.7 0.4,1.5 0.4,-2.9 0.4,1.5 0.4,17.2 0.4,1.1 0.4,-4 0.4,-6.5 0.5,-6.6 0.4,-4.2 0.4,-5.3 0.4,-2.2 0.4,-1.6 0.4,-2.8 0.4,-0.9 0.4,-0.9 0.5,-0.7 0.4,2.7 0.4,-2.2 0.4,-0.9 0.4,-1 0.4,-4.6 0.4,1.8 0.4,0.5 0.4,2.1 0.5,-3.1 0.4,1.8 0.4,-2 0.4,0.8 0.4,-0.1 0.4,0.6 0.4,0.3 0.4,-0.9 0.5,-1.6 0.4,1.5 0.4,-1.2 0.4,3.4 0.4,-0.7 0.4,1.8 0.4,0.5 0.4,3 0.4,-1.4 0.5,2.7 0.4,-0.7 0.4,1.4 0.4,0.2 0.4,3.2 0.4,-0.1 0.4,5 0.4,-2.7 0.5,-0.7 0.4,2.6 0.4,0.4 0.4,-0.8 0.4,3.4 0.4,0.3 0.4,-3.3 0.4,0.9 0.4,-1.8 0.5,4.3 0.4,-0.1 0.4,-2.8 0.4,-0.8 0.4,0.4 0.4,2.9 0.4,-3.5 0.4,3.2 0.5,0 0.4,1.3 0.4,0.5 0.4,-1.5 0.4,-1.7 0.4,0.5 0.4,0.6 0.4,-0.2 0.4,-0.7 0.5,0.3 0.4,3 0.4,-1.7 0.4,-5.1 0.4,-4.7 0.4,-1.2 0.4,-5.8 0.4,0.6 0.5,0.3 0.4,-3.6 0.4,4.8 0.4,-3.4 0.4,5.2 0.4,-4.2 0.4,3.2 0.4,3.7 0.4,-4.6 0.5,-0.6 0.4,5.2 0.4,-2.7 0.4,-2.8 0.4,3.5 0.4,2.1 0.4,0.7 0.4,-1.6 0.5,0.5 0.4,3 0.4,1.7 0.4,1.2 0.4,3.2 0.4,6.8 0.4,-1.9 0.4,5.5 0.4,4.2 0.5,-4.6 0.4,8.2 0.4,3.6 0.4,0.3 0.4,4.4 0.4,1.1 0.4,6 0.4,-1.2 0.5,1.3 0.4,-0.4 0.4,7.9 0.4,-8.5 0.4,-0.1 0.4,8.5 0.4,-5.1 0.4,5.1 0.4,-6.1 0.5,0.8 0.4,-1 0.4,-0.3 0.4,0.8 0.4,-3.3 0.4,1.1 0.4,-5 0.4,2.3 0.5,-1.7 0.4,3.3 0.4,-2 0.4,-3.9 0.4,0.6 0.4,4.8 0.4,-2.1 0.4,0 0.4,0.1 0.5,-0.8 0.4,-2.3 0.4,5.7 0.4,-4.6 0.4,0.9 0.4,-2.6 0.4,-1 0.4,1.6 0.5,-2.8 0.4,-3.6 0.4,2.3 0.4,-3.1 0.4,2.1 0.4,-1.5 0.4,0.2 0.4,-0.5 0.4,0 0.5,2.9 0.4,0.1 0.4,-3.5 0.4,-0.7 0.4,-1.9 0.4,1.9 0.4,-0.2 0.4,1.3 0.5,-2.5 0.4,0.9 0.4,-1.5 0.4,2.2 0.4,-1.2 0.4,1.1 0.4,-0.9 0.4,3.5 0.4,-4.4 0.5,0.8 0.4,3.4 0.4,-2.7 0.4,0.6 0.4,1.4 0.4,0.1 0.4,-2 0.4,0.8 0.5,-0.8 0.4,-1.4 0.4,-3.8 0.4,1.6 0.4,-5.5 0.4,2.3 0.4,0.3 0.4,-2 0.4,1.5 0.5,0.6 0.4,0.6 0.4,-2.4 0.4,4.7 0.4,4.7 0.4,2 0.4,2.4 0.4,-0.1 0.5,4.3 0.4,-2.4 0.4,3.8 0.4,7.7 0.4,2.3 0.4,3.4 0.4,3.4 0.4,0.5 0.4,6.1 0.5,8.2 0.4,-0.6 0.4,-1.6 0.4,-8.6 0.4,-9.1 0.4,-13.3 0.4,-8.1 0.4,-5.7 0.5,18.5 0.4,10.3 0.4,-2.2 0.4,-2.2 0.4,1 0.4,-2.3 0.4,-3.4 0.4,-1.2 0.4,1.1 0.5,-0.5 0.4,-1.6 0.4,-0.3 0.4,1.2 0.4,-0.7 0.4,-2.7 0.4,4.6 0.4,0.3 0.5,-4.3 0.4,5 0.4,-0.4 0.4,-2.1 0.4,5.4 0.4,2.4 0.4,-1.6 0.4,1.7 0.4,2 0.5,0.2 0.4,2.2 0.4,2.2 0.4,-0.9 0.4,3.9 0.4,-0.2 0.4,5 0.4,1.7 0.5,1.8 0.4,0.7 0.4,2.7 0.4,-0.3 0.4,-0.7 0.4,1.2 0.4,0.4 0.4,2.4 0.4,-1.3 0.5,3.1 0.4,3.2 0.4,-0.8 0.4,-2.9 0.4,-2.1 0.4,0.1 0.4,-3.2 0.4,2.7 0.5,-2.3 0.4,0.2 0.4,-1.7 0.4,-1.6 0.4,-1 0.4,-0.5 0.4,-0.9 0.4,0.9 0.4,3.7 0.5,3.6 0.4,6.1 0.4,-0.9 0.4,3.4 0.4,4.8 0.4,1.3 0.4,0.2 0.4,-6.4 0.5,-5.5 0.4,2.5 0.4,3.5 0.4,-6.3 0.4,-0.1 0.4,2.6 0.4,3 0.4,0.1 0.4,7.2 0.5,-9.9 0.4,5 0.4,5.9 0.4,4.9 0.4,-5.3 0.4,1.9 0.4,3.2 0.4,8.7 0.4,-0.5 0.5,-5.4 0.4,-1.3 0.4,-2.8 0.4,-6.6 0.4,-2.2 0.4,-4.1 0.4,-1.3 0.4,-2.1 0.5,-2.5 0.4,1.2 0.4,1.6 0.4,-0.3 0.4,2.2 0.4,5.1 0.4,-0.8 0.4,3.3 0.4,1.9 0.5,1.4 0.4,-5.8 0.4,5.4 0.4,-0.6 0.4,-2.2 0.4,-4 0.4,5.1 0.4,-0.8 0.5,0.5 0.4,10.5 0.4,-2.1 0.4,-3.8 0.4,1.1 0.4,-1.5 0.4,9.1 0.4,-5.5 0.4,3.9 0.5,2.4 0.4,0.7 0.4,5.4 0.4,1.1 0.4,-2.2 0.4,4.6 0.4,-4.8 0.4,5.5 0.5,-2.3 0.4,-1.9 0.4,3.3 0.4,-2.5 0.4,6.1 0.4,0.9 0.4,2.1 0.4,-0.5 0.4,3.2 0.5,4.5 0.4,-8.9 0.4,21.6 0.4,-2.8 0.4,-6 0.4,-1.3 0.4,9.5 0.4,-0.2 0.5,0.1 0.4,-2.4 0.4,14.6 0.4,1.7 0.4,5.8 0.4,1 0.4,3.7 0.4,8.6 0.4,-2.5 0.5,-0.5 0.4,0.2 0.4,8.5 0.4,-4.4 0.4,8.7 0.4,7.1 0.4,-1.8 0.4,12.2 0.5,-9 0.4,4.4 0.4,5.9 0.4,-0.7 0.4,9.4 0.4,4.1 0.4,-4.9 0.4,17.5 0.4,-5.5 0.5,3.4 0.4,11.5 0.4,-4.5 0.4,8.3 0.4,-0.7 0.4,-0.2 0.4,14 0.4,-13.7 0.5,5.5 0.4,6.3 0.4,5.3 0.4,-4.7 0.4,14 0.4,3.1 0.4,6.9 0.4,-10.6 0.4,13.2 0.5,0.9 0.4,10.6 0.4,-0.2 0.4,0.4 0.4,6.7 0.4,-5.4 0.4,-11.1 0.4,17.6 0.5,-1.3 0.2,6.1 h 0.01" />
  </g>
  <text
     xml:space="preserve"
     style="font-size:40px;font-style:normal;font-weight:normal;line-height:125%;letter-spacing:0px;word-spacing:0px;fill:#ffffff;fill-opacity:1;stroke:none;font-family:Sans"
     x="262.3255"
     y="29.856304"
     id="text4035-0"
     sodipodi:linespacing="125%"><tspan
       sodipodi:role="line"
       id="tspan4037-7"
       x="262.3255"
       y="29.856304"
       style="font-size:12px;fill:#ffffff">100x design range</tspan></text>
  <text
     xml:space="preserve"
     style="font-size:40px;font-style:normal;font-weight:normal;line-height:125%;letter-spacing:0px;word-spacing:0px;fill:#ff0000;fill-opacity:1;stroke:none;font-family:Sans"
     x="270.52457"
     y="61.479271"
     id="text4035-5"
     sodipodi:linespacing="125%"><tspan
       sodipodi:role="line"
       id="tspan4037-8"
       x="270.52457"
       y="61.479271"
       style="font-size:12px;fill:#ff0000;fill-opacity:1">1x design range</tspan></text>
</svg>
