<?xml version="1.0" encoding="UTF-8" standalone="no"?>
<svg
   xmlns:dc="http://purl.org/dc/elements/1.1/"
   xmlns:cc="http://creativecommons.org/ns#"
   xmlns:rdf="http://www.w3.org/1999/02/22-rdf-syntax-ns#"
   xmlns:svg="http://www.w3.org/2000/svg"
   xmlns="http://www.w3.org/2000/svg"
   xmlns:xlink="http://www.w3.org/1999/xlink"
   xmlns:sodipodi="http://sodipodi.sourceforge.net/DTD/sodipodi-0.dtd"
   xmlns:inkscape="http://www.inkscape.org/namespaces/inkscape"
   width="370"
   height="445.17999"
   viewBox="0 0 370 445.17999"
   id="svg2"
   version="1.1"
   inkscape:version="0.48.3.1 r9886"
   sodipodi:docname="verizon-32.svg">
  <metadata
     id="metadata342">
    <rdf:RDF>
      <cc:Work
         rdf:about="">
        <dc:format>image/svg+xml</dc:format>
        <dc:type
           rdf:resource="http://purl.org/dc/dcmitype/StillImage" />
        <dc:title></dc:title>
      </cc:Work>
    </rdf:RDF>
  </metadata>
  <sodipodi:namedview
     pagecolor="#ffffff"
     bordercolor="#666666"
     borderopacity="1"
     objecttolerance="10"
     gridtolerance="10"
     guidetolerance="10"
     inkscape:pageopacity="0"
     inkscape:pageshadow="2"
     inkscape:window-width="1920"
     inkscape:window-height="1124"
     id="namedview340"
     showgrid="false"
     inkscape:zoom="2.095861"
     inkscape:cx="262.34482"
     inkscape:cy="217.59143"
     inkscape:window-x="1200"
     inkscape:window-y="24"
     inkscape:window-maximized="1"
     inkscape:current-layer="svg2"
     fit-margin-top="0"
     fit-margin-left="0"
     fit-margin-right="0"
     fit-margin-bottom="0" />
  <desc
     id="desc4">Produced by GNUPLOT 4.4 patchlevel 3 </desc>
  <defs
     id="defs6">
    <circle
       id="gpDot"
       r="0.5"
       cx="0"
       cy="0"
       sodipodi:cx="0"
       sodipodi:cy="0"
       sodipodi:rx="0.5"
       sodipodi:ry="0.5"
       style="stroke-width:0.5" />
    <path
       id="gpPt0"
       d="M -1,0 H 1 M 0,-1 v 2"
       inkscape:connector-curvature="0"
       style="stroke:currentColor;stroke-width:0.19" />
    <path
       id="gpPt1"
       d="M -1,-1 1,1 M 1,-1 -1,1"
       inkscape:connector-curvature="0"
       style="stroke:currentColor;stroke-width:0.19" />
    <path
       id="gpPt2"
       d="M -1,0 1,0 M 0,-1 0,1 m -1,-2 2,2 m -2,0 2,-2"
       inkscape:connector-curvature="0"
       style="stroke:currentColor;stroke-width:0.19" />
    <rect
       id="gpPt3"
       x="-1"
       y="-1"
       width="2"
       height="2"
       style="stroke:currentColor;stroke-width:0.19" />
    <rect
       id="gpPt4"
       x="-1"
       y="-1"
       width="2"
       height="2"
       style="fill:currentColor;stroke:currentColor;stroke-width:0.19" />
    <circle
       id="gpPt5"
       cx="0"
       cy="0"
       r="1"
       sodipodi:cx="0"
       sodipodi:cy="0"
       sodipodi:rx="1"
       sodipodi:ry="1"
       style="stroke:currentColor;stroke-width:0.19" />
    <use
       xlink:href="#gpPt5"
       id="gpPt6"
       style="fill:currentColor;stroke:none"
       x="0"
       y="0"
       width="600"
       height="480" />
    <path
       id="gpPt7"
       d="m 0,-1.33 -1.33,2 2.66,0 z"
       inkscape:connector-curvature="0"
       style="stroke:currentColor;stroke-width:0.19" />
    <use
       xlink:href="#gpPt7"
       id="gpPt8"
       style="fill:currentColor;stroke:none"
       x="0"
       y="0"
       width="600"
       height="480" />
    <use
       xlink:href="#gpPt7"
       id="gpPt9"
       transform="scale(-1,-1)"
       style="stroke:currentColor"
       x="0"
       y="0"
       width="600"
       height="480" />
    <use
       xlink:href="#gpPt9"
       id="gpPt10"
       style="fill:currentColor;stroke:none"
       x="0"
       y="0"
       width="600"
       height="480" />
    <use
       xlink:href="#gpPt3"
       id="gpPt11"
       transform="matrix(0.70710678,0.70710678,-0.70710678,0.70710678,0,0)"
       style="stroke:currentColor"
       x="0"
       y="0"
       width="600"
       height="480" />
    <use
       xlink:href="#gpPt11"
       id="gpPt12"
       style="fill:currentColor;stroke:none"
       x="0"
       y="0"
       width="600"
       height="480" />
  </defs>
  <path
     style="color:#808080;fill:none;stroke:currentColor;stroke-width:1;stroke-linecap:butt;stroke-linejoin:miter"
     inkscape:connector-curvature="0"
     id="path28"
     d="m 56.240479,393.7972 486.800001,0" />
  <path
     style="color:#000000;fill:none;stroke:currentColor;stroke-width:1;stroke-linecap:butt;stroke-linejoin:miter"
     inkscape:connector-curvature="0"
     id="path32"
     d="m 56.240479,393.7972 10.5,0 m 476.300001,0 -10.5,0" />
  <text
     style="font-size:17.5px;text-anchor:end;color:#000000;fill:#000000;stroke:none;font-family:Arial"
     id="text36"
     x="46.540482"
     y="398.99713">0</text>
  <path
     style="color:#808080;fill:none;stroke:currentColor;stroke-width:1;stroke-linecap:butt;stroke-linejoin:miter"
     inkscape:connector-curvature="0"
     id="path40"
     d="m 56.240479,318.7972 486.800001,0" />
  <path
     style="color:#000000;fill:none;stroke:currentColor;stroke-width:1;stroke-linecap:butt;stroke-linejoin:miter"
     inkscape:connector-curvature="0"
     id="path44"
     d="m 56.240479,318.7972 10.5,0 m 476.300001,0 -10.5,0" />
  <text
     style="font-size:17.5px;text-anchor:end;color:#000000;fill:#000000;stroke:none;font-family:Arial"
     id="text48"
     x="46.540482"
     y="323.99713">0.1</text>
  <path
     style="color:#808080;fill:none;stroke:currentColor;stroke-width:1;stroke-linecap:butt;stroke-linejoin:miter"
     inkscape:connector-curvature="0"
     id="path52"
     d="m 56.240479,243.7972 486.800001,0" />
  <path
     style="color:#000000;fill:none;stroke:currentColor;stroke-width:1;stroke-linecap:butt;stroke-linejoin:miter"
     inkscape:connector-curvature="0"
     id="path56"
     d="m 56.240479,243.7972 10.5,0 m 476.300001,0 -10.5,0" />
  <text
     style="font-size:17.5px;text-anchor:end;color:#000000;fill:#000000;stroke:none;font-family:Arial"
     id="text60"
     x="46.540482"
     y="248.99712">0.2</text>
  <path
     style="color:#808080;fill:none;stroke:currentColor;stroke-width:1;stroke-linecap:butt;stroke-linejoin:miter"
     inkscape:connector-curvature="0"
     id="path64"
     d="m 56.240479,168.7972 486.800001,0" />
  <path
     style="color:#000000;fill:none;stroke:currentColor;stroke-width:1;stroke-linecap:butt;stroke-linejoin:miter"
     inkscape:connector-curvature="0"
     id="path68"
     d="m 56.240479,168.7972 10.5,0 m 476.300001,0 -10.5,0" />
  <text
     style="font-size:17.5px;text-anchor:end;color:#000000;fill:#000000;stroke:none;font-family:Arial"
     id="text72"
     x="46.540482"
     y="173.99712">0.3</text>
  <path
     style="color:#808080;fill:none;stroke:currentColor;stroke-width:1;stroke-linecap:butt;stroke-linejoin:miter"
     inkscape:connector-curvature="0"
     id="path76"
     d="m 56.240479,93.79718 486.800001,0" />
  <path
     style="color:#000000;fill:none;stroke:currentColor;stroke-width:1;stroke-linecap:butt;stroke-linejoin:miter"
     inkscape:connector-curvature="0"
     id="path80"
     d="m 56.240479,93.79718 10.5,0 m 476.300001,0 -10.5,0" />
  <text
     style="font-size:17.5px;text-anchor:end;color:#000000;fill:#000000;stroke:none;font-family:Arial"
     id="text84"
     x="46.540482"
     y="98.997185">0.4</text>
  <path
     style="color:#808080;fill:none;stroke:currentColor;stroke-width:1;stroke-linecap:butt;stroke-linejoin:miter"
     inkscape:connector-curvature="0"
     id="path88"
     d="m 56.240479,18.79718 486.800001,0" />
  <path
     style="color:#000000;fill:none;stroke:currentColor;stroke-width:1;stroke-linecap:butt;stroke-linejoin:miter"
     inkscape:connector-curvature="0"
     id="path92"
     d="m 56.240479,18.79718 10.5,0 m 476.300001,0 -10.5,0" />
  <text
     style="font-size:17.5px;text-anchor:end;color:#000000;fill:#000000;stroke:none;font-family:Arial"
     id="text96"
     x="46.540482"
     y="23.997183">0.5</text>
  <path
     style="color:#808080;fill:none;stroke:currentColor;stroke-width:1;stroke-linecap:butt;stroke-linejoin:miter"
     inkscape:connector-curvature="0"
     id="path100"
     d="m 543.04048,393.7972 0,-393.30001875" />
  <path
     style="color:#000000;fill:none;stroke:currentColor;stroke-width:1;stroke-linecap:butt;stroke-linejoin:miter"
     inkscape:connector-curvature="0"
     id="path104"
     d="m 543.04048,393.7972 0,-10.5 m 0,-382.80001875 0,10.49999875" />
  <text
     style="font-size:17.5px;text-anchor:middle;color:#000000;fill:#000000;stroke:none;font-family:Arial"
     id="text108"
     x="543.04047"
     y="419.99713">1</text>
  <path
     style="color:#808080;fill:none;stroke:currentColor;stroke-width:1;stroke-linecap:butt;stroke-linejoin:miter"
     inkscape:connector-curvature="0"
     id="path112"
     d="m 494.34048,393.7972 0,-393.30001875" />
  <path
     style="color:#000000;fill:none;stroke:currentColor;stroke-width:1;stroke-linecap:butt;stroke-linejoin:miter"
     inkscape:connector-curvature="0"
     id="path116"
     d="m 494.34048,393.7972 0,-10.5 m 0,-382.80001875 0,10.49999875" />
  <text
     style="font-size:17.5px;text-anchor:middle;color:#000000;fill:#000000;stroke:none;font-family:Arial"
     id="text120"
     x="494.34045"
     y="419.99713">2</text>
  <path
     style="color:#808080;fill:none;stroke:currentColor;stroke-width:1;stroke-linecap:butt;stroke-linejoin:miter"
     inkscape:connector-curvature="0"
     id="path124"
     d="m 445.54048,393.7972 0,-393.30001875" />
  <path
     style="color:#000000;fill:none;stroke:currentColor;stroke-width:1;stroke-linecap:butt;stroke-linejoin:miter"
     inkscape:connector-curvature="0"
     id="path128"
     d="m 445.54048,393.7972 0,-10.5 m 0,-382.80001875 0,10.49999875" />
  <text
     style="font-size:17.5px;text-anchor:middle;color:#000000;fill:#000000;stroke:none;font-family:Arial"
     id="text132"
     x="445.54047"
     y="419.99713">4</text>
  <path
     style="color:#808080;fill:none;stroke:currentColor;stroke-width:1;stroke-linecap:butt;stroke-linejoin:miter"
     inkscape:connector-curvature="0"
     id="path136"
     d="m 396.84048,393.7972 0,-393.30001875" />
  <path
     style="color:#000000;fill:none;stroke:currentColor;stroke-width:1;stroke-linecap:butt;stroke-linejoin:miter"
     inkscape:connector-curvature="0"
     id="path140"
     d="m 396.84048,393.7972 0,-10.5 m 0,-382.80001875 0,10.49999875" />
  <text
     style="font-size:17.5px;text-anchor:middle;color:#000000;fill:#000000;stroke:none;font-family:Arial"
     id="text144"
     x="396.84048"
     y="419.99713">8</text>
  <path
     style="color:#808080;fill:none;stroke:currentColor;stroke-width:1;stroke-linecap:butt;stroke-linejoin:miter"
     inkscape:connector-curvature="0"
     id="path148"
     d="m 348.04048,393.7972 0,-393.30001875" />
  <path
     style="color:#000000;fill:none;stroke:currentColor;stroke-width:1;stroke-linecap:butt;stroke-linejoin:miter"
     inkscape:connector-curvature="0"
     id="path152"
     d="m 348.04048,393.7972 0,-10.5 m 0,-382.80001875 0,10.49999875" />
  <text
     style="font-size:17.5px;text-anchor:middle;color:#000000;fill:#000000;stroke:none;font-family:Arial"
     id="text156"
     x="348.04047"
     y="419.99713">16</text>
  <path
     style="color:#808080;fill:none;stroke:currentColor;stroke-width:1;stroke-linecap:butt;stroke-linejoin:miter"
     inkscape:connector-curvature="0"
     id="path160"
     d="m 299.34048,393.7972 0,-393.30001875" />
  <path
     style="color:#000000;fill:none;stroke:currentColor;stroke-width:1;stroke-linecap:butt;stroke-linejoin:miter"
     inkscape:connector-curvature="0"
     id="path164"
     d="m 299.34048,393.7972 0,-10.5 m 0,-382.80001875 0,10.49999875" />
  <text
     style="font-size:17.5px;text-anchor:middle;color:#000000;fill:#000000;stroke:none;font-family:Arial"
     id="text168"
     x="299.34048"
     y="419.99713">32</text>
  <path
     style="color:#808080;fill:none;stroke:currentColor;stroke-width:1;stroke-linecap:butt;stroke-linejoin:miter"
     inkscape:connector-curvature="0"
     id="path172"
     d="m 250.54048,393.7972 0,-393.30001875" />
  <path
     style="color:#000000;fill:none;stroke:currentColor;stroke-width:1;stroke-linecap:butt;stroke-linejoin:miter"
     inkscape:connector-curvature="0"
     id="path176"
     d="m 250.54048,393.7972 0,-10.5 m 0,-382.80001875 0,10.49999875" />
  <text
     style="font-size:17.5px;text-anchor:middle;color:#000000;fill:#000000;stroke:none;font-family:Arial"
     id="text180"
     x="250.54047"
     y="419.99713">64</text>
  <path
     style="color:#808080;fill:none;stroke:currentColor;stroke-width:1;stroke-linecap:butt;stroke-linejoin:miter"
     inkscape:connector-curvature="0"
     id="path184"
     d="m 201.84048,393.7972 0,-393.30001875" />
  <path
     style="color:#000000;fill:none;stroke:currentColor;stroke-width:1;stroke-linecap:butt;stroke-linejoin:miter"
     inkscape:connector-curvature="0"
     id="path188"
     d="m 201.84048,393.7972 0,-10.5 m 0,-382.80001875 0,10.49999875" />
  <text
     style="font-size:17.5px;text-anchor:middle;color:#000000;fill:#000000;stroke:none;font-family:Arial"
     id="text192"
     x="201.84048"
     y="419.99713">128</text>
  <path
     style="color:#808080;fill:none;stroke:currentColor;stroke-width:1;stroke-linecap:butt;stroke-linejoin:miter"
     inkscape:connector-curvature="0"
     id="path196"
     d="m 153.04048,393.7972 0,-393.30001875" />
  <path
     style="color:#000000;fill:none;stroke:currentColor;stroke-width:1;stroke-linecap:butt;stroke-linejoin:miter"
     inkscape:connector-curvature="0"
     id="path200"
     d="m 153.04048,393.7972 0,-10.5 m 0,-382.80001875 0,10.49999875" />
  <text
     style="font-size:17.5px;text-anchor:middle;color:#000000;fill:#000000;stroke:none;font-family:Arial"
     id="text204"
     x="153.04048"
     y="419.99713">256</text>
  <path
     style="color:#808080;fill:none;stroke:currentColor;stroke-width:1;stroke-linecap:butt;stroke-linejoin:miter"
     inkscape:connector-curvature="0"
     id="path208"
     d="m 104.34048,393.7972 0,-393.30001875" />
  <path
     style="color:#000000;fill:none;stroke:currentColor;stroke-width:1;stroke-linecap:butt;stroke-linejoin:miter"
     inkscape:connector-curvature="0"
     id="path212"
     d="m 104.34048,393.7972 0,-10.5 m 0,-382.80001875 0,10.49999875" />
  <text
     style="font-size:17.5px;text-anchor:middle;color:#000000;fill:#000000;stroke:none;font-family:Arial"
     id="text216"
     x="104.34048"
     y="419.99713">512</text>
  <path
     style="color:#000000;fill:none;stroke:currentColor;stroke-width:1;stroke-linecap:butt;stroke-linejoin:miter"
     inkscape:connector-curvature="0"
     id="path218"
     d="m 56.240479,0.49718125 0,393.30001875 486.800001,0 0,-393.30001875 -486.800001,0 z" />
  <text
     style="font-size:17.5px;text-anchor:middle;color:#000000;fill:#000000;stroke:none;font-family:Arial"
     id="text222"
     transform="matrix(0,-1,1,0,0,0)"
     x="-197.19711"
     y="12.740479">Throughput (Mbps)</text>
  <text
     style="font-size:17.5px;text-anchor:middle;color:#000000;fill:#000000;stroke:none;font-family:Arial"
     id="text226"
     x="207.64047"
     y="441.49713">Queueing delay (ms)</text>
  <use
     height="480"
     width="600"
     y="0"
     x="0"
     style="color:#000000;fill:none;stroke:currentColor;stroke-width:1;stroke-linecap:butt;stroke-linejoin:miter"
     id="use232"
     transform="matrix(5.25,0,0,5.25,332.34048,176.2972)"
     xlink:href="#gpPt0" />
  <use
     height="480"
     width="600"
     y="0"
     x="0"
     style="color:#000000;fill:none;stroke:currentColor;stroke-width:1;stroke-linecap:butt;stroke-linejoin:miter"
     id="use244"
     transform="matrix(5.25,0,0,5.25,71.340479,304.4972)"
     xlink:href="#gpPt0" />
  <use
     height="480"
     width="600"
     y="0"
     x="0"
     style="color:#000000;fill:none;stroke:currentColor;stroke-width:1;stroke-linecap:butt;stroke-linejoin:miter"
     id="use250"
     transform="matrix(5.25,0,0,5.25,302.94048,68.99718)"
     xlink:href="#gpPt0" />
  <use
     height="480"
     width="600"
     y="0"
     x="0"
     style="color:#000000;fill:none;stroke:currentColor;stroke-width:1;stroke-linecap:butt;stroke-linejoin:miter"
     id="use256"
     transform="matrix(5.25,0,0,5.25,354.54048,235.4972)"
     xlink:href="#gpPt0" />
  <use
     height="480"
     width="600"
     y="0"
     x="0"
     style="color:#000000;fill:none;stroke:currentColor;stroke-width:1;stroke-linecap:butt;stroke-linejoin:miter"
     id="use262"
     transform="matrix(5.25,0,0,5.25,133.54048,243.7972)"
     xlink:href="#gpPt0" />
  <use
     height="480"
     width="600"
     y="0"
     x="0"
     style="color:#000000;fill:none;stroke:currentColor;stroke-width:1;stroke-linecap:butt;stroke-linejoin:miter"
     id="use268"
     transform="matrix(5.25,0,0,5.25,97.94048,286.4972)"
     xlink:href="#gpPt0" />
  <use
     height="480"
     width="600"
     y="0"
     x="0"
     style="color:#000000;fill:none;stroke:currentColor;stroke-width:1;stroke-linecap:butt;stroke-linejoin:miter"
     id="use274"
     transform="matrix(5.25,0,0,5.25,92.74048,292.4972)"
     xlink:href="#gpPt0" />
  <use
     height="480"
     width="600"
     y="0"
     x="0"
     style="color:#000000;fill:none;stroke:currentColor;stroke-width:1;stroke-linecap:butt;stroke-linejoin:miter"
     id="use280"
     transform="matrix(5.25,0,0,5.25,129.84048,161.2972)"
     xlink:href="#gpPt0" />
  <a
     xlink:title="Plot #1"
     id="a282"
     transform="translate(-27.759521,-19.00282)">
    <g
       style="color:#ff0000;fill:none;stroke:currentColor;stroke-width:1;stroke-linecap:butt;stroke-linejoin:miter"
       id="g284" />
  </a>
  <a
     xlink:title="Plot #2"
     id="a288"
     transform="translate(-27.759521,-19.00282)">
    <g
       style="color:#ff0000;fill:none;stroke:currentColor;stroke-width:1;stroke-linecap:butt;stroke-linejoin:miter"
       id="g290" />
  </a>
  <a
     xlink:title="Plot #3"
     id="a294"
     transform="translate(-27.759521,-19.00282)">
    <g
       style="color:#ff0000;fill:none;stroke:currentColor;stroke-width:1;stroke-linecap:butt;stroke-linejoin:miter"
       id="g296" />
  </a>
  <a
     xlink:title="Plot #4"
     id="a300"
     transform="translate(-27.759521,-19.00282)">
    <g
       style="color:#ff0000;fill:none;stroke:currentColor;stroke-width:1;stroke-linecap:butt;stroke-linejoin:miter"
       id="g302" />
  </a>
  <a
     xlink:title="Plot #5"
     id="a306"
     transform="translate(-27.759521,-19.00282)">
    <g
       style="color:#ff0000;fill:none;stroke:currentColor;stroke-width:1;stroke-linecap:butt;stroke-linejoin:miter"
       id="g308" />
  </a>
  <a
     xlink:title="Plot #6"
     id="a312"
     transform="translate(-27.759521,-19.00282)">
    <g
       style="color:#ff0000;fill:none;stroke:currentColor;stroke-width:1;stroke-linecap:butt;stroke-linejoin:miter"
       id="g314" />
  </a>
  <a
     xlink:title="Plot #7"
     id="a318"
     transform="translate(-27.759521,-19.00282)">
    <g
       style="color:#ff0000;fill:none;stroke:currentColor;stroke-width:1;stroke-linecap:butt;stroke-linejoin:miter"
       id="g320" />
  </a>
  <a
     xlink:title="Plot #8"
     id="a324"
     transform="translate(-27.759521,-19.00282)">
    <g
       style="color:#ff0000;fill:none;stroke:currentColor;stroke-width:1;stroke-linecap:butt;stroke-linejoin:miter"
       id="g326" />
  </a>
  <a
     xlink:title="Plot #9"
     id="a330"
     transform="translate(-27.759521,-19.00282)">
    <g
       style="color:#ff0000;fill:none;stroke:currentColor;stroke-width:1;stroke-linecap:butt;stroke-linejoin:miter"
       id="g332" />
  </a>
  <path
     style="color:#000000;fill:none;stroke:currentColor;stroke-width:1;stroke-linecap:butt;stroke-linejoin:miter"
     inkscape:connector-curvature="0"
     id="path338"
     d="m 56.240479,0.49718125 0,393.30001875 486.800001,0 0,-393.30001875 -486.800001,0 z" />
  <g
     inkscape:groupmode="layer"
     id="layer1"
     inkscape:label="ovals"
     style="display:inline"
     transform="translate(-27.759521,-19.00282)">
    <path
       style="color:#ff0000;fill:#ff00ff;fill-opacity:0.25098039;stroke:none"
       d="m 370.6,45.1 0.1,0.7 0,0.6 0,0.7 0,0.7 0.1,0.7 0,0.7 0,0.7 0.1,0.7 0,0.8 0,0.7 0,0.7 0.1,0.8 0,0.7 0,0.8 0,0.8 0,0.8 0.1,0.7 0,0.8 0,0.8 0,0.9 0,0.8 0,0.8 0.1,0.8 0,0.9 0,0.8 0,0.9 0,0.8 0,0.9 0,0.9 0,0.9 0,0.9 0,0.9 0.1,0.9 0,0.9 0,0.9 0,0.9 0,0.9 0,1 0,0.9 0,1 0,0.9 0,1 0,0.9 0,1 0,1 0,1 0,0.9 0,1 0,1 -0.1,1 0,1.1 0,1 0,1 0,1 0,1 0,1.1 0,1 0,1.1 0,1 -0.1,1.1 0,1 0,1.1 0,1.1 0,1 0,1.1 -0.1,1.1 0,1.1 0,1.1 0,1 -0.1,1.1 0,1.1 0,1.1 0,1.2 -0.1,1.1 0,1.1 0,1.1 0,1.1 -0.1,1.1 0,1.2 0,1.1 -0.1,1.1 0,1.2 0,1.1 0,1.1 -0.1,1.2 0,1.1 -0.1,1.2 0,1.1 0,1.2 -0.1,1.1 0,1.2 0,1.1 -0.1,1.2 0,1.2 -0.1,1.1 0,1.2 0,1.2 -0.1,1.1 0,1.2 -0.1,1.2 0,1.1 -0.1,1.2 0,1.2 -0.1,1.1 0,1.2 -0.1,1.2 0,1.2 -0.1,1.1 0,1.2 -0.1,1.2 0,1.2 -0.1,1.2 0,1.1 -0.1,1.2 0,1.2 -0.1,1.2 0,1.1 -0.1,1.2 -0.1,1.2 0,1.2 -0.1,1.1 0,1.2 -0.1,1.2 0,1.2 -0.1,1.1 -0.1,1.2 0,1.2 -0.1,1.1 -0.1,1.2 0,1.2 -0.1,1.1 0,1.2 -0.1,1.1 -0.1,1.2 0,1.2 -0.1,1.1 -0.1,1.2 0,1.1 -0.1,1.2 -0.1,1.1 -0.1,1.1 0,1.2 -0.1,1.1 -0.1,1.2 0,1.1 -0.1,1.1 -0.1,1.1 -0.1,1.2 0,1.1 -0.1,1.1 -0.1,1.1 0,1.1 -0.1,1.1 -0.1,1.1 -0.1,1.1 -0.1,1.1 0,1.1 -0.1,1.1 -0.1,1.1 -0.1,1.1 0,1 -0.1,1.1 -0.1,1.1 -0.1,1 -0.1,1.1 0,1 -0.1,1.1 -0.1,1 -0.1,1.1 -0.1,1 0,1 -0.1,1.1 -0.1,1 -0.1,1 -0.1,1 -0.1,1 0,1 -0.1,1 -0.1,1 -0.1,1 -0.1,0.9 -0.1,1 -0.1,1 0,0.9 -0.1,1 -0.1,0.9 -0.1,1 -0.1,0.9 -0.1,0.9 -0.1,0.9 -0.1,1 0,0.9 -0.1,0.9 -0.1,0.9 -0.1,0.8 -0.1,0.9 -0.1,0.9 -0.1,0.9 -0.1,0.8 -0.1,0.9 0,0.8 -0.1,0.9 -0.1,0.8 -0.1,0.8 -0.1,0.8 -0.1,0.8 -0.1,0.8 -0.1,0.8 -0.1,0.8 -0.1,0.8 0,0.8 -0.1,0.7 -0.1,0.8 -0.1,0.7 -0.1,0.8 -0.1,0.7 -0.1,0.7 -0.1,0.8 -0.1,0.7 -0.1,0.7 -0.1,0.7 0,0.6 -0.1,0.7 -0.1,0.7 -0.1,0.6 -0.1,0.7 -0.1,0.6 -0.1,0.7 -0.1,0.6 -0.1,0.6 -0.1,0.6 -0.1,0.6 0,0.6 -0.1,0.6 -0.1,0.5 -0.1,0.6 -0.1,0.5 -0.1,0.6 -0.1,0.5 -0.1,0.5 -0.1,0.5 -0.1,0.6 0,0.5 -0.1,0.4 -0.1,0.5 -0.1,0.5 -0.1,0.4 -0.1,0.5 -0.1,0.4 -0.1,0.5 -0.1,0.4 0,0.4 -0.1,0.4 -0.1,0.4 -0.1,0.4 -0.1,0.3 -0.1,0.4 -0.1,0.4 0,0.3 -0.1,0.3 -0.1,0.4 -0.1,0.3 -0.1,0.3 -0.1,0.3 -0.1,0.2 0,0.3 -0.1,0.3 -0.1,0.2 -0.1,0.3 -0.1,0.2 -0.1,0.2 0,0.3 -0.1,0.2 -0.1,0.1 -0.1,0.2 -0.1,0.2 0,0.2 -0.1,0.1 -0.1,0.2 -0.1,0.1 -0.1,0.1 0,0.1 -0.1,0.1 -0.1,0.1 -0.1,0.1 -0.1,0.1 -0.1,0.1 -0.1,0 -0.1,0 0,0.1 -0.1,0 -0.1,0 -0.1,0 0,-0.1 -0.1,0 -0.1,0 0,-0.1 -0.1,0 -0.1,-0.1 -0.1,-0.1 0,-0.1 -0.1,-0.1 -0.1,-0.1 0,-0.1 -0.1,-0.2 -0.1,-0.1 0,-0.2 -0.1,-0.1 -0.1,-0.2 0,-0.2 -0.1,-0.2 0,-0.2 -0.1,-0.2 -0.1,-0.2 0,-0.3 -0.1,-0.2 -0.1,-0.3 0,-0.3 -0.1,-0.2 0,-0.3 -0.1,-0.3 0,-0.3 -0.1,-0.3 -0.1,-0.4 0,-0.3 -0.1,-0.3 0,-0.4 -0.1,-0.4 0,-0.3 -0.1,-0.4 0,-0.4 -0.1,-0.4 0,-0.4 -0.1,-0.5 0,-0.4 -0.1,-0.4 0,-0.5 -0.1,-0.4 0,-0.5 -0.1,-0.5 0,-0.5 -0.1,-0.5 0,-0.5 -0.1,-0.5 0,-0.5 0,-0.6 -0.1,-0.5 0,-0.6 -0.1,-0.5 0,-0.6 0,-0.6 -0.1,-0.6 0,-0.6 0,-0.6 -0.1,-0.6 0,-0.6 0,-0.7 -0.1,-0.6 0,-0.6 0,-0.7 -0.1,-0.7 0,-0.6 0,-0.7 -0.1,-0.7 0,-0.7 0,-0.7 0,-0.8 -0.1,-0.7 0,-0.7 0,-0.8 0,-0.7 -0.1,-0.8 0,-0.7 0,-0.8 0,-0.8 0,-0.8 -0.1,-0.8 0,-0.8 0,-0.8 0,-0.8 0,-0.8 0,-0.9 -0.1,-0.8 0,-0.8 0,-0.9 0,-0.9 0,-0.8 0,-0.9 0,-0.9 0,-0.9 0,-0.9 0,-0.9 0,-0.9 -0.1,-0.9 0,-0.9 0,-1 0,-0.9 0,-0.9 0,-1 0,-0.9 0,-1 0,-1 0,-0.9 0,-1 0,-1 0.1,-1 0,-1 0,-1 0,-1 0,-1 0,-1 0,-1 0,-1 0,-1.1 0,-1 0,-1 0.1,-1.1 0,-1 0,-1.1 0,-1.1 0,-1 0,-1.1 0,-1.1 0.1,-1 0,-1.1 0,-1.1 0,-1.1 0,-1.1 0.1,-1.1 0,-1.1 0,-1.1 0,-1.1 0.1,-1.1 0,-1.1 0,-1.1 0,-1.1 0.1,-1.2 0,-1.1 0,-1.1 0.1,-1.2 0,-1.1 0,-1.1 0.1,-1.2 0,-1.1 0,-1.2 0.1,-1.1 0,-1.1 0,-1.2 0.1,-1.2 0,-1.1 0.1,-1.2 0,-1.1 0,-1.2 0.1,-1.2 0,-1.1 0.1,-1.2 0,-1.1 0,-1.2 0.1,-1.2 0,-1.2 0.1,-1.1 0,-1.2 0.1,-1.2 0,-1.1 0.1,-1.2 0,-1.2 0.1,-1.2 0,-1.2 0.1,-1.1 0,-1.2 0.1,-1.2 0,-1.2 0.1,-1.1 0,-1.2 0.1,-1.2 0.1,-1.2 0,-1.1 0.1,-1.2 0,-1.2 0.1,-1.2 0,-1.1 0.1,-1.2 0.1,-1.2 0,-1.2 0.1,-1.1 0,-1.2 0.1,-1.2 0.1,-1.1 0,-1.2 0.1,-1.2 0.1,-1.1 0,-1.2 0.1,-1.1 0.1,-1.2 0,-1.1 0.1,-1.2 0.1,-1.1 0,-1.2 0.1,-1.1 0.1,-1.2 0,-1.1 0.1,-1.1 0.1,-1.2 0.1,-1.1 0,-1.1 0.1,-1.2 0.1,-1.1 0,-1.1 0.1,-1.1 0.1,-1.1 0.1,-1.1 0,-1.1 0.1,-1.2 0.1,-1.1 0.1,-1 0,-1.1 0.1,-1.1 0.1,-1.1 0.1,-1.1 0.1,-1.1 0,-1 0.1,-1.1 0.1,-1.1 0.1,-1 0.1,-1.1 0,-1 0.1,-1.1 0.1,-1 0.1,-1 0.1,-1.1 0,-1 0.1,-1 0.1,-1 0.1,-1 0.1,-1 0.1,-1 0,-1 0.1,-1 0.1,-1 0.1,-1 0.1,-0.9 0.1,-1 0.1,-1 0,-0.9 0.1,-0.9 0.1,-1 0.1,-0.9 0.1,-0.9 0.1,-1 0.1,-0.9 0.1,-0.9 0,-0.9 0.1,-0.9 0.1,-0.9 0.1,-0.9 0.1,-0.8 0.1,-0.9 0.1,-0.9 0.1,-0.8 0.1,-0.9 0,-0.8 0.1,-0.8 0.1,-0.8 0.1,-0.9 0.1,-0.8 0.1,-0.8 0.1,-0.8 0.1,-0.8 0.1,-0.7 0.1,-0.8 0.1,-0.8 0,-0.7 0.1,-0.8 0.1,-0.7 0.1,-0.7 0.1,-0.8 0.1,-0.7 0.1,-0.7 0.1,-0.7 0.1,-0.7 0.1,-0.7 0.1,-0.6 0,-0.7 0.1,-0.7 0.1,-0.6 0.1,-0.6 0.1,-0.7 0.1,-0.6 0.1,-0.6 0.1,-0.6 0.1,-0.6 0.1,-0.6 0,-0.6 0.1,-0.6 0.1,-0.5 0.1,-0.6 0.1,-0.5 0.1,-0.5 0.1,-0.6 0.1,-0.5 0.1,-0.5 0.1,-0.5 0,-0.5 0.1,-0.4 0.1,-0.5 0.1,-0.5 0.1,-0.4 0.1,-0.5 0.1,-0.4 0.1,-0.4 0.1,-0.4 0,-0.4 0.1,-0.4 0.1,-0.4 0.1,-0.4 0.1,-0.3 0.1,-0.4 0.1,-0.3 0,-0.4 0.1,-0.3 0.1,-0.3 0.1,-0.3 0.1,-0.3 0.1,-0.3 0.1,-0.2 0,-0.3 0.1,-0.3 0.1,-0.2 0.1,-0.2 0.1,-0.3 0.1,-0.2 0,-0.2 0.1,-0.2 0.1,-0.2 0.1,-0.1 0.1,-0.2 0,-0.1 0.1,-0.2 0.1,-0.1 0.1,-0.1 0.1,-0.2 0,-0.1 0.1,0 0.1,-0.1 0.1,-0.1 0,-0.1 0.1,0 0.1,0 0.1,-0.1 0.1,0 0.1,0 0.1,0 0.1,0.1 0.1,0 0.1,0.1 0.1,0.1 0.1,0.1 0,0.1 0.1,0.1 0.1,0.1 0,0.1 0.1,0.1 0.1,0.2 0,0.1 0.1,0.2 0.1,0.2 0,0.2 0.1,0.2 0.1,0.2 0,0.2 0.1,0.2 0.1,0.3 0,0.2 0.1,0.3 0,0.2 0.1,0.3 0,0.3 0.1,0.3 0.1,0.3 0,0.3 0.1,0.3 0,0.4 0.1,0.3 0,0.4 0.1,0.3 0,0.4 0.1,0.4 0.1,0.4 0,0.4 0.1,0.4 0,0.4 0.1,0.5 0,0.4 0.1,0.5 0,0.4 0,0.5 0.1,0.5 0,0.5 0.1,0.5 0,0.5 0.1,0.5 0,0.5 0,0.5 0.1,0.6 0,0.5 0.1,0.6 0,0.6 0,0.6 0.1,0.5 0,0.6 0.1,0.6 0,0.7 0,0.6 0.1,0.6 0,0.7 0,0.6"
       id="path286"
       inkscape:connector-curvature="0" />
    <path
       style="color:#ff0000;fill:#ff0000;fill-opacity:0.25098039;stroke:none"
       d="m 91.5,412.8 0,-0.3 -0.1,-0.6 -0.1,-0.7 -0.2,-0.7 -0.1,-0.7 -0.1,-0.7 -0.1,-0.7 -0.1,-0.7 -0.1,-0.7 -0.1,-0.8 -0.2,-0.7 -0.1,-0.8 -0.1,-0.7 -0.1,-0.8 -0.1,-0.8 -0.1,-0.8 -0.1,-0.8 -0.1,-0.8 -0.1,-0.8 -0.1,-0.9 -0.1,-0.8 -0.1,-0.9 -0.1,-0.8 -0.1,-0.9 -0.1,-0.9 -0.1,-0.9 -0.1,-0.9 -0.1,-0.9 -0.1,-0.9 -0.1,-1 -0.1,-0.9 -0.1,-0.9 -0.1,-1 -0.1,-1 -0.1,-0.9 -0.1,-1 -0.1,-1 0,-1 -0.1,-1 -0.1,-1 -0.1,-1 -0.1,-1.1 -0.1,-1 -0.1,-1.1 0,-1 -0.1,-1.1 -0.1,-1 -0.1,-1.1 -0.1,-1.1 0,-1.1 -0.1,-1.1 -0.1,-1.1 -0.1,-1.1 0,-1.1 -0.1,-1.2 -0.1,-1.1 0,-1.1 -0.1,-1.2 -0.1,-1.2 -0.1,-1.1 0,-1.2 -0.1,-1.2 0,-1.1 -0.1,-1.2 -0.1,-1.2 0,-1.2 -0.1,-1.2 0,-1.2 -0.1,-1.3 -0.1,-1.2 0,-1.2 -0.1,-1.2 0,-1.3 -0.1,-1.2 0,-1.3 -0.1,-1.2 0,-1.3 -0.1,-1.2 0,-1.3 -0.1,-1.3 0,-1.3 0,-1.3 -0.1,-1.2 0,-1.3 -0.1,-1.3 0,-1.3 0,-1.3 -0.1,-1.3 0,-1.4 0,-1.3 -0.1,-1.3 0,-1.3 0,-1.3 -0.1,-1.4 0,-1.3 0,-1.3 0,-1.4 -0.1,-1.3 0,-1.4 0,-1.3 0,-1.4 -0.1,-1.3 0,-1.4 0,-1.3 0,-1.4 0,-1.3 0,-1.4 0,-1.4 -0.1,-1.3 0,-1.4 0,-1.4 0,-1.4 0,-1.3 0,-1.4 0,-1.4 0,-1.4 0,-1.3 0,-1.4 0,-1.4 0,-1.4 0,-1.4 0,-1.3 0,-1.4 0,-1.4 0,-1.4 0,-1.4 0.1,-1.3 0,-1.4 0,-1.4 0,-1.4 0,-1.4 0,-1.3 0,-1.4 0.1,-1.4 0,-1.4 0,-1.4 0,-1.3 0.1,-1.4 0,-1.4 0,-1.3 0,-1.4 0.1,-1.4 0,-1.3 0,-1.4 0.1,-1.4 0,-1.3 0,-1.4 0.1,-1.3 0,-1.4 0,-1.3 0.1,-1.4 0,-1.3 0.1,-1.4 0,-1.3 0,-1.4 0.1,-1.3 0,-1.3 0.1,-1.3 0,-1.4 0.1,-1.3 0,-1.3 0.1,-1.3 0,-1.3 0.1,-1.3 0,-1.3 0.1,-1.3 0.1,-1.3 0,-1.3 0.1,-1.3 0,-1.3 0.1,-1.2 0.1,-1.3 0,-1.3 0.1,-1.2 0.1,-1.3 0,-1.2 0.1,-1.3 0.1,-1.2 0,-1.3 0.1,-1.2 0.1,-1.2 0,-1.2 0.1,-1.2 0.1,-1.2 0.1,-1.2 0,-1.2 0.1,-1.2 0.1,-1.2 0.1,-1.2 0.1,-1.1 0,-1.2 0.1,-1.2 0.1,-1.1 0.1,-1.2 0.1,-1.1 0.1,-1.1 0.1,-1.1 0,-1.1 0.1,-1.2 0.1,-1.1 0.1,-1 0.1,-1.1 0.1,-1.1 0.1,-1.1 0.1,-1 0.1,-1.1 0.1,-1 0.1,-1.1 0.1,-1 0.1,-1 0.1,-1.1 0.1,-1 0.1,-1 0.1,-0.9 0.1,-1 0.1,-1 0.1,-1 0.1,-0.9 0.1,-1 0.1,-0.9 0.1,-0.9 0.1,-1 0.1,-0.9 0.2,-0.9 0.1,-0.9 0.1,-0.8 0.1,-0.9 0.1,-0.9 0.1,-0.8 0.1,-0.9 0.1,-0.8 0.2,-0.8 0.1,-0.9 0.1,-0.8 0.1,-0.8 0.1,-0.8 0.2,-0.7 0.1,-0.8 0.1,-0.8 0.1,-0.7 0.1,-0.7 0.2,-0.8 0.1,-0.7 0.1,-0.7 0.1,-0.7 0.1,-0.7 0.2,-0.6 0.1,-0.7 0.1,-0.7 0.1,-0.6 0.2,-0.6 0.1,-0.7 0.1,-0.6 0.2,-0.6 0.1,-0.6 0.1,-0.5 0.1,-0.6 0.2,-0.6 0.1,-0.5 0.1,-0.5 0.2,-0.6 0.1,-0.5 0.1,-0.5 0.2,-0.5 0.1,-0.5 0.1,-0.4 0.2,-0.5 0.1,-0.4 0.1,-0.5 0.2,-0.4 0.1,-0.4 0.1,-0.4 0.2,-0.4 0.1,-0.3 0.1,-0.4 0.2,-0.4 0.1,-0.3 0.1,-0.3 0.2,-0.3 0.1,-0.3 0.1,-0.3 0.2,-0.3 0.1,-0.3 0.2,-0.2 0.1,-0.3 0.1,-0.2 0.2,-0.3 0.1,-0.2 0.1,-0.2 0.2,-0.1 0.1,-0.2 0.2,-0.2 0.1,-0.1 0.1,-0.2 0.2,-0.1 0.1,-0.1 0.1,-0.1 0.2,-0.1 0.1,-0.1 0.2,-0.1 0.1,0 0.1,0 0.2,-0.1 0.1,0 0.2,0 0.1,0 0.1,0 0.2,0.1 0.1,0 0.1,0 0.2,0.1 0.1,0.1 0.1,0.1 0.2,0.1 0.1,0.1 0.2,0.1 0.1,0.2 0.1,0.1 0.2,0.2 0.1,0.2 0.1,0.1 0.2,0.2 0.1,0.2 0.1,0.3 0.2,0.2 0.1,0.2 0.1,0.3 0.2,0.3 0.1,0.3 0.1,0.3 0.2,0.3 0.1,0.3 0.1,0.3 0.2,0.3 0.1,0.4 0.1,0.4 0.2,0.3 0.1,0.4 0.1,0.4 0.1,0.4 0.2,0.4 0.1,0.5 0.1,0.4 0.2,0.5 0.1,0.4 0.1,0.5 0.1,0.5 0.2,0.5 0.1,0.5 0.1,0.5 0.1,0.6 0.2,0.5 0.1,0.6 0.1,0.6 0.1,0.5 0.1,0.6 0.2,0.6 0.1,0.6 0.1,0.7 0.1,0.6 0.1,0.6 0.2,0.7 0.1,0.6 0.1,0.7 0.1,0.7 0.1,0.7 0.1,0.7 0.1,0.7 0.2,0.8 0.1,0.7 0.1,0.7 0.1,0.8 0.1,0.8 0.1,0.7 0.1,0.8 0.1,0.8 0.1,0.8 0.1,0.8 0.1,0.9 0.1,0.8 0.1,0.9 0.1,0.8 0.1,0.9 0.2,0.9 0.1,0.8 0.1,0.9 0,0.9 0.1,0.9 0.1,1 0.1,0.9 0.1,0.9 0.1,1 0.1,0.9 0.1,1 0.1,1 0.1,0.9 0.1,1 0.1,1 0.1,1 0,1.1 0.1,1 0.1,1 0.1,1 0.1,1.1 0.1,1 0,1.1 0.1,1.1 0.1,1.1 0.1,1 0.1,1.1 0,1.1 0.1,1.1 0.1,1.2 0.1,1.1 0,1.1 0.1,1.1 0.1,1.2 0,1.1 0.1,1.2 0.1,1.1 0,1.2 0.1,1.2 0.1,1.2 0,1.2 0.1,1.2 0.1,1.2 0,1.2 0.1,1.2 0,1.2 0.1,1.2 0,1.2 0.1,1.3 0,1.2 0.1,1.3 0.1,1.2 0,1.3 0,1.2 0.1,1.3 0,1.3 0.1,1.2 0,1.3 0.1,1.3 0,1.3 0.1,1.3 0,1.3 0,1.3 0.1,1.3 0,1.3 0,1.3 0.1,1.3 0,1.3 0,1.3 0.1,1.4 0,1.3 0,1.3 0,1.4 0.1,1.3 0,1.4 0,1.3 0,1.3 0.1,1.4 0,1.3 0,1.4 0,1.4 0,1.3 0,1.4 0.1,1.3 0,1.4 0,1.4 0,1.3 0,1.4 -0.0145,1.47252 0.0145,1.32748 0,1.3 0,1.4 0,1.4 0,1.4 0,1.3 0,1.4 0,1.4 0,1.4 0,1.4 0,1.3 0,1.4 0,1.4 0,1.4 0,1.4 0,1.4 -0.1,1.3 0,1.4 0,1.4 0,1.4 0,1.4 0,1.3 -0.1,1.4 0,1.4 0,1.4 0,1.3 -0.1,1.4 0,1.4 0,1.3 0,1.4 -0.1,1.4 0,1.3 0,1.4 -0.1,1.4 0,1.3 0,1.4 -0.1,1.3 0,1.4 0,1.3 -0.1,1.4 0,1.3 -0.1,1.4 0,1.3 -0.1,1.3 0,1.4 -0.1,1.3 0,1.3 -0.1,1.3 0,1.3 -0.1,1.3 0,1.4 -0.1,1.3 0,1.3 -0.1,1.3 0,1.2 -0.1,1.3 0,1.3 -0.1,1.3 -0.1,1.3 0,1.2 -0.1,1.3 -0.1,1.3 0,1.2 -0.1,1.3 -0.1,1.2 0,1.3 -0.1,1.2 -0.1,1.2 0,1.2 -0.1,1.3 -0.1,1.2 -0.1,1.2 0,1.2 -0.1,1.2 -0.1,1.2 -0.1,1.1 -0.1,1.2 0,1.2 -0.1,1.1 -0.1,1.2 -0.1,1.1 -0.1,1.2 -0.1,1.1 0,1.1 -0.1,1.2 -0.1,1.1 -0.1,1.1 -0.1,1.1 -0.1,1.1 -0.1,1.1 -0.1,1 -0.1,1.1 -0.1,1.1 -0.1,1 -0.1,1.1 -0.1,1 -0.1,1.1 -0.1,1 -0.1,1 -0.1,1 -0.1,1 -0.1,1 -0.1,1 -0.1,0.9 -0.1,1 -0.1,1 -0.1,0.9 -0.1,0.9 -0.1,1 -0.1,0.9 -0.1,0.9 -0.1,0.9 -0.1,0.9 -0.2,0.9 -0.1,0.9 -0.1,0.8 -0.1,0.9 -0.1,0.8 -0.1,0.9 -0.1,0.8 -0.2,0.8 -0.1,0.8 -0.1,0.8 -0.1,0.8 -0.1,0.8 -0.1,0.7 -0.2,0.8 -0.1,0.7 -0.1,0.8 -0.1,0.7 -0.2,0.7 -0.1,0.7 -0.1,0.7 -0.1,0.7 -0.1,0.7 -0.2,0.6 -0.1,0.7 -0.1,0.3"
       id="path298"
       inkscape:connector-curvature="0"
       sodipodi:nodetypes="ccccccccccccccccccccccccccccccccccccccccccccccccccccccccccccccccccccccccccccccccccccccccccccccccccccccccccccccccccccccccccccccccccccccccccccccccccccccccccccccccccccccccccccccccccccccccccccccccccccccccccccccccccccccccccccccccccccccccccccccccccccccccccccccccccccccccccccccccccccccccccccccccccccccccccccccccccccccccccccccccccccccccccccccccccccccccccccccccccccccccccccccccccccccccccccccccccccccccccccccccccccccccccccccccccccccccccccccccccccccccccccccccccccccccccccccccccccccccccccccccccccccccccccccccccccccccccccccccccccccccccccccccccccccccccccccccccccccccccccccccccccccccccccccccccccccccccccccccccccccccccccccccccc" />
    <path
       style="color:#ff0000;fill:#00ff00;fill-opacity:0.25098039;stroke:none"
       d="m 339.2,42.3 0,0.4 0,0.4 0,0.4 0.1,0.5 0,0.4 0,0.4 0,0.4 0,0.4 0,0.4 0,0.5 0,0.4 0,0.4 0,0.5 0,0.4 0,0.4 0,0.5 0,0.4 0,0.5 0,0.4 -0.1,0.5 0,0.4 0,0.5 0,0.4 0,0.5 0,0.5 0,0.4 0,0.5 0,0.5 0,0.4 0,0.5 -0.1,0.5 0,0.4 0,0.5 0,0.5 0,0.5 0,0.4 0,0.5 -0.1,0.5 0,0.5 0,0.5 0,0.5 0,0.5 0,0.5 -0.1,0.4 0,0.5 0,0.5 0,0.5 -0.1,0.5 0,0.5 0,0.5 0,0.5 -0.1,0.5 0,0.5 0,0.5 0,0.5 -0.1,0.5 0,0.5 0,0.5 0,0.6 -0.1,0.5 0,0.5 0,0.5 -0.1,0.5 0,0.5 0,0.5 -0.1,0.5 0,0.5 0,0.5 -0.1,0.6 0,0.5 0,0.5 -0.1,0.5 0,0.5 -0.1,0.5 0,0.5 0,0.5 -0.1,0.6 0,0.5 -0.1,0.5 0,0.5 0,0.5 -0.1,0.5 0,0.5 -0.1,0.6 0,0.5 -0.1,0.5 0,0.5 0,0.5 -0.1,0.5 0,0.5 -0.1,0.5 0,0.5 -0.1,0.6 0,0.5 -0.1,0.5 0,0.5 -0.1,0.5 0,0.5 -0.1,0.5 0,0.5 -0.1,0.5 0,0.5 -0.1,0.5 0,0.5 -0.1,0.5 -0.1,0.5 0,0.5 -0.1,0.5 0,0.5 -0.1,0.5 0,0.5 -0.1,0.5 0,0.4 -0.1,0.5 -0.1,0.5 0,0.5 -0.1,0.5 0,0.5 -0.1,0.5 -0.1,0.4 0,0.5 -0.1,0.5 0,0.5 -0.1,0.4 -0.1,0.5 0,0.5 -0.1,0.4 0,0.5 -0.1,0.5 -0.1,0.4 0,0.5 -0.1,0.4 -0.1,0.5 0,0.4 -0.1,0.5 -0.1,0.4 0,0.5 -0.1,0.4 -0.1,0.5 0,0.4 -0.1,0.4 -0.1,0.5 0,0.4 -0.1,0.4 -0.1,0.5 0,0.4 -0.1,0.4 -0.1,0.4 0,0.5 -0.1,0.4 -0.1,0.4 0,0.4 -0.1,0.4 -0.1,0.4 0,0.4 -0.1,0.4 -0.1,0.4 -0.1,0.4 0,0.4 -0.1,0.4 -0.1,0.3 0,0.4 -0.1,0.4 -0.1,0.4 -0.1,0.3 0,0.4 -0.1,0.4 -0.1,0.3 0,0.4 -0.1,0.4 -0.1,0.3 -0.1,0.4 0,0.3 -0.1,0.3 -0.1,0.4 -0.1,0.3 0,0.3 -0.1,0.4 -0.1,0.3 -0.1,0.3 0,0.3 -0.1,0.4 -0.1,0.3 0,0.3 -0.1,0.3 -0.1,0.3 -0.1,0.3 0,0.3 -0.1,0.3 -0.1,0.2 -0.1,0.3 0,0.3 -0.1,0.3 -0.1,0.2 -0.1,0.3 0,0.3 -0.1,0.2 -0.1,0.3 -0.1,0.2 0,0.3 -0.1,0.2 -0.1,0.3 0,0.2 -0.1,0.2 -0.1,0.3 -0.1,0.2 0,0.2 -0.1,0.2 -0.1,0.2 -0.1,0.2 0,0.2 -0.1,0.2 -0.1,0.2 -0.1,0.2 0,0.2 -0.1,0.2 -0.1,0.2 0,0.1 -0.1,0.2 -0.1,0.2 -0.1,0.1 0,0.2 -0.1,0.1 -0.1,0.2 0,0.1 -0.1,0.2 -0.1,0.1 0,0.1 -0.1,0.2 -0.1,0.1 -0.1,0.1 0,0.1 -0.1,0.1 -0.1,0.1 0,0.1 -0.1,0.1 -0.1,0.1 0,0.1 -0.1,0.1 -0.1,0.1 0,0.1 -0.1,0 -0.1,0.1 -0.1,0.1 -0.1,0.1 -0.1,0 -0.1,0.1 -0.1,0 -0.1,0.1 -0.1,0 -0.1,0 -0.1,0 -0.1,0 -0.1,0 -0.1,0 0,-0.1 -0.1,0 -0.1,0 0,-0.1 -0.1,0 -0.1,-0.1 -0.1,-0.1 -0.1,-0.1 -0.1,-0.1 0,-0.1 -0.1,-0.1 0,-0.1 -0.1,-0.1 -0.1,-0.1 0,-0.1 -0.1,-0.1 0,-0.1 -0.1,-0.1 0,-0.1 -0.1,-0.1 0,-0.1 -0.1,-0.2 0,-0.1 -0.1,-0.2 0,-0.1 -0.1,-0.1 0,-0.2 -0.1,-0.2 0,-0.1 0,-0.2 -0.1,-0.1 0,-0.2 -0.1,-0.2 0,-0.2 -0.1,-0.2 0,-0.2 -0.1,-0.2 0,-0.2 0,-0.2 -0.1,-0.2 0,-0.2 -0.1,-0.2 0,-0.2 0,-0.2 -0.1,-0.3 0,-0.2 0,-0.2 -0.1,-0.3 0,-0.2 -0.1,-0.3 0,-0.2 0,-0.3 -0.1,-0.2 0,-0.3 0,-0.2 -0.1,-0.3 0,-0.3 0,-0.3 0,-0.2 -0.1,-0.3 0,-0.3 0,-0.3 -0.1,-0.3 0,-0.3 0,-0.3 0,-0.3 -0.1,-0.3 0,-0.3 0,-0.4 0,-0.3 -0.1,-0.3 0,-0.3 0,-0.4 0,-0.3 0,-0.3 -0.1,-0.4 0,-0.3 0,-0.4 0,-0.3 0,-0.4 -0.1,-0.3 0,-0.4 0,-0.4 0,-0.3 0,-0.4 0,-0.4 0,-0.4 -0.1,-0.3 0,-0.4 0,-0.4 0,-0.4 0,-0.4 0,-0.4 0,-0.4 0,-0.4 0,-0.4 0,-0.4 0,-0.4 0,-0.4 0,-0.4 -0.1,-0.4 0,-0.5 0,-0.4 0,-0.4 0,-0.4 0,-0.5 0,-0.4 0,-0.4 0,-0.5 0,-0.4 0,-0.5 0,-0.4 0.1,-0.4 0,-0.5 0,-0.4 0,-0.5 0,-0.4 0,-0.5 0,-0.5 0,-0.4 0,-0.5 0,-0.5 0,-0.4 0,-0.5 0,-0.5 0.1,-0.4 0,-0.5 0,-0.5 0,-0.5 0,-0.4 0,-0.5 0,-0.5 0.1,-0.5 0,-0.5 0,-0.4 0,-0.5 0,-0.5 0.1,-0.5 0,-0.5 0,-0.5 0,-0.5 0,-0.5 0.1,-0.5 0,-0.5 0,-0.5 0,-0.5 0.1,-0.5 0,-0.5 0,-0.5 0,-0.5 0.1,-0.5 0,-0.5 0,-0.5 0.1,-0.5 0,-0.5 0,-0.5 0,-0.5 0.1,-0.6 0,-0.5 0,-0.5 0.1,-0.5 0,-0.5 0,-0.5 0.1,-0.5 0,-0.5 0.1,-0.5 0,-0.6 0,-0.5 0.1,-0.5 0,-0.5 0,-0.5 0.1,-0.5 0,-0.5 0.1,-0.6 0,-0.5 0,-0.5 0.1,-0.5 0,-0.5 0.1,-0.5 0,-0.5 0.1,-0.5 0,-0.6 0.1,-0.5 0,-0.5 0,-0.5 0.1,-0.5 0,-0.5 0.1,-0.5 0,-0.5 0.1,-0.5 0,-0.5 0.1,-0.5 0,-0.5 0.1,-0.6 0,-0.5 0.1,-0.5 0,-0.5 0.1,-0.5 0.1,-0.5 0,-0.5 0.1,-0.5 0,-0.5 0.1,-0.5 0,-0.4 0.1,-0.5 0,-0.5 0.1,-0.5 0,-0.5 0.1,-0.5 0.1,-0.5 0,-0.5 0.1,-0.5 0,-0.4 0.1,-0.5 0.1,-0.5 0,-0.5 0.1,-0.4 0,-0.5 0.1,-0.5 0.1,-0.5 0,-0.4 0.1,-0.5 0.1,-0.5 0,-0.4 0.1,-0.5 0,-0.4 0.1,-0.5 0.1,-0.5 0,-0.4 0.1,-0.5 0.1,-0.4 0,-0.5 0.1,-0.4 0.1,-0.4 0,-0.5 0.1,-0.4 0.1,-0.4 0,-0.5 0.1,-0.4 0.1,-0.4 0,-0.5 0.1,-0.4 0.1,-0.4 0,-0.4 0.1,-0.4 0.1,-0.4 0,-0.5 0.1,-0.4 0.1,-0.4 0.1,-0.4 0,-0.4 0.1,-0.4 0.1,-0.3 0,-0.4 0.1,-0.4 0.1,-0.4 0,-0.4 0.1,-0.4 0.1,-0.3 0.1,-0.4 0,-0.4 0.1,-0.3 0.1,-0.4 0.1,-0.4 0,-0.3 0.1,-0.4 0.1,-0.3 0,-0.4 0.1,-0.3 0.1,-0.3 0.1,-0.4 0,-0.3 0.1,-0.3 0.1,-0.4 0.1,-0.3 0,-0.3 0.1,-0.3 0.1,-0.3 0.1,-0.3 0,-0.3 0.1,-0.3 0.1,-0.3 0,-0.3 0.1,-0.3 0.1,-0.3 0.1,-0.3 0,-0.3 0.1,-0.2 0.1,-0.3 0.1,-0.3 0,-0.2 0.1,-0.3 0.1,-0.3 0.1,-0.2 0,-0.3 0.1,-0.2 0.1,-0.2 0.1,-0.3 0,-0.2 0.1,-0.2 0.1,-0.3 0,-0.2 0.1,-0.2 0.1,-0.2 0.1,-0.2 0,-0.2 0.1,-0.2 0.1,-0.2 0.1,-0.2 0,-0.2 0.1,-0.2 0.1,-0.1 0,-0.2 0.1,-0.2 0.1,-0.1 0.1,-0.2 0,-0.2 0.1,-0.1 0.1,-0.2 0,-0.1 0.1,-0.1 0.1,-0.2 0.1,-0.1 0,-0.1 0.1,-0.2 0.1,-0.1 0,-0.1 0.1,-0.1 0.1,-0.1 0,-0.1 0.1,-0.1 0.1,-0.1 0,-0.1 0.1,-0.1 0.1,0 0,-0.1 0.1,-0.1 0.1,0 0,-0.1 0.1,-0.1 0.1,0 0,-0.1 0.1,0 0.1,0 0,-0.1 0.1,0 0.1,0 0,-0.1 0.1,0 0.1,0 0.1,0 0.1,0 0.1,0 0.1,0.1 0.1,0 0.1,0.1 0.1,0 0,0.1 0.1,0 0.1,0.1 0.1,0.1 0,0.1 0.1,0.1 0.1,0.1 0.1,0.1 0,0.1 0.1,0.1 0,0.1 0.1,0.1 0,0.1 0.1,0.1 0,0.1 0.1,0.2 0,0.1 0.1,0.1 0,0.1 0.1,0.2 0,0.1 0.1,0.2 0,0.1 0.1,0.2 0,0.1 0.1,0.2 0,0.2 0,0.2 0.1,0.1 0,0.2 0.1,0.2 0,0.2 0.1,0.2 0,0.2 0,0.2 0.1,0.2 0,0.2 0.1,0.2 0,0.2 0,0.3 0.1,0.2 0,0.2 0.1,0.3 0,0.2 0,0.2 0.1,0.3 0,0.2 0,0.3 0.1,0.3 0,0.2 0,0.3 0.1,0.2 0,0.3 0,0.3 0.1,0.3 0,0.3 0,0.3 0,0.3 0.1,0.2 0,0.3 0,0.4 0,0.3 0.1,0.3 0,0.3 0,0.3 0,0.3 0.1,0.3 0,0.4 0,0.3 0,0.3 0.1,0.4 0,0.3 0,0.4 0,0.3 0,0.4 0,0.3 0.1,0.4 0,0.3 0,0.4 0,0.4 0,0.3 0,0.4 0,0.4 0.1,0.4 0,0.4 0,0.3 0,0.4 0,0.4 0,0.4 0,0.4 0,0.4"
       id="path304"
       inkscape:connector-curvature="0" />
    <path
       style="color:#ff0000;fill:#00ff00;fill-opacity:0.25098039;stroke:none"
       d="m 395.1,257.8 0,0.1 0,0.1 0,0.1 0,0.1 0,0.1 0,0.1 0,0.1 0,0.1 0,0.1 -0.1,0.1 0,0.1 0,0.1 0,0.1 0,0.1 -0.1,0.1 0,0.1 0,0.1 0,0.1 -0.1,0 0,0.1 0,0.1 0,0.1 -0.1,0.1 0,0.1 -0.1,0.1 0,0.1 -0.1,0 0,0.1 0,0.1 -0.1,0.1 -0.1,0.1 0,0.1 -0.1,0.1 0,0.1 -0.1,0.1 -0.1,0.1 -0.1,0.1 -0.1,0.1 0,0.1 -0.1,0 0,0.1 -0.1,0.1 -0.1,0 0,0.1 -0.1,0.1 -0.1,0.1 -0.1,0 0,0.1 -0.1,0.1 -0.1,0 -0.1,0.1 -0.1,0.1 -0.1,0 -0.1,0.1 0,0.1 -0.1,0 -0.1,0.1 -0.1,0 -0.1,0.1 -0.1,0.1 -0.1,0 -0.1,0 -0.1,0.1 -0.1,0 -0.1,0.1 -0.1,0.1 -0.1,0 -0.1,0.1 -0.1,0 -0.1,0 -0.1,0.1 -0.1,0 -0.1,0.1 -0.1,0 -0.1,0 -0.1,0.1 -0.1,0 -0.1,0 -0.1,0.1 -0.1,0 -0.1,0 -0.1,0.1 -0.1,0 -0.1,0 -0.1,0 -0.1,0.1 -0.2,0 -0.1,0 -0.1,0 -0.1,0.1 -0.1,0 -0.1,0 -0.1,0 -0.1,0 -0.2,0.1 -0.1,0 -0.1,0 -0.1,0 -0.1,0 -0.2,0 -0.1,0.1 -0.1,0 -0.1,0 -0.1,0 -0.2,0 -0.1,0 -0.1,0 -0.1,0 -0.2,0 -0.1,0 -0.1,0 -0.1,0 -0.2,0 -0.1,0 -0.1,0 -0.2,0 -0.1,0 -0.1,0 -0.2,0 -0.1,0 -0.1,0 -0.2,0 -0.1,0 -0.1,0 -0.2,0 -0.1,0 -0.1,0 -0.2,0 -0.1,0 -0.2,0 -0.1,-0.1 -0.1,0 -0.2,0 -0.1,0 -0.1,0 -0.2,0 -0.1,-0.1 -0.2,0 -0.1,0 -0.1,0 -0.2,0 -0.1,-0.1 -0.2,0 -0.1,0 -0.2,0 -0.1,-0.1 -0.1,0 -0.2,0 -0.1,0 -0.2,-0.1 -0.1,0 -0.2,0 -0.1,-0.1 -0.2,0 -0.1,0 -0.1,-0.1 -0.2,0 -0.1,0 -0.2,-0.1 -0.1,0 -0.2,-0.1 -0.1,0 -0.2,0 -0.1,-0.1 -0.2,0 -0.1,-0.1 -0.2,0 -0.1,0 -0.1,-0.1 -0.2,0 -0.1,-0.1 -0.2,0 -0.1,-0.1 -0.2,0 -0.1,-0.1 -0.2,0 -0.1,-0.1 -0.2,0 -0.1,-0.1 -0.1,0 -0.2,-0.1 -0.1,0 -0.2,-0.1 -0.1,-0.1 -0.2,0 -0.1,-0.1 -0.2,0 -0.1,-0.1 -0.2,-0.1 -0.1,0 -0.1,-0.1 -0.2,0 -0.1,-0.1 -0.2,-0.1 -0.1,0 -0.2,-0.1 -0.1,-0.1 -0.1,0 -0.2,-0.1 -0.1,-0.1 -0.2,0 -0.1,-0.1 -0.1,-0.1 -0.2,0 -0.1,-0.1 -0.2,-0.1 -0.1,-0.1 -0.1,0 -0.2,-0.1 -0.1,-0.1 -0.1,-0.1 -0.2,0 -0.1,-0.1 -0.2,-0.1 -0.1,-0.1 -0.1,0 -0.2,-0.1 -0.1,-0.1 -0.1,-0.1 -0.2,-0.1 -0.1,0 -0.1,-0.1 -0.1,-0.1 -0.2,-0.1 -0.1,-0.1 -0.1,0 -0.2,-0.1 -0.1,-0.1 -0.1,-0.1 -0.1,-0.1 -0.2,-0.1 -0.1,-0.1 -0.1,0 -0.1,-0.1 -0.2,-0.1 -0.1,-0.1 -0.1,-0.1 -0.1,-0.1 -0.1,-0.1 -0.2,-0.1 -0.1,-0.1 -0.1,0 -0.1,-0.1 -0.1,-0.1 -0.2,-0.1 -0.1,-0.1 -0.1,-0.1 -0.1,-0.1 -0.1,-0.1 -0.1,-0.1 -0.1,-0.1 -0.1,-0.1 -0.1,-0.1 -0.2,-0.1 -0.1,-0.1 -0.1,0 -0.1,-0.1 -0.1,-0.1 -0.1,-0.1 -0.1,-0.1 -0.1,-0.1 -0.1,-0.1 -0.1,-0.1 -0.1,-0.1 -0.1,-0.1 -0.1,-0.1 -0.1,-0.1 -0.1,-0.1 -0.1,-0.1 -0.1,-0.1 -0.1,-0.1 0,-0.1 -0.1,-0.1 -0.1,-0.1 -0.1,-0.1 -0.1,-0.1 -0.1,-0.1 -0.1,-0.1 -0.1,-0.1 0,-0.1 -0.1,-0.1 -0.1,-0.1 -0.1,-0.1 -0.1,-0.1 0,-0.1 -0.1,-0.1 -0.1,-0.1 -0.1,-0.1 0,-0.1 -0.1,-0.1 -0.1,-0.1 -0.1,-0.1 0,-0.1 -0.1,-0.1 -0.1,-0.1 0,-0.1 -0.1,-0.1 -0.1,-0.1 0,-0.1 -0.1,-0.1 0,-0.1 -0.1,-0.1 -0.1,-0.1 0,-0.1 -0.1,-0.1 0,-0.2 -0.1,-0.1 0,-0.1 -0.1,-0.1 0,-0.1 -0.1,-0.1 0,-0.1 -0.1,-0.1 0,-0.1 0,-0.1 -0.1,-0.1 0,-0.1 -0.1,-0.1 0,-0.1 0,-0.1 -0.1,-0.1 0,-0.1 -0.1,-0.1 0,-0.1 0,-0.1 -0.1,-0.1 0,-0.1 0,-0.1 0,-0.1 -0.1,-0.1 0,-0.1 0,-0.1 0,-0.1 -0.1,-0.1 0,-0.1 0,-0.1 0,-0.1 0,-0.1 0,-0.1 0,-0.1 0,-0.1 -0.1,-0.1 0,-0.1 0,-0.1 0,-0.1 0,-0.1 0,-0.1 0,-0.1 0,-0.1 0,-0.1 0,-0.1 0,-0.1 0,-0.1 0.1,-0.1 0,-0.1 0,-0.1 0,-0.1 0,-0.1 0,-0.1 0,-0.1 0.1,0 0,-0.1 0,-0.1 0,-0.1 0.1,-0.1 0,-0.1 0,-0.1 0.1,-0.1 0,-0.1 0,-0.1 0.1,0 0,-0.1 0,-0.1 0.1,-0.1 0,-0.1 0.1,-0.1 0,-0.1 0.1,0 0,-0.1 0,-0.1 0.1,-0.1 0.1,-0.1 0,-0.1 0.1,0 0,-0.1 0.1,-0.1 0.1,-0.1 0.1,-0.1 0.1,-0.1 0,-0.1 0.1,0 0.1,-0.1 0,-0.1 0.1,0 0.1,-0.1 0.1,-0.1 0.1,-0.1 0.1,-0.1 0.1,0 0,-0.1 0.1,0 0.1,-0.1 0.1,-0.1 0.1,0 0,-0.1 0.1,0 0.1,-0.1 0.1,0 0.1,-0.1 0.1,0 0.1,-0.1 0.1,0 0.1,-0.1 0.1,0 0.1,-0.1 0.1,0 0.1,-0.1 0.1,0 0.1,-0.1 0.1,0 0.1,-0.1 0.1,0 0.1,0 0.1,-0.1 0.1,0 0.1,0 0.1,-0.1 0.1,0 0.1,0 0.2,0 0.1,-0.1 0.1,0 0.1,0 0.1,-0.1 0.1,0 0.1,0 0.1,0 0.1,-0.1 0.1,0 0.2,0 0.1,0 0.1,0 0.1,-0.1 0.1,0 0.1,0 0.2,0 0.1,0 0.1,0 0.1,-0.1 0.1,0 0.2,0 0.1,0 0.1,0 0.1,0 0.2,0 0.1,0 0.1,0 0.1,0 0.2,0 0.1,0 0.1,0 0.2,0 0.1,0 0.1,0 0.1,0 0.2,0 0.1,0 0.1,0 0.2,0 0.1,0 0.1,0 0.2,0 0.1,0 0.1,0 0.2,0 0.1,0 0.2,0 0.1,0 0.1,0.1 0.2,0 0.1,0 0.1,0 0.2,0 0.1,0 0.2,0.1 0.1,0 0.1,0 0.2,0 0.1,0 0.2,0.1 0.1,0 0.2,0 0.1,0 0.1,0.1 0.2,0 0.1,0 0.2,0 0.1,0.1 0.2,0 0.1,0 0.2,0.1 0.1,0 0.1,0 0.2,0.1 0.1,0 0.2,0 0.1,0.1 0.2,0 0.1,0.1 0.2,0 0.1,0 0.2,0.1 0.1,0 0.1,0.1 0.2,0 0.1,0 0.2,0.1 0.1,0 0.2,0.1 0.1,0 0.2,0.1 0.1,0 0.2,0.1 0.1,0 0.2,0.1 0.1,0 0.1,0.1 0.2,0 0.1,0.1 0.2,0.1 0.1,0 0.2,0.1 0.1,0 0.2,0.1 0.1,0 0.1,0.1 0.2,0.1 0.1,0 0.2,0.1 0.1,0 0.2,0.1 0.1,0.1 0.2,0 0.1,0.1 0.1,0.1 0.2,0 0.1,0.1 0.2,0.1 0.1,0 0.1,0.1 0.2,0.1 0.1,0 0.2,0.1 0.1,0.1 0.1,0.1 0.2,0 0.1,0.1 0.1,0.1 0.2,0.1 0.1,0 0.2,0.1 0.1,0.1 0.1,0.1 0.2,0 0.1,0.1 0.1,0.1 0.2,0.1 0.1,0.1 0.1,0 0.2,0.1 0.1,0.1 0.1,0.1 0.1,0.1 0.2,0 0.1,0.1 0.1,0.1 0.2,0.1 0.1,0.1 0.1,0.1 0.1,0.1 0.2,0 0.1,0.1 0.1,0.1 0.1,0.1 0.1,0.1 0.2,0.1 0.1,0.1 0.1,0.1 0.1,0.1 0.1,0 0.2,0.1 0.1,0.1 0.1,0.1 0.1,0.1 0.1,0.1 0.1,0.1 0.1,0.1 0.2,0.1 0.1,0.1 0.1,0.1 0.1,0.1 0.1,0.1 0.1,0.1 0.1,0 0.1,0.1 0.1,0.1 0.1,0.1 0.1,0.1 0.1,0.1 0.1,0.1 0.1,0.1 0.1,0.1 0.1,0.1 0.1,0.1 0.1,0.1 0.1,0.1 0.1,0.1 0.1,0.1 0.1,0.1 0.1,0.1 0.1,0.1 0.1,0.1 0.1,0.1 0,0.1 0.1,0.1 0.1,0.1 0.1,0.1 0.1,0.1 0.1,0.1 0,0.1 0.1,0.1 0.1,0.1 0.1,0.1 0.1,0.1 0,0.1 0.1,0.1 0.1,0.1 0.1,0.1 0,0.1 0.1,0.1 0.1,0.1 0,0.1 0.1,0.1 0.1,0.1 0,0.1 0.1,0.1 0.1,0.1 0,0.1 0.1,0.1 0,0.1 0.1,0.1 0,0.1 0.1,0.1 0.1,0.2 0,0.1 0.1,0.1 0,0.1 0.1,0.1 0,0.1 0.1,0.1 0,0.1 0,0.1 0.1,0.1 0,0.1 0.1,0.1 0,0.1 0.1,0.1 0,0.1 0,0.1 0.1,0.1 0,0.1 0,0.1 0.1,0.1 0,0.1 0,0.1 0.1,0.1 0,0.1 0,0.1 0,0.1 0.1,0.1 0,0.1 0,0.1 0,0.1 0,0.1 0,0.1 0.1,0.1 0,0.1 0,0.1 0,0.1 0,0.1 0,0.1 0,0.1 0,0.1 0,0.1 0,0.1"
       id="path310"
       inkscape:connector-curvature="0" />
    <path
       style="color:#ff0000;fill:#0000ff;fill-opacity:0.25098039;stroke:none"
       d="m 183.1,242.9 0,0.5 0,0.5 0,0.5 0,0.5 0,0.4 0,0.5 0,0.5 0,0.5 -0.1,0.5 0,0.5 0,0.5 0,0.4 0,0.5 0,0.5 -0.1,0.5 0,0.5 0,0.5 0,0.5 -0.1,0.4 0,0.5 0,0.5 -0.1,0.5 0,0.5 0,0.5 -0.1,0.5 0,0.4 0,0.5 -0.1,0.5 0,0.5 -0.1,0.5 0,0.5 -0.1,0.5 0,0.4 -0.1,0.5 0,0.5 -0.1,0.5 0,0.5 -0.1,0.4 0,0.5 -0.1,0.5 -0.1,0.5 0,0.5 -0.1,0.4 0,0.5 -0.1,0.5 -0.1,0.5 0,0.4 -0.1,0.5 -0.1,0.5 -0.1,0.5 0,0.4 -0.1,0.5 -0.1,0.5 -0.1,0.4 0,0.5 -0.1,0.4 -0.1,0.5 -0.1,0.5 -0.1,0.4 -0.1,0.5 -0.1,0.4 -0.1,0.5 0,0.4 -0.1,0.5 -0.1,0.4 -0.1,0.5 -0.1,0.4 -0.1,0.5 -0.1,0.4 -0.1,0.5 -0.1,0.4 -0.1,0.4 -0.1,0.5 -0.1,0.4 -0.1,0.5 -0.1,0.4 -0.2,0.4 -0.1,0.4 -0.1,0.5 -0.1,0.4 -0.1,0.4 -0.1,0.4 -0.1,0.4 -0.2,0.4 -0.1,0.5 -0.1,0.4 -0.1,0.4 -0.1,0.4 -0.2,0.4 -0.1,0.4 -0.1,0.4 -0.1,0.4 -0.2,0.4 -0.1,0.3 -0.1,0.4 -0.2,0.4 -0.1,0.4 -0.1,0.4 -0.2,0.3 -0.1,0.4 -0.1,0.4 -0.2,0.4 -0.1,0.3 -0.1,0.4 -0.2,0.3 -0.1,0.4 -0.2,0.4 -0.1,0.3 -0.2,0.3 -0.1,0.4 -0.1,0.3 -0.2,0.4 -0.1,0.3 -0.2,0.3 -0.1,0.4 -0.2,0.3 -0.1,0.3 -0.2,0.3 -0.1,0.4 -0.2,0.3 -0.1,0.3 -0.2,0.3 -0.2,0.3 -0.1,0.3 -0.2,0.3 -0.1,0.3 -0.2,0.3 -0.1,0.3 -0.2,0.2 -0.2,0.3 -0.1,0.3 -0.2,0.3 -0.1,0.2 -0.2,0.3 -0.2,0.3 -0.1,0.2 -0.2,0.3 -0.2,0.2 -0.1,0.3 -0.2,0.2 -0.2,0.2 -0.1,0.3 -0.2,0.2 -0.2,0.2 -0.1,0.3 -0.2,0.2 -0.2,0.2 -0.2,0.2 -0.1,0.2 -0.2,0.2 -0.2,0.2 -0.1,0.2 -0.2,0.2 -0.2,0.2 -0.2,0.2 -0.1,0.2 -0.2,0.2 -0.2,0.1 -0.2,0.2 -0.1,0.2 -0.2,0.1 -0.2,0.2 -0.2,0.2 -0.1,0.1 -0.2,0.2 -0.2,0.1 -0.2,0.1 -0.1,0.2 -0.2,0.1 -0.2,0.1 -0.2,0.1 -0.1,0.2 -0.2,0.1 -0.2,0.1 -0.2,0.1 -0.1,0.1 -0.2,0.1 -0.2,0.1 -0.2,0.1 -0.2,0.1 -0.1,0 -0.2,0.1 -0.2,0.1 -0.2,0.1 -0.1,0 -0.2,0.1 -0.2,0 -0.2,0.1 -0.2,0 -0.1,0.1 -0.2,0 -0.2,0.1 -0.2,0 -0.1,0 -0.2,0 -0.2,0 -0.2,0.1 -0.1,0 -0.2,0 -0.2,0 -0.2,0 -0.1,0 -0.2,-0.1 -0.2,0 -0.2,0 -0.1,0 -0.2,0 -0.2,-0.1 -0.2,0 -0.1,-0.1 -0.2,0 -0.2,-0.1 -0.2,0 -0.1,-0.1 -0.2,0 -0.2,-0.1 -0.1,-0.1 -0.2,0 -0.2,-0.1 -0.1,-0.1 -0.2,-0.1 -0.2,-0.1 -0.1,-0.1 -0.2,-0.1 -0.2,-0.1 -0.1,-0.1 -0.2,-0.1 -0.2,-0.1 -0.1,-0.2 -0.2,-0.1 -0.1,-0.1 -0.2,-0.1 -0.2,-0.2 -0.1,-0.1 -0.2,-0.2 -0.1,-0.1 -0.2,-0.2 -0.2,-0.1 -0.1,-0.2 -0.2,-0.2 -0.1,-0.1 -0.2,-0.2 -0.1,-0.2 -0.2,-0.2 -0.1,-0.2 -0.2,-0.1 -0.1,-0.2 -0.2,-0.2 -0.1,-0.2 -0.2,-0.2 -0.1,-0.3 -0.2,-0.2 -0.1,-0.2 -0.1,-0.2 -0.2,-0.2 -0.1,-0.3 -0.2,-0.2 -0.1,-0.2 -0.1,-0.3 -0.2,-0.2 -0.1,-0.3 -0.2,-0.2 -0.1,-0.3 -0.1,-0.2 -0.2,-0.3 -0.1,-0.2 -0.1,-0.3 -0.1,-0.3 -0.2,-0.3 -0.1,-0.2 -0.1,-0.3 -0.1,-0.3 -0.2,-0.3 -0.1,-0.3 -0.1,-0.3 -0.1,-0.3 -0.2,-0.3 -0.1,-0.3 -0.1,-0.3 -0.1,-0.3 -0.1,-0.3 -0.1,-0.4 -0.1,-0.3 -0.2,-0.3 -0.1,-0.3 -0.1,-0.4 -0.1,-0.3 -0.1,-0.3 -0.1,-0.4 -0.1,-0.3 -0.1,-0.4 -0.1,-0.3 -0.1,-0.4 -0.1,-0.3 -0.1,-0.4 -0.1,-0.3 -0.1,-0.4 -0.1,-0.4 -0.1,-0.3 -0.1,-0.4 0,-0.4 -0.1,-0.4 -0.1,-0.4 -0.1,-0.3 -0.1,-0.4 -0.1,-0.4 -0.1,-0.4 0,-0.4 -0.1,-0.4 -0.1,-0.4 -0.1,-0.4 0,-0.4 -0.1,-0.4 -0.1,-0.4 0,-0.4 -0.1,-0.4 -0.1,-0.4 0,-0.5 -0.1,-0.4 -0.1,-0.4 0,-0.4 -0.1,-0.5 -0.1,-0.4 0,-0.4 -0.1,-0.4 0,-0.5 -0.1,-0.4 0,-0.4 -0.1,-0.5 0,-0.4 -0.1,-0.5 0,-0.4 -0.1,-0.5 0,-0.4 0,-0.5 -0.1,-0.4 0,-0.5 0,-0.4 -0.1,-0.5 0,-0.4 0,-0.5 -0.1,-0.4 0,-0.5 0,-0.5 -0.1,-0.4 0,-0.5 0,-0.5 0,-0.4 0,-0.5 -0.1,-0.5 0,-0.4 0,-0.5 0,-0.5 0,-0.5 0,-0.4 0,-0.5 0,-0.5 0,-0.5 0,-0.4 0,-0.5 0,-0.5 0,-0.5 0,-0.5 0,-0.5 0,-0.4 0,-0.5 0,-0.5 0,-0.5 0,-0.5 0,-0.5 0,-0.4 0.1,-0.5 0,-0.5 0,-0.5 0,-0.5 0,-0.5 0.1,-0.5 0,-0.4 0,-0.5 0.1,-0.5 0,-0.5 0,-0.5 0,-0.5 0.1,-0.5 0,-0.4 0.1,-0.5 0,-0.5 0,-0.5 0.1,-0.5 0,-0.5 0.1,-0.5 0,-0.4 0.1,-0.5 0,-0.5 0.1,-0.5 0,-0.5 0.1,-0.5 0,-0.4 0.1,-0.5 0.1,-0.5 0,-0.5 0.1,-0.5 0,-0.4 0.1,-0.5 0.1,-0.5 0,-0.5 0.1,-0.4 0.1,-0.5 0.1,-0.5 0,-0.4 0.1,-0.5 0.1,-0.5 0.1,-0.4 0,-0.5 0.1,-0.5 0.1,-0.4 0.1,-0.5 0.1,-0.5 0,-0.4 0.1,-0.5 0.1,-0.4 0.1,-0.5 0.1,-0.4 0.1,-0.5 0.1,-0.4 0.1,-0.5 0.1,-0.4 0.1,-0.5 0.1,-0.4 0.1,-0.5 0.1,-0.4 0.1,-0.4 0.1,-0.5 0.1,-0.4 0.1,-0.4 0.1,-0.5 0.1,-0.4 0.1,-0.4 0.1,-0.4 0.2,-0.5 0.1,-0.4 0.1,-0.4 0.1,-0.4 0.1,-0.4 0.1,-0.4 0.2,-0.5 0.1,-0.4 0.1,-0.4 0.1,-0.4 0.2,-0.4 0.1,-0.4 0.1,-0.3 0.1,-0.4 0.2,-0.4 0.1,-0.4 0.1,-0.4 0.2,-0.4 0.1,-0.4 0.1,-0.3 0.2,-0.4 0.1,-0.4 0.1,-0.3 0.2,-0.4 0.1,-0.4 0.1,-0.3 0.2,-0.4 0.1,-0.3 0.2,-0.4 0.1,-0.3 0.2,-0.4 0.1,-0.3 0.2,-0.4 0.1,-0.3 0.1,-0.3 0.2,-0.4 0.1,-0.3 0.2,-0.3 0.1,-0.3 0.2,-0.3 0.2,-0.4 0.1,-0.3 0.2,-0.3 0.1,-0.3 0.2,-0.3 0.1,-0.3 0.2,-0.3 0.1,-0.3 0.2,-0.2 0.2,-0.3 0.1,-0.3 0.2,-0.3 0.1,-0.2 0.2,-0.3 0.2,-0.3 0.1,-0.2 0.2,-0.3 0.2,-0.3 0.1,-0.2 0.2,-0.3 0.2,-0.2 0.1,-0.2 0.2,-0.3 0.2,-0.2 0.1,-0.2 0.2,-0.3 0.2,-0.2 0.1,-0.2 0.2,-0.2 0.2,-0.2 0.2,-0.2 0.1,-0.2 0.2,-0.2 0.2,-0.2 0.1,-0.2 0.2,-0.2 0.2,-0.2 0.2,-0.2 0.1,-0.1 0.2,-0.2 0.2,-0.2 0.2,-0.1 0.1,-0.2 0.2,-0.1 0.2,-0.2 0.2,-0.1 0.1,-0.2 0.2,-0.1 0.2,-0.2 0.2,-0.1 0.1,-0.1 0.2,-0.1 0.2,-0.2 0.2,-0.1 0.2,-0.1 0.1,-0.1 0.2,-0.1 0.2,-0.1 0.2,-0.1 0.1,-0.1 0.2,0 0.2,-0.1 0.2,-0.1 0.2,-0.1 0.1,0 0.2,-0.1 0.2,-0.1 0.2,0 0.1,-0.1 0.2,0 0.2,-0.1 0.2,0 0.2,0 0.1,-0.1 0.2,0 0.2,0 0.2,0 0.1,0 0.2,-0.1 0.2,0 0.2,0 0.1,0 0.2,0.1 0.2,0 0.2,0 0.1,0 0.2,0 0.2,0.1 0.2,0 0.1,0 0.2,0.1 0.2,0 0.1,0.1 0.2,0 0.2,0.1 0.2,0 0.1,0.1 0.2,0.1 0.2,0.1 0.1,0 0.2,0.1 0.2,0.1 0.1,0.1 0.2,0.1 0.2,0.1 0.1,0.1 0.2,0.1 0.2,0.1 0.1,0.2 0.2,0.1 0.1,0.1 0.2,0.1 0.2,0.2 0.1,0.1 0.2,0.1 0.1,0.2 0.2,0.1 0.2,0.2 0.1,0.2 0.2,0.1 0.1,0.2 0.2,0.1 0.1,0.2 0.2,0.2 0.1,0.2 0.2,0.2 0.1,0.2 0.2,0.2 0.1,0.2 0.2,0.2 0.1,0.2 0.2,0.2 0.1,0.2 0.2,0.2 0.1,0.2 0.1,0.2 0.2,0.3 0.1,0.2 0.2,0.2 0.1,0.3 0.1,0.2 0.2,0.3 0.1,0.2 0.1,0.3 0.2,0.2 0.1,0.3 0.1,0.3 0.2,0.2 0.1,0.3 0.1,0.3 0.2,0.3 0.1,0.2 0.1,0.3 0.1,0.3 0.2,0.3 0.1,0.3 0.1,0.3 0.1,0.3 0.1,0.3 0.2,0.3 0.1,0.3 0.1,0.3 0.1,0.4 0.1,0.3 0.1,0.3 0.1,0.3 0.1,0.4 0.1,0.3 0.1,0.3 0.2,0.4 0.1,0.3 0.1,0.4 0.1,0.3 0.1,0.4 0.1,0.3 0.1,0.4 0,0.4 0.1,0.3 0.1,0.4 0.1,0.4 0.1,0.3 0.1,0.4 0.1,0.4 0.1,0.4 0.1,0.3 0.1,0.4 0,0.4 0.1,0.4 0.1,0.4 0.1,0.4 0,0.4 0.1,0.4 0.1,0.4 0.1,0.4 0,0.4 0.1,0.4 0.1,0.4 0,0.5 0.1,0.4 0.1,0.4 0,0.4 0.1,0.4 0.1,0.5 0,0.4 0.1,0.4 0,0.5 0.1,0.4 0,0.4 0.1,0.5 0,0.4 0.1,0.4 0,0.5 0.1,0.4 0,0.5 0.1,0.4 0,0.5 0,0.4 0.1,0.5 0,0.4 0,0.5 0.1,0.4 0,0.5 0,0.5 0.1,0.4 0,0.5 0,0.4 0,0.5 0.1,0.5 0,0.4 0,0.5 0,0.5 0,0.5 0,0.4 0.1,0.5 0,0.5 0,0.5 0,0.4 0,0.5 0,0.5 0,0.5 0,0.4"
       id="path316"
       inkscape:connector-curvature="0" />
    <path
       style="color:#ff0000;fill:#ff0000;fill-opacity:0.25098039;stroke:none"
       d="m 116.2,412.8 -0.1,-0.3 -0.1,-1.2 -0.1,-1.1 -0.1,-1.2 -0.2,-1.2 -0.1,-1.2 -0.1,-1.3 -0.1,-1.2 -0.1,-1.3 -0.2,-1.2 -0.1,-1.3 -0.1,-1.3 -0.1,-1.3 -0.1,-1.3 -0.1,-1.3 -0.1,-1.3 -0.1,-1.4 -0.1,-1.4 -0.2,-1.3 -0.1,-1.4 -0.1,-1.4 -0.1,-1.4 -0.1,-1.4 -0.1,-1.5 -0.1,-1.4 -0.1,-1.4 -0.1,-1.5 -0.1,-1.5 -0.1,-1.5 -0.1,-1.4 0,-1.6 -0.1,-1.5 -0.1,-1.5 -0.1,-1.5 -0.1,-1.6 -0.1,-1.5 -0.1,-1.6 -0.1,-1.5 -0.1,-1.6 0,-1.6 -0.1,-1.6 -0.1,-1.6 -0.1,-1.6 -0.1,-1.7 0,-1.6 -0.1,-1.6 -0.1,-1.7 -0.1,-1.7 0,-1.6 -0.1,-1.7 -0.1,-1.7 0,-1.7 -0.1,-1.7 -0.1,-1.7 0,-1.7 -0.1,-1.7 -0.1,-1.8 0,-1.7 -0.1,-1.7 -0.1,-1.8 0,-1.7 -0.1,-1.8 0,-1.8 -0.1,-1.7 0,-1.8 -0.1,-1.8 0,-1.8 -0.1,-1.8 0,-1.8 -0.1,-1.8 0,-1.8 -0.1,-1.8 0,-1.9 0,-1.8 -0.1,-1.8 0,-1.9 -0.1,-1.8 0,-1.9 0,-1.8 -0.1,-1.9 0,-1.8 0,-1.9 0,-1.9 -0.1,-1.8 0,-1.9 0,-1.9 0,-1.9 -0.1,-1.8 0,-1.9 0,-1.9 0,-1.9 0,-1.9 0,-1.9 -0.1,-1.9 0,-1.9 0,-1.9 0,-1.9 0,-1.9 0,-1.9 0,-1.9 0,-1.9 0,-1.9 0,-1.9 0,-1.9 0,-1.9 0,-1.9 0,-1.9 0,-2 0,-1.9 0,-1.9 0,-1.9 0,-1.9 0.1,-1.9 0,-1.9 0,-1.9 0,-1.9 0,-1.9 0,-1.9 0.1,-1.9 0,-1.9 0,-1.9 0,-1.9 0.1,-1.9 0,-1.9 0,-1.9 0.1,-1.8 0,-1.9 0,-1.9 0.1,-1.9 0,-1.8 0,-1.9 0.1,-1.9 0,-1.8 0.1,-1.9 0,-1.8 0,-1.9 0.1,-1.8 0,-1.9 0.1,-1.8 0,-1.8 0.1,-1.9 0,-1.8 0.1,-1.8 0,-1.8 0.1,-1.8 0.1,-1.8 0,-1.8 0.1,-1.8 0,-1.8 0.1,-1.8 0.1,-1.7 0,-1.8 0.1,-1.8 0.1,-1.7 0,-1.8 0.1,-1.7 0.1,-1.7 0.1,-1.7 0,-1.8 0.1,-1.7 0.1,-1.7 0.1,-1.7 0,-1.7 0.1,-1.6 0.1,-1.7 0.1,-1.7 0.1,-1.6 0,-1.7 0.1,-1.6 0.1,-1.6 0.1,-1.7 0.1,-1.6 0.1,-1.6 0.1,-1.6 0.1,-1.5 0.1,-1.6 0.1,-1.6 0.1,-1.5 0.1,-1.6 0.1,-1.5 0.1,-1.5 0.1,-1.6 0.1,-1.5 0.1,-1.5 0.1,-1.4 0.1,-1.5 0.1,-1.5 0.1,-1.4 0.1,-1.5 0.1,-1.4 0.1,-1.4 0.1,-1.4 0.1,-1.4 0.1,-1.4 0.2,-1.4 0.1,-1.4 0.1,-1.3 0.1,-1.4 0.1,-1.3 0.1,-1.3 0.2,-1.3 0.1,-1.3 0.1,-1.3 0.1,-1.2 0.1,-1.3 0.2,-1.2 0.1,-1.3 0.1,-1.2 0.2,-1.2 0.1,-1.2 0.1,-1.1 0.1,-1.2 0.2,-1.2 0.1,-1.1 0.1,-1.1 0.2,-1.1 0.1,-1.1 0.1,-1.1 0.2,-1.1 0.1,-1 0.1,-1.1 0.2,-1 0.1,-1 0.1,-1 0.2,-1 0.1,-1 0.2,-0.9 0.1,-1 0.1,-0.9 0.2,-0.9 0.1,-0.9 0.2,-0.9 0.1,-0.9 0.2,-0.8 0.1,-0.9 0.1,-0.8 0.2,-0.8 0.1,-0.8 0.2,-0.8 0.1,-0.7 0.2,-0.8 0.1,-0.7 0.2,-0.7 0.1,-0.7 0.2,-0.7 0.1,-0.7 0.2,-0.6 0.1,-0.7 0.2,-0.6 0.1,-0.6 0.2,-0.6 0.1,-0.6 0.2,-0.5 0.2,-0.6 0.1,-0.5 0.2,-0.5 0.1,-0.5 0.2,-0.5 0.1,-0.5 0.2,-0.4 0.1,-0.4 0.2,-0.5 0.1,-0.4 0.2,-0.3 0.2,-0.4 0.1,-0.4 0.2,-0.3 0.1,-0.3 0.2,-0.3 0.1,-0.3 0.2,-0.3 0.2,-0.2 0.1,-0.3 0.2,-0.2 0.1,-0.2 0.2,-0.2 0.2,-0.1 0.1,-0.2 0.2,-0.1 0.1,-0.1 0.2,-0.1 0.1,-0.1 0.2,-0.1 0.2,0 0.1,-0.1 0.2,0 0.1,0 0.2,0 0.2,0 0.1,0.1 0.2,0.1 0.1,0 0.2,0.1 0.2,0.1 0.1,0.2 0.2,0.1 0.1,0.2 0.2,0.2 0.1,0.2 0.2,0.2 0.2,0.2 0.1,0.3 0.2,0.2 0.1,0.3 0.2,0.3 0.1,0.3 0.2,0.3 0.1,0.4 0.2,0.3 0.2,0.4 0.1,0.4 0.2,0.4 0.1,0.5 0.2,0.4 0.1,0.5 0.2,0.4 0.1,0.5 0.2,0.5 0.1,0.6 0.2,0.5 0.1,0.6 0.2,0.5 0.1,0.6 0.2,0.6 0.1,0.6 0.2,0.7 0.1,0.6 0.2,0.7 0.1,0.7 0.2,0.7 0.1,0.7 0.2,0.7 0.1,0.7 0.1,0.8 0.2,0.8 0.1,0.8 0.2,0.8 0.1,0.8 0.2,0.8 0.1,0.9 0.1,0.8 0.2,0.9 0.1,0.9 0.1,0.9 0.2,0.9 0.1,1 0.1,0.9 0.2,1 0.1,1 0.2,1 0.1,1 0.1,1 0.1,1 0.2,1.1 0.1,1.1 0.1,1 0.2,1.1 0.1,1.1 0.1,1.2 0.1,1.1 0.2,1.1 0.1,1.2 0.1,1.2 0.1,1.2 0.1,1.2 0.2,1.2 0.1,1.2 0.1,1.2 0.1,1.3 0.1,1.3 0.1,1.2 0.2,1.3 0.1,1.3 0.1,1.3 0.1,1.3 0.1,1.4 0.1,1.3 0.1,1.4 0.1,1.4 0.1,1.3 0.1,1.4 0.1,1.4 0.1,1.5 0.1,1.4 0.1,1.4 0.1,1.5 0.1,1.4 0.1,1.5 0.1,1.5 0.1,1.5 0.1,1.5 0.1,1.5 0.1,1.5 0.1,1.6 0.1,1.5 0.1,1.6 0.1,1.5 0,1.6 0.1,1.6 0.1,1.6 0.1,1.6 0.1,1.6 0.1,1.6 0,1.6 0.1,1.6 0.1,1.7 0.1,1.6 0,1.7 0.1,1.7 0.1,1.6 0.1,1.7 0,1.7 0.1,1.7 0.1,1.7 0,1.7 0.1,1.8 0,1.7 0.1,1.7 0.1,1.8 0,1.7 0.1,1.8 0,1.7 0.1,1.8 0.1,1.8 0,1.8 0.1,1.7 0,1.8 0.1,1.8 0,1.8 0,1.9 0.1,1.8 0,1.8 0.1,1.8 0,1.8 0.1,1.9 0,1.8 0,1.9 0.1,1.8 0,1.9 0,1.8 0.1,1.9 0,1.8 0,1.9 0,1.9 0.1,1.8 0,1.9 0,1.9 0,1.9 0.1,1.9 0,1.8 0,1.9 0,1.9 0,1.9 0,1.9 0,1.9 0.1,1.9 0,1.95696 0,1.84304 0,1.9 0,1.9 0,1.9 0,1.9 0,2 0,1.9 0,1.9 0,1.9 0,1.9 0,1.9 0,1.9 0,1.9 -0.1,1.9 0,1.9 0,1.9 0,1.9 0,1.9 0,1.9 -0.1,1.9 0,1.9 0,1.9 0,1.9 0,1.9 -0.1,1.9 0,1.9 0,1.9 -0.1,1.9 0,1.9 0,1.9 0,1.8 -0.1,1.9 0,1.9 -0.1,1.8 0,1.9 0,1.9 -0.1,1.8 0,1.9 -0.1,1.8 0,1.9 -0.1,1.8 0,1.8 -0.1,1.9 0,1.8 -0.1,1.8 0,1.8 -0.1,1.9 0,1.8 -0.1,1.8 0,1.8 -0.1,1.7 -0.1,1.8 0,1.8 -0.1,1.8 -0.1,1.7 0,1.8 -0.1,1.7 -0.1,1.8 0,1.7 -0.1,1.8 -0.1,1.7 -0.1,1.7 0,1.7 -0.1,1.7 -0.1,1.7 -0.1,1.7 0,1.7 -0.1,1.6 -0.1,1.7 -0.1,1.7 -0.1,1.6 -0.1,1.6 0,1.7 -0.1,1.6 -0.1,1.6 -0.1,1.6 -0.1,1.6 -0.1,1.6 -0.1,1.6 -0.1,1.5 -0.1,1.6 -0.1,1.5 -0.1,1.6 -0.1,1.5 -0.1,1.5 -0.1,1.5 -0.1,1.5 -0.1,1.5 -0.1,1.5 -0.1,1.4 -0.1,1.5 -0.1,1.4 -0.1,1.4 -0.1,1.5 -0.1,1.4 -0.2,1.4 -0.1,1.4 -0.1,1.3 -0.1,1.4 -0.1,1.3 -0.1,1.4 -0.1,1.3 -0.2,1.3 -0.1,1.3 -0.1,1.3 -0.1,1.3 -0.2,1.3 -0.1,1.2 -0.1,1.3 -0.1,1.2 -0.1,1.2 -0.2,1.2 -0.1,1.2 -0.1,1.2 -0.2,1.1 0,0.7"
       id="path322"
       inkscape:connector-curvature="0"
       sodipodi:nodetypes="cccccccccccccccccccccccccccccccccccccccccccccccccccccccccccccccccccccccccccccccccccccccccccccccccccccccccccccccccccccccccccccccccccccccccccccccccccccccccccccccccccccccccccccccccccccccccccccccccccccccccccccccccccccccccccccccccccccccccccccccccccccccccccccccccccccccccccccccccccccccccccccccccccccccccccccccccccccccccccccccccccccccccccccccccccccccccccccccccccccccccccccccccccccccccccccccccccccccccccccccccccccccccccccccccccccccccccccccccccccccccccccccccccccccccccccccccccccccccccccccccccccccccccccccccccccccccccccccccccccccccccccccccccccccccccccccccccccccccccccccccccccccccccccc" />
    <path
       style="color:#ff0000;fill:#ff0000;fill-opacity:0.25098039;stroke:none"
       d="m 135.2,272 0,0.9 0,0.9 0,0.9 -0.1,0.9 0,0.9 0,0.9 0,0.9 0,0.9 0,0.9 0,0.9 0,0.9 0,0.9 0,0.9 0,0.9 -0.1,0.9 0,0.9 0,0.9 0,0.9 0,0.9 -0.1,0.9 0,0.9 0,0.9 0,0.9 -0.1,0.8 0,0.9 0,0.9 0,0.9 -0.1,0.9 0,0.9 0,0.8 -0.1,0.9 0,0.9 0,0.9 -0.1,0.8 0,0.9 0,0.9 -0.1,0.8 0,0.9 -0.1,0.8 0,0.9 0,0.9 -0.1,0.8 0,0.9 -0.1,0.8 0,0.9 -0.1,0.8 0,0.8 -0.1,0.9 0,0.8 -0.1,0.8 0,0.9 -0.1,0.8 -0.1,0.8 0,0.8 -0.1,0.8 0,0.8 -0.1,0.8 0,0.8 -0.1,0.8 -0.1,0.8 0,0.8 -0.1,0.8 -0.1,0.8 0,0.8 -0.1,0.7 -0.1,0.8 0,0.8 -0.1,0.7 -0.1,0.8 -0.1,0.8 0,0.7 -0.1,0.7 -0.1,0.8 -0.1,0.7 0,0.8 -0.1,0.7 -0.1,0.7 -0.1,0.7 0,0.7 -0.1,0.7 -0.1,0.7 -0.1,0.7 -0.1,0.7 -0.1,0.7 0,0.7 -0.1,0.7 -0.1,0.7 -0.1,0.6 -0.1,0.7 -0.1,0.6 -0.1,0.7 -0.1,0.6 -0.1,0.7 -0.1,0.6 0,0.6 -0.1,0.7 -0.1,0.6 -0.1,0.6 -0.1,0.6 -0.1,0.6 -0.1,0.6 -0.1,0.6 -0.1,0.6 -0.1,0.5 -0.1,0.6 -0.1,0.6 -0.1,0.5 -0.1,0.6 -0.1,0.5 -0.1,0.6 -0.1,0.5 -0.2,0.5 -0.1,0.5 -0.1,0.5 -0.1,0.5 -0.1,0.5 -0.1,0.5 -0.1,0.5 -0.1,0.5 -0.1,0.5 -0.1,0.4 -0.1,0.5 -0.1,0.5 -0.2,0.4 -0.1,0.4 -0.1,0.5 -0.1,0.4 -0.1,0.4 -0.1,0.4 -0.1,0.4 -0.2,0.4 -0.1,0.4 -0.1,0.4 -0.1,0.4 -0.1,0.3 -0.1,0.4 -0.2,0.4 -0.1,0.3 -0.1,0.4 -0.1,0.3 -0.1,0.3 -0.2,0.3 -0.1,0.3 -0.1,0.3 -0.1,0.3 -0.2,0.3 -0.1,0.3 -0.1,0.3 -0.1,0.2 -0.1,0.3 -0.2,0.2 -0.1,0.3 -0.1,0.2 -0.1,0.3 -0.2,0.2 -0.1,0.2 -0.1,0.2 -0.1,0.2 -0.2,0.2 -0.1,0.2 -0.1,0.1 -0.1,0.2 -0.2,0.2 -0.1,0.1 -0.1,0.2 -0.2,0.1 -0.1,0.1 -0.1,0.1 -0.1,0.1 -0.2,0.1 -0.1,0.1 -0.1,0.1 -0.1,0.1 -0.2,0.1 -0.1,0 -0.1,0.1 -0.2,0.1 -0.1,0 -0.1,0 -0.1,0.1 -0.2,0 -0.1,0 -0.1,0 -0.1,0 -0.2,0 -0.1,-0.1 -0.1,0 -0.2,0 -0.1,-0.1 -0.1,0 -0.1,-0.1 -0.2,-0.1 -0.1,0 -0.1,-0.1 -0.2,-0.1 -0.1,-0.1 -0.1,-0.1 -0.1,-0.1 -0.2,-0.2 -0.1,-0.1 -0.1,-0.1 -0.1,-0.2 -0.2,-0.1 -0.1,-0.2 -0.1,-0.2 -0.1,-0.2 -0.2,-0.1 -0.1,-0.2 -0.1,-0.2 -0.1,-0.2 -0.2,-0.3 -0.1,-0.2 -0.1,-0.2 -0.1,-0.3 -0.2,-0.2 -0.1,-0.3 -0.1,-0.2 -0.1,-0.3 -0.1,-0.3 -0.2,-0.3 -0.1,-0.2 -0.1,-0.3 -0.1,-0.4 -0.1,-0.3 -0.2,-0.3 -0.1,-0.3 -0.1,-0.4 -0.1,-0.3 -0.1,-0.4 -0.1,-0.3 -0.2,-0.4 -0.1,-0.3 -0.1,-0.4 -0.1,-0.4 -0.1,-0.4 -0.1,-0.4 -0.1,-0.4 -0.2,-0.4 -0.1,-0.5 -0.1,-0.4 -0.1,-0.4 -0.1,-0.5 -0.1,-0.4 -0.1,-0.5 -0.1,-0.4 -0.1,-0.5 -0.1,-0.5 -0.2,-0.5 -0.1,-0.5 -0.1,-0.5 -0.1,-0.5 -0.1,-0.5 -0.1,-0.5 -0.1,-0.5 -0.1,-0.5 -0.1,-0.6 -0.1,-0.5 -0.1,-0.6 -0.1,-0.5 -0.1,-0.6 -0.1,-0.6 -0.1,-0.5 -0.1,-0.6 -0.1,-0.6 -0.1,-0.6 -0.1,-0.6 -0.1,-0.6 0,-0.6 -0.1,-0.6 -0.1,-0.6 -0.1,-0.6 -0.1,-0.7 -0.1,-0.6 -0.1,-0.7 -0.1,-0.6 -0.1,-0.7 0,-0.6 -0.1,-0.7 -0.1,-0.7 -0.1,-0.6 -0.1,-0.7 -0.1,-0.7 0,-0.7 -0.1,-0.7 -0.1,-0.7 -0.1,-0.7 -0.1,-0.7 0,-0.7 -0.1,-0.7 -0.1,-0.8 -0.1,-0.7 0,-0.7 -0.1,-0.8 -0.1,-0.7 0,-0.8 -0.1,-0.7 -0.1,-0.8 0,-0.7 -0.1,-0.8 -0.1,-0.8 0,-0.7 -0.1,-0.8 -0.1,-0.8 0,-0.8 -0.1,-0.8 0,-0.8 -0.1,-0.8 -0.1,-0.8 0,-0.8 -0.1,-0.8 0,-0.8 -0.1,-0.8 0,-0.8 -0.1,-0.8 0,-0.9 -0.1,-0.8 0,-0.8 -0.1,-0.8 0,-0.9 -0.1,-0.8 0,-0.9 -0.1,-0.8 0,-0.9 0,-0.8 -0.1,-0.9 0,-0.8 -0.1,-0.9 0,-0.8 0,-0.9 -0.1,-0.9 0,-0.8 0,-0.9 -0.1,-0.9 0,-0.8 0,-0.9 0,-0.9 -0.1,-0.9 0,-0.9 0,-0.8 0,-0.9 -0.1,-0.9 0,-0.9 0,-0.9 0,-0.9 0,-0.9 -0.1,-0.9 0,-0.9 0,-0.9 0,-0.9 0,-0.8 0,-0.9 0,-0.9 0,-0.9 -0.1,-0.9 0,-0.9 0,-0.9 0,-0.9 0,-0.9 0,-1 0,-0.9 0,-0.9 0,-0.9 0,-0.9 0,-0.9 0,-0.9 0,-0.9 0,-0.9 0.1,-0.9 0,-0.9 0,-0.9 0,-0.9 0,-0.9 0,-0.9 0,-0.9 0,-0.9 0.1,-0.9 0,-0.9 0,-0.9 0,-0.9 0,-0.9 0.1,-0.8 0,-0.9 0,-0.9 0,-0.9 0.1,-0.9 0,-0.9 0,-0.9 0,-0.9 0.1,-0.8 0,-0.9 0,-0.9 0.1,-0.9 0,-0.8 0,-0.9 0.1,-0.9 0,-0.8 0.1,-0.9 0,-0.9 0,-0.8 0.1,-0.9 0,-0.8 0.1,-0.9 0,-0.8 0.1,-0.9 0,-0.8 0.1,-0.9 0,-0.8 0.1,-0.8 0,-0.9 0.1,-0.8 0,-0.8 0.1,-0.8 0,-0.9 0.1,-0.8 0,-0.8 0.1,-0.8 0.1,-0.8 0,-0.8 0.1,-0.8 0.1,-0.8 0,-0.8 0.1,-0.8 0,-0.8 0.1,-0.7 0.1,-0.8 0.1,-0.8 0,-0.7 0.1,-0.8 0.1,-0.8 0,-0.7 0.1,-0.8 0.1,-0.7 0.1,-0.8 0,-0.7 0.1,-0.7 0.1,-0.8 0.1,-0.7 0,-0.7 0.1,-0.7 0.1,-0.7 0.1,-0.7 0.1,-0.7 0.1,-0.7 0,-0.7 0.1,-0.7 0.1,-0.7 0.1,-0.6 0.1,-0.7 0.1,-0.7 0.1,-0.6 0.1,-0.7 0.1,-0.6 0,-0.6 0.1,-0.7 0.1,-0.6 0.1,-0.6 0.1,-0.6 0.1,-0.7 0.1,-0.6 0.1,-0.6 0.1,-0.6 0.1,-0.5 0.1,-0.6 0.1,-0.6 0.1,-0.6 0.1,-0.5 0.1,-0.6 0.1,-0.5 0.1,-0.6 0.1,-0.5 0.1,-0.6 0.1,-0.5 0.1,-0.5 0.1,-0.5 0.1,-0.5 0.2,-0.5 0.1,-0.5 0.1,-0.5 0.1,-0.5 0.1,-0.5 0.1,-0.4 0.1,-0.5 0.1,-0.4 0.1,-0.5 0.2,-0.4 0.1,-0.4 0.1,-0.5 0.1,-0.4 0.1,-0.4 0.1,-0.4 0.1,-0.4 0.2,-0.4 0.1,-0.4 0.1,-0.4 0.1,-0.3 0.1,-0.4 0.1,-0.3 0.2,-0.4 0.1,-0.3 0.1,-0.4 0.1,-0.3 0.1,-0.3 0.2,-0.3 0.1,-0.3 0.1,-0.3 0.1,-0.3 0.2,-0.3 0.1,-0.2 0.1,-0.3 0.1,-0.3 0.1,-0.2 0.2,-0.3 0.1,-0.2 0.1,-0.2 0.1,-0.2 0.2,-0.3 0.1,-0.2 0.1,-0.2 0.1,-0.2 0.2,-0.1 0.1,-0.2 0.1,-0.2 0.2,-0.1 0.1,-0.2 0.1,-0.1 0.1,-0.2 0.2,-0.1 0.1,-0.1 0.1,-0.1 0.1,-0.1 0.2,-0.1 0.1,-0.1 0.1,-0.1 0.1,-0.1 0.2,0 0.1,-0.1 0.1,0 0.2,-0.1 0.1,0 0.1,0 0.1,0 0.2,-0.1 0.1,0 0.1,0.1 0.2,0 0.1,0 0.1,0 0.1,0.1 0.2,0 0.1,0.1 0.1,0 0.2,0.1 0.1,0.1 0.1,0 0.1,0.1 0.2,0.1 0.1,0.2 0.1,0.1 0.1,0.1 0.2,0.1 0.1,0.2 0.1,0.1 0.1,0.2 0.2,0.1 0.1,0.2 0.1,0.2 0.1,0.2 0.2,0.2 0.1,0.2 0.1,0.2 0.1,0.2 0.2,0.2 0.1,0.2 0.1,0.3 0.1,0.2 0.2,0.3 0.1,0.2 0.1,0.3 0.1,0.3 0.1,0.3 0.2,0.3 0.1,0.3 0.1,0.3 0.1,0.3 0.1,0.3 0.2,0.3 0.1,0.4 0.1,0.3 0.1,0.4 0.1,0.3 0.1,0.4 0.2,0.4 0.1,0.4 0.1,0.3 0.1,0.4 0.1,0.4 0.1,0.4 0.1,0.5 0.1,0.4 0.2,0.4 0.1,0.5 0.1,0.4 0.1,0.4 0.1,0.5 0.1,0.5 0.1,0.4 0.1,0.5 0.1,0.5 0.1,0.5 0.1,0.5 0.1,0.5 0.2,0.5 0.1,0.5 0.1,0.5 0.1,0.6 0.1,0.5 0.1,0.5 0.1,0.6 0.1,0.5 0.1,0.6 0.1,0.6 0.1,0.6 0.1,0.5 0,0.6 0.1,0.6 0.1,0.6 0.1,0.6 0.1,0.6 0.1,0.6 0.1,0.7 0.1,0.6 0.1,0.6 0.1,0.6 0.1,0.7 0.1,0.6 0,0.7 0.1,0.7 0.1,0.6 0.1,0.7 0.1,0.7 0.1,0.6 0,0.7 0.1,0.7 0.1,0.7 0.1,0.7 0.1,0.7 0,0.7 0.1,0.7 0.1,0.8 0.1,0.7 0,0.7 0.1,0.8 0.1,0.7 0,0.7 0.1,0.8 0.1,0.7 0.1,0.8 0,0.8 0.1,0.7 0.1,0.8 0,0.8 0.1,0.7 0,0.8 0.1,0.8 0.1,0.8 0,0.8 0.1,0.8 0,0.8 0.1,0.8 0,0.8 0.1,0.8 0.1,0.8 0,0.8 0.1,0.9 0,0.8 0.1,0.8 0,0.8 0.1,0.9 0,0.8 0,0.8 0.1,0.9 0,0.8 0.1,0.9 0,0.8 0.1,0.9 0,0.8 0,0.9 0.1,0.9 0,0.8 0,0.9 0.1,0.9 0,0.8 0,0.9 0.1,0.9 0,0.9 0,0.8 0,0.9 0.1,0.9 0,0.9 0,0.9 0,0.8 0.1,0.9 0,0.9 0,0.9 0,0.9 0,0.9 0.1,0.9 0,0.9 0,0.9 0,0.9 0,0.9 0,0.9 0,0.9 0,0.9 0,0.9 0,0.9 0,0.9 0.1,0.9 0,0.9 0,0.9"
       id="path328"
       inkscape:connector-curvature="0" />
    <path
       style="color:#ff0000;fill:#0000ff;fill-opacity:0.25098039;stroke:none"
       d="m 176.2,153.1 0,0.6 0,0.6 0,0.7 0,0.6 0,0.6 0,0.6 0,0.7 0,0.6 -0.1,0.6 0,0.7 0,0.6 0,0.6 0,0.7 0,0.6 0,0.6 -0.1,0.7 0,0.6 0,0.6 0,0.7 -0.1,0.6 0,0.6 0,0.7 0,0.6 -0.1,0.6 0,0.7 0,0.6 -0.1,0.7 0,0.6 0,0.6 -0.1,0.7 0,0.6 0,0.6 -0.1,0.7 0,0.6 -0.1,0.6 0,0.7 -0.1,0.6 0,0.6 -0.1,0.7 0,0.6 -0.1,0.6 0,0.7 -0.1,0.6 0,0.6 -0.1,0.6 0,0.7 -0.1,0.6 -0.1,0.6 0,0.6 -0.1,0.7 -0.1,0.6 0,0.6 -0.1,0.6 -0.1,0.6 0,0.7 -0.1,0.6 -0.1,0.6 0,0.6 -0.1,0.6 -0.1,0.6 -0.1,0.6 -0.1,0.6 0,0.6 -0.1,0.6 -0.1,0.6 -0.1,0.6 -0.1,0.6 0,0.6 -0.1,0.6 -0.1,0.6 -0.1,0.6 -0.1,0.5 -0.1,0.6 -0.1,0.6 -0.1,0.6 -0.1,0.6 -0.1,0.5 -0.1,0.6 -0.1,0.6 -0.1,0.5 -0.1,0.6 -0.1,0.6 -0.1,0.5 -0.1,0.6 -0.1,0.5 -0.1,0.6 -0.1,0.5 -0.1,0.6 -0.1,0.5 -0.1,0.5 -0.1,0.6 -0.1,0.5 -0.1,0.5 -0.1,0.6 -0.2,0.5 -0.1,0.5 -0.1,0.5 -0.1,0.5 -0.1,0.5 -0.1,0.5 -0.2,0.5 -0.1,0.5 -0.1,0.5 -0.1,0.5 -0.1,0.5 -0.2,0.5 -0.1,0.5 -0.1,0.5 -0.1,0.4 -0.2,0.5 -0.1,0.5 -0.1,0.4 -0.2,0.5 -0.1,0.4 -0.1,0.5 -0.1,0.4 -0.2,0.5 -0.1,0.4 -0.1,0.5 -0.2,0.4 -0.1,0.4 -0.2,0.4 -0.1,0.5 -0.1,0.4 -0.2,0.4 -0.1,0.4 -0.1,0.4 -0.2,0.4 -0.1,0.4 -0.2,0.4 -0.1,0.3 -0.1,0.4 -0.2,0.4 -0.1,0.4 -0.2,0.3 -0.1,0.4 -0.2,0.4 -0.1,0.3 -0.2,0.4 -0.1,0.3 -0.1,0.3 -0.2,0.4 -0.1,0.3 -0.2,0.3 -0.1,0.3 -0.2,0.4 -0.1,0.3 -0.2,0.3 -0.1,0.3 -0.2,0.3 -0.1,0.3 -0.2,0.2 -0.1,0.3 -0.2,0.3 -0.1,0.3 -0.2,0.2 -0.2,0.3 -0.1,0.2 -0.2,0.3 -0.1,0.2 -0.2,0.3 -0.1,0.2 -0.2,0.2 -0.1,0.3 -0.2,0.2 -0.1,0.2 -0.2,0.2 -0.2,0.2 -0.1,0.2 -0.2,0.2 -0.1,0.2 -0.2,0.2 -0.1,0.1 -0.2,0.2 -0.1,0.2 -0.2,0.1 -0.2,0.2 -0.1,0.1 -0.2,0.2 -0.1,0.1 -0.2,0.2 -0.1,0.1 -0.2,0.1 -0.2,0.1 -0.1,0.1 -0.2,0.1 -0.1,0.1 -0.2,0.1 -0.1,0.1 -0.2,0.1 -0.2,0.1 -0.1,0.1 -0.2,0 -0.1,0.1 -0.2,0 -0.1,0.1 -0.2,0 -0.1,0.1 -0.2,0 -0.2,0 -0.1,0.1 -0.2,0 -0.1,0 -0.2,0 -0.1,0 -0.2,0 -0.1,0 -0.2,0 -0.1,-0.1 -0.2,0 -0.1,0 -0.2,-0.1 -0.1,0 -0.2,0 -0.1,-0.1 -0.2,-0.1 -0.1,0 -0.2,-0.1 -0.1,-0.1 -0.2,-0.1 -0.1,0 -0.2,-0.1 -0.1,-0.1 -0.2,-0.1 -0.1,-0.2 -0.2,-0.1 -0.1,-0.1 -0.2,-0.1 -0.1,-0.1 -0.2,-0.2 -0.1,-0.1 -0.1,-0.2 -0.2,-0.1 -0.1,-0.2 -0.2,-0.2 -0.1,-0.1 -0.1,-0.2 -0.2,-0.2 -0.1,-0.2 -0.2,-0.2 -0.1,-0.1 -0.1,-0.3 -0.2,-0.2 -0.1,-0.2 -0.1,-0.2 -0.2,-0.2 -0.1,-0.2 -0.1,-0.3 -0.2,-0.2 -0.1,-0.2 -0.1,-0.3 -0.1,-0.3 -0.2,-0.2 -0.1,-0.3 -0.1,-0.2 -0.2,-0.3 -0.1,-0.3 -0.1,-0.3 -0.1,-0.3 -0.1,-0.3 -0.2,-0.3 -0.1,-0.3 -0.1,-0.3 -0.1,-0.3 -0.1,-0.3 -0.2,-0.3 -0.1,-0.3 -0.1,-0.4 -0.1,-0.3 -0.1,-0.4 -0.1,-0.3 -0.1,-0.4 -0.1,-0.3 -0.2,-0.4 -0.1,-0.3 -0.1,-0.4 -0.1,-0.4 -0.1,-0.4 -0.1,-0.3 -0.1,-0.4 -0.1,-0.4 -0.1,-0.4 -0.1,-0.4 -0.1,-0.4 -0.1,-0.4 -0.1,-0.4 -0.1,-0.5 -0.1,-0.4 -0.1,-0.4 -0.1,-0.4 -0.1,-0.5 0,-0.4 -0.1,-0.4 -0.1,-0.5 -0.1,-0.4 -0.1,-0.5 -0.1,-0.5 -0.1,-0.4 0,-0.5 -0.1,-0.4 -0.1,-0.5 -0.1,-0.5 -0.1,-0.5 0,-0.5 -0.1,-0.4 -0.1,-0.5 -0.1,-0.5 0,-0.5 -0.1,-0.5 -0.1,-0.5 0,-0.5 -0.1,-0.6 -0.1,-0.5 0,-0.5 -0.1,-0.5 -0.1,-0.5 0,-0.6 -0.1,-0.5 0,-0.5 -0.1,-0.6 0,-0.5 -0.1,-0.5 -0.1,-0.6 0,-0.5 -0.1,-0.6 0,-0.5 0,-0.6 -0.1,-0.6 0,-0.5 -0.1,-0.6 0,-0.6 -0.1,-0.5 0,-0.6 0,-0.6 -0.1,-0.5 0,-0.6 -0.1,-0.6 0,-0.6 0,-0.6 0,-0.6 -0.1,-0.6 0,-0.5 0,-0.6 -0.1,-0.6 0,-0.6 0,-0.6 0,-0.6 0,-0.6 -0.1,-0.6 0,-0.7 0,-0.6 0,-0.6 0,-0.6 0,-0.6 0,-0.6 0,-0.6 0,-0.6 -0.1,-0.7 0,-0.6 0,-0.6 0,-0.6 0,-0.7 0,-0.6 0,-0.6 0,-0.6 0,-0.7 0.1,-0.6 0,-0.6 0,-0.6 0,-0.7 0,-0.6 0,-0.6 0,-0.7 0,-0.6 0.1,-0.6 0,-0.7 0,-0.6 0,-0.6 0,-0.7 0.1,-0.6 0,-0.7 0,-0.6 0,-0.6 0.1,-0.7 0,-0.6 0,-0.6 0.1,-0.7 0,-0.6 0,-0.6 0.1,-0.7 0,-0.6 0.1,-0.7 0,-0.6 0,-0.6 0.1,-0.7 0,-0.6 0.1,-0.6 0,-0.7 0.1,-0.6 0,-0.6 0.1,-0.7 0,-0.6 0.1,-0.6 0,-0.6 0.1,-0.7 0.1,-0.6 0,-0.6 0.1,-0.6 0,-0.7 0.1,-0.6 0.1,-0.6 0,-0.6 0.1,-0.6 0.1,-0.7 0,-0.6 0.1,-0.6 0.1,-0.6 0.1,-0.6 0,-0.6 0.1,-0.6 0.1,-0.6 0.1,-0.6 0,-0.6 0.1,-0.6 0.1,-0.6 0.1,-0.6 0.1,-0.6 0.1,-0.6 0,-0.6 0.1,-0.6 0.1,-0.6 0.1,-0.6 0.1,-0.6 0.1,-0.5 0.1,-0.6 0.1,-0.6 0.1,-0.6 0.1,-0.5 0.1,-0.6 0.1,-0.6 0.1,-0.5 0.1,-0.6 0.1,-0.5 0.1,-0.6 0.1,-0.5 0.1,-0.6 0.1,-0.5 0.1,-0.6 0.1,-0.5 0.1,-0.6 0.1,-0.5 0.1,-0.5 0.1,-0.6 0.2,-0.5 0.1,-0.5 0.1,-0.5 0.1,-0.5 0.1,-0.6 0.1,-0.5 0.2,-0.5 0.1,-0.5 0.1,-0.5 0.1,-0.5 0.1,-0.5 0.2,-0.4 0.1,-0.5 0.1,-0.5 0.1,-0.5 0.2,-0.5 0.1,-0.4 0.1,-0.5 0.1,-0.5 0.2,-0.4 0.1,-0.5 0.1,-0.4 0.2,-0.5 0.1,-0.4 0.1,-0.4 0.2,-0.5 0.1,-0.4 0.1,-0.4 0.2,-0.5 0.1,-0.4 0.1,-0.4 0.2,-0.4 0.1,-0.4 0.2,-0.4 0.1,-0.4 0.1,-0.4 0.2,-0.4 0.1,-0.4 0.2,-0.4 0.1,-0.3 0.1,-0.4 0.2,-0.4 0.1,-0.3 0.2,-0.4 0.1,-0.3 0.2,-0.4 0.1,-0.3 0.2,-0.4 0.1,-0.3 0.2,-0.3 0.1,-0.3 0.2,-0.4 0.1,-0.3 0.2,-0.3 0.1,-0.3 0.2,-0.3 0.1,-0.3 0.2,-0.3 0.1,-0.3 0.2,-0.2 0.1,-0.3 0.2,-0.3 0.1,-0.3 0.2,-0.2 0.1,-0.3 0.2,-0.2 0.1,-0.3 0.2,-0.2 0.1,-0.2 0.2,-0.3 0.1,-0.2 0.2,-0.2 0.2,-0.2 0.1,-0.2 0.2,-0.2 0.1,-0.2 0.2,-0.2 0.1,-0.2 0.2,-0.2 0.1,-0.2 0.2,-0.1 0.2,-0.2 0.1,-0.2 0.2,-0.1 0.1,-0.2 0.2,-0.1 0.1,-0.1 0.2,-0.2 0.2,-0.1 0.1,-0.1 0.2,-0.1 0.1,-0.2 0.2,-0.1 0.1,-0.1 0.2,-0.1 0.2,0 0.1,-0.1 0.2,-0.1 0.1,-0.1 0.2,0 0.1,-0.1 0.2,-0.1 0.1,0 0.2,-0.1 0.2,0 0.1,0 0.2,-0.1 0.1,0 0.2,0 0.1,0 0.2,0 0.1,0 0.2,0 0.1,0 0.2,0 0.2,0 0.1,0.1 0.2,0 0.1,0 0.2,0.1 0.1,0 0.2,0.1 0.1,0 0.2,0.1 0.1,0.1 0.2,0.1 0.1,0 0.2,0.1 0.1,0.1 0.2,0.1 0.1,0.1 0.1,0.1 0.2,0.1 0.1,0.2 0.2,0.1 0.1,0.1 0.2,0.2 0.1,0.1 0.2,0.2 0.1,0.1 0.1,0.2 0.2,0.1 0.1,0.2 0.2,0.2 0.1,0.2 0.1,0.1 0.2,0.2 0.1,0.2 0.1,0.2 0.2,0.2 0.1,0.2 0.1,0.3 0.2,0.2 0.1,0.2 0.1,0.2 0.2,0.3 0.1,0.2 0.1,0.3 0.2,0.2 0.1,0.3 0.1,0.2 0.1,0.3 0.2,0.3 0.1,0.3 0.1,0.3 0.1,0.2 0.2,0.3 0.1,0.3 0.1,0.3 0.1,0.3 0.1,0.4 0.2,0.3 0.1,0.3 0.1,0.3 0.1,0.4 0.1,0.3 0.1,0.3 0.1,0.4 0.2,0.3 0.1,0.4 0.1,0.3 0.1,0.4 0.1,0.4 0.1,0.4 0.1,0.3 0.1,0.4 0.1,0.4 0.1,0.4 0.1,0.4 0.1,0.4 0.1,0.4 0.1,0.4 0.1,0.4 0.1,0.4 0.1,0.5 0.1,0.4 0.1,0.4 0.1,0.4 0.1,0.5 0,0.4 0.1,0.5 0.1,0.4 0.1,0.5 0.1,0.4 0.1,0.5 0.1,0.5 0,0.4 0.1,0.5 0.1,0.5 0.1,0.5 0.1,0.4 0,0.5 0.1,0.5 0.1,0.5 0,0.5 0.1,0.5 0.1,0.5 0.1,0.5 0,0.5 0.1,0.5 0,0.6 0.1,0.5 0.1,0.5 0,0.5 0.1,0.6 0,0.5 0.1,0.5 0.1,0.6 0,0.5 0.1,0.6 0,0.5 0.1,0.6 0,0.5 0.1,0.6 0,0.5 0.1,0.6 0,0.6 0,0.5 0.1,0.6 0,0.6 0.1,0.5 0,0.6 0,0.6 0.1,0.6 0,0.6 0,0.6 0.1,0.5 0,0.6 0,0.6 0,0.6 0.1,0.6 0,0.6 0,0.6 0,0.6 0.1,0.6 0,0.6 0,0.6 0,0.6 0,0.6 0,0.7 0,0.6 0,0.6 0.1,0.6 0,0.6 0,0.6 0,0.7 0,0.6"
       id="path334"
       inkscape:connector-curvature="0" />
    <path
       style="fill:none;stroke:#0000ff;stroke-width:3;stroke-linecap:butt;stroke-linejoin:miter;stroke-miterlimit:4;stroke-opacity:1;stroke-dasharray:none"
       d="M 331.12883,87.798415 382.65897,254.79422"
       id="path5015"
       inkscape:connector-curvature="0" />
  </g>
  <g
     inkscape:groupmode="layer"
     id="layer2"
     inkscape:label="labels"
     style="display:inline"
     transform="translate(-27.759521,-19.00282)">
    <path
       inkscape:connector-curvature="0"
       d="m 106.56063,323.5025 c 0,4.11625 -3.34,7.45625 -7.46,7.45625 -4.12125,0 -7.46125,-3.34 -7.46125,-7.45625 0,-4.12125 3.34,-7.46125 7.46125,-7.46125 4.12,0 7.46,3.34 7.46,7.46125 z"
       style="color:#000000;fill:#ffffff;fill-opacity:1;fill-rule:evenodd;stroke:#000000;stroke-width:2;stroke-linecap:butt;stroke-linejoin:miter;stroke-miterlimit:4;stroke-opacity:1;stroke-dasharray:none"
       id="path360-07" />
    <path
       inkscape:connector-curvature="0"
       d="m 127.96063,311.5025 c 0,4.11625 -3.34,7.45625 -7.46,7.45625 -4.12125,0 -7.46125,-3.34 -7.46125,-7.45625 0,-4.12125 3.34,-7.46125 7.46125,-7.46125 4.12,0 7.46,3.34 7.46,7.46125 z"
       style="color:#000000;fill:#ffffff;fill-opacity:1;fill-rule:evenodd;stroke:#000000;stroke-width:2;stroke-linecap:butt;stroke-linejoin:miter;stroke-miterlimit:4;stroke-opacity:1;stroke-dasharray:none"
       id="path360-58" />
    <path
       inkscape:connector-curvature="0"
       d="m 133.16063,305.5025 c 0,4.11625 -3.34,7.45625 -7.46,7.45625 -4.12125,0 -7.46125,-3.34 -7.46125,-7.45625 0,-4.12125 3.34,-7.46125 7.46125,-7.46125 4.12,0 7.46,3.34 7.46,7.46125 z"
       style="color:#000000;fill:#ffffff;fill-opacity:1;fill-rule:evenodd;stroke:#000000;stroke-width:2;stroke-linecap:butt;stroke-linejoin:miter;stroke-miterlimit:4;stroke-opacity:1;stroke-dasharray:none"
       id="path360-92" />
    <path
       id="path360-2"
       style="fill:#ffffff;fill-opacity:1;fill-rule:evenodd;stroke:#000000;stroke-width:2;stroke-linecap:butt;stroke-linejoin:miter;stroke-miterlimit:4;stroke-opacity:1;stroke-dasharray:none"
       d="m 168.76063,262.8025 c 0,4.11625 -3.34,7.45625 -7.46,7.45625 -4.12125,0 -7.46125,-3.34 -7.46125,-7.45625 0,-4.12125 3.34,-7.46125 7.46125,-7.46125 4.12,0 7.46,3.34 7.46,7.46125 z"
       inkscape:connector-curvature="0" />
    <path
       id="path360-0"
       style="fill:#ffffff;fill-opacity:1;fill-rule:evenodd;stroke:#000000;stroke-width:2;stroke-linecap:butt;stroke-linejoin:miter;stroke-miterlimit:4;stroke-opacity:1;stroke-dasharray:none"
       d="m 389.76062,254.5025 c 0,4.11625 -3.34,7.45625 -7.46,7.45625 -4.12125,0 -7.46125,-3.34 -7.46125,-7.45625 0,-4.12125 3.34,-7.46125 7.46125,-7.46125 4.12,0 7.46,3.34 7.46,7.46125 z"
       inkscape:connector-curvature="0" />
    <path
       id="path360-8"
       style="fill:#ffffff;fill-opacity:1;fill-rule:evenodd;stroke:#000000;stroke-width:2;stroke-linecap:butt;stroke-linejoin:miter;stroke-miterlimit:4;stroke-opacity:1;stroke-dasharray:none"
       d="m 367.56063,195.3025 c 0,4.11625 -3.34001,7.45625 -7.46001,7.45625 -4.12125,0 -7.46125,-3.34 -7.46125,-7.45625 0,-4.12125 3.34,-7.46125 7.46125,-7.46125 4.12,0 7.46001,3.34 7.46001,7.46125 z"
       inkscape:connector-curvature="0" />
    <path
       id="path360-25"
       style="fill:#ffffff;fill-opacity:1;fill-rule:evenodd;stroke:#000000;stroke-width:2;stroke-linecap:butt;stroke-linejoin:miter;stroke-miterlimit:4;stroke-opacity:1;stroke-dasharray:none"
       d="m 165.06062,180.3025 c 0,4.11625 -3.34,7.45625 -7.46,7.45625 -4.12125,0 -7.46125,-3.34 -7.46125,-7.45625 0,-4.12125 3.34,-7.46125 7.46125,-7.46125 4.12,0 7.46,3.34 7.46,7.46125 z"
       inkscape:connector-curvature="0" />
    <path
       id="path360-3"
       style="fill:#ffffff;fill-opacity:1;fill-rule:evenodd;stroke:#000000;stroke-width:2;stroke-linecap:butt;stroke-linejoin:miter;stroke-miterlimit:4;stroke-opacity:1;stroke-dasharray:none"
       d="m 338.16062,88.0025 c 0,4.11625 -3.34,7.45625 -7.46,7.45625 -4.12125,0 -7.46125,-3.34 -7.46125,-7.45625 0,-4.12125 3.34001,-7.46125 7.46125,-7.46125 4.12,0 7.46,3.34 7.46,7.46125 z"
       inkscape:connector-curvature="0" />
    <text
       style="font-size:17.5px;text-anchor:start;color:#000000;fill:#000000;fill-opacity:1;stroke:none;font-family:Arial"
       id="text230"
       x="300.41019"
       y="205.79689">Vegas</text>
    <text
       style="font-size:17.5px;text-anchor:start;color:#000000;fill:#000000;fill-opacity:1;stroke:none;font-family:Arial"
       id="text242"
       x="89.621262"
       y="348.54053">Cubic</text>
    <text
       style="font-size:17.5px;text-anchor:start;color:#000000;fill:#000000;fill-opacity:1;stroke:none;font-family:Arial"
       id="text254"
       x="336.44699"
       y="259.74844">XCP</text>
    <text
       style="font-size:17.5px;text-anchor:start;color:#000000;fill:#000000;fill-opacity:1;stroke:none;font-family:Arial"
       id="text266"
       x="135.50494"
       y="311.14536">Compound</text>
    <text
       style="font-size:17.5px;text-anchor:start;color:#000000;fill:#000000;fill-opacity:1;stroke:none;font-family:Arial"
       id="text272"
       x="123.39373"
       y="332.61111">NewReno</text>
    <text
       xml:space="preserve"
       style="font-size:20px;font-style:normal;font-variant:normal;font-weight:normal;font-stretch:normal;text-align:start;line-height:100%;letter-spacing:0px;word-spacing:0px;writing-mode:lr-tb;text-anchor:start;fill:#000000;fill-opacity:1;stroke:none;font-family:FreeSerif;-inkscape-font-specification:FreeSerif"
       x="233.79413"
       y="166.52501"
       id="text4633"
       sodipodi:linespacing="100%"><tspan
         sodipodi:role="line"
         id="tspan4635"
         x="233.79413"
         y="166.52501"></tspan></text>
    <text
       style="font-size:17.5px;text-anchor:start;color:#000000;fill:#000000;fill-opacity:1;stroke:none;display:inline;font-family:Arial"
       id="text260"
       x="271.19177"
       y="85.828659">Cubic</text>
    <text
       style="font-size:17.5px;text-anchor:start;color:#000000;fill:#000000;fill-opacity:1;stroke:none;display:inline;font-family:Arial"
       id="text260-5"
       x="271.19177"
       y="100.38649">CoDel</text>
    <text
       style="font-size:17.5px;text-anchor:start;color:#000000;fill:#000000;fill-opacity:1;stroke:none;display:inline;font-family:Arial"
       id="text248"
       x="168.80658"
       y="167.3743">Remy</text>
    <text
       style="font-size:17.5px;text-anchor:start;color:#000000;fill:#000000;fill-opacity:1;stroke:none;display:inline;font-family:Arial"
       id="text248-4"
       x="169.56708"
       y="183.71452">=0.1</text>
    <g
       transform="translate(-349.24547,29.028294)"
       style="display:inline"
       id="g3661">
      <g
         id="g3657">
        <text
           style="font-size:17.5px;text-anchor:start;color:#000000;fill:#000000;fill-opacity:1;stroke:none;font-family:Arial"
           id="text272-9"
           x="518.52917"
           y="215.04105">Remy</text>
        <text
           style="font-size:17.5px;text-anchor:start;color:#000000;fill:#000000;fill-opacity:1;stroke:none;display:inline;font-family:Arial"
           id="text248-4-7"
           x="519.28967"
           y="231.63588">=1</text>
      </g>
    </g>
  </g>
</svg>
