<?xml version="1.0" encoding="UTF-8" standalone="no"?>
<svg
   xmlns:dc="http://purl.org/dc/elements/1.1/"
   xmlns:cc="http://creativecommons.org/ns#"
   xmlns:rdf="http://www.w3.org/1999/02/22-rdf-syntax-ns#"
   xmlns:svg="http://www.w3.org/2000/svg"
   xmlns="http://www.w3.org/2000/svg"
   xmlns:xlink="http://www.w3.org/1999/xlink"
   xmlns:sodipodi="http://sodipodi.sourceforge.net/DTD/sodipodi-0.dtd"
   xmlns:inkscape="http://www.inkscape.org/namespaces/inkscape"
   width="562.8125"
   height="256.84424"
   viewBox="0 0 562.81249 256.84423"
   id="svg4237"
   version="1.1"
   inkscape:version="0.48.4 r9939"
   sodipodi:docname="VerizonLTE-Downlink-minus1.pdf">
  <metadata
     id="metadata4449">
    <rdf:RDF>
      <cc:Work
         rdf:about="">
        <dc:format>image/svg+xml</dc:format>
        <dc:type
           rdf:resource="http://purl.org/dc/dcmitype/StillImage" />
        <dc:title>Gnuplot</dc:title>
      </cc:Work>
    </rdf:RDF>
  </metadata>
  <defs
     id="defs4447">
    <defs
       id="defs4246">
      <circle
         r="0.5"
         id="gpDot"
         cx="0"
         cy="0"
         sodipodi:cx="0"
         sodipodi:cy="0"
         sodipodi:rx="0.5"
         sodipodi:ry="0.5"
         style="stroke-width:0.5" />
      <path
         d="M -1,0 H 1 M 0,-1 v 2"
         id="gpPt0"
         inkscape:connector-curvature="0"
         style="stroke:currentColor;stroke-width:0.222" />
      <path
         d="M -1,-1 1,1 M 1,-1 -1,1"
         id="gpPt1"
         inkscape:connector-curvature="0"
         style="stroke:currentColor;stroke-width:0.222" />
      <path
         d="M -1,0 1,0 M 0,-1 0,1 m -1,-2 2,2 m -2,0 2,-2"
         id="gpPt2"
         inkscape:connector-curvature="0"
         style="stroke:currentColor;stroke-width:0.222" />
      <rect
         height="2"
         width="2"
         y="-1"
         x="-1"
         id="gpPt3"
         style="stroke:currentColor;stroke-width:0.222" />
      <rect
         height="2"
         width="2"
         y="-1"
         x="-1"
         id="gpPt4"
         style="fill:currentColor;stroke:currentColor;stroke-width:0.222" />
      <circle
         r="1"
         cy="0"
         cx="0"
         id="gpPt5"
         sodipodi:cx="0"
         sodipodi:cy="0"
         sodipodi:rx="1"
         sodipodi:ry="1"
         style="stroke:currentColor;stroke-width:0.222" />
      <use
         id="gpPt6"
         xlink:href="#gpPt5"
         style="fill:currentColor;stroke:none"
         x="0"
         y="0"
         width="600"
         height="480" />
      <path
         d="m 0,-1.33 -1.33,2 2.66,0 z"
         id="gpPt7"
         inkscape:connector-curvature="0"
         style="stroke:currentColor;stroke-width:0.222" />
      <use
         id="gpPt8"
         xlink:href="#gpPt7"
         style="fill:currentColor;stroke:none"
         x="0"
         y="0"
         width="600"
         height="480" />
      <use
         transform="scale(-1,-1)"
         id="gpPt9"
         xlink:href="#gpPt7"
         style="stroke:currentColor"
         x="0"
         y="0"
         width="600"
         height="480" />
      <use
         id="gpPt10"
         xlink:href="#gpPt9"
         style="fill:currentColor;stroke:none"
         x="0"
         y="0"
         width="600"
         height="480" />
      <use
         transform="matrix(0.70710678,0.70710678,-0.70710678,0.70710678,0,0)"
         id="gpPt11"
         xlink:href="#gpPt3"
         style="stroke:currentColor"
         x="0"
         y="0"
         width="600"
         height="480" />
      <use
         id="gpPt12"
         xlink:href="#gpPt11"
         style="fill:currentColor;stroke:none"
         x="0"
         y="0"
         width="600"
         height="480" />
    </defs>
    <marker
       inkscape:stockid="Arrow1Lend"
       orient="auto"
       refY="0"
       refX="0"
       id="Arrow1Lend"
       style="overflow:visible">
      <path
         id="path36174"
         d="M 0,0 5,-5 -12.5,0 5,5 0,0 z"
         style="fill-rule:evenodd;stroke:#000000;stroke-width:1pt"
         transform="matrix(-0.8,0,0,-0.8,-10,0)"
         inkscape:connector-curvature="0" />
    </marker>
  </defs>
  <sodipodi:namedview
     pagecolor="#ffffff"
     bordercolor="#666666"
     borderopacity="1"
     objecttolerance="10"
     gridtolerance="10"
     guidetolerance="10"
     inkscape:pageopacity="0"
     inkscape:pageshadow="2"
     inkscape:window-width="1154"
     inkscape:window-height="680"
     id="namedview4445"
     showgrid="false"
     inkscape:zoom="1.08125"
     inkscape:cx="303.7315"
     inkscape:cy="180.65674"
     inkscape:window-x="1933"
     inkscape:window-y="46"
     inkscape:window-maximized="0"
     inkscape:current-layer="svg4237"
     fit-margin-top="0"
     fit-margin-left="0"
     fit-margin-right="0"
     fit-margin-bottom="0" />
  <title
     id="title4239">Gnuplot</title>
  <desc
     id="desc4241">Produced by GNUPLOT 4.6 patchlevel 0 </desc>
  <rect
     style="fill:none"
     id="rect4244"
     height="480"
     width="600"
     y="-167.8125"
     x="-12.67959" />
  <path
     style="color:#000000;fill:none;stroke:currentColor;stroke-width:1;stroke-linecap:butt;stroke-linejoin:miter"
     d="m 67.52041,204.1875 9,0 m 485.8,0 -9,0 h 0.01"
     id="path4266"
     inkscape:connector-curvature="0" />
  <text
     style="font-size:15px;text-anchor:end;color:#000000;fill:#000000;stroke:none;font-family:Arial"
     id="text4270"
     xml:space="preserve"
     x="59.220413"
     y="208.6875">   0</text>
  <path
     style="color:#000000;fill:none;stroke:currentColor;stroke-width:1;stroke-linecap:butt;stroke-linejoin:miter"
     d="m 67.52041,171.1875 9,0 m 485.8,0 -9,0 h 0.01"
     id="path4272"
     inkscape:connector-curvature="0" />
  <text
     style="font-size:15px;text-anchor:end;color:#000000;fill:#000000;stroke:none;font-family:Arial"
     id="text4276"
     x="59.220413"
     y="175.6875">1000</text>
  <path
     style="color:#000000;fill:none;stroke:currentColor;stroke-width:1;stroke-linecap:butt;stroke-linejoin:miter"
     d="m 67.52041,138.1875 9,0 m 485.8,0 -9,0 h 0.01"
     id="path4278"
     inkscape:connector-curvature="0" />
  <text
     style="font-size:15px;text-anchor:end;color:#000000;fill:#000000;stroke:none;font-family:Arial"
     id="text4282"
     x="59.220413"
     y="142.6875">2000</text>
  <path
     style="color:#000000;fill:none;stroke:currentColor;stroke-width:1;stroke-linecap:butt;stroke-linejoin:miter"
     d="m 67.52041,105.1875 9,0 m 485.8,0 -9,0 h 0.01"
     id="path4284"
     inkscape:connector-curvature="0" />
  <text
     style="font-size:15px;text-anchor:end;color:#000000;fill:#000000;stroke:none;font-family:Arial"
     id="text4288"
     x="59.220413"
     y="109.68751">3000</text>
  <path
     style="color:#000000;fill:none;stroke:currentColor;stroke-width:1;stroke-linecap:butt;stroke-linejoin:miter"
     d="m 67.52041,72.187502 9,0 m 485.8,0 -9,0 h 0.01"
     id="path4290"
     inkscape:connector-curvature="0" />
  <text
     style="font-size:15px;text-anchor:end;color:#000000;fill:#000000;stroke:none;font-family:Arial"
     id="text4294"
     x="59.220413"
     y="76.687508">4000</text>
  <path
     style="color:#000000;fill:none;stroke:currentColor;stroke-width:1;stroke-linecap:butt;stroke-linejoin:miter"
     d="m 67.52041,39.187502 9,0 m 485.8,0 -9,0 h 0.01"
     id="path4296"
     inkscape:connector-curvature="0" />
  <text
     style="font-size:15px;text-anchor:end;color:#000000;fill:#000000;stroke:none;font-family:Arial"
     id="text4300"
     x="59.220413"
     y="43.687508">5000</text>
  <path
     style="color:#000000;fill:none;stroke:currentColor;stroke-width:1;stroke-linecap:butt;stroke-linejoin:miter"
     d="m 67.52041,6.1875019 9,0 m 485.8,0 -9,0 h 0.01"
     id="path4302"
     inkscape:connector-curvature="0" />
  <path
     style="color:#000000;fill:none;stroke:currentColor;stroke-width:1;stroke-linecap:butt;stroke-linejoin:miter"
     d="m 67.52041,-26.712493 9,0 m 485.8,0 -9,0 h 0.01"
     id="path4308"
     inkscape:connector-curvature="0" />
  <path
     style="color:#000000;fill:none;stroke:currentColor;stroke-width:1;stroke-linecap:butt;stroke-linejoin:miter"
     d="m 67.52041,-59.712493 9,0 m 485.8,0 -9,0 h 0.01"
     id="path4314"
     inkscape:connector-curvature="0" />
  <path
     style="color:#000000;fill:none;stroke:currentColor;stroke-width:1;stroke-linecap:butt;stroke-linejoin:miter"
     d="m 514.12041,204.1875 0,-9 m 0,-258.499993 0,9 h 0.01"
     id="path4320"
     inkscape:connector-curvature="0" />
  <text
     style="font-size:15px;text-anchor:middle;color:#000000;fill:#000000;stroke:none;font-family:Arial"
     id="text4324"
     x="514.12042"
     y="226.6875">100</text>
  <path
     style="color:#000000;fill:none;stroke:currentColor;stroke-width:1;stroke-linecap:butt;stroke-linejoin:miter"
     d="m 444.12041,204.1875 0,-9 m 0,-258.499993 0,9 h 0.01"
     id="path4326"
     inkscape:connector-curvature="0" />
  <text
     style="font-size:15px;text-anchor:middle;color:#000000;fill:#000000;stroke:none;font-family:Arial"
     id="text4330"
     x="444.12039"
     y="226.6875">200</text>
  <path
     style="color:#000000;fill:none;stroke:currentColor;stroke-width:1;stroke-linecap:butt;stroke-linejoin:miter"
     d="m 403.12041,204.1875 0,-9 m 0,-258.499993 0,9 h 0.01"
     id="path4332"
     inkscape:connector-curvature="0" />
  <text
     style="font-size:15px;text-anchor:middle;color:#000000;fill:#000000;stroke:none;font-family:Arial"
     id="text4336"
     x="403.12039"
     y="226.6875">300</text>
  <path
     style="color:#000000;fill:none;stroke:currentColor;stroke-width:1;stroke-linecap:butt;stroke-linejoin:miter"
     d="m 351.52041,204.1875 0,-9 m 0,-258.499993 0,9 h 0.01"
     id="path4338"
     inkscape:connector-curvature="0" />
  <text
     style="font-size:15px;text-anchor:middle;color:#000000;fill:#000000;stroke:none;font-family:Arial"
     id="text4342"
     x="351.52042"
     y="226.6875">500</text>
  <path
     style="color:#000000;fill:none;stroke:currentColor;stroke-width:1;stroke-linecap:butt;stroke-linejoin:miter"
     d="m 281.52041,204.1875 0,-9 m 0,-258.499993 0,9 h 0.01"
     id="path4344"
     inkscape:connector-curvature="0" />
  <text
     style="font-size:15px;text-anchor:middle;color:#000000;fill:#000000;stroke:none;font-family:Arial"
     id="text4348"
     x="281.52042"
     y="226.6875">1000</text>
  <path
     style="color:#000000;fill:none;stroke:currentColor;stroke-width:1;stroke-linecap:butt;stroke-linejoin:miter"
     d="m 211.52041,204.1875 0,-9 m 0,-258.499993 0,9 h 0.01"
     id="path4350"
     inkscape:connector-curvature="0" />
  <text
     style="font-size:15px;text-anchor:middle;color:#000000;fill:#000000;stroke:none;font-family:Arial"
     id="text4354"
     x="211.5204"
     y="226.6875">2000</text>
  <path
     style="color:#000000;fill:none;stroke:currentColor;stroke-width:1;stroke-linecap:butt;stroke-linejoin:miter"
     d="m 170.62041,204.1875 0,-9 m 0,-258.499993 0,9 h 0.01"
     id="path4356"
     inkscape:connector-curvature="0" />
  <path
     style="color:#000000;fill:none;stroke:currentColor;stroke-width:1;stroke-linecap:butt;stroke-linejoin:miter"
     d="m 119.02041,204.1875 0,-9 m 0,-258.499993 0,9 h 0.01"
     id="path4362"
     inkscape:connector-curvature="0" />
  <text
     style="font-size:15px;text-anchor:middle;color:#000000;fill:#000000;stroke:none;font-family:Arial"
     id="text4366"
     x="119.02041"
     y="226.6875">5000</text>
  <path
     style="color:#000000;fill:none;stroke:currentColor;stroke-width:1;stroke-linecap:butt;stroke-linejoin:miter"
     d="m 67.52041,-63.312493 0,267.499993 494.8,0 0,-267.499993 -494.8,0 z m 0,0 h 0.01"
     id="path4368"
     inkscape:connector-curvature="0" />
  <text
     style="font-size:15px;text-anchor:middle;color:#000000;fill:#000000;stroke:none;font-family:Arial"
     id="text4372"
     transform="matrix(0,-1,1,0,0,0)"
     x="-100.48751"
     y="16.92041">Throughput (kbps)</text>
  <text
     style="font-size:15px;text-anchor:middle;color:#000000;fill:#000000;stroke:none;font-family:Arial"
     id="text4376"
     x="314.92041"
     y="249.6875">Self-inflicted delay (ms)</text>
  <text
     style="font-size:15px;text-anchor:start;color:#000000;fill:#008000;stroke:none;font-family:Arial"
     id="text4390"
     x="394.42041"
     y="136.28751">\color{ForestGreen}Compound TCP</text>
  <use
     xlink:href="#gpPt1"
     transform="matrix(4.5,0,0,4.5,387.92041,136.2875)"
     id="use4392"
     style="color:#008000;fill:none;stroke:currentColor;stroke-width:1;stroke-linecap:butt;stroke-linejoin:miter"
     x="0"
     y="0"
     width="600"
     height="480" />
  <text
     style="font-size:15px;text-anchor:start;color:#000000;fill:#008000;stroke:none;font-family:Arial"
     id="text4396"
     x="339.42041"
     y="103.88752">\color{ForestGreen}LEDBAT</text>
  <use
     xlink:href="#gpPt1"
     transform="matrix(4.5,0,0,4.5,398.92041,103.8875)"
     id="use4398"
     style="color:#008000;fill:none;stroke:currentColor;stroke-width:1;stroke-linecap:butt;stroke-linejoin:miter"
     x="0"
     y="0"
     width="600"
     height="480" />
  <text
     style="font-size:15px;text-anchor:start;color:#000000;fill:#ff9900;stroke:none;font-family:Arial"
     id="text4402"
     x="83.620415"
     y="15.48751">\color{Orange}Cubic</text>
  <use
     xlink:href="#gpPt6"
     transform="matrix(4.5,0,0,4.5,77.12041,15.487502)"
     id="use4404"
     style="color:#ff9900;fill:none;stroke:currentColor;stroke-width:1;stroke-linecap:butt;stroke-linejoin:miter"
     x="0"
     y="0"
     width="600"
     height="480" />
  <text
     style="font-size:15px;text-anchor:start;color:#000000;fill:#ff0000;stroke:none;font-family:Arial"
     id="text4408"
     x="273.12039"
     y="172.98749">\color{red}Skype</text>
  <use
     xlink:href="#gpPt0"
     transform="matrix(4.5,0,0,4.5,266.62041,172.9875)"
     id="use4410"
     style="color:#ff0000;fill:none;stroke:currentColor;stroke-width:1;stroke-linecap:butt;stroke-linejoin:miter"
     x="0"
     y="0"
     width="600"
     height="480" />
  <text
     style="font-size:15px;text-anchor:start;color:#000000;fill:#ff0000;stroke:none;font-family:Arial"
     id="text4414"
     x="176.03981"
     y="167.28751">\color{red}Facetime</text>
  <use
     xlink:href="#gpPt0"
     transform="matrix(4.5,0,0,4.5,232.82041,167.2875)"
     id="use4416"
     style="color:#ff0000;fill:none;stroke:currentColor;stroke-width:1;stroke-linecap:butt;stroke-linejoin:miter"
     x="0"
     y="0"
     width="600"
     height="480" />
  <text
     style="font-size:15px;text-anchor:start;color:#000000;fill:#ff0000;stroke:none;font-family:Arial"
     id="text4420"
     x="388.12039"
     y="188.98749">\color{red}Google Hangout</text>
  <use
     xlink:href="#gpPt0"
     transform="matrix(4.5,0,0,4.5,383.62041,188.9875)"
     id="use4422"
     style="color:#ff0000;fill:none;stroke:currentColor;stroke-width:1;stroke-linecap:butt;stroke-linejoin:miter"
     x="0"
     y="0"
     width="600"
     height="480" />
  <text
     style="font-size:15px;text-anchor:start;color:#000000;fill:#008000;stroke:none;font-family:Arial"
     id="text4426"
     x="441.3204"
     y="112.68751">\color{ForestGreen}Vegas</text>
  <use
     xlink:href="#gpPt1"
     transform="matrix(4.5,0,0,4.5,436.82041,112.6875)"
     id="use4428"
     style="color:#008000;fill:none;stroke:currentColor;stroke-width:1;stroke-linecap:butt;stroke-linejoin:miter"
     x="0"
     y="0"
     width="600"
     height="480" />
  <text
     style="font-size:15px;text-anchor:start;color:#000000;fill:#0000ff;stroke:none;font-family:Arial"
     id="text4432"
     x="430.42041"
     y="37.787514">\color{blue}\bf This work (Sprout)</text>
  <use
     xlink:href="#gpPt2"
     transform="matrix(4.5,0,0,4.5,545.92041,47.787502)"
     id="use4434"
     style="color:#0000ff;fill:none;stroke:currentColor;stroke-width:1;stroke-linecap:butt;stroke-linejoin:miter"
     x="0"
     y="0"
     width="600"
     height="480" />
  <path
     style="color:#000000;fill:none;stroke:currentColor;stroke-width:1;stroke-linecap:butt;stroke-linejoin:miter"
     d="m 67.52041,-18.919428 0,223.106938 494.8,0 0,-223.106938 -494.8,0 z m 0,0 h 0.01"
     id="path4443"
     inkscape:connector-curvature="0" />
  <text
     style="font-size:15px;text-anchor:end;color:#000000;fill:#000000;stroke:none;font-family:Arial"
     id="text4306"
     x="59.220413"
     y="10.687499">6000</text>
  <g
     transform="matrix(1.25,0,0,-1.25,-141.07537,361.00687)"
     id="g6844"
     style="display:inline">
    <g
       id="g6066"
       transform="matrix(1,0.720364,0.720364,-1,0,362.26022)"
       style="fill:none;stroke:#000000;stroke-width:1.29823089;stroke-miterlimit:4;stroke-opacity:1;stroke-dasharray:0.64911543, 0.64911543;stroke-dashoffset:0">
      <path
         d="m 148.16,228.964 c 0,11.128 -14.617,20.15 -32.643,20.149 -18.028,0.001 -32.644,-9.019 -32.645,-20.15 -0.001,-11.125 14.615,-20.147 32.646,-20.147 18.028,-0.001 32.641,9.022 32.642,20.148 z"
         style="fill:none;stroke:#000000;stroke-width:1.29823089;stroke-linecap:butt;stroke-linejoin:miter;stroke-miterlimit:4;stroke-opacity:1;stroke-dasharray:0.64911543, 0.64911543;stroke-dashoffset:0"
         id="path6068"
         inkscape:connector-curvature="0" />
    </g>
    <g
       id="g6070"
       transform="matrix(1,0,0,-1,0,362.26022)">
      <path
         d="m 293.754,134.156 12.402,-10.144"
         style="fill:none;stroke:#000000;stroke-width:1.60000002;stroke-linecap:butt;stroke-linejoin:miter;stroke-miterlimit:4;stroke-opacity:1;stroke-dasharray:none"
         id="path6072"
         inkscape:connector-curvature="0" />
    </g>
    <g
       id="g6074"
       transform="matrix(-1,-0.817804,-0.817804,1,0,362.26022)">
      <path
         d="m -110.3,-224.344 4.955,-4.956 -17.341,4.955 17.339,4.954 -4.953,-4.953 z"
         style="fill:#000000;fill-opacity:1;fill-rule:evenodd;stroke:#000000;stroke-width:1.23856103;stroke-linecap:butt;stroke-linejoin:miter;stroke-miterlimit:4;stroke-opacity:1;stroke-dasharray:none"
         id="path6076"
         inkscape:connector-curvature="0" />
    </g>
    <text
       transform="matrix(0.76379001,0.6454648,0.6454648,-0.76379001,258.91774,193.86068)"
       id="text6078"
       sodipodi:linespacing="125%"
       style="-inkscape-font-specification:Sans;font-family:Sans;font-weight:normal;font-style:normal;font-stretch:normal;font-variant:normal;font-size:11.99999986px;text-anchor:start;text-align:start;writing-mode:lr;line-height:125%">
      <tspan
         sodipodi:role="line"
         id="tspan7113">\large Better</tspan>
    </text>
  </g>
  <rect
     style="fill:#ffffff;fill-opacity:1;fill-rule:nonzero;stroke:none"
     id="rect7090"
     width="4.9076147"
     height="6.7858377"
     x="65.495453"
     y="-1.0781802"
     transform="translate(0,-1.8588328e-6)" />
  <rect
     style="fill:#ffffff;fill-opacity:1;fill-rule:nonzero;stroke:none"
     id="rect7092"
     width="14.238168"
     height="16.540474"
     x="556.3175"
     y="-10.89341"
     ry="0"
     transform="translate(0,-1.8588328e-6)" />
</svg>
